<svg width="204" height="56" viewBox="0 0 204 56" fill="none" xmlns="http://www.w3.org/2000/svg">
<path fill-rule="evenodd" clip-rule="evenodd" d="M60.0046 40.9595V15.8579H63.232L78.5718 36.0587V15.8579H81.6398V40.9595H78.4125L63.0726 20.5595V40.9595H60.0046Z" fill="#B52E31"/>
<path fill-rule="evenodd" clip-rule="evenodd" d="M106.622 39.9634C104.59 40.7204 102.398 41.1188 100.087 41.1188C91.0031 41.1188 86.4609 36.7759 86.4609 28.0501C86.4609 19.8024 90.8438 15.6587 99.6094 15.6587C102.12 15.6587 104.47 16.0173 106.622 16.6946V19.4837C104.47 18.647 102.239 18.2485 99.968 18.2485C93.1148 18.2485 89.6883 21.5157 89.6883 27.9704C89.6883 34.9431 93.075 38.4095 99.8086 38.4095C100.884 38.4095 102.08 38.2501 103.395 37.9712V29.5642H106.622V39.9634Z" fill="#B52E31"/>
<path fill-rule="evenodd" clip-rule="evenodd" d="M111.802 31.2774V15.8579H115.029V31.2774C115.029 36.0985 117.419 38.529 122.241 38.529C127.022 38.529 129.452 36.0985 129.452 31.2774V15.8579H132.68V31.2774C132.68 37.8517 129.213 41.1587 122.241 41.1587C115.268 41.1587 111.802 37.8517 111.802 31.2774Z" fill="#B52E31"/>
<path fill-rule="evenodd" clip-rule="evenodd" d="M141.684 15.8579V38.3298H154.833V40.9595H138.457V15.8579H141.684Z" fill="#B52E31"/>
<path fill-rule="evenodd" clip-rule="evenodd" d="M159.495 40.9594H156.108L168.579 12.5508L181.05 40.9594H177.464L174.237 33.0703H165.949L166.826 30.4406H173.161L168.459 19.0852L159.495 40.9594Z" fill="#B52E31"/>
<path fill-rule="evenodd" clip-rule="evenodd" d="M184.516 40.9595V15.8579H195.234C200.016 15.8579 202.406 17.8501 202.406 21.8743C202.406 25.1415 200.055 27.572 195.394 29.1259L204 40.9595H199.737L191.768 29.6837V27.572C196.549 26.8149 198.98 24.9821 198.98 22.0337C198.98 19.7228 197.665 18.5673 194.995 18.5673H187.823V40.9595H184.516Z" fill="#B52E31"/>
<path fill-rule="evenodd" clip-rule="evenodd" d="M0 9.16406L25.6992 0L52.0758 9.00469L47.8125 42.9914L25.6992 55.2234L3.94453 43.1508L0 9.16406Z" fill="#E23237"/>
<path fill-rule="evenodd" clip-rule="evenodd" d="M52.0758 9.00469L25.6992 0V55.2234L47.8125 42.9914L52.0758 9.00469Z" fill="#B52E31"/>
<path fill-rule="evenodd" clip-rule="evenodd" d="M25.7391 6.45459L9.72192 42.0749L15.6985 41.9554L18.9258 33.9069H25.7391H33.2297L36.736 42.0351L42.4336 42.1546L25.7391 6.45459ZM25.779 17.8897L31.1977 29.2054H26.018H25.7391H21.0375L25.779 17.8897Z" fill="white"/>
</svg>
