<svg width="66" height="66" viewBox="0 0 66 66" fill="none" xmlns="http://www.w3.org/2000/svg">
<path d="M50.5279 17.0112C49.218 17.0084 48.1916 15.9803 48.1916 14.6696C48.1916 14.3365 48.0799 14.0473 47.8736 13.841C47.6673 13.6346 47.3781 13.523 47.045 13.523C46.7119 13.523 46.4227 13.6346 46.2164 13.841C46.01 14.0473 45.8983 14.3365 45.8983 14.6696C45.8983 16.895 47.3893 18.6218 49.3866 19.1705V20.1511C49.3866 20.4842 49.4983 20.7734 49.7046 20.9798C49.9109 21.1861 50.2001 21.2978 50.5332 21.2978C50.8663 21.2978 51.1555 21.1861 51.3619 20.9798C51.5682 20.7734 51.6799 20.4842 51.6799 20.1511V19.1704C53.6791 18.6177 55.1681 16.7953 55.1681 14.6696C55.1681 12.0952 53.1077 10.0347 50.5332 10.0347C49.2208 10.0347 48.1916 9.00557 48.1916 7.69312C48.1916 6.37292 49.2283 5.25185 50.5332 5.25185C51.8457 5.25185 52.8748 6.281 52.8748 7.59345C52.8748 7.92653 52.9865 8.21576 53.1928 8.42209C53.3992 8.62841 53.6884 8.7401 54.0215 8.7401C54.3545 8.7401 54.6438 8.62841 54.8501 8.42209C55.0564 8.21576 55.1681 7.92653 55.1681 7.59345C55.1681 5.4678 53.6791 3.64536 51.6799 3.09262V2.01227C51.6799 1.67919 51.5682 1.38996 51.3619 1.18364C51.1555 0.977306 50.8663 0.865625 50.5332 0.865625C50.2001 0.865625 49.9109 0.977306 49.7046 1.18364C49.4983 1.38996 49.3866 1.67919 49.3866 2.01227V2.99295C47.3874 3.5457 45.8983 5.36814 45.8983 7.49379C45.8983 10.0682 47.9588 12.1287 50.5332 12.1287C51.8457 12.1287 52.8748 13.1578 52.8748 14.4703C52.8748 15.8823 51.8445 16.9146 50.5279 17.0112Z" fill="#F4442E" stroke="#F4442E" stroke-width="0.3"/>
<path d="M16.5952 30.2783L15.7142 19.9026H22.2285C22.734 19.9026 23.0751 20.3238 23.0751 20.7492V44.0706C23.0751 44.399 22.8312 44.7179 22.4278 44.7179H20.2855V36.8948C20.2855 36.5617 20.1738 36.2725 19.9675 36.0662C19.7612 35.8598 19.4719 35.7481 19.1389 35.7481C18.8058 35.7481 18.5166 35.8598 18.3102 36.0662C18.1039 36.2725 17.9922 36.5617 17.9922 36.8948V62.8568H14.206V56.7279C14.206 56.3949 14.0943 56.1056 13.888 55.8993C13.6817 55.693 13.3924 55.5813 13.0594 55.5813C12.7263 55.5813 12.4371 55.693 12.2307 55.8993C12.0244 56.1056 11.9127 56.3949 11.9127 56.7279V62.8568H8.12649V45.8646V36.8948C8.12649 36.5617 8.01481 36.2725 7.80848 36.0662C7.60215 35.8598 7.31292 35.7481 6.97985 35.7481C6.64677 35.7481 6.35754 35.8598 6.15122 36.0662C5.94489 36.2725 5.8332 36.5617 5.8332 36.8948V44.7179H3.69093C3.36256 44.7179 3.04362 44.4741 3.04362 44.0706V20.7492C3.04362 20.2436 3.46487 19.9026 3.89026 19.9026H10.406L9.62087 30.3057L9.62044 30.3056V30.317C9.62044 30.6514 9.73348 30.8775 9.83314 31.0768L9.8356 31.0817L9.84386 31.0982L9.85588 31.1122L12.2462 33.9009C12.7047 34.4716 13.5137 34.4716 13.9722 33.9009L16.3589 31.1164C16.4732 31.0008 16.5598 30.8566 16.6041 30.7089C16.6456 30.5705 16.6534 30.4159 16.5952 30.2783ZM22.2285 17.6093H3.98992C2.20956 17.6093 0.85 19.075 0.85 20.7492V44.0706C0.85 45.6449 2.10966 47.0112 3.79059 47.0112H5.8332V64.0034C5.8332 64.3365 5.94489 64.6257 6.15122 64.832C6.35754 65.0384 6.64677 65.1501 6.97985 65.1501H19.1389C19.4719 65.1501 19.7612 65.0384 19.9675 64.832C20.1738 64.6257 20.2855 64.3365 20.2855 64.0034V47.0112H22.4278C24.0021 47.0112 25.3684 45.7515 25.3684 44.0706V20.7492C25.3684 18.9721 24.0056 17.6093 22.2285 17.6093ZM14.2999 29.9705L13.1548 31.3799L11.9187 29.9673L12.7982 19.9026H13.4202L14.2999 29.9705Z" fill="#F4442E" stroke="#F4442E" stroke-width="0.3"/>
<path d="M13.0592 14.6201C16.6303 14.6201 19.5877 11.6627 19.5877 8.09164C19.5877 4.52055 16.6303 1.56313 13.0592 1.56313C9.49117 1.56313 6.53066 4.41783 6.53066 7.99197C6.53066 11.56 9.48509 14.6201 13.0592 14.6201ZM13.0592 3.75675C15.3683 3.75675 17.2944 5.68288 17.2944 7.99197C17.2944 10.3011 15.3683 12.2272 13.0592 12.2272C10.7501 12.2272 8.82395 10.3011 8.82395 7.99197C8.82395 5.68288 10.7501 3.75675 13.0592 3.75675Z" fill="#F4442E" stroke="#F4442E" stroke-width="0.3"/>
<path d="M36.3809 48.505H31.0987C30.7656 48.505 30.4764 48.6167 30.2701 48.823C30.0637 49.0294 29.9521 49.3186 29.9521 49.6517V64.0033C29.9521 64.3364 30.0637 64.6256 30.2701 64.8319C30.4764 65.0383 30.7656 65.1499 31.0987 65.1499H36.3809C36.714 65.1499 37.0032 65.0383 37.2095 64.8319C37.4158 64.6256 37.5275 64.3364 37.5275 64.0033V49.6517C37.5275 48.9613 36.9521 48.505 36.3809 48.505ZM35.2342 62.8567H32.2453V50.7983H35.2342V62.8567Z" fill="#F4442E" stroke="#F4442E" stroke-width="0.3"/>
<path d="M45.5498 41.3292H40.2676C39.9346 41.3292 39.6453 41.4409 39.439 41.6473C39.2327 41.8536 39.121 42.1428 39.121 42.4759V64.0033C39.121 64.3364 39.2327 64.6256 39.439 64.832C39.6453 65.0383 39.9346 65.15 40.2676 65.15H45.5498C45.8829 65.15 46.1721 65.0383 46.3785 64.832C46.5848 64.6256 46.6965 64.3364 46.6965 64.0033V42.4759C46.6965 41.7855 46.1211 41.3292 45.5498 41.3292ZM44.4032 62.8567H41.4143V43.6225H44.4032V62.8567Z" fill="#F4442E" stroke="#F4442E" stroke-width="0.3"/>
<path d="M54.7188 44.7177H49.4366C49.1035 44.7177 48.8143 44.8294 48.608 45.0357C48.4016 45.242 48.2899 45.5312 48.2899 45.8643V63.9035C48.2899 64.2366 48.4016 64.5258 48.608 64.7321C48.8143 64.9385 49.1035 65.0502 49.4366 65.0502H54.7188C55.0519 65.0502 55.3411 64.9385 55.5474 64.7321C55.7537 64.5258 55.8654 64.2366 55.8654 63.9035V45.8643C55.8654 45.5664 55.718 45.281 55.51 45.0731C55.3021 44.8651 55.0167 44.7177 54.7188 44.7177ZM53.5721 62.8565H50.5832V47.011H53.5721V62.8565Z" fill="#F4442E" stroke="#F4442E" stroke-width="0.3"/>
<path d="M63.8882 39.4357H58.606C58.2729 39.4357 57.9837 39.5474 57.7774 39.7537C57.5711 39.96 57.4594 40.2493 57.4594 40.5823V64.0034C57.4594 64.3365 57.5711 64.6257 57.7774 64.832C57.9837 65.0384 58.2729 65.15 58.606 65.15H63.8882C64.2213 65.15 64.5105 65.0384 64.7168 64.832C64.9232 64.6257 65.0349 64.3365 65.0349 64.0034V40.5823C65.0349 39.8919 64.4595 39.4357 63.8882 39.4357ZM62.7416 62.8568H59.7527V41.729H62.7416V62.8568Z" fill="#F4442E" stroke="#F4442E" stroke-width="0.3"/>
<path d="M34.3941 40.5886L34.3953 40.5874L42.9746 31.8109L51.3403 38.0113C51.3403 38.0114 51.3404 38.0114 51.3405 38.0115C51.5788 38.1901 51.8955 38.2433 52.1865 38.2017C52.4771 38.1602 52.7659 38.0208 52.9447 37.7831C52.945 37.7827 52.9453 37.7823 52.9456 37.782L61.1761 27.2275L61.3464 29.5253C61.3501 30.1058 61.9185 30.673 62.605 30.5664C63.2932 30.5595 63.7483 29.9777 63.6385 29.301L63.1413 24.0306C63.1365 23.4491 62.5655 22.8816 61.8772 22.9919L56.6069 23.3897C56.0263 23.3935 55.4592 23.962 55.5659 24.6485C55.574 25.228 56.1433 25.7916 56.8292 25.6821L59.4786 25.5055L51.8002 35.3914L43.5471 29.2998C43.547 29.2997 43.5468 29.2996 43.5467 29.2995C43.1052 28.9687 42.4121 28.9457 42.0475 29.4216L32.7858 38.9821C32.3294 39.4393 32.3297 40.1317 32.7867 40.5886C33.2439 41.0459 33.9369 41.0459 34.3941 40.5886Z" fill="#F4442E" stroke="#F4442E" stroke-width="0.3"/>
</svg>
