<svg width="132" height="100" viewBox="0 0 132 100" fill="none" xmlns="http://www.w3.org/2000/svg">
<g opacity="0.6">
<mask id="mask0" mask-type="alpha" maskUnits="userSpaceOnUse" x="0" y="0" width="11" height="11">
<path d="M5.22838 10.425C8.11594 10.425 10.4568 8.09121 10.4568 5.21245C10.4568 2.33368 8.11594 0 5.22838 0C2.34082 0 0 2.33368 0 5.21245C0 8.09121 2.34082 10.425 5.22838 10.425Z" fill="#FBE5E3"/>
</mask>
<g mask="url(#mask0)">
<path d="M5.22838 10.425C8.11594 10.425 10.4568 8.09121 10.4568 5.21245C10.4568 2.33368 8.11594 0 5.22838 0C2.34082 0 0 2.33368 0 5.21245C0 8.09121 2.34082 10.425 5.22838 10.425Z" fill="#FBE5E3"/>
</g>
<mask id="mask1" mask-type="alpha" maskUnits="userSpaceOnUse" x="30" y="0" width="11" height="11">
<path d="M35.5096 10.425C38.3972 10.425 40.738 8.09121 40.738 5.21245C40.738 2.33368 38.3972 0 35.5096 0C32.6221 0 30.2812 2.33368 30.2812 5.21245C30.2812 8.09121 32.6221 10.425 35.5096 10.425Z" fill="#FBE5E3"/>
</mask>
<g mask="url(#mask1)">
<path d="M35.5096 10.425C38.3972 10.425 40.738 8.09121 40.738 5.21245C40.738 2.33368 38.3972 0 35.5096 0C32.6221 0 30.2812 2.33368 30.2812 5.21245C30.2812 8.09121 32.6221 10.425 35.5096 10.425Z" fill="#FBE5E3"/>
</g>
<mask id="mask2" mask-type="alpha" maskUnits="userSpaceOnUse" x="60" y="0" width="12" height="11">
<path d="M65.7904 10.425C68.678 10.425 71.0188 8.09121 71.0188 5.21245C71.0188 2.33368 68.678 0 65.7904 0C62.9028 0 60.562 2.33368 60.562 5.21245C60.562 8.09121 62.9028 10.425 65.7904 10.425Z" fill="#FBE5E3"/>
</mask>
<g mask="url(#mask2)">
<path d="M65.7904 10.425C68.678 10.425 71.0188 8.09121 71.0188 5.21245C71.0188 2.33368 68.678 0 65.7904 0C62.9028 0 60.562 2.33368 60.562 5.21245C60.562 8.09121 62.9028 10.425 65.7904 10.425Z" fill="#FBE5E3"/>
</g>
<mask id="mask3" mask-type="alpha" maskUnits="userSpaceOnUse" x="90" y="0" width="12" height="11">
<path d="M96.0717 10.425C98.9592 10.425 101.3 8.09121 101.3 5.21245C101.3 2.33368 98.9592 0 96.0717 0C93.1841 0 90.8433 2.33368 90.8433 5.21245C90.8433 8.09121 93.1841 10.425 96.0717 10.425Z" fill="#FBE5E3"/>
</mask>
<g mask="url(#mask3)">
<path d="M96.0717 10.425C98.9592 10.425 101.3 8.09121 101.3 5.21245C101.3 2.33368 98.9592 0 96.0717 0C93.1841 0 90.8433 2.33368 90.8433 5.21245C90.8433 8.09121 93.1841 10.425 96.0717 10.425Z" fill="#FBE5E3"/>
</g>
<mask id="mask4" mask-type="alpha" maskUnits="userSpaceOnUse" x="121" y="0" width="11" height="11">
<path d="M126.352 10.425C129.24 10.425 131.581 8.09121 131.581 5.21245C131.581 2.33368 129.24 0 126.352 0C123.465 0 121.124 2.33368 121.124 5.21245C121.124 8.09121 123.465 10.425 126.352 10.425Z" fill="#FBE5E3"/>
</mask>
<g mask="url(#mask4)">
<path d="M126.352 10.425C129.24 10.425 131.581 8.09121 131.581 5.21245C131.581 2.33368 129.24 0 126.352 0C123.465 0 121.124 2.33368 121.124 5.21245C121.124 8.09121 123.465 10.425 126.352 10.425Z" fill="#FBE5E3"/>
</g>
<mask id="mask5" mask-type="alpha" maskUnits="userSpaceOnUse" x="0" y="26" width="11" height="11">
<path d="M5.22838 36.5958C8.11594 36.5958 10.4568 34.2621 10.4568 31.3833C10.4568 28.5046 8.11594 26.1709 5.22838 26.1709C2.34082 26.1709 0 28.5046 0 31.3833C0 34.2621 2.34082 36.5958 5.22838 36.5958Z" fill="#FBE5E3"/>
</mask>
<g mask="url(#mask5)">
<path d="M5.22838 36.5958C8.11594 36.5958 10.4568 34.2621 10.4568 31.3833C10.4568 28.5046 8.11594 26.1709 5.22838 26.1709C2.34082 26.1709 0 28.5046 0 31.3833C0 34.2621 2.34082 36.5958 5.22838 36.5958Z" fill="#FBE5E3"/>
</g>
<mask id="mask6" mask-type="alpha" maskUnits="userSpaceOnUse" x="30" y="26" width="11" height="11">
<path d="M35.5096 36.5958C38.3972 36.5958 40.738 34.2621 40.738 31.3833C40.738 28.5046 38.3972 26.1709 35.5096 26.1709C32.6221 26.1709 30.2812 28.5046 30.2812 31.3833C30.2812 34.2621 32.6221 36.5958 35.5096 36.5958Z" fill="#FBE5E3"/>
</mask>
<g mask="url(#mask6)">
<path d="M35.5096 36.5958C38.3972 36.5958 40.738 34.2621 40.738 31.3833C40.738 28.5046 38.3972 26.1709 35.5096 26.1709C32.6221 26.1709 30.2812 28.5046 30.2812 31.3833C30.2812 34.2621 32.6221 36.5958 35.5096 36.5958Z" fill="#FBE5E3"/>
</g>
<mask id="mask7" mask-type="alpha" maskUnits="userSpaceOnUse" x="60" y="26" width="12" height="11">
<path d="M65.7904 36.5958C68.678 36.5958 71.0188 34.2621 71.0188 31.3833C71.0188 28.5046 68.678 26.1709 65.7904 26.1709C62.9028 26.1709 60.562 28.5046 60.562 31.3833C60.562 34.2621 62.9028 36.5958 65.7904 36.5958Z" fill="#FBE5E3"/>
</mask>
<g mask="url(#mask7)">
<path d="M65.7904 36.5958C68.678 36.5958 71.0188 34.2621 71.0188 31.3833C71.0188 28.5046 68.678 26.1709 65.7904 26.1709C62.9028 26.1709 60.562 28.5046 60.562 31.3833C60.562 34.2621 62.9028 36.5958 65.7904 36.5958Z" fill="#FBE5E3"/>
</g>
<mask id="mask8" mask-type="alpha" maskUnits="userSpaceOnUse" x="90" y="26" width="12" height="11">
<path d="M96.0717 36.5958C98.9592 36.5958 101.3 34.2621 101.3 31.3833C101.3 28.5046 98.9592 26.1709 96.0717 26.1709C93.1841 26.1709 90.8433 28.5046 90.8433 31.3833C90.8433 34.2621 93.1841 36.5958 96.0717 36.5958Z" fill="#FBE5E3"/>
</mask>
<g mask="url(#mask8)">
<path d="M96.0717 36.5958C98.9592 36.5958 101.3 34.2621 101.3 31.3833C101.3 28.5046 98.9592 26.1709 96.0717 26.1709C93.1841 26.1709 90.8433 28.5046 90.8433 31.3833C90.8433 34.2621 93.1841 36.5958 96.0717 36.5958Z" fill="#FBE5E3"/>
</g>
<mask id="mask9" mask-type="alpha" maskUnits="userSpaceOnUse" x="121" y="26" width="11" height="11">
<path d="M126.352 36.5958C129.24 36.5958 131.581 34.2621 131.581 31.3833C131.581 28.5046 129.24 26.1709 126.352 26.1709C123.465 26.1709 121.124 28.5046 121.124 31.3833C121.124 34.2621 123.465 36.5958 126.352 36.5958Z" fill="#FBE5E3"/>
</mask>
<g mask="url(#mask9)">
<path d="M126.352 36.5958C129.24 36.5958 131.581 34.2621 131.581 31.3833C131.581 28.5046 129.24 26.1709 126.352 26.1709C123.465 26.1709 121.124 28.5046 121.124 31.3833C121.124 34.2621 123.465 36.5958 126.352 36.5958Z" fill="#FBE5E3"/>
</g>
<mask id="mask10" mask-type="alpha" maskUnits="userSpaceOnUse" x="0" y="52" width="11" height="11">
<path d="M5.22838 62.7126C8.11594 62.7126 10.4568 60.3789 10.4568 57.5001C10.4568 54.6213 8.11594 52.2876 5.22838 52.2876C2.34082 52.2876 0 54.6213 0 57.5001C0 60.3789 2.34082 62.7126 5.22838 62.7126Z" fill="#FBE5E3"/>
</mask>
<g mask="url(#mask10)">
<path d="M5.22838 62.7126C8.11594 62.7126 10.4568 60.3789 10.4568 57.5001C10.4568 54.6213 8.11594 52.2876 5.22838 52.2876C2.34082 52.2876 0 54.6213 0 57.5001C0 60.3789 2.34082 62.7126 5.22838 62.7126Z" fill="#FBE5E3"/>
</g>
<mask id="mask11" mask-type="alpha" maskUnits="userSpaceOnUse" x="30" y="52" width="11" height="11">
<path d="M35.5096 62.7126C38.3972 62.7126 40.738 60.3789 40.738 57.5001C40.738 54.6213 38.3972 52.2876 35.5096 52.2876C32.6221 52.2876 30.2812 54.6213 30.2812 57.5001C30.2812 60.3789 32.6221 62.7126 35.5096 62.7126Z" fill="#FBE5E3"/>
</mask>
<g mask="url(#mask11)">
<path d="M35.5096 62.7126C38.3972 62.7126 40.738 60.3789 40.738 57.5001C40.738 54.6213 38.3972 52.2876 35.5096 52.2876C32.6221 52.2876 30.2812 54.6213 30.2812 57.5001C30.2812 60.3789 32.6221 62.7126 35.5096 62.7126Z" fill="#FBE5E3"/>
</g>
<mask id="mask12" mask-type="alpha" maskUnits="userSpaceOnUse" x="60" y="52" width="12" height="11">
<path d="M65.7904 62.7126C68.678 62.7126 71.0188 60.3789 71.0188 57.5001C71.0188 54.6213 68.678 52.2876 65.7904 52.2876C62.9028 52.2876 60.562 54.6213 60.562 57.5001C60.562 60.3789 62.9028 62.7126 65.7904 62.7126Z" fill="#FBE5E3"/>
</mask>
<g mask="url(#mask12)">
<path d="M65.7904 62.7126C68.678 62.7126 71.0188 60.3789 71.0188 57.5001C71.0188 54.6213 68.678 52.2876 65.7904 52.2876C62.9028 52.2876 60.562 54.6213 60.562 57.5001C60.562 60.3789 62.9028 62.7126 65.7904 62.7126Z" fill="#FBE5E3"/>
</g>
<mask id="mask13" mask-type="alpha" maskUnits="userSpaceOnUse" x="90" y="52" width="12" height="11">
<path d="M96.0717 62.7126C98.9592 62.7126 101.3 60.3789 101.3 57.5001C101.3 54.6213 98.9592 52.2876 96.0717 52.2876C93.1841 52.2876 90.8433 54.6213 90.8433 57.5001C90.8433 60.3789 93.1841 62.7126 96.0717 62.7126Z" fill="#FBE5E3"/>
</mask>
<g mask="url(#mask13)">
<path d="M96.0717 62.7126C98.9592 62.7126 101.3 60.3789 101.3 57.5001C101.3 54.6213 98.9592 52.2876 96.0717 52.2876C93.1841 52.2876 90.8433 54.6213 90.8433 57.5001C90.8433 60.3789 93.1841 62.7126 96.0717 62.7126Z" fill="#FBE5E3"/>
</g>
<mask id="mask14" mask-type="alpha" maskUnits="userSpaceOnUse" x="121" y="52" width="11" height="11">
<path d="M126.352 62.7126C129.24 62.7126 131.581 60.3789 131.581 57.5001C131.581 54.6213 129.24 52.2876 126.352 52.2876C123.465 52.2876 121.124 54.6213 121.124 57.5001C121.124 60.3789 123.465 62.7126 126.352 62.7126Z" fill="#FBE5E3"/>
</mask>
<g mask="url(#mask14)">
<path d="M126.352 62.7126C129.24 62.7126 131.581 60.3789 131.581 57.5001C131.581 54.6213 129.24 52.2876 126.352 52.2876C123.465 52.2876 121.124 54.6213 121.124 57.5001C121.124 60.3789 123.465 62.7126 126.352 62.7126Z" fill="#FBE5E3"/>
</g>
<mask id="mask15" mask-type="alpha" maskUnits="userSpaceOnUse" x="0" y="78" width="11" height="11">
<path d="M5.22838 88.8835C8.11594 88.8835 10.4568 86.5497 10.4568 83.6709C10.4568 80.7922 8.11594 78.4585 5.22838 78.4585C2.34082 78.4585 0 80.7922 0 83.6709C0 86.5497 2.34082 88.8835 5.22838 88.8835Z" fill="#FBE5E3"/>
</mask>
<g mask="url(#mask15)">
<path d="M5.22838 88.8835C8.11594 88.8835 10.4568 86.5497 10.4568 83.6709C10.4568 80.7922 8.11594 78.4585 5.22838 78.4585C2.34082 78.4585 0 80.7922 0 83.6709C0 86.5497 2.34082 88.8835 5.22838 88.8835Z" fill="#FBE5E3"/>
</g>
<mask id="mask16" mask-type="alpha" maskUnits="userSpaceOnUse" x="30" y="78" width="11" height="11">
<path d="M35.5096 88.8835C38.3972 88.8835 40.738 86.5497 40.738 83.6709C40.738 80.7922 38.3972 78.4585 35.5096 78.4585C32.6221 78.4585 30.2812 80.7922 30.2812 83.6709C30.2812 86.5497 32.6221 88.8835 35.5096 88.8835Z" fill="#FBE5E3"/>
</mask>
<g mask="url(#mask16)">
<path d="M35.5096 88.8835C38.3972 88.8835 40.738 86.5497 40.738 83.6709C40.738 80.7922 38.3972 78.4585 35.5096 78.4585C32.6221 78.4585 30.2812 80.7922 30.2812 83.6709C30.2812 86.5497 32.6221 88.8835 35.5096 88.8835Z" fill="#FBE5E3"/>
</g>
<mask id="mask17" mask-type="alpha" maskUnits="userSpaceOnUse" x="60" y="78" width="12" height="11">
<path d="M65.7904 88.8835C68.678 88.8835 71.0188 86.5497 71.0188 83.6709C71.0188 80.7922 68.678 78.4585 65.7904 78.4585C62.9028 78.4585 60.562 80.7922 60.562 83.6709C60.562 86.5497 62.9028 88.8835 65.7904 88.8835Z" fill="#FBE5E3"/>
</mask>
<g mask="url(#mask17)">
<path d="M65.7904 88.8835C68.678 88.8835 71.0188 86.5497 71.0188 83.6709C71.0188 80.7922 68.678 78.4585 65.7904 78.4585C62.9028 78.4585 60.562 80.7922 60.562 83.6709C60.562 86.5497 62.9028 88.8835 65.7904 88.8835Z" fill="#FBE5E3"/>
</g>
<mask id="mask18" mask-type="alpha" maskUnits="userSpaceOnUse" x="90" y="78" width="12" height="11">
<path d="M96.0717 88.8835C98.9592 88.8835 101.3 86.5497 101.3 83.6709C101.3 80.7922 98.9592 78.4585 96.0717 78.4585C93.1841 78.4585 90.8433 80.7922 90.8433 83.6709C90.8433 86.5497 93.1841 88.8835 96.0717 88.8835Z" fill="#FBE5E3"/>
</mask>
<g mask="url(#mask18)">
<path d="M96.0717 88.8835C98.9592 88.8835 101.3 86.5497 101.3 83.6709C101.3 80.7922 98.9592 78.4585 96.0717 78.4585C93.1841 78.4585 90.8433 80.7922 90.8433 83.6709C90.8433 86.5497 93.1841 88.8835 96.0717 88.8835Z" fill="#FBE5E3"/>
</g>
<mask id="mask19" mask-type="alpha" maskUnits="userSpaceOnUse" x="121" y="78" width="11" height="11">
<path d="M126.352 88.8835C129.24 88.8835 131.581 86.5497 131.581 83.6709C131.581 80.7922 129.24 78.4585 126.352 78.4585C123.465 78.4585 121.124 80.7922 121.124 83.6709C121.124 86.5497 123.465 88.8835 126.352 88.8835Z" fill="#FBE5E3"/>
</mask>
<g mask="url(#mask19)">
<path d="M126.352 88.8835C129.24 88.8835 131.581 86.5497 131.581 83.6709C131.581 80.7922 129.24 78.4585 126.352 78.4585C123.465 78.4585 121.124 80.7922 121.124 83.6709C121.124 86.5497 123.465 88.8835 126.352 88.8835Z" fill="#FBE5E3"/>
</g>
</g>
</svg>
