<?xml version="1.0" encoding="UTF-8" standalone="no"?>
<!DOCTYPE svg PUBLIC "-//W3C//DTD SVG 1.1//EN" "http://www.w3.org/Graphics/SVG/1.1/DTD/svg11.dtd">
<svg version="1.1" xmlns="http://www.w3.org/2000/svg" xmlns:xlink="http://www.w3.org/1999/xlink" preserveAspectRatio="xMidYMid meet" viewBox="0 0 874 528" width="874" height="528"><defs><path d="M0 421.18C0 480.16 195.69 527.98 437.08 527.98C678.47 527.98 874.16 480.16 874.16 421.18C874.16 362.2 678.47 314.39 437.08 314.39C195.69 314.39 0 362.2 0 421.18Z" id="dSMwPSJdA"/><path d="M519.97 459.45C521.27 459.45 522.29 458.41 522.29 457.14C522.29 456.95 522.29 455.49 522.29 455.31C522.29 454.02 521.25 453 519.97 453C516.09 453 485 453 481.11 453C479.82 453 478.8 454.04 478.8 455.31C478.8 455.49 478.8 456.95 478.8 457.14C478.82 458.41 479.86 459.45 481.11 459.45C488.89 459.45 516.09 459.45 519.97 459.45Z" id="b18FFTO5Q3"/><path d="M506.55 349.92L506.55 452.98L494.58 452.98L494.58 349.92L506.55 349.92Z" id="a9M7LGjSJ"/><path d="M479.65 173.6C478.38 185.93 477.67 192.77 477.53 194.14C477.53 194.14 480.48 195.14 483.53 195.31C486.65 195.48 489.53 195.31 489.53 195.31C489.57 193.93 489.76 187.02 490.1 174.6L479.65 173.6Z" id="e1VVXYvDDv"/><path d="M540.71 182.12C540.97 182.78 540.71 183.52 540.1 183.95C538.1 185.32 533.42 189.67 524.3 192.57C519.87 193.97 509.02 195.8 504.03 195.44C503.12 195.35 502.47 194.57 502.47 194.57C501.96 187.49 497.92 130.86 497.42 123.78C518.79 122.7 527.65 139.96 529.69 144.13C533.12 151.26 538.51 174.52 540.71 182.12Z" id="b7OjcgXoG"/><path d="M527.61 172.84C527.61 166.63 524.87 161.73 521.35 161.73C517.88 161.73 515.1 166.63 515.1 172.84C515.1 179.11 517.88 183.95 521.35 183.95C524.83 183.95 527.61 179.05 527.61 172.84ZM526.08 172.88C526.08 178.1 523.92 182.48 521.35 182.48C518.79 182.48 516.63 178.1 516.63 172.88C516.63 167.66 518.79 163.28 521.35 163.28C523.92 163.28 526.08 167.66 526.08 172.88Z" id="d1KB2X6bWo"/><path d="M465.07 155.73C465.07 138.95 479.48 125.35 497.27 125.35C515.05 125.35 529.47 138.95 529.47 155.73C529.47 172.51 515.05 186.11 497.27 186.11C479.48 186.11 465.07 172.51 465.07 155.73Z" id="br1bMHBdJ"/><path d="M484.19 155.2C484.19 155.2 491 153.38 494.88 149.73C496.08 148.56 496.95 147.42 497.53 146.29C497.06 148.03 496.27 149.86 494.66 151.72C491.19 155.75 485.89 158.59 485.89 158.59C485.93 159.01 485.46 172.52 486.14 184.2C485.04 183.84 484.06 183.42 483.07 182.97C483.55 170.95 484.19 155.67 484.19 155.2Z" id="a1bHb4bl81"/><path d="M442.36 381.83C442.28 382.57 428.35 383.21 411.15 383.21C394 383.21 380.03 382.6 379.95 381.83C380.03 381.05 393.96 380.45 411.15 380.45C428.35 380.45 442.28 381.07 442.36 381.83ZM433.77 381.79C433.77 381.22 423.32 380.75 410.45 380.75C397.58 380.75 387.13 381.22 387.13 381.79C387.09 382.36 397.56 382.83 410.45 382.83C423.34 382.83 433.77 382.36 433.77 381.79Z" id="e15zsuFgFQ"/><path d="M442.36 381.83C442.36 382.6 428.39 383.21 411.15 383.21C393.92 383.21 379.95 382.6 379.95 381.83C379.95 381.07 393.92 380.45 411.15 380.45C428.39 380.45 442.36 381.07 442.36 381.83ZM433.77 381.79C433.77 381.22 423.32 380.75 410.45 380.75C397.58 380.75 387.13 381.22 387.13 381.79C387.09 382.36 397.56 382.83 410.45 382.83C423.34 382.83 433.77 382.36 433.77 381.79Z" id="a1kiuSwyf"/><path d="M387.13 381.79C387.13 381.22 397.57 380.75 410.45 380.75C423.33 380.75 433.77 381.22 433.77 381.79C433.77 382.36 423.33 382.83 410.45 382.83C397.57 382.83 387.13 382.36 387.13 381.79Z" id="m3c4NfEQbk"/><path d="M407.44 312.46C410.16 329.47 410.88 346.72 409.56 363.9C408.82 373.5 407.4 383.08 405.39 392.5C405 394.19 402.4 393.49 402.78 391.8C406.38 375.13 407.91 358.11 407.46 341.08C407 324.15 404.52 307.23 400.09 290.86C397.61 281.62 394.45 272.54 390.71 263.72C390.42 263.07 391.01 262.24 391.67 262.07C392.43 261.82 393.05 262.32 393.3 262.98C399.98 278.82 404.73 295.46 407.44 312.46Z" id="e7jIdtnojx"/><path d="M404.16 380.58C404.46 385.01 404.54 389.49 404.37 393.92C404.29 395.65 401.59 395.65 401.68 393.92C402.25 378.42 399.98 362.92 395 348.25C393.6 344.12 391.97 340 390.1 336.02C389.36 334.47 391.69 333.09 392.43 334.66C399.11 349.12 403.08 364.7 404.16 380.58Z" id="aMRqBmh73"/><path d="M416.88 311.43C414.63 326.56 413.19 341.81 412.02 357.01C411.37 365.64 410.77 374.28 410.24 382.96C410.12 384.69 407.42 384.69 407.55 382.96C408.55 367.59 409.58 352.17 411.07 336.84C412.6 321.56 414.59 306.25 417.62 291.18C419.32 282.64 421.35 274.2 423.79 265.82C424.3 264.15 426.86 264.85 426.42 266.54C422.16 281.26 419.13 296.29 416.88 311.43Z" id="eIM4t2Q98"/><path d="M434.24 324.1C432.04 329.4 430.11 334.83 428.43 340.34C425.13 351.24 422.75 362.43 421.52 373.73C420.82 380.07 420.44 386.45 420.4 392.88C420.4 394.62 417.71 394.62 417.71 392.88C417.79 381.2 419 369.51 421.22 358.07C423.47 346.64 426.82 335.36 431.21 324.55C433.5 318.91 435.98 313.23 440.33 308.84C441.53 307.57 443.44 309.48 442.19 310.73C438.5 314.5 436.23 319.31 434.24 324.1Z" id="c13RJzOcXX"/><path d="M430.15 359.32C432.23 358.49 433.88 358.49 434.37 359.02C434.85 359.55 434.75 361.18 434.03 363.15C433.31 365.13 432.12 367.5 430.34 369.71C428.56 371.91 426.44 373.52 424.57 374.6C422.75 375.68 421.18 376.13 420.71 375.85C420.14 375.47 419.8 373.86 420.18 371.68C420.52 369.47 421.6 366.7 423.6 364.26C425.59 361.82 428.07 360.14 430.15 359.32Z" id="b2xVuGfOlz"/><path d="M416.45 330.48C417.94 330.23 421.92 336.25 423.53 344.24C425.14 352.24 423.49 359.4 422.41 359.66C421.05 360 416.71 354.1 415.05 345.98C413.4 337.86 414.93 330.78 416.45 330.48Z" id="d3iHPyJ5lk"/><path d="M431.37 344.64C438.04 338.09 444.8 334.17 446.49 335.88C448.17 337.59 444.13 344.29 437.46 350.84C430.8 357.39 424.03 361.31 422.35 359.59C420.67 357.88 424.71 351.18 431.37 344.64Z" id="bcjDodNGx"/><path d="M408.63 359.64C408.46 356.65 408.54 353.91 408.84 351.69C409.37 347.13 410.45 344.39 411.2 344.39C411.94 344.39 413.06 347.04 414.31 351.24C414.93 353.32 415.65 355.8 416.3 358.49C417 361.23 417.75 364.17 418.47 367.31C419.21 370.43 419.84 373.44 420.37 376.17C420.9 378.91 421.37 381.47 421.75 383.63C422.45 387.94 422.62 390.84 422.13 391.1C421.52 391.39 419.31 389.4 416.83 385.58C415.58 383.68 414.31 381.28 413.1 378.55C411.87 375.77 410.79 372.63 410.01 369.28C409.22 365.93 408.8 362.65 408.63 359.64Z" id="c2jaEdjAmB"/><path d="M386.8 360.34C385.67 356.94 385.4 354.57 386.05 354.12C386.67 353.7 388.79 354.91 391.44 357.35C394.09 359.83 397.29 363.64 399.94 368.33C402.59 373.06 404.16 377.78 404.88 381.34C405.26 383.13 405.41 384.61 405.41 385.69C405.41 386.03 405.54 386.48 405.28 387.03C405.24 387.15 405.16 387.28 405.07 387.37C404.99 387.49 404.77 387.62 404.65 387.66C404.35 387.75 404.16 387.66 404.03 387.58C403.78 387.41 403.61 387.11 403.69 386.92C403.78 386.71 403.9 386.79 403.95 386.79C403.99 386.84 404.03 386.84 404.07 386.88C404.12 386.92 404.03 386.88 404.07 386.88C404.07 386.88 404.12 386.88 404.16 386.84C404.2 386.79 404.24 386.71 404.24 386.71C404.24 386.71 404.24 386.79 404.24 386.88C404.24 386.88 404.24 386.88 404.24 386.92C404.23 386.91 404.09 386.81 404.07 386.79C404.07 386.79 404.07 386.79 404.03 386.79C403.95 386.79 403.78 386.75 403.46 386.84C403.45 386.84 403.42 386.84 403.37 386.84L403.33 386.84C403.31 386.84 403.29 386.84 403.29 386.84C403.25 386.84 403.21 386.84 403.16 386.79C402.29 386.14 401.25 385.1 400.09 383.72C397.74 381.09 394.92 377.19 392.35 372.67C389.79 368.12 387.88 363.73 386.8 360.34Z" id="e1QfOKM1Go"/><path d="M402.78 337.69C404.22 334.13 405.64 331.97 406.43 332.1C407.17 332.22 407.87 334.66 408.25 338.48C408.59 342.29 408.59 347.51 407.91 353.06C407.57 355.88 407.13 358.49 406.58 360.89C406.05 363.28 405.45 365.36 405.05 367.1C404.58 368.84 404.26 370.26 403.97 371.32C403.71 372.36 403.48 373.06 403.18 373.1C402.84 373.18 402.23 372.76 401.57 371.76C400.91 370.77 400.19 369.15 399.71 367.16C399.22 365.13 398.96 362.77 398.88 360.25C398.82 357.79 398.9 355.01 399.22 352.11C399.88 346.34 401.34 341.3 402.78 337.69Z" id="b10FV54iMO"/><path d="M444.97 317.55C447.87 316.26 449.99 315.98 450.48 316.6C450.94 317.17 450.18 319.16 448.53 321.73C446.87 324.29 444.31 327.5 441.11 330.55C437.89 333.62 434.51 335.93 431.82 337.46C429.13 338.99 427.09 339.66 426.69 339.28C426.16 338.82 426.56 336.72 427.94 333.86C429.28 331.06 431.67 327.54 435.07 324.32C438.42 321.09 442.06 318.85 444.97 317.55Z" id="a2jVZNhm9D"/><path d="M451.24 291.94C452.54 292.73 451.54 299.7 447.68 306.57C443.82 313.44 438.08 317.72 437.04 317.21C435.77 316.56 436.11 309.39 440.09 302.31C444.08 295.23 449.91 291.12 451.24 291.94Z" id="a8ZW4IVvG"/><path d="M429.43 304.13C431.17 301.36 432.86 299.96 433.56 300.23C434.26 300.49 434.64 302.58 434.69 305.66C434.73 308.73 434.52 312.74 433.9 317.09C433.29 321.43 432.29 325.33 431.38 328.28C430.42 331.23 429.47 333.18 428.94 333.18C428.24 333.22 427.03 331.4 426.08 328.28C425.12 325.14 424.59 320.67 425.29 315.86C425.99 311.04 427.69 306.87 429.43 304.13Z" id="b2akxXeAKS"/><path d="M371.3 334.39C369.01 331.99 367.78 330.08 368.18 329.36C368.56 328.7 370.83 328.75 374.12 329.66C377.38 330.57 381.66 332.39 385.84 335.25C390.02 338.12 393.18 341.55 395.21 344.29C397.2 347.06 398.03 349.18 397.69 349.63C397.23 350.16 395 349.71 391.93 348.46C388.83 347.28 384.89 345.2 380.9 342.46C376.92 339.73 373.57 336.82 371.3 334.39Z" id="d10ATkq2u0"/><path d="M373.52 305.49C372.91 301.23 373.14 298.45 373.86 298.2C374.58 297.94 376.39 300.06 378.68 303.54C380.97 307.06 383.7 311.96 386.35 317.51C389 323.06 390.99 328.32 392.24 332.35C393.5 336.34 393.98 339.07 393.5 339.39C392.92 339.77 390.59 338.18 387.64 335.04C384.76 331.88 381.28 327.14 378.51 321.28C375.73 315.43 374.16 309.77 373.52 305.49Z" id="a3qfGXLUBw"/><path d="M387.06 303.22C389.42 302.79 392.85 310.76 394.72 321.03C396.59 331.29 396.19 339.96 393.83 340.39C391.46 340.82 388.04 332.85 386.17 322.58C384.3 312.32 384.7 303.65 387.06 303.22Z" id="bf9GAopjH"/><path d="M378.51 240.02C377.55 236.38 377.38 233.9 378.04 233.47C378.7 233.09 380.77 234.55 383.34 237.42C385.9 240.28 388.89 244.54 391.33 249.73C393.77 254.91 395.06 259.97 395.59 263.79C396.12 267.6 395.93 270.13 395.38 270.34C394.72 270.59 392.9 268.86 390.65 265.82C388.49 262.77 385.84 258.47 383.49 253.44C381.13 248.42 379.46 243.67 378.51 240.02Z" id="c1ySKCb8P"/><path d="M390.44 239.9C390.91 236.38 391.65 234.04 392.39 233.94C393.13 233.81 394.55 235.8 395.87 239.2C397.2 242.59 398.43 247.4 398.82 252.83C399.2 258.26 398.48 263.24 397.56 266.76C396.65 270.27 395.49 272.44 394.91 272.44C394.21 272.44 393.18 270.23 392.26 266.8C391.35 263.34 390.48 258.68 390.14 253.44C389.8 248.23 389.97 243.46 390.44 239.9Z" id="a37ecFdFf"/><path d="M379.99 270.76C379.04 268.32 378.34 266.04 377.91 264.04C377.09 260.1 377.3 257.49 378 257.19C378.7 256.9 380.52 258.72 382.94 261.75C384.1 263.24 385.46 265.06 386.88 267.1C388.28 269.13 389.78 271.31 391.27 273.73C392.75 276.08 394.13 278.42 395.34 280.58C396.55 282.74 397.59 284.71 398.41 286.47C400.07 289.95 400.94 292.41 400.49 292.77C400 293.24 397.54 292.28 394.32 289.86C392.71 288.65 390.93 287.09 389.15 285.14C387.28 283.21 385.5 280.92 383.89 278.35C382.28 275.79 380.99 273.18 379.99 270.76Z" id="b3KHmQTNRc"/><path d="M404.9 267.75C405.11 266.63 405.39 265.59 405.6 264.59C405.73 264.11 405.85 263.64 405.94 263.15C406.02 262.69 406.15 262.24 406.24 261.82C407.02 258.42 407.63 256.05 408.48 255.92C409.18 255.8 410.73 257.83 411.75 261.69C411.87 262.15 412 262.69 412.13 263.17C412.26 263.7 412.3 264.25 412.38 264.78C412.55 265.95 412.64 267.14 412.68 268.39C412.72 270.91 412.51 273.69 412.02 276.51C410.94 282.15 408.95 286.79 407.3 290.06C405.6 293.32 404.14 295.31 403.61 295.23C402.91 295.1 402.23 292.71 402.12 288.93C401.91 285.24 402.42 280.22 403.42 275C403.9 272.4 404.41 269.96 404.9 267.75Z" id="a2NQI33GO6"/><path d="M384.8 291.29C383.76 287.94 383.63 285.56 384.33 285.2C384.99 284.82 386.94 286.07 389.46 288.4C391.99 290.71 395.06 294.13 398.01 298.13C400.96 302.14 403.14 306.21 404.52 309.37C405.92 312.53 406.47 314.75 406.04 315.14C405.51 315.6 403.31 314.75 400.45 312.78C397.52 310.73 394 307.44 390.93 303.22C387.85 299 385.84 294.64 384.8 291.29Z" id="aBZ71rbz2"/><path d="M432.84 246.62C435.45 243.97 437.53 242.67 438.18 243.05C438.84 243.44 438.61 245.87 437.57 249.39C436.53 252.91 434.75 257.43 432.52 262.11C431.4 264.47 430.28 266.63 429.26 268.62C428.77 269.62 428.22 270.57 427.73 271.44C427.24 272.31 426.78 273.18 426.35 273.92C424.61 277 423.32 279.01 422.75 278.95C422.09 278.86 421.22 276.51 421.22 272.65C421.22 271.7 421.27 270.61 421.43 269.53C421.56 268.41 421.77 267.24 422.05 266.01C422.52 263.6 423.43 260.99 424.64 258.42C427.07 253.29 430.23 249.27 432.84 246.62Z" id="f1pZFDy1Iz"/><path d="M439.41 266.54C440.54 267.54 437.55 275.24 431.63 282.7C425.7 290.16 418.57 294.55 417.66 293.89C416.5 293.11 418.74 284.95 424.83 277.27C430.91 269.6 438.25 265.51 439.41 266.54Z" id="c1lh8esuX"/><path d="M428.6 288.91C430.76 287.7 432.46 287.26 433.08 287.7C433.65 288.17 433.65 289.99 432.82 292.39C431.99 294.78 430.34 297.81 427.78 300.46C425.21 303.12 422.22 304.81 419.82 305.72C417.43 306.59 415.61 306.68 415.22 306.25C414.76 305.72 415.18 303.96 416.26 301.78C417.39 299.57 419.13 296.92 421.52 294.46C423.87 291.98 426.46 290.12 428.6 288.91Z" id="a1Zgw0WxMi"/><path d="M424.91 304.71C427.27 301.5 429.13 299.66 429.77 299.85C430.34 300.06 430.26 302.54 429.3 306.32C428.35 310.09 426.48 315.18 423.58 320.46C420.67 325.71 417.24 330.1 414.42 333.09C411.6 336.08 409.39 337.69 408.99 337.48C408.46 337.18 408.99 334.79 410.37 331.14C411.79 327.5 413.93 322.7 416.79 317.55C419.61 312.42 422.56 307.91 424.91 304.71Z" id="a1QFKQmOBS"/><path d="M405.71 314.99C406.83 312.63 408.14 311.3 408.93 311.43C409.67 311.55 410.5 313.16 411.17 315.54C411.83 317.93 412.38 321.05 412.43 324.48C412.47 327.92 411.96 331.08 411.34 333.47C410.73 335.87 409.95 337.54 409.35 337.61C408.65 337.74 407.32 336.48 406.09 334.17C404.81 331.88 403.73 328.49 403.71 324.63C403.67 320.77 404.58 317.34 405.71 314.99Z" id="a14jroyve8"/><path d="M398.01 327.67C398.13 324.76 398.88 322.94 399.62 322.77C400.36 322.6 401.74 323.98 403.31 326.16C404.88 328.37 406.61 331.33 408.2 334.79C409.77 338.22 410.81 341.55 411.41 344.2C412.02 346.85 412.15 348.8 411.7 349.14C411.17 349.57 409.26 348.93 406.98 347.11C404.73 345.33 402.12 342.34 400.3 338.39C398.52 334.49 397.94 330.57 398.01 327.67Z" id="br5z1zdAY"/><path d="M413.23 255.22C414.23 251.15 415.48 248.76 416.26 248.8C417.01 248.84 417.96 251.36 418.74 255.39C419.53 259.42 420.19 264.89 420.36 270.93C420.52 276.97 420.06 282.49 419.49 286.56C418.87 290.63 418.09 293.19 417.49 293.28C416.79 293.36 415.42 290.99 414.19 287.02C412.89 283 411.79 277.4 411.62 271.14C411.45 264.89 412.19 259.25 413.23 255.22Z" id="b56vHiNJ"/><path d="M411.17 383.21C428.33 383.21 442.3 382.6 442.38 381.83C442.38 381.92 442.38 382.04 442.38 382.13C442.03 385.84 440.28 404.39 437.12 437.78C436.6 443.38 436.31 446.49 436.25 447.11C436.21 448.76 425.02 450.1 411.22 450.1C397.37 450.1 386.18 448.76 386.18 447.11C386.16 446.91 386.03 445.35 386.01 445.16C386.01 445.12 386.01 445.07 386.01 445.03C385.98 444.74 385.84 443.31 385.59 440.73C382.25 405.57 380.4 386.03 380.03 382.13C379.97 382.04 379.97 381.92 379.97 381.83C380.05 382.57 393.98 383.21 411.17 383.21Z" id="d3oVEtfICJ"/><path d="M383.59 420.69C383.68 420.74 383.76 420.78 383.89 420.78C393.26 424.25 402.59 427.73 411.94 431.23C417.32 433.22 422.71 435.26 428.05 437.23C428.83 437.53 429.17 438.48 428.54 439.1C423.56 444.12 416.11 444.27 409.65 446.01C407.61 446.54 405.58 447.3 403.84 448.4C403.48 448.4 400.63 448.4 400.28 448.4C404.41 444.37 410.73 443.42 416.35 442.23C419.57 441.53 422.9 440.66 425.55 438.67C416.22 435.19 406.93 431.76 397.63 428.26C393.05 426.63 388.45 424.93 383.85 423.17C383.8 422.68 383.62 420.94 383.59 420.69Z" id="f2ts7qloPF"/><path d="M381.09 393.51C381.05 393.07 380.71 389.49 380.67 389.04C399.94 389.46 419.21 390.33 438.48 391.65C439.48 391.73 440.47 391.78 441.47 391.86C441.45 392.08 441.28 393.88 441.26 394.11C424.59 392.94 407.91 392.07 391.25 391.58C388.05 391.5 384.82 391.42 381.64 391.33C390.06 393.64 398.48 395.93 406.87 398.28C417.43 401.23 427.97 404.37 437.91 409.01C438.52 409.31 439.16 409.58 439.77 409.88C439.75 410.12 439.54 412.04 439.52 412.28C439.03 412.02 438.48 411.79 437.99 411.53C428.43 406.98 418.32 403.84 408.23 401.02C399.2 398.5 390.12 395.99 381.09 393.51Z" id="aYyYPKQzh"/><path d="M399.96 415.6C394.28 414.35 388.55 413.04 382.81 412.04C382.79 411.81 382.62 409.98 382.6 409.75C396.65 412.23 410.47 416.43 424.7 417.7C429.43 418.13 434.24 418.19 438.95 417.79C438.92 418.02 438.76 419.85 438.73 420.08C436.28 420.25 433.84 420.33 431.34 420.29C420.74 420.12 410.28 417.89 399.96 415.6Z" id="e7RfUe6gT"/><path d="M410.41 382.83C423.28 382.83 433.73 382.36 433.73 381.79C434.59 381.79 441.42 381.79 442.28 381.79C442.28 381.79 442.28 381.79 442.28 381.83C442.19 382.57 428.26 383.21 411.07 383.21C393.92 383.21 379.95 382.6 379.86 381.83C379.86 381.83 379.86 381.83 379.86 381.79C380.34 381.79 382.75 381.79 387.09 381.79C394.06 382.48 401.83 382.83 410.41 382.83Z" id="aCVIcNgsZ"/><path d="M549.23 264.38C550.76 267.46 553.54 275.24 557.9 274.94C562.17 274.64 565.77 271.86 567.63 268.18C569.46 264.53 574.63 263.49 578 265.44C581.73 267.65 582.56 272.16 580.74 275.81C577.34 282.65 570.71 287.32 563.42 289.23C553.68 291.75 545.97 287.79 540.54 279.69C531.04 265.53 526.65 248.08 522.22 231.82C519.66 222.4 534.29 218.4 536.85 227.83C540.2 240.21 543.49 252.87 549.23 264.38Z" id="c1vxhl5ZFP"/><path d="M530.22 414.04C527.61 424.28 510.9 419.93 513.51 409.69C514.99 403.88 516.2 398.05 517.2 392.16C517.94 387.81 523.71 385.35 527.84 386.43C532.78 387.7 534.65 392.11 533.9 396.5C532.91 402.4 531.66 408.23 530.22 414.04Z" id="a1V2qvrl3w"/><path d="M469.8 289.65C469.8 290.77 492.8 294 502.21 293.47C509.46 293.04 525.95 290.44 525 288.87C524.05 287.3 519.11 274.98 519.11 274.98C519.11 274.98 507.09 278.01 497.4 277.72C487.71 277.42 474.78 276.19 474.78 276.19C473.78 278.88 469.8 288.53 469.8 289.65Z" id="dcLFcQdpq"/><path d="M514.53 291.62C498.08 293.98 487.44 292.62 487.44 292.62C487.44 292.62 536.26 319.35 537.87 322.83C539.48 326.31 524.07 338.37 519.55 351.92C515.53 363.98 512.83 393.98 512.3 400.45C512.22 401.23 512.68 401.93 513.38 402.27C515 403.01 518.28 404.3 523.2 405.22C530.49 406.55 535.22 407.87 535.35 406.21C535.48 404.56 562.57 354.29 563.57 352.64C564.56 350.98 580.1 326.73 580.76 320.56C582.69 301.97 525.04 288.89 525.04 288.89C522.94 289.44 518.37 291.09 514.53 291.62Z" id="h40MfbmyK"/><path d="M527.06 207.08C532.27 211.47 541.81 230.04 543.8 234.02C544.06 234.49 543.93 235.02 543.59 235.4C542.3 236.69 539.16 239.62 536.26 241.12C532.53 243.07 525.06 244.56 525.06 244.56C524.89 243.43 523.54 234.41 523.37 233.28C523.37 233.28 527.48 240.74 524.75 248.78C523.13 253.46 521.97 259.72 521.71 262.79C521.59 264.53 521.97 274.39 521.97 274.39C521.97 274.39 511.94 277 501.13 277.74C490.36 278.48 472 275 472 275C472 275 472.91 252.13 472.34 247.99C471.22 239.7 473.59 233.66 473.59 233.66C473.27 234.92 470.75 244.99 470.43 246.25C470.43 246.25 459.58 247.63 457.5 246.55C455.51 245.51 452.07 242.57 450.59 241.29C450.12 240.91 449.97 240.3 450.1 239.73C451.14 235.51 455.87 218.1 463.69 209.43C467.72 205 482.45 200.4 485.91 200.4C489.4 200.33 508.04 199.53 508.04 199.53C511.84 201.04 521.23 202.18 527.06 207.08Z" id="a45MwSqdPN"/><path d="M462.44 114.3C462.44 107.81 468.04 102.54 474.95 102.54C481.86 102.54 487.46 107.81 487.46 114.3C487.46 120.8 481.86 126.07 474.95 126.07C468.04 126.07 462.44 120.8 462.44 114.3Z" id="b1RVvIZxOr"/><path d="M521.23 415.35C516.97 413.95 512.77 410.66 512.77 410.66C512.77 410.66 507.47 416.35 506 417.7C504.54 419.06 502.7 419.99 501.23 422.56C499.77 425.12 499.67 432.29 509.57 439.01C513.13 441.45 517.6 457.11 526.4 460.23C532.29 462.31 536.96 462.96 540.94 461.14C545.01 459.28 546.03 454.85 537.87 448.8C529.71 442.76 531.57 435.7 530.7 431.27C529.83 426.82 530.26 415.09 530.26 415.09C528.45 415.14 524 416.26 521.23 415.35Z" id="eFsxyMeqR"/><path d="M599.24 429.64C599.82 434.03 594.85 437.8 590.57 437.8C585.44 437.8 582.49 434.03 581.9 429.64C581.07 423.09 580.21 416.54 579.38 410.01C578.81 405.62 583.77 401.84 588.05 401.84C593.2 401.84 596.15 405.62 596.72 410.01C597.55 416.56 598.42 423.11 599.24 429.64Z" id="b2q9fSwokU"/><path d="M545.84 269.32C543.27 271.76 539.71 267.71 542.28 265.21C546.58 261.1 551.31 257.43 557.2 256.26C560.64 255.56 561.7 260.95 558.22 261.65C553.24 262.64 549.44 265.87 545.84 269.32Z" id="b17AnYXj6a"/><path d="M508.04 182.55C508.04 182.55 506.56 201.78 506.56 201.9C506.56 205.3 502.04 208.03 496.45 208.03C490.85 208.03 486.33 205.3 486.33 201.9C486.38 201.82 487.86 182.67 487.86 182.67C491.9 182.65 506.02 182.56 508.04 182.55Z" id="aypWS3z1G"/><path d="M507.91 184.37C507.89 184.76 507.69 187.84 507.66 188.23C505.37 189.31 501.77 190.1 498.12 190.35C494.92 190.56 490.4 190.69 487.35 189.78C487.38 189.27 487.66 185.25 487.69 184.75C490.76 185.62 493.96 186.07 497.27 186.07C501 186.07 504.61 185.45 507.91 184.37Z" id="i3zlHU1btW"/><path d="M459.09 306.08C457.52 312.89 456.48 323.19 458.75 329.21C461.04 335.21 468.2 343.92 481.24 344.71C502.78 346 547.71 338.16 549.7 338.16C551.69 338.16 550.91 351.3 557.65 369.66C563.69 385.99 574.48 413.12 576.75 418.8C577 419.46 577.62 419.89 578.32 419.93C580.67 420.06 586.27 420.18 591.95 419.27C595.94 418.66 598.86 416.98 600.45 415.96C601.19 415.48 601.58 414.59 601.49 413.72C600.79 407.42 597.76 381.24 595.89 370.49C593.9 359.17 592.46 315.58 585.25 306.76C578.96 299.04 576.67 298.22 569.58 295.99C563.2 294 495.04 293.38 495.04 293.38C493.34 293.13 484.83 291.87 469.5 289.59C463.62 296.05 460.15 301.54 459.09 306.08Z" id="a1etGSLNmx"/><path d="M610.42 444.22C618.33 449.52 628.4 456.69 629.9 458.2C631.39 459.68 634.8 466.1 629.6 469.56C625.87 472 615.1 472.95 601.51 466.25C591.27 461.21 586.18 460.12 582.45 458.7C576.24 456.41 577.64 449.63 578.93 446.32C579.93 443.72 580.23 443.21 580.93 436.46C581.1 435.02 581.67 429.13 581.67 429.13C581.67 429.13 586.93 430.91 592.69 430.21C596.91 429.68 599.29 426.86 599.29 426.86C599.29 426.86 600.11 431.42 600.88 432.8C602.96 436.66 607.05 442 610.42 444.22Z" id="a1sMiO1LF7"/><path d="M538.78 352.57C540.07 352.57 541.09 351.54 541.09 350.26C541.09 349.51 541.09 343.43 541.09 342.67C541.09 341.38 540.05 340.36 538.78 340.36C531.13 340.36 469.98 340.36 462.33 340.36C461.04 340.36 460.02 341.4 460.02 342.67C460.02 343.43 460.02 349.51 460.02 350.26C460.02 351.54 461.06 352.57 462.33 352.57C477.62 352.57 531.13 352.57 538.78 352.57Z" id="dJjdIt5vi"/><path d="M575.92 236.46C574.97 236.55 574.06 237.08 573.4 237.9C569.05 243.3 534.25 286.5 529.9 291.9C529.41 292.51 529.81 293.55 530.47 293.47C534.75 293 568.95 289.21 573.23 288.74C574.02 288.65 574.71 288.25 575.27 287.53C579.46 282.13 613.01 238.95 617.2 233.56C617.56 233.11 617.29 232.31 616.78 232.39C608.61 233.2 580.01 236.05 575.92 236.46Z" id="b35VxA1nKZ"/><path d="M467.12 245.49C467.08 245.83 466.74 247.61 466.87 246.89C466.95 246.28 466.7 248.23 466.66 248.67C466.57 249.5 466.53 250.33 466.49 251.15C466.44 252.68 466.49 254.23 466.57 255.8C466.61 256.26 466.66 256.75 466.7 257.19C466.7 257.07 466.53 256.03 466.66 256.94C466.83 257.85 467 258.81 467.23 259.72C467.4 260.42 467.65 261.1 467.84 261.75C468.31 263.28 467.72 261.79 468.27 262.88C468.61 263.49 468.92 264.17 469.26 264.74C469.48 265.08 470.87 267.09 470.13 266.14C472.44 269.05 474.2 270.32 477.77 271.95C491.78 278.37 510.24 273.29 524.77 269.83C531.19 268.3 537.61 266.63 543.91 264.66C553.24 261.71 557.2 276.34 547.94 279.29C532.27 284.27 515.78 288.1 499.41 289.61C480.65 291.31 459.83 285.18 453.21 265.74C450.31 257.19 450.97 247.76 452.88 239.09C455.04 229.55 469.67 233.6 467.61 243.14C467.44 243.92 467.27 244.71 467.12 245.49Z" id="a4r7n7oVEj"/><path d="M455.7 226.77C455.16 228.19 450.85 239.52 450.31 240.93C450.31 240.93 451.84 243.63 457.9 246.7C464.03 249.77 469.79 249.05 469.79 249.05C469.96 248.35 470.77 244.83 472.23 238.5C463.41 232.24 457.9 228.34 455.7 226.77Z" id="ayArfuMUD"/><path d="M480.31 304.7C479.93 308.14 479.44 311.62 479.32 315.11C479.23 318.02 479.61 321.11 481.75 323.28C483.66 325.18 486.4 325.84 489.01 326.05C492.12 326.31 495.22 326.05 498.33 325.93C502.11 325.76 505.88 325.59 509.65 325.44C517.29 325.1 524.9 324.78 532.49 324.48C536.18 324.31 539.86 324.15 543.55 324.02C546.54 323.89 549.55 323.85 552.54 324.15C558.35 324.72 564.01 326.63 567.7 331.4C571.52 336.34 572.64 342.67 573.91 348.59C575.52 356.09 577.14 363.56 578.77 371.04C580.4 378.52 581.99 386.01 583.62 393.49C585 399.75 586.23 406.08 587.84 412.25C588.1 413.21 588.33 414.2 588.63 415.16C589.05 416.56 586.89 417.15 586.46 415.73C584.89 410.39 583.77 404.96 582.6 399.53C580.99 392.03 579.38 384.57 577.75 377.08C576.14 369.54 574.49 362.01 572.85 354.46C572.11 350.98 571.41 347.51 570.56 344.05C569.86 341.06 569.04 338.12 567.57 335.38C566.2 332.77 564.31 330.57 561.72 329.08C559.24 327.6 556.42 326.84 553.56 326.48C547.09 325.61 540.33 326.35 533.84 326.65C526.21 326.99 518.6 327.3 511.01 327.6C507.15 327.77 503.34 327.94 499.5 328.09C496.3 328.22 493.03 328.51 489.85 328.34C487.16 328.22 484.34 327.77 481.99 326.31C479.55 324.87 477.92 322.41 477.35 319.63C476.69 316.51 477.05 313.33 477.39 310.22C477.81 306.4 478.17 302.54 478.6 298.75C478.81 296.88 478.98 295.06 479.17 293.19C479.47 291.81 481.69 291.77 481.52 293.24C481.1 297.05 480.74 300.91 480.31 304.7Z" id="bnnZGnLla"/><path d="M714.94 464.09C709.94 447.71 669.96 316.65 664.97 300.27C664.27 298.15 661.93 297.01 659.84 297.75C659.31 297.94 655.14 299.43 654.62 299.62C652.5 300.36 651.42 302.73 652.22 304.79C657.74 320.99 701.83 450.58 707.35 466.78C708.11 468.82 710.4 469.88 712.45 469.13C714.53 468.39 715.61 466.15 714.94 464.09Z" id="c11RK2LEC4"/><path d="M450.9 464.09C455.9 447.71 495.84 316.65 500.83 300.27C501.53 298.15 503.86 297.01 505.96 297.75C506.48 297.94 510.66 299.43 511.18 299.62C513.3 300.36 514.38 302.73 513.57 304.79C508.06 320.98 463.93 450.54 458.41 466.74C457.73 468.82 455.46 469.88 453.39 469.13C451.31 468.39 450.23 466.15 450.9 464.09Z" id="dwAEGKKO2"/><path d="M720.62 305.91C722.86 305.91 724.69 304.09 724.69 301.84C724.69 300.95 724.69 293.83 724.69 292.94C724.69 290.69 722.86 288.87 720.62 288.87C693.07 288.87 472.72 288.87 445.18 288.87C442.93 288.87 441.11 290.69 441.11 292.94C441.11 293.83 441.11 300.95 441.11 301.84C441.15 304.09 442.96 305.91 445.18 305.91C500.27 305.91 693.07 305.91 720.62 305.91Z" id="ed2V7z9d"/><path d="M724.56 460.99C724.56 460.95 723.35 461.86 723.35 458.43C723.41 457.91 723.87 453.81 723.92 453.3C723.92 453.3 726.09 453.95 726.91 454.29C729.48 455.38 731.81 458.41 732.51 458.36C733.17 458.32 735.58 456.16 739.36 455.14C743.13 454.1 747.56 455.1 747.99 454.8C748.37 454.55 748.24 453.23 748.81 451.54C749.51 449.55 751.34 447.28 751.34 447.28C751.42 447.36 757.1 458.22 758.29 460.42C759.48 462.63 761.51 466.02 761.81 473.31C762.23 483.04 755.68 479.12 755.68 479.12C755.98 478.84 757.5 477.43 760.24 474.9L766.79 474.9C767.93 474.9 768.57 474.9 768.7 474.9C771.14 474.9 773.13 477.3 773.13 480.2C773.13 483.11 771.14 485.5 768.7 485.5C768.57 485.5 767.93 485.5 766.79 485.5L760.24 485.5L658.35 485.5C658.3 480.03 658.27 476.99 658.27 476.38C658.27 476.26 657.67 451.56 687.84 447.81C713.15 444.65 724.52 460.95 724.56 460.99Z" id="b23EE8nx9v"/><path d="M755.68 489.61C758.63 489.61 760.98 487.22 760.98 484.31C760.98 481.37 758.59 479.01 755.68 479.01C746.48 479.01 672.85 479.01 663.65 479.01C660.7 479.01 658.35 481.41 658.35 484.31C658.35 487.2 660.75 489.61 663.65 489.61C682.06 489.61 746.48 489.61 755.68 489.61Z" id="f3gtP3W8c5"/><path d="M695.3 463.24C698.87 465.36 701.73 468.63 703.25 472.48C703.78 473.86 704.17 475.3 704.21 476.75C707.6 476.53 711.25 476.53 714.41 477.87C716.06 478.57 717.48 479.69 718.14 481.43C718.75 483 718.75 484.91 718.05 486.48C717.27 488.3 715.61 489.47 713.62 489.47C712.84 489.47 712.84 488.21 713.62 488.21C716.84 488.17 717.97 484.44 716.93 481.88C715.68 478.72 711.5 478.14 708.55 477.97C706.86 477.89 705.2 477.93 703.51 478.06C703.17 478.1 702.89 477.76 702.89 477.44C703.06 474.46 701.56 471.32 699.73 468.9C697.08 465.38 693.14 463.01 688.88 462.1C685.62 461.4 682.2 461.52 678.94 462.14C678.24 462.27 677.9 461.06 678.68 460.93C684.32 459.89 690.28 460.27 695.3 463.24Z" id="c26gtHGRAu"/><path d="M657.14 490.19C654.7 490.65 649.55 491.8 654.03 493.83C659.66 496.4 667.32 494.66 673.3 495C679.89 495.42 687.1 497.12 691.49 502.42C695.96 507.8 694.26 519.44 685.4 518.45C680.1 517.83 677.77 512.45 681.18 508.25C681.35 508.04 681.52 507.83 681.67 507.64C681.14 508.59 680.59 509.5 680.02 510.45C680.4 509.42 681.01 510.75 679.85 510.2C678.47 509.54 677.32 508.67 675.86 508.17C672.79 507.13 669.57 506.83 666.41 506.51C659.86 505.9 651.52 505.98 646.31 501.34C641.14 496.74 640.35 488.49 646.39 484.19C652.2 480.07 663.37 480.54 669.84 482.66C672.38 483.55 672.72 487.58 669.82 488.28C665.69 489.23 661.32 489.4 657.14 490.19Z" id="c1g5F7wAr7"/><path d="M751.48 469.03C750 469.37 748.28 468.9 747.26 467.74C746.84 467.25 747.56 466.53 747.96 467.04C748.75 467.95 750.04 468.33 751.19 468.07C752.31 467.82 753.26 466.95 753.47 465.79C753.64 465.13 754.6 465.36 754.47 466.04C754.22 467.52 752.9 468.69 751.48 469.03Z" id="brGDiTj7m"/><path d="M737.58 472.25C735.93 472.55 734.31 471.78 733.06 470.77C732.58 470.34 733.28 469.64 733.76 470.07C734.72 470.89 735.97 471.47 737.24 471.32C738.19 471.19 739.36 470.49 739.36 469.41C739.36 468.73 740.36 468.73 740.36 469.39C740.36 470.87 738.96 472 737.58 472.25Z" id="b6SulH4lr"/><path d="M748.22 474.46C748.43 474.41 748.69 474.58 748.75 474.75C748.88 474.96 748.83 475.18 748.75 475.37C748.71 475.41 748.67 475.49 748.67 475.54C748.71 475.37 748.67 475.58 748.62 475.62C748.58 475.71 748.58 475.79 748.54 475.92C748.54 475.96 748.5 476 748.5 476.09C748.5 476.09 748.5 476.13 748.5 476.13C748.5 476.22 748.5 476.3 748.45 476.43C748.41 476.89 748.41 477.3 748.37 477.76C748.37 477.81 748.37 477.81 748.37 477.85C748.37 477.85 748.37 477.86 748.37 477.89C748.37 477.92 748.37 477.93 748.37 477.93C748.28 478.19 747.94 478.36 747.71 478.31C747.67 478.31 747.67 478.31 747.67 478.31C747.58 478.27 747.46 478.23 747.37 478.14C747.33 478.1 747.29 478.06 747.29 478.06C747.2 477.98 747.07 477.93 746.99 477.89C746.95 477.85 746.86 477.85 746.82 477.81C746.78 477.81 746.78 477.76 746.74 477.76C746.61 477.72 746.48 477.68 746.4 477.64C745.91 477.42 745.36 477.21 745 476.85C744.74 476.51 744.7 476.07 744.95 475.86C745.91 475.07 747.03 474.6 748.22 474.46ZM746.74 477.68C746.61 477.64 746.69 477.68 746.74 477.68C746.69 477.68 746.69 477.68 746.74 477.68Z" id="b16akXDYmk"/><path d="M595.13 117.97C605.03 114.85 616.27 116.23 625.3 121.24C629.73 123.67 633.76 127.09 636.24 131.39C638.72 135.69 639.5 141.04 637.68 145.68C635.47 151.28 629.96 154.97 624.39 157.57C618.39 160.39 610.18 162.26 602.55 160.35C596.25 164.21 589.96 168.11 583.66 171.95C584.83 167.64 588.3 159.1 588.43 159.06C588.35 159.05 587.69 158.98 587.6 158.97C583.04 157.36 578.91 154.54 575.92 150.85C574.48 149.07 573.23 146.99 572.85 144.73C572.49 142.56 572.98 140.36 573.67 138.28C576.9 128.74 585.23 121.09 595.13 117.97Z" id="bjKXMxvo"/><path d="M636.22 97.87C653.32 92.51 672.38 93.57 688.79 100.86C696.47 104.25 703.91 109.41 707.28 117.1C710.18 123.82 709.57 131.77 706.2 138.28C702.83 144.79 697 149.84 690.36 152.87C692.67 158.8 696.21 166.05 698.48 171.97C693.8 169.19 689.07 166.41 684.38 163.64C681.99 162.24 679.53 160.77 676.84 159.95C673.19 158.82 669.29 158.91 665.47 158.65C654.79 158.04 644.12 154.84 635.39 148.67C626.7 142.46 620.02 133.09 618.07 122.57C617.47 119.05 617.37 115.34 618.47 111.93C620.95 104.51 628.71 100.25 636.22 97.87Z" id="a1BfBG7hTO"/><path d="M636.75 179.43C642.79 174.7 650.95 173.18 658.54 174.39C661.36 174.85 664.18 175.68 666.53 177.29C671.39 180.64 673.49 187.36 671.58 192.91C671.33 193.7 670.37 194.53 670.37 194.53C672.72 199 674.1 202.31 676.1 206.91C671.45 203.39 666.41 200.31 661.04 197.75C660.98 197.78 660.45 198.05 660.39 198.09C654.05 201.95 645.67 200.08 639.29 196.31C635.6 194.1 631.83 190.41 632.36 186.02C632.7 183.33 634.65 181.13 636.75 179.43Z" id="c2jWZ6u5Vb"/><path d="M524.96 237.65C525.61 240.64 525.61 244.45 525.61 244.45C525.86 244.4 527.81 243.98 528.05 243.92C528.05 243.92 527.44 240.06 525.85 235.97C525.04 233.85 521.88 227.87 521.88 227.87C522.5 229.83 524.36 235.08 524.96 237.65Z" id="dRAr8X4Ko"/><path d="M472.49 240.98C472.11 244.09 472.23 248.84 472.23 248.84C471.99 248.86 470.04 248.99 469.79 249.01C469.79 249.01 470.32 243.12 471.45 239.24C471.96 237.37 473.61 232.47 473.61 232.47C473.39 234.17 472.66 239.47 472.49 240.98Z" id="esDx0lbmy"/><path d="M487.16 176.61C487.16 170.4 484.42 165.5 480.9 165.5C477.43 165.5 474.65 170.4 474.65 176.61C474.65 182.89 477.38 187.72 480.9 187.72C484.38 187.72 487.16 182.82 487.16 176.61ZM485.63 176.65C485.63 181.87 483.47 186.26 480.9 186.26C478.34 186.26 476.18 181.87 476.18 176.65C476.18 171.44 478.34 167.05 480.9 167.05C483.47 167.05 485.63 171.44 485.63 176.65Z" id="b5GJlTJyD"/><path d="M451.94 185.03C453.29 181.24 464.06 150.91 465.41 147.12C469.43 133.7 482.51 123.82 498.05 123.82C508.17 123.82 513.98 128.08 513.98 128.08C513.89 128.08 507.42 129.65 502.61 134.17C497.76 138.73 500.66 144.24 494.85 149.71C490.95 153.35 484.17 155.18 484.17 155.18C484.17 155.71 483.09 181.53 482.64 192.47C482.47 196.33 480.29 195.95 472.57 194.87C462.33 193.44 458.32 192.11 453.81 190.01C451.07 188.72 451.29 187.4 451.94 185.03Z" id="fD5NrAgkp"/><path d="M511.28 151.47C512.73 150.73 514.32 150.34 515.97 150.34C516.5 150.34 517.05 150.39 517.58 150.47C518.87 146.21 522.79 143.09 527.48 143.09C533.21 143.09 537.85 147.74 537.85 153.46C537.85 159.18 533.21 163.83 527.48 163.83C521.76 163.83 517.11 159.18 517.11 153.46C517.11 152.99 517.16 152.51 517.24 152.06C515.42 151.81 513.51 152.1 511.9 152.97C512.28 154.01 512.47 155.14 512.47 156.28C512.47 162 507.83 166.65 502.1 166.65C496.38 166.65 491.74 162 491.74 156.28C491.74 150.56 496.4 145.91 502.13 145.91C506.11 145.91 509.55 148.16 511.28 151.47ZM536.22 153.46C536.22 148.6 532.27 144.73 527.48 144.73C522.63 144.73 518.75 148.67 518.75 153.46C518.75 158.27 522.67 162.2 527.48 162.2C532.34 162.2 536.22 158.25 536.22 153.46ZM510.86 156.28C510.86 151.43 506.92 147.54 502.13 147.54C497.27 147.54 493.39 151.49 493.39 156.28C493.33 161.07 497.27 165.02 502.13 165.02C506.98 165.02 510.86 161.07 510.86 156.28Z" id="f22aasCRi7"/><path d="M561.51 278.23C566.68 277.7 570.71 273.84 570.37 269.6C570.36 269.45 570.25 268.3 570.24 268.15C569.9 263.98 565.39 260.95 560.21 261.48C559.39 261.56 552.79 262.22 551.97 262.3C546.79 262.83 542.77 266.69 543.11 270.93C543.12 271.08 543.22 272.23 543.23 272.37C543.55 276.61 548.07 279.6 553.26 279.05C554.91 278.89 560.68 278.31 561.51 278.23Z" id="bPTXQ4i3Q"/><path d="M658.77 186.98C658.77 185.76 659.81 184.77 661.08 184.77C662.36 184.77 663.4 185.76 663.4 186.98C663.4 188.2 662.36 189.18 661.08 189.18C659.81 189.18 658.77 188.2 658.77 186.98Z" id="d1BomJ34DT"/><path d="M650.72 186.98C650.72 185.76 651.75 184.77 653.03 184.77C654.31 184.77 655.34 185.76 655.34 186.98C655.34 188.2 654.31 189.18 653.03 189.18C651.75 189.18 650.72 188.2 650.72 186.98Z" id="a2CEh8rMFo"/><path d="M643.24 186.98C643.24 185.76 644.27 184.77 645.55 184.77C646.82 184.77 647.86 185.76 647.86 186.98C647.86 188.2 646.82 189.18 645.55 189.18C644.27 189.18 643.24 188.2 643.24 186.98Z" id="a2KPwaqRa"/><path d="M605.58 149.39C605.46 149.81 605.25 150.22 604.93 150.51C604.67 150.77 604.44 150.94 604.1 151.04C603.8 151.21 603.49 151.3 603.1 151.26C602.64 151.26 602.19 151.13 601.81 150.92C601.81 150.92 601.77 150.92 601.77 150.87C601.98 150.96 602.19 151.04 602.38 151.13C602.38 151.13 602.35 151.13 602.34 151.13C602.6 151.17 602.81 151.21 603.04 151.21C603.04 151.21 603.04 151.21 603 151.21C602.74 151.17 602.53 151.13 602.3 151.13C602.09 151.04 601.87 150.96 601.68 150.87C601.51 150.75 601.3 150.58 601.15 150.45C601.03 150.28 600.86 150.07 600.73 149.92C600.65 149.71 600.56 149.5 600.48 149.31C600.43 149.05 600.39 148.84 600.39 148.6C600.43 148.35 600.48 148.14 600.48 147.91C600.56 147.57 600.73 147.25 600.96 146.99C601.09 146.78 601.26 146.61 601.45 146.51C601.62 146.34 601.83 146.21 602.02 146.17C602.24 146.04 602.45 146 602.68 146C602.93 145.91 603.15 145.91 603.38 146C603.63 146 603.85 146.04 604.04 146.17C604.25 146.25 604.46 146.34 604.61 146.51C604.82 146.63 604.99 146.8 605.1 146.99C605.35 147.25 605.52 147.52 605.58 147.86C605.67 148.35 605.75 148.9 605.58 149.39Z" id="d3RNePqPBb"/><path d="M606.05 130.37C605.18 130.46 603.4 130.9 602.89 131.75C602.51 132.32 602.42 131.67 603.06 132.32C603.44 132.71 604.14 132.94 604.59 133.24C607.53 135.19 610.58 140.74 606.15 142.92C604.42 143.79 602.13 142.75 602.17 140.63C602.17 139.68 602.51 139.07 602 138.24C601.66 137.71 600.83 137.28 600.35 136.95C598.97 135.95 597.65 134.91 597.36 133.13C596.87 129.93 599.71 127.49 602.44 126.45C605.43 125.33 608.78 125.71 611.39 127.53C612.79 128.53 615.57 131.71 613 133C612.51 133.28 611.94 133.15 611.65 132.66C610.61 131.05 607.91 130.18 606.05 130.37Z" id="b2znq3KmJQ"/><path d="M638.02 288.89C642.7 288.89 646.6 285.2 646.84 280.51C646.95 278.48 647.85 262.2 647.96 260.16C648 259.42 647.39 258.76 646.62 258.76C644.21 258.76 624.91 258.76 622.5 258.76C621.76 258.76 621.12 259.42 621.16 260.16C621.27 262.2 622.17 278.48 622.29 280.51C622.54 285.2 626.44 288.89 631.11 288.89C632.49 288.89 637.32 288.89 638.02 288.89Z" id="bsntc2RJy"/><path d="M621.59 266.46C618.72 267.03 616.6 269.58 616.6 272.59C616.6 275.85 619.13 278.52 622.33 278.8C622.34 279.11 622.48 281.6 622.5 281.91C617.47 281.7 613.51 277.61 613.51 272.59C613.55 267.92 616.94 264.06 621.42 263.34C621.45 263.97 621.57 266.15 621.59 266.46Z" id="b2w6UFcWa"/><path d="M638.5 244.5C638.21 238.37 632.7 236.04 634.82 230.25C635.81 227.51 639.95 218.61 639.95 218.61C639.95 218.61 633.1 225.37 630.7 229.55C628.5 233.32 628.75 239.32 631.17 242.18C636.34 248.44 632.78 253.99 632.78 253.99C633.92 252.09 638.72 248.52 638.5 244.5Z" id="a2G6KbOYs2"/><path d="M688.71 118.52C689.87 118.52 690.83 117.57 690.83 116.4C690.83 115.24 689.87 114.28 688.71 114.28C683.65 114.28 643.14 114.28 638.08 114.28C636.92 114.28 635.96 115.24 635.96 116.4C635.96 117.57 636.92 118.52 638.08 118.52C648.21 118.52 683.65 118.52 688.71 118.52Z" id="byFQoi2Ff"/><path d="M688.71 138.92C689.88 138.92 690.83 137.96 690.83 136.8C690.83 135.63 689.88 134.68 688.71 134.68C685.3 134.68 658.05 134.68 654.64 134.68C653.47 134.68 652.52 135.63 652.52 136.8C652.54 137.96 653.5 138.92 654.66 138.92C661.47 138.92 685.3 138.92 688.71 138.92Z" id="bfUi9JQnd"/><path d="M688.73 128.47C689.9 128.47 690.85 127.51 690.85 126.35C690.85 125.18 689.9 124.22 688.73 124.22C686.5 124.22 668.7 124.22 666.47 124.22C665.3 124.22 664.35 125.18 664.35 126.35C664.35 127.55 665.3 128.47 666.47 128.47C670.92 128.47 686.5 128.47 688.73 128.47Z" id="c22ZOIAeud"/><path d="M656.23 128.47C657.4 128.47 658.35 127.51 658.35 126.35C658.35 125.18 657.4 124.22 656.23 124.22C654.83 124.22 643.66 124.22 642.26 124.22C641.09 124.22 640.14 125.18 640.14 126.35C640.16 127.55 641.12 128.47 642.26 128.47C645.05 128.47 654.83 128.47 656.23 128.47Z" id="b3NlOM6npT"/><path d="M233.42 223.36L233.42 291.78L213.96 291.78L213.96 223.36L233.42 223.36Z" id="d4D9Hbrl0l"/><path d="M262.84 223.36L262.84 291.78L233.42 291.78L233.42 223.36L262.84 223.36Z" id="b7f1lmMRu"/><path d="M224.5 213.52L233.42 223.36L213.96 223.36L224.5 213.52Z" id="baFXtJtA8"/><path d="M233.42 223.36L224.5 213.52L251.31 213.52L262.84 223.36L233.42 223.36Z" id="e1e2iB6qby"/><path d="M249.23 208.05C250.38 208.05 251.31 208.98 251.31 210.13C251.31 210.36 251.31 211.49 251.31 213.52L224.51 213.52C224.51 211.49 224.51 210.36 224.51 210.13C224.5 208.98 225.46 208.05 226.6 208.05C231.13 208.05 246.97 208.05 249.23 208.05Z" id="c47HafMFwK"/><path d="M227.04 216.3L224.5 213.52L213.96 223.36L227.04 216.3Z" id="dN7szOeV0"/><path d="M262.84 240.42L262.84 273.06L233.42 273.06L233.42 240.42L262.84 240.42Z" id="a1h7rNXfeP"/><path d="M233.42 240.42L233.42 273.06L213.96 273.06L213.96 240.42L233.42 240.42Z" id="b1fbXstREr"/><path d="M313.8 355.26C310.89 349.46 287.65 303.03 284.74 297.22C283.65 295.25 281.13 294.54 279.18 295.69C278.69 295.97 274.82 298.19 274.34 298.47C272.38 299.6 271.73 302.12 272.89 304.06C276.28 309.58 303.4 353.77 306.79 359.29C307.93 361.19 310.37 361.81 312.29 360.73C314.2 359.62 314.87 357.19 313.8 355.26Z" id="c5DVbsYm"/><path d="M166.46 355.26C169.36 349.46 192.61 303.03 195.51 297.22C196.6 295.25 199.12 294.54 201.08 295.69C201.56 295.97 205.43 298.19 205.92 298.47C207.87 299.6 208.52 302.12 207.37 304.06C203.98 309.58 176.84 353.77 173.45 359.29C172.31 361.19 169.86 361.81 167.96 360.73C166.05 359.62 165.39 357.19 166.46 355.26Z" id="a11XES0Pe8"/><path d="M314.24 305.53C316.22 305.53 317.81 303.94 317.81 301.96C317.81 301.3 317.81 296.06 317.81 295.41C317.81 293.43 316.22 291.83 314.24 291.83C299.41 291.83 180.8 291.83 165.98 291.83C164 291.83 162.41 293.43 162.41 295.41C162.41 296.06 162.41 301.3 162.41 301.96C162.42 303.94 164.01 305.53 165.99 305.53C195.64 305.53 299.41 305.53 314.24 305.53Z" id="a7Cc1XMy6b"/><path d="M206.9 291.82C212.06 291.82 216.32 287.79 216.6 282.64C216.72 280.4 217.69 262.5 217.81 260.26C217.85 259.41 217.18 258.7 216.36 258.7C213.71 258.7 192.51 258.7 189.86 258.7C189.02 258.7 188.35 259.4 188.41 260.26C188.53 262.5 189.49 280.4 189.62 282.64C189.9 287.79 194.15 291.82 199.32 291.82C200.83 291.82 206.14 291.82 206.9 291.82Z" id="a1U9XppmRt"/><path d="M188.87 267.22C185.75 267.87 183.41 270.63 183.41 273.93C183.41 277.52 186.18 280.47 189.68 280.77C189.7 281.11 189.87 283.85 189.89 284.2C184.4 283.99 180.01 279.48 180.01 273.93C180 268.79 183.75 264.55 188.67 263.79C188.71 264.48 188.85 266.88 188.87 267.22Z" id="bkuH7wTlV"/><path d="M207.42 243.08C207.11 236.32 201.05 233.76 203.38 227.43C204.48 224.4 209.02 214.66 209.02 214.66C209.02 214.66 201.5 222.08 198.86 226.66C196.46 230.81 196.74 237.39 199.36 240.55C205.04 247.4 201.14 253.48 201.14 253.48C202.39 251.4 207.63 247.47 207.42 243.08Z" id="d1TXHGJS6e"/><path d="M288.91 354.81C288.91 337.54 302.92 323.53 320.19 323.53C337.46 323.53 351.47 337.54 351.47 354.81C351.47 372.09 337.46 386.09 320.19 386.09C302.92 386.09 288.91 372.09 288.91 354.81Z" id="b13WA8TMTE"/><path d="M321.33 386.07C323.38 386.07 325.07 384.37 325.07 382.32C325.07 380.27 323.38 378.57 321.33 378.57C307.47 378.57 196.59 378.57 182.73 378.57C180.68 378.57 178.98 380.27 178.98 382.32C178.95 384.37 180.65 386.07 182.7 386.07C210.43 386.07 307.46 386.07 321.33 386.07Z" id="ay0Ghrd6G"/><path d="M323.76 358.2C322.27 361.53 318.28 362.36 315.15 360.88C313.5 360.12 312.12 358.79 311.4 357.1C310.7 355.47 310.59 353.55 311.03 351.83C312.02 347.89 315.19 345.23 319.07 344.45C322.95 343.67 327.55 344.74 330.33 347.7C333.1 350.64 333.68 355.26 333.13 359.11C332.63 362.68 331.03 366.09 328.44 368.57C325.51 371.35 321.48 372.34 317.53 372.14C315.49 372.04 313.48 371.64 311.52 371.07C309.52 370.49 307.56 369.8 305.71 368.85C302.34 367.12 299.64 364.49 298.25 360.92C295.61 354.13 297.76 346.24 302.78 341.24C305.62 338.42 309.16 336.42 312.93 335.15C316.8 333.85 321 333.19 325.06 333.41C329.14 333.64 332.93 335.2 335.94 338.02C338.51 340.43 340.39 343.52 341.61 346.83C343.9 353.18 344.06 360.82 340.96 366.91C337.29 374.11 329.75 378.1 322.03 379.26C320.05 379.56 318.07 379.66 316.08 379.66C315.57 379.66 315.11 379.36 315.04 378.82C314.99 378.36 315.36 377.77 315.87 377.77C323.01 377.82 330.57 376.03 335.75 370.83C338.01 368.57 339.69 365.82 340.57 362.72C341.39 359.76 341.58 356.63 341.25 353.56C340.57 347.28 337.64 340.86 332.14 337.43C328.94 335.44 325.22 335.05 321.55 335.32C317.92 335.6 314.33 336.42 311 337.89C307.76 339.35 304.79 341.46 302.6 344.27C300.66 346.75 299.48 349.73 299.11 352.86C298.76 355.87 299.23 359.01 300.69 361.69C302.33 364.76 305.24 366.67 308.37 367.96C314.64 370.54 323.17 371.99 328.09 366.14C330.14 363.71 331.21 360.58 331.4 357.39C331.61 353.88 330.7 349.89 327.65 347.79C324.78 345.83 320.68 345.49 317.51 346.83C314.57 348.05 312.43 351.06 312.67 354.34C312.78 355.83 313.39 357.25 314.57 358.21C315.67 359.14 317.14 359.72 318.6 359.65C319.93 359.56 321.15 358.96 321.84 357.81C322.45 356.8 322.61 355.55 322.38 354.4C322.21 353.39 321.61 352.38 320.65 351.86C319.59 351.36 320.31 349.63 321.38 350.2C324.2 351.71 325.01 355.4 323.76 358.2Z" id="f2kc63FJVp"/><path d="M212.22 350.29C215.01 350.29 217.39 351.92 218.51 354.27C218.51 354.27 218.51 354.26 218.51 354.25L220.89 358.93L249.53 358.93L251.89 354.25C251.89 354.26 251.89 354.27 251.89 354.27C253.01 351.92 255.39 350.29 258.18 350.29C258.67 350.29 262.64 350.29 263.14 350.29C268.85 350.29 273.46 354.91 273.46 360.62C273.46 361.38 273.46 367.48 273.46 368.24C273.46 373.95 268.85 378.57 263.14 378.57C262.64 378.57 258.67 378.57 258.18 378.57C255.39 378.57 253.01 376.94 251.89 374.6C251.89 374.6 251.89 374.6 251.89 374.62L249.51 369.94L220.87 369.94L218.49 374.62C218.49 374.6 218.49 374.6 218.49 374.6C217.37 376.94 214.99 378.57 212.2 378.57C211.71 378.57 207.74 378.57 207.25 378.57C201.54 378.57 196.92 373.95 196.92 368.24C196.92 367.48 196.92 361.38 196.92 360.62C196.96 354.91 201.58 350.29 207.27 350.29C208.26 350.29 211.73 350.29 212.22 350.29Z" id="bl2CMQtT4"/><path d="M227.83 367.24C230.61 367.24 232.99 368.87 234.12 371.21C234.12 371.21 234.12 371.21 234.12 371.2L236.5 375.87L265.14 375.87L267.52 371.2C267.52 371.21 267.52 371.21 267.52 371.21C268.65 368.87 271.03 367.24 273.81 367.24C274.31 367.24 278.28 367.24 278.77 367.24C284.48 367.24 289.1 371.86 289.1 377.57C289.1 378.33 289.1 384.43 289.1 385.19C289.1 390.9 284.48 395.52 278.77 395.52C278.28 395.52 274.31 395.52 273.81 395.52C271.03 395.52 268.65 393.89 267.52 391.54C267.52 391.54 267.52 391.55 267.52 391.56L265.14 386.89L236.51 386.89L234.13 391.56C234.13 391.55 234.13 391.54 234.13 391.54C233 393.89 230.62 395.52 227.84 395.52C227.34 395.52 223.38 395.52 222.88 395.52C217.17 395.52 212.55 390.9 212.55 385.19C212.55 384.43 212.55 378.33 212.55 377.57C212.55 371.85 217.16 367.24 222.87 367.24C223.86 367.24 227.33 367.24 227.83 367.24Z" id="dja5uJoK2"/><path d="M240.71 216.92C241.51 215.51 243.34 215.05 244.79 215.88C246.24 216.7 246.77 218.51 245.97 219.92C245.17 221.32 243.35 221.79 241.9 220.96C240.44 220.13 239.91 218.32 240.71 216.92Z" id="e4u62eJg6B"/><path d="M245.13 220.84L241.5 216.04L242.35 215.43L246.16 220.11L245.13 220.84Z" id="a72Ush9lno"/><path d="M241.64 216.27C242.44 214.87 244.27 214.4 245.72 215.23C247.17 216.06 247.7 217.87 246.9 219.27C246.1 220.67 244.28 221.14 242.83 220.31C241.37 219.48 240.84 217.68 241.64 216.27Z" id="aU8CGwcde"/><path d="M287.38 291.82C291.88 291.82 296.2 289.94 299.26 286.65C299.29 286.62 299.44 286.45 299.72 286.15C254.44 286.15 229.29 286.15 224.26 286.15C224 286.15 223.87 286.45 224.03 286.65C227.13 289.94 231.42 291.82 235.92 291.82C246.21 291.82 282.24 291.82 287.38 291.82Z" id="a34OvlJDA1"/><path d="M281.99 286.15C283.91 286.15 285.5 284.58 285.5 282.65C285.5 282.55 285.5 281.72 285.5 281.62C285.5 276.7 281.47 272.67 276.55 272.67C276.43 272.67 275.49 272.67 275.38 272.67C270.46 272.67 266.43 276.7 266.43 281.62C266.43 281.72 266.43 282.55 266.43 282.66C266.43 284.58 268 286.15 269.91 286.15C272.33 286.15 280.79 286.15 281.99 286.15Z" id="c9wfc1RpfG"/><path d="M276.88 286.15C278.79 286.15 280.38 284.58 280.38 282.65C280.38 282.37 280.38 280.11 280.38 279.83C280.38 272.95 274.76 267.34 267.9 267.34C267.57 267.34 264.98 267.34 264.65 267.34C257.77 267.34 252.17 272.97 252.17 279.83C252.17 280.11 252.17 282.37 252.17 282.65C252.15 284.58 253.73 286.15 255.66 286.15C259.9 286.15 274.75 286.15 276.88 286.15Z" id="cm5r7plc"/><path d="M267.48 286.15C269.39 286.15 270.98 284.58 270.98 282.65C270.98 282.34 270.98 279.91 270.98 279.6C270.98 272.85 265.45 267.34 258.72 267.34C258.35 267.34 255.4 267.34 255.03 267.34C248.27 267.34 242.77 272.87 242.77 279.6C242.77 279.91 242.77 282.34 242.77 282.65C242.73 284.58 244.32 286.15 246.25 286.15C250.49 286.15 265.35 286.15 267.48 286.15Z" id="gzq9pejoj"/><path d="M255.76 286.15C257.67 286.15 259.27 284.58 259.27 282.65C259.27 282.55 259.27 281.72 259.27 281.62C259.27 276.68 255.23 272.65 250.3 272.65C250.18 272.65 249.28 272.65 249.17 272.65C244.23 272.65 240.2 276.68 240.2 281.62C240.2 281.72 240.2 282.55 240.2 282.65C240.19 284.58 241.77 286.15 243.68 286.15C246.09 286.15 254.55 286.15 255.76 286.15Z" id="a6HoQaJnRL"/><path d="M317.68 321.97C317.61 321.97 317.54 321.97 317.47 321.97C317.15 321.97 315.54 321.97 312.64 321.97L312.64 319.55L307.66 319.55L307.66 321.97C304.76 321.97 303.14 321.97 302.82 321.97C302.75 321.97 302.68 321.97 302.62 321.97C301.75 322.22 294.78 324.21 293.91 324.46C293.29 324.6 292.87 325.08 292.87 325.7C292.87 325.76 292.87 326.2 292.87 326.25C292.87 326.95 293.42 327.57 294.18 327.57C297.4 327.57 323.17 327.57 326.39 327.57C327.08 327.57 327.71 326.95 327.71 326.25C327.71 326.2 327.71 325.76 327.71 325.7C327.63 325.15 327.15 324.6 326.52 324.46C324.76 323.96 318.56 322.22 317.68 321.97Z" id="a4ZpDSDG0l"/><path d="M328.46 245.33C325.1 252.17 298.23 306.84 294.87 313.68C294.6 314.3 293.83 314.51 293.28 314.23C292.66 313.96 292.45 313.2 292.73 312.64C296.08 305.81 322.89 251.13 326.25 244.29C326.59 243.67 327.28 243.4 327.91 243.74C328.53 244.02 328.74 244.78 328.46 245.33Z" id="dp7ZTi5yV"/><path d="M277.6 282.79C276.42 265.1 289.83 249.75 307.59 248.51C325.35 247.33 340.7 260.74 341.87 278.5C343.04 296.26 329.64 311.6 311.87 312.78C294.11 313.96 278.77 300.55 277.6 282.79Z" id="a70KJugdjy"/><path d="M315.12 272.97C314.84 273.04 315.05 273.46 314.84 273.46C314.57 273.52 314.22 273.73 313.81 273.52C312.91 272.97 312.01 271.03 311.39 270.14C313.46 269.38 311.39 268.06 310.49 267.72C309.31 267.24 307.45 266.2 306.13 266.27C305.24 266.33 303.44 267.51 302.54 267.86C301.3 268.27 300.12 268.9 299.08 269.58C295.21 272.7 295.83 278.71 300.74 280.43C302.06 280.92 303.78 280.78 304.4 282.37C304.89 283.55 304.06 284.1 303.85 285.07C303.64 285.96 304.27 286.86 304.27 287.69C304.13 289.35 303.37 290.04 302.33 291.08C300.95 292.46 301.36 295.15 301.15 297.02C301.02 297.98 300.67 300.61 301.29 301.37C302.26 302.55 305.02 301.79 306.2 301.23C307.1 300.82 307.31 299.99 308 299.51C308.69 299.02 309.38 299.02 310.14 298.26C310.76 297.64 311.52 297.16 312.42 296.95C314.08 296.33 314.22 295.57 314.49 293.98C315.05 290.66 318.92 290.94 321.41 289.48C324.03 288.03 320.71 287.34 319.89 286.03C319.05 284.71 319.26 282.92 319.33 281.4C319.4 279.88 319.81 277.8 319.33 276.35C318.92 275.39 316.85 273.94 316.02 273.04C315.74 272.97 315.4 272.9 315.12 272.97Z" id="c4oWv1Pa0r"/><path d="M321.07 300.06C320.73 300.42 318.08 303.3 317.75 303.65C316.92 304.55 314.02 307.59 313.53 304.49C313.33 303.31 314.43 302.41 315.12 301.79C316.02 300.96 315.75 300.2 316.51 299.44C317.4 298.54 318.79 299.16 319.82 298.75C319.96 298.68 320.17 298.47 320.31 298.47C320.93 298.41 320.79 298.82 321.13 299.44C321.27 299.65 321.2 299.86 321.07 300.06Z" id="aqlCAwV0n"/><path d="M325.98 252.86C325.44 253.11 321.12 255.16 320.58 255.42C320.1 255.62 319.62 255.69 319.13 255.62C318.41 255.53 312.6 254.81 311.88 254.72C310.91 254.59 310.01 254.93 309.25 255.56C308.94 255.82 306.45 257.98 306.14 258.25C305.79 258.53 305.66 259.01 305.72 259.43C305.8 259.9 306.41 263.72 306.48 264.2C306.55 264.47 306.76 264.61 306.97 264.61C307.03 264.61 307.17 264.55 307.24 264.47C307.26 264.45 307.43 264.29 307.45 264.27C308.83 262.89 310.97 262.54 312.77 263.44C313.29 263.69 317.43 265.74 317.95 265.99C318.16 266.06 318.37 266.27 318.51 266.41C318.98 266.89 322.8 270.76 323.27 271.25C323.41 271.45 323.55 271.66 323.69 271.87C323.76 272.05 324.31 273.49 324.38 273.67C324.59 274.29 324.59 275.05 324.25 275.67C324.11 275.87 324.11 276.15 324.11 276.36C324.12 276.95 324.23 281.65 324.25 282.24C324.25 282.86 324.73 283.34 325.35 283.41C327.29 283.62 329.29 283.48 331.16 282.93C331.64 282.79 331.99 282.31 331.92 281.75C331.91 281.7 331.86 281.25 331.85 281.2C331.78 280.85 332.06 280.58 332.33 280.51C332.47 280.51 332.61 280.51 332.68 280.57C332.85 280.66 334.23 281.38 334.4 281.47C334.96 281.75 335.3 282.23 335.44 282.79C335.5 283.03 336 284.96 336.06 285.2C336.13 285.41 336.13 285.69 336.13 285.9C336.08 286.31 335.69 289.63 335.65 290.05C335.65 290.46 335.92 290.74 336.34 290.74C336.41 290.74 336.48 290.74 336.54 290.74C336.56 290.73 336.67 290.68 336.68 290.67C337.38 290.39 338 289.91 338.34 289.22C338.62 288.66 339.1 288.32 339.66 288.11C339.74 288.09 340.4 287.93 340.49 287.91C340.69 287.84 340.9 287.84 341.11 287.84C341.8 284.79 342.07 281.61 341.87 278.5C341.18 267.85 335.23 258.25 325.98 252.86Z" id="cXxyVmi1r"/><path d="M298.26 258.32C298.45 258.25 300 257.64 300.19 257.56C301.71 257.01 302.75 255.56 302.89 253.97C303.03 252.31 302.2 250.72 300.81 249.75C293.56 251.83 287.27 256.45 283.05 262.68C283.4 263.71 283.81 264.75 284.23 265.79C284.71 266.34 286.44 266.62 287.68 267.03C287.96 267.1 288.31 266.89 288.38 266.62C288.38 266.55 288.38 266.48 288.38 266.41C288.35 266.19 288.13 264.42 288.1 264.2C288.03 263.64 288.44 263.09 289 262.95C289.25 262.91 291.3 262.58 291.56 262.54C291.9 262.47 292.18 262.33 292.45 262.19C292.82 261.95 294.64 260.73 297.91 258.53C298.05 258.44 298.16 258.37 298.26 258.32Z" id="c32RFwzOj3"/><path d="M289.83 286.24C289.85 286.11 290.02 285.05 290.04 284.92C290.1 284.37 290.38 283.82 290.8 283.4C291.9 282.3 291.83 280.57 290.8 279.46C290.73 279.4 290.59 279.33 290.52 279.26C290.31 279.1 288.65 277.83 288.44 277.67C288.1 277.39 287.75 277.05 287.55 276.63C287.3 276.15 285.37 272.28 285.13 271.79C284.78 271.03 284.02 270.55 283.19 270.41C282.81 270.36 279.77 269.91 279.39 269.86C276.49 277.94 276.97 286.86 280.63 294.6C280.95 294.18 282.51 292.11 285.33 288.38L286.72 288.59C288.65 288.03 289.69 287.25 289.83 286.24Z" id="b1MJQXfiSV"/><path d="M292.45 315.82C291.56 315.4 291.21 314.3 291.62 313.4C292.03 312.5 293.14 312.16 294.04 312.57C311.53 321.56 333.02 314.64 341.94 297.16C350.85 279.68 344.01 258.18 326.52 249.27C326.18 249.06 325.77 248.92 325.42 248.71C324.46 248.23 323.42 247.81 322.45 247.4C321.55 247.05 321.07 246.02 321.41 245.05C321.76 244.15 322.79 243.66 323.76 244.01C324.87 244.42 325.98 244.91 327.01 245.46C346.43 255 354.45 278.5 344.91 297.92C338.27 311.4 324.66 319.9 309.66 319.83C303.72 319.83 297.77 318.45 292.45 315.82Z" id="bDTeYtpqU"/><path d="M339.72 295.02C340.9 294.6 340.55 291.7 339.17 292.12C336.96 292.81 334.67 292.95 332.47 293.29C331.08 293.43 331.22 296.4 332.47 296.26C334.88 295.92 337.37 295.78 339.72 295.02Z" id="hfEmhqnPX"/><path d="M342.49 278.16C343.18 277.12 342.07 274.56 341.04 276.08C339.24 278.71 335.44 279.75 332.54 280.23C331.22 280.43 331.36 283.41 332.6 283.2C336.27 282.65 340.34 281.34 342.49 278.16Z" id="g4H17GD86"/><path d="M280.15 295.02C278.98 294.6 279.32 291.7 280.71 292.12C282.92 292.81 285.2 292.95 287.41 293.29C288.79 293.43 288.72 296.4 287.41 296.26C284.99 295.92 282.5 295.78 280.15 295.02Z" id="b5J3RSKXK"/><path d="M277.39 278.16C276.69 277.12 277.8 274.56 278.84 276.08C280.57 278.71 284.44 279.75 287.34 280.23C288.72 280.43 288.58 283.41 287.27 283.2C283.68 282.65 279.53 281.34 277.39 278.16Z" id="a4DpH0dJ6U"/><path d="M287.96 279.67C286.92 279.81 286.16 280.71 286.1 281.75C286.1 283.03 286.1 293.32 286.1 294.6C286.1 295.5 286.65 296.26 287.48 296.61C289.1 297.22 302.1 302.14 303.72 302.76C308.14 304.42 312.98 304.42 317.4 302.76C319.04 302.14 332.08 297.22 333.71 296.61C334.55 296.26 335.1 295.5 335.1 294.6C335.1 293.32 335.1 283.03 335.1 281.75C335.1 280.71 334.26 279.81 333.23 279.67C331.18 279.39 314.76 277.12 312.71 276.84C311.25 276.63 309.87 276.63 308.49 276.84C304.38 277.41 290.01 279.39 287.96 279.67Z" id="a8DtQl7Eu"/><path d="M256.24 290.94C256.1 291.01 255.96 290.94 255.9 290.87C255.62 290.46 255.48 290.04 255.28 289.56C255.21 289.42 255.28 289.28 255.41 289.28C255.55 289.21 255.69 289.28 255.69 289.42C255.83 289.84 256.04 290.25 256.25 290.66C256.38 290.74 256.38 290.8 256.31 290.87C256.29 290.89 256.25 290.93 256.24 290.94Z" id="ahh6YGdjN"/><path d="M289.2 269.17C288.51 269.59 287.82 270.07 287.13 270.55C286.99 270.62 286.85 270.55 286.79 270.49C286.72 270.35 286.72 270.21 286.85 270.14C287.61 269.66 288.31 269.24 288.93 268.76C288.95 268.74 289.18 268.58 289.2 268.56C289.27 268.49 289.48 268.49 289.55 268.62C289.62 268.69 289.62 268.82 289.62 268.9C289.54 268.95 289.25 269.15 289.2 269.17ZM284.64 271.93C283.81 272.35 282.92 272.76 282.02 273.11C281.88 273.11 281.74 273.04 281.74 272.9C281.74 272.76 281.74 272.7 281.88 272.62C282.78 272.28 283.61 271.93 284.44 271.52C284.58 271.45 284.71 271.52 284.78 271.66C284.78 271.73 284.78 271.8 284.78 271.86C284.75 271.88 284.71 271.93 284.64 271.93ZM279.25 273.8C278.29 273.94 277.32 274.01 276.35 274.01C276.21 274.01 276.15 273.87 276.15 273.73C276.15 273.59 276.28 273.52 276.42 273.52C277.32 273.59 278.29 273.52 279.19 273.39C279.32 273.39 279.46 273.45 279.46 273.59C279.39 273.59 279.39 273.66 279.39 273.73C279.32 273.8 279.32 273.8 279.25 273.8ZM273.45 273.52C272.48 273.25 271.58 272.9 270.75 272.49C270.62 272.42 270.62 272.28 270.69 272.14C270.75 272 270.89 272 270.96 272.07C271.79 272.49 272.69 272.83 273.59 273.11C273.73 273.11 273.79 273.25 273.73 273.39C273.73 273.39 273.73 273.39 273.73 273.46C273.66 273.52 273.59 273.59 273.45 273.52ZM271.1 271.66C271.03 271.73 270.89 271.8 270.75 271.66C270.62 271.52 270.62 271.45 270.75 271.31C271.1 270.97 271.45 270.55 271.72 270.14C272 269.79 272.2 269.45 272.41 269.1C272.48 268.96 272.62 268.96 272.76 269.03C272.9 269.03 272.9 269.17 272.9 269.31C272.69 269.66 272.41 270.07 272.14 270.42C271.86 270.83 271.51 271.25 271.1 271.66ZM266.47 275.05C266.33 275.12 266.19 275.12 266.12 274.98C266.05 274.85 266.05 274.7 266.19 274.64C266.19 274.64 266.19 274.64 266.26 274.64C267.22 274.08 267.98 273.6 268.68 273.12C268.74 273.05 268.95 273.05 269.02 273.18C269.03 273.25 269.03 273.39 268.96 273.46C268.2 274.01 267.44 274.42 266.47 275.05ZM273.52 266.68C273.38 266.68 273.32 266.54 273.32 266.41C273.38 265.92 273.38 265.44 273.32 264.95C273.25 264.54 273.18 264.12 272.97 263.71C272.9 263.57 272.97 263.43 273.11 263.43C273.25 263.37 273.39 263.43 273.39 263.57C273.59 263.99 273.66 264.47 273.73 264.95C273.8 265.51 273.8 265.99 273.73 266.54C273.73 266.54 273.73 266.62 273.73 266.62C273.66 266.68 273.59 266.68 273.52 266.68ZM268.33 270.76C267.57 270.14 266.95 269.31 266.54 268.48C266.47 268.34 266.54 268.2 266.6 268.14C266.74 268.07 266.88 268.14 266.95 268.2C267.37 269.03 267.99 269.72 268.68 270.34C268.75 270.48 268.82 270.62 268.68 270.76C268.61 270.83 268.47 270.83 268.33 270.76ZM263.98 276.36C263.45 276.65 263.15 276.81 263.09 276.84C262.53 277.19 261.98 277.46 261.49 277.81C261.36 277.81 261.22 277.74 261.22 277.67C261.22 277.6 261.22 277.53 261.22 277.46C261.7 277.12 262.25 276.84 262.81 276.5C262.9 276.45 263.62 276.06 263.71 276.01C263.85 275.95 263.98 276.01 264.05 276.08C264.05 276.15 264.05 276.22 264.05 276.29C264.04 276.3 264.02 276.32 263.98 276.36ZM255.14 286.93C255 286.93 254.93 286.79 254.93 286.65C255 285.69 255.21 284.72 255.55 283.82C255.62 283.68 255.69 283.61 255.83 283.68C255.97 283.75 256.04 283.82 256.04 283.96C256.04 283.96 256.04 284.02 256.04 284.02C255.69 284.92 255.48 285.82 255.41 286.72C255.41 286.73 255.41 286.79 255.34 286.79C255.28 286.86 255.2 286.93 255.14 286.93ZM257.35 281.61C257.28 281.75 257.14 281.75 257 281.68C257 281.68 256.93 281.68 256.93 281.61C256.87 281.54 256.87 281.4 256.93 281.27C257.49 280.51 258.18 279.81 258.94 279.13C259 279.06 259.14 279.06 259.28 279.13C259.35 279.26 259.35 279.4 259.28 279.47C258.59 280.16 257.97 280.85 257.35 281.61ZM271.24 261.71C270.48 261.22 269.58 261.01 268.75 261.29C268.61 261.36 268.47 261.29 268.4 261.22C268.33 261.16 268.4 260.95 268.47 260.88C268.48 260.88 268.53 260.88 268.54 260.88C268.68 260.81 268.88 260.81 269.02 260.74C269.85 260.6 270.75 260.81 271.44 261.3C271.65 261.36 271.65 261.5 271.58 261.64C271.51 261.71 271.38 261.78 271.24 261.71ZM265.99 265.85C265.85 265.85 265.78 265.78 265.71 265.65C265.64 264.68 265.92 263.64 266.33 262.74C266.4 262.61 266.54 262.61 266.68 262.68C266.74 262.74 266.81 262.88 266.74 262.95C266.33 263.79 266.12 264.68 266.12 265.58C266.19 265.72 266.19 265.78 266.19 265.78C266.13 265.85 266.05 265.85 265.99 265.85Z" id="b4XMOHMYNK"/><path d="M293.14 266.96C292.73 267.02 292.31 267.23 291.9 267.44C291.76 267.51 291.62 267.44 291.56 267.37C291.49 267.23 291.56 267.09 291.62 267.03C292.04 266.82 292.52 266.61 292.94 266.47C293.08 266.47 293.21 266.54 293.21 266.68C293.35 266.75 293.35 266.82 293.28 266.89C293.28 266.96 293.21 266.96 293.14 266.96Z" id="b12rRigrKa"/></defs><g><g><g><use xlink:href="#dSMwPSJdA" opacity="1" fill="#fbe5e3" fill-opacity="1"/><g><use xlink:href="#dSMwPSJdA" opacity="1" fill-opacity="0" stroke="#000000" stroke-width="1" stroke-opacity="0"/></g></g><g><use xlink:href="#b18FFTO5Q3" opacity="1" fill="#b7b7c4" fill-opacity="1"/><g><use xlink:href="#b18FFTO5Q3" opacity="1" fill-opacity="0" stroke="#000000" stroke-width="1" stroke-opacity="0"/></g></g><g><use xlink:href="#a9M7LGjSJ" opacity="1" fill="#735639" fill-opacity="1"/><g><use xlink:href="#a9M7LGjSJ" opacity="1" fill-opacity="0" stroke="#000000" stroke-width="1" stroke-opacity="0"/></g></g><g><use xlink:href="#e1VVXYvDDv" opacity="1" fill="#0c0454" fill-opacity="1"/><g><use xlink:href="#e1VVXYvDDv" opacity="1" fill-opacity="0" stroke="#000000" stroke-width="1" stroke-opacity="0"/></g></g><g><use xlink:href="#b7OjcgXoG" opacity="1" fill="#322f51" fill-opacity="1"/><g><use xlink:href="#b7OjcgXoG" opacity="1" fill-opacity="0" stroke="#000000" stroke-width="1" stroke-opacity="0"/></g></g><g><use xlink:href="#d1KB2X6bWo" opacity="1" fill="#ffffff" fill-opacity="1"/><g><use xlink:href="#d1KB2X6bWo" opacity="1" fill-opacity="0" stroke="#000000" stroke-width="1" stroke-opacity="0"/></g></g><g><use xlink:href="#br1bMHBdJ" opacity="1" fill="#ffc5a2" fill-opacity="1"/><g><use xlink:href="#br1bMHBdJ" opacity="1" fill-opacity="0" stroke="#000000" stroke-width="1" stroke-opacity="0"/></g></g><g><use xlink:href="#a1bHb4bl81" opacity="1" fill="#f2b18a" fill-opacity="1"/><g><use xlink:href="#a1bHb4bl81" opacity="1" fill-opacity="0" stroke="#000000" stroke-width="1" stroke-opacity="0"/></g></g><g><use xlink:href="#e15zsuFgFQ" opacity="1" fill="#e8d4c1" fill-opacity="1"/><g><use xlink:href="#e15zsuFgFQ" opacity="1" fill-opacity="0" stroke="#000000" stroke-width="1" stroke-opacity="0"/></g></g><g><use xlink:href="#a1kiuSwyf" opacity="1" fill="#e8d4c1" fill-opacity="1"/><g><use xlink:href="#a1kiuSwyf" opacity="1" fill-opacity="0" stroke="#000000" stroke-width="1" stroke-opacity="0"/></g></g><g><use xlink:href="#m3c4NfEQbk" opacity="1" fill="#ba9c7e" fill-opacity="1"/><g><use xlink:href="#m3c4NfEQbk" opacity="1" fill-opacity="0" stroke="#000000" stroke-width="1" stroke-opacity="0"/></g></g><g><use xlink:href="#e7jIdtnojx" opacity="1" fill="#4c7378" fill-opacity="1"/><g><use xlink:href="#e7jIdtnojx" opacity="1" fill-opacity="0" stroke="#000000" stroke-width="1" stroke-opacity="0"/></g></g><g><use xlink:href="#aMRqBmh73" opacity="1" fill="#4c7378" fill-opacity="1"/><g><use xlink:href="#aMRqBmh73" opacity="1" fill-opacity="0" stroke="#000000" stroke-width="1" stroke-opacity="0"/></g></g><g><use xlink:href="#eIM4t2Q98" opacity="1" fill="#4c7378" fill-opacity="1"/><g><use xlink:href="#eIM4t2Q98" opacity="1" fill-opacity="0" stroke="#000000" stroke-width="1" stroke-opacity="0"/></g></g><g><use xlink:href="#c13RJzOcXX" opacity="1" fill="#4c7378" fill-opacity="1"/><g><use xlink:href="#c13RJzOcXX" opacity="1" fill-opacity="0" stroke="#000000" stroke-width="1" stroke-opacity="0"/></g></g><g><use xlink:href="#b2xVuGfOlz" opacity="1" fill="#4c7378" fill-opacity="1"/><g><use xlink:href="#b2xVuGfOlz" opacity="1" fill-opacity="0" stroke="#000000" stroke-width="1" stroke-opacity="0"/></g></g><g><use xlink:href="#d3iHPyJ5lk" opacity="1" fill="#689399" fill-opacity="1"/><g><use xlink:href="#d3iHPyJ5lk" opacity="1" fill-opacity="0" stroke="#000000" stroke-width="1" stroke-opacity="0"/></g></g><g><use xlink:href="#bcjDodNGx" opacity="1" fill="#4c7378" fill-opacity="1"/><g><use xlink:href="#bcjDodNGx" opacity="1" fill-opacity="0" stroke="#000000" stroke-width="1" stroke-opacity="0"/></g></g><g><use xlink:href="#c2jaEdjAmB" opacity="1" fill="#57848a" fill-opacity="1"/><g><use xlink:href="#c2jaEdjAmB" opacity="1" fill-opacity="0" stroke="#000000" stroke-width="1" stroke-opacity="0"/></g></g><g><use xlink:href="#e1QfOKM1Go" opacity="1" fill="#57848a" fill-opacity="1"/><g><use xlink:href="#e1QfOKM1Go" opacity="1" fill-opacity="0" stroke="#000000" stroke-width="1" stroke-opacity="0"/></g></g><g><use xlink:href="#b10FV54iMO" opacity="1" fill="#4c7378" fill-opacity="1"/><g><use xlink:href="#b10FV54iMO" opacity="1" fill-opacity="0" stroke="#000000" stroke-width="1" stroke-opacity="0"/></g></g><g><use xlink:href="#a2jVZNhm9D" opacity="1" fill="#689399" fill-opacity="1"/><g><use xlink:href="#a2jVZNhm9D" opacity="1" fill-opacity="0" stroke="#000000" stroke-width="1" stroke-opacity="0"/></g></g><g><use xlink:href="#a8ZW4IVvG" opacity="1" fill="#4c7378" fill-opacity="1"/><g><use xlink:href="#a8ZW4IVvG" opacity="1" fill-opacity="0" stroke="#000000" stroke-width="1" stroke-opacity="0"/></g></g><g><use xlink:href="#b2akxXeAKS" opacity="1" fill="#57848a" fill-opacity="1"/><g><use xlink:href="#b2akxXeAKS" opacity="1" fill-opacity="0" stroke="#000000" stroke-width="1" stroke-opacity="0"/></g></g><g><use xlink:href="#d10ATkq2u0" opacity="1" fill="#689399" fill-opacity="1"/><g><use xlink:href="#d10ATkq2u0" opacity="1" fill-opacity="0" stroke="#000000" stroke-width="1" stroke-opacity="0"/></g></g><g><use xlink:href="#a3qfGXLUBw" opacity="1" fill="#4c7378" fill-opacity="1"/><g><use xlink:href="#a3qfGXLUBw" opacity="1" fill-opacity="0" stroke="#000000" stroke-width="1" stroke-opacity="0"/></g></g><g><use xlink:href="#bf9GAopjH" opacity="1" fill="#689399" fill-opacity="1"/><g><use xlink:href="#bf9GAopjH" opacity="1" fill-opacity="0" stroke="#000000" stroke-width="1" stroke-opacity="0"/></g></g><g><use xlink:href="#c1ySKCb8P" opacity="1" fill="#689399" fill-opacity="1"/><g><use xlink:href="#c1ySKCb8P" opacity="1" fill-opacity="0" stroke="#000000" stroke-width="1" stroke-opacity="0"/></g></g><g><use xlink:href="#a37ecFdFf" opacity="1" fill="#4c7378" fill-opacity="1"/><g><use xlink:href="#a37ecFdFf" opacity="1" fill-opacity="0" stroke="#000000" stroke-width="1" stroke-opacity="0"/></g></g><g><use xlink:href="#b3KHmQTNRc" opacity="1" fill="#689399" fill-opacity="1"/><g><use xlink:href="#b3KHmQTNRc" opacity="1" fill-opacity="0" stroke="#000000" stroke-width="1" stroke-opacity="0"/></g></g><g><use xlink:href="#a2NQI33GO6" opacity="1" fill="#4c7378" fill-opacity="1"/><g><use xlink:href="#a2NQI33GO6" opacity="1" fill-opacity="0" stroke="#000000" stroke-width="1" stroke-opacity="0"/></g></g><g><use xlink:href="#aBZ71rbz2" opacity="1" fill="#57848a" fill-opacity="1"/><g><use xlink:href="#aBZ71rbz2" opacity="1" fill-opacity="0" stroke="#000000" stroke-width="1" stroke-opacity="0"/></g></g><g><use xlink:href="#f1pZFDy1Iz" opacity="1" fill="#4c7378" fill-opacity="1"/><g><use xlink:href="#f1pZFDy1Iz" opacity="1" fill-opacity="0" stroke="#000000" stroke-width="1" stroke-opacity="0"/></g></g><g><use xlink:href="#c1lh8esuX" opacity="1" fill="#4c7378" fill-opacity="1"/><g><use xlink:href="#c1lh8esuX" opacity="1" fill-opacity="0" stroke="#000000" stroke-width="1" stroke-opacity="0"/></g></g><g><use xlink:href="#a1Zgw0WxMi" opacity="1" fill="#689399" fill-opacity="1"/><g><use xlink:href="#a1Zgw0WxMi" opacity="1" fill-opacity="0" stroke="#000000" stroke-width="1" stroke-opacity="0"/></g></g><g><use xlink:href="#a1QFKQmOBS" opacity="1" fill="#689399" fill-opacity="1"/><g><use xlink:href="#a1QFKQmOBS" opacity="1" fill-opacity="0" stroke="#000000" stroke-width="1" stroke-opacity="0"/></g></g><g><use xlink:href="#a14jroyve8" opacity="1" fill="#4c7378" fill-opacity="1"/><g><use xlink:href="#a14jroyve8" opacity="1" fill-opacity="0" stroke="#000000" stroke-width="1" stroke-opacity="0"/></g></g><g><use xlink:href="#br5z1zdAY" opacity="1" fill="#689399" fill-opacity="1"/><g><use xlink:href="#br5z1zdAY" opacity="1" fill-opacity="0" stroke="#000000" stroke-width="1" stroke-opacity="0"/></g></g><g><use xlink:href="#b56vHiNJ" opacity="1" fill="#689399" fill-opacity="1"/><g><use xlink:href="#b56vHiNJ" opacity="1" fill-opacity="0" stroke="#000000" stroke-width="1" stroke-opacity="0"/></g></g><g><use xlink:href="#d3oVEtfICJ" opacity="1" fill="#dec7b2" fill-opacity="1"/><g><use xlink:href="#d3oVEtfICJ" opacity="1" fill-opacity="0" stroke="#000000" stroke-width="1" stroke-opacity="0"/></g></g><g><use xlink:href="#f2ts7qloPF" opacity="1" fill="#ebdbcd" fill-opacity="1"/><g><use xlink:href="#f2ts7qloPF" opacity="1" fill-opacity="0" stroke="#000000" stroke-width="1" stroke-opacity="0"/></g></g><g><use xlink:href="#aYyYPKQzh" opacity="1" fill="#ebdbcd" fill-opacity="1"/><g><use xlink:href="#aYyYPKQzh" opacity="1" fill-opacity="0" stroke="#000000" stroke-width="1" stroke-opacity="0"/></g></g><g><use xlink:href="#e7RfUe6gT" opacity="1" fill="#ebdbcd" fill-opacity="1"/><g><use xlink:href="#e7RfUe6gT" opacity="1" fill-opacity="0" stroke="#000000" stroke-width="1" stroke-opacity="0"/></g></g><g><use xlink:href="#aCVIcNgsZ" opacity="1" fill="#e8d4c1" fill-opacity="1"/><g><use xlink:href="#aCVIcNgsZ" opacity="1" fill-opacity="0" stroke="#000000" stroke-width="1" stroke-opacity="0"/></g></g><g><use xlink:href="#c1vxhl5ZFP" opacity="1" fill="#ffc5a1" fill-opacity="1"/><g><use xlink:href="#c1vxhl5ZFP" opacity="1" fill-opacity="0" stroke="#000000" stroke-width="1" stroke-opacity="0"/></g></g><g><use xlink:href="#a1V2qvrl3w" opacity="1" fill="#ffc5a1" fill-opacity="1"/><g><use xlink:href="#a1V2qvrl3w" opacity="1" fill-opacity="0" stroke="#000000" stroke-width="1" stroke-opacity="0"/></g></g><g><use xlink:href="#dcLFcQdpq" opacity="1" fill="#e3996d" fill-opacity="1"/><g><use xlink:href="#dcLFcQdpq" opacity="1" fill-opacity="0" stroke="#000000" stroke-width="1" stroke-opacity="0"/></g></g><g><use xlink:href="#h40MfbmyK" opacity="1" fill="#65282c" fill-opacity="1"/><g><use xlink:href="#h40MfbmyK" opacity="1" fill-opacity="0" stroke="#000000" stroke-width="1" stroke-opacity="0"/></g></g><g><use xlink:href="#a45MwSqdPN" opacity="1" fill="#40b5cf" fill-opacity="1"/><g><use xlink:href="#a45MwSqdPN" opacity="1" fill-opacity="0" stroke="#000000" stroke-width="1" stroke-opacity="0"/></g></g><g><use xlink:href="#b1RVvIZxOr" opacity="1" fill="#322f51" fill-opacity="1"/><g><use xlink:href="#b1RVvIZxOr" opacity="1" fill-opacity="0" stroke="#000000" stroke-width="1" stroke-opacity="0"/></g></g><g><use xlink:href="#eFsxyMeqR" opacity="1" fill="#6b5756" fill-opacity="1"/><g><use xlink:href="#eFsxyMeqR" opacity="1" fill-opacity="0" stroke="#000000" stroke-width="1" stroke-opacity="0"/></g></g><g><use xlink:href="#b2q9fSwokU" opacity="1" fill="#ffc5a1" fill-opacity="1"/><g><use xlink:href="#b2q9fSwokU" opacity="1" fill-opacity="0" stroke="#000000" stroke-width="1" stroke-opacity="0"/></g></g><g><use xlink:href="#b17AnYXj6a" opacity="1" fill="#ffc5a1" fill-opacity="1"/><g><use xlink:href="#b17AnYXj6a" opacity="1" fill-opacity="0" stroke="#000000" stroke-width="1" stroke-opacity="0"/></g></g><g><use xlink:href="#aypWS3z1G" opacity="1" fill="#ffc5a1" fill-opacity="1"/><g><use xlink:href="#aypWS3z1G" opacity="1" fill-opacity="0" stroke="#000000" stroke-width="1" stroke-opacity="0"/></g></g><g><use xlink:href="#i3zlHU1btW" opacity="1" fill="#f2b18a" fill-opacity="1"/><g><use xlink:href="#i3zlHU1btW" opacity="1" fill-opacity="0" stroke="#000000" stroke-width="1" stroke-opacity="0"/></g></g><g><use xlink:href="#a1etGSLNmx" opacity="1" fill="#65282c" fill-opacity="1"/><g><use xlink:href="#a1etGSLNmx" opacity="1" fill-opacity="0" stroke="#000000" stroke-width="1" stroke-opacity="0"/></g></g><g><use xlink:href="#a1sMiO1LF7" opacity="1" fill="#635453" fill-opacity="1"/><g><use xlink:href="#a1sMiO1LF7" opacity="1" fill-opacity="0" stroke="#000000" stroke-width="1" stroke-opacity="0"/></g></g><g><use xlink:href="#dJjdIt5vi" opacity="1" fill="#ab8868" fill-opacity="1"/><g><use xlink:href="#dJjdIt5vi" opacity="1" fill-opacity="0" stroke="#000000" stroke-width="1" stroke-opacity="0"/></g></g><g><use xlink:href="#b35VxA1nKZ" opacity="1" fill="#d7d7e6" fill-opacity="1"/><g><use xlink:href="#b35VxA1nKZ" opacity="1" fill-opacity="0" stroke="#000000" stroke-width="1" stroke-opacity="0"/></g></g><g><use xlink:href="#a4r7n7oVEj" opacity="1" fill="#ffc5a1" fill-opacity="1"/><g><use xlink:href="#a4r7n7oVEj" opacity="1" fill-opacity="0" stroke="#000000" stroke-width="1" stroke-opacity="0"/></g></g><g><use xlink:href="#ayArfuMUD" opacity="1" fill="#40b5cf" fill-opacity="1"/><g><use xlink:href="#ayArfuMUD" opacity="1" fill-opacity="0" stroke="#000000" stroke-width="1" stroke-opacity="0"/></g></g><g><use xlink:href="#bnnZGnLla" opacity="1" fill="#ffffff" fill-opacity="1"/><g><use xlink:href="#bnnZGnLla" opacity="1" fill-opacity="0" stroke="#000000" stroke-width="1" stroke-opacity="0"/></g></g><g><use xlink:href="#c11RK2LEC4" opacity="1" fill="#8a6645" fill-opacity="1"/><g><use xlink:href="#c11RK2LEC4" opacity="1" fill-opacity="0" stroke="#000000" stroke-width="1" stroke-opacity="0"/></g></g><g><use xlink:href="#dwAEGKKO2" opacity="1" fill="#8a6645" fill-opacity="1"/><g><use xlink:href="#dwAEGKKO2" opacity="1" fill-opacity="0" stroke="#000000" stroke-width="1" stroke-opacity="0"/></g></g><g><use xlink:href="#ed2V7z9d" opacity="1" fill="#c49c77" fill-opacity="1"/><g><use xlink:href="#ed2V7z9d" opacity="1" fill-opacity="0" stroke="#000000" stroke-width="1" stroke-opacity="0"/></g></g><g><use xlink:href="#b23EE8nx9v" opacity="1" fill="#c48042" fill-opacity="1"/><g><use xlink:href="#b23EE8nx9v" opacity="1" fill-opacity="0" stroke="#000000" stroke-width="1" stroke-opacity="0"/></g></g><g><use xlink:href="#f3gtP3W8c5" opacity="1" fill="#c48042" fill-opacity="1"/><g><use xlink:href="#f3gtP3W8c5" opacity="1" fill-opacity="0" stroke="#000000" stroke-width="1" stroke-opacity="0"/></g></g><g><use xlink:href="#c26gtHGRAu" opacity="1" fill="#eebd3e" fill-opacity="1"/><g><use xlink:href="#c26gtHGRAu" opacity="1" fill-opacity="0" stroke="#000000" stroke-width="1" stroke-opacity="0"/></g></g><g><use xlink:href="#c1g5F7wAr7" opacity="1" fill="#c48042" fill-opacity="1"/><g><use xlink:href="#c1g5F7wAr7" opacity="1" fill-opacity="0" stroke="#000000" stroke-width="1" stroke-opacity="0"/></g></g><g><use xlink:href="#brGDiTj7m" opacity="1" fill="#eebd3e" fill-opacity="1"/><g><use xlink:href="#brGDiTj7m" opacity="1" fill-opacity="0" stroke="#000000" stroke-width="1" stroke-opacity="0"/></g></g><g><use xlink:href="#b6SulH4lr" opacity="1" fill="#eebd3e" fill-opacity="1"/><g><use xlink:href="#b6SulH4lr" opacity="1" fill-opacity="0" stroke="#000000" stroke-width="1" stroke-opacity="0"/></g></g><g><use xlink:href="#b16akXDYmk" opacity="1" fill="#eebd3e" fill-opacity="1"/><g><use xlink:href="#b16akXDYmk" opacity="1" fill-opacity="0" stroke="#000000" stroke-width="1" stroke-opacity="0"/></g></g><g><use xlink:href="#bjKXMxvo" opacity="1" fill="#fcfaf8" fill-opacity="1"/><g><use xlink:href="#bjKXMxvo" opacity="1" fill-opacity="0" stroke="#000000" stroke-width="1" stroke-opacity="0"/></g></g><g><use xlink:href="#a1BfBG7hTO" opacity="1" fill="#ffffff" fill-opacity="1"/><g><use xlink:href="#a1BfBG7hTO" opacity="1" fill-opacity="0" stroke="#000000" stroke-width="1" stroke-opacity="0"/></g></g><g><use xlink:href="#c2jWZ6u5Vb" opacity="1" fill="#ffffff" fill-opacity="1"/><g><use xlink:href="#c2jWZ6u5Vb" opacity="1" fill-opacity="0" stroke="#000000" stroke-width="1" stroke-opacity="0"/></g></g><g><use xlink:href="#dRAr8X4Ko" opacity="1" fill="#40b5cf" fill-opacity="1"/><g><use xlink:href="#dRAr8X4Ko" opacity="1" fill-opacity="0" stroke="#000000" stroke-width="1" stroke-opacity="0"/></g></g><g><use xlink:href="#esDx0lbmy" opacity="1" fill="#40b5cf" fill-opacity="1"/><g><use xlink:href="#esDx0lbmy" opacity="1" fill-opacity="0" stroke="#000000" stroke-width="1" stroke-opacity="0"/></g></g><g><use xlink:href="#b5GJlTJyD" opacity="1" fill="#ffffff" fill-opacity="1"/><g><use xlink:href="#b5GJlTJyD" opacity="1" fill-opacity="0" stroke="#000000" stroke-width="1" stroke-opacity="0"/></g></g><g><use xlink:href="#fD5NrAgkp" opacity="1" fill="#322f51" fill-opacity="1"/><g><use xlink:href="#fD5NrAgkp" opacity="1" fill-opacity="0" stroke="#000000" stroke-width="1" stroke-opacity="0"/></g></g><g><use xlink:href="#f22aasCRi7" opacity="1" fill="#e0e0e0" fill-opacity="1"/><g><use xlink:href="#f22aasCRi7" opacity="1" fill-opacity="0" stroke="#000000" stroke-width="1" stroke-opacity="0"/></g></g><g><use xlink:href="#bPTXQ4i3Q" opacity="1" fill="#ffc5a1" fill-opacity="1"/><g><use xlink:href="#bPTXQ4i3Q" opacity="1" fill-opacity="0" stroke="#000000" stroke-width="1" stroke-opacity="0"/></g></g><g><use xlink:href="#d1BomJ34DT" opacity="1" fill="#d6d7f0" fill-opacity="1"/><g><use xlink:href="#d1BomJ34DT" opacity="1" fill-opacity="0" stroke="#000000" stroke-width="1" stroke-opacity="0"/></g></g><g><use xlink:href="#a2CEh8rMFo" opacity="1" fill="#d6d7f0" fill-opacity="1"/><g><use xlink:href="#a2CEh8rMFo" opacity="1" fill-opacity="0" stroke="#000000" stroke-width="1" stroke-opacity="0"/></g></g><g><use xlink:href="#a2KPwaqRa" opacity="1" fill="#d6d7f0" fill-opacity="1"/><g><use xlink:href="#a2KPwaqRa" opacity="1" fill-opacity="0" stroke="#000000" stroke-width="1" stroke-opacity="0"/></g></g><g><use xlink:href="#d3RNePqPBb" opacity="1" fill="#d6d7f0" fill-opacity="1"/><g><use xlink:href="#d3RNePqPBb" opacity="1" fill-opacity="0" stroke="#000000" stroke-width="1" stroke-opacity="0"/></g></g><g><use xlink:href="#b2znq3KmJQ" opacity="1" fill="#d6d7f0" fill-opacity="1"/><g><use xlink:href="#b2znq3KmJQ" opacity="1" fill-opacity="0" stroke="#000000" stroke-width="1" stroke-opacity="0"/></g></g><g><use xlink:href="#bsntc2RJy" opacity="1" fill="#5685ff" fill-opacity="1"/><g><use xlink:href="#bsntc2RJy" opacity="1" fill-opacity="0" stroke="#000000" stroke-width="1" stroke-opacity="0"/></g></g><g><use xlink:href="#b2w6UFcWa" opacity="1" fill="#5685ff" fill-opacity="1"/><g><use xlink:href="#b2w6UFcWa" opacity="1" fill-opacity="0" stroke="#000000" stroke-width="1" stroke-opacity="0"/></g></g><g><use xlink:href="#a2G6KbOYs2" opacity="1" fill="#dcdced" fill-opacity="1"/><g><use xlink:href="#a2G6KbOYs2" opacity="1" fill-opacity="0" stroke="#000000" stroke-width="1" stroke-opacity="0"/></g></g><g><use xlink:href="#byFQoi2Ff" opacity="1" fill="#d6d7f0" fill-opacity="1"/><g><use xlink:href="#byFQoi2Ff" opacity="1" fill-opacity="0" stroke="#000000" stroke-width="1" stroke-opacity="0"/></g></g><g><use xlink:href="#bfUi9JQnd" opacity="1" fill="#d6d7f0" fill-opacity="1"/><g><use xlink:href="#bfUi9JQnd" opacity="1" fill-opacity="0" stroke="#000000" stroke-width="1" stroke-opacity="0"/></g></g><g><use xlink:href="#c22ZOIAeud" opacity="1" fill="#d6d7f0" fill-opacity="1"/><g><use xlink:href="#c22ZOIAeud" opacity="1" fill-opacity="0" stroke="#000000" stroke-width="1" stroke-opacity="0"/></g></g><g><use xlink:href="#b3NlOM6npT" opacity="1" fill="#d6d7f0" fill-opacity="1"/><g><use xlink:href="#b3NlOM6npT" opacity="1" fill-opacity="0" stroke="#000000" stroke-width="1" stroke-opacity="0"/></g></g><g><use xlink:href="#d4D9Hbrl0l" opacity="1" fill="#676bc4" fill-opacity="1"/><g><use xlink:href="#d4D9Hbrl0l" opacity="1" fill-opacity="0" stroke="#000000" stroke-width="1" stroke-opacity="0"/></g></g><g><use xlink:href="#b7f1lmMRu" opacity="1" fill="#868ae0" fill-opacity="1"/><g><use xlink:href="#b7f1lmMRu" opacity="1" fill-opacity="0" stroke="#000000" stroke-width="1" stroke-opacity="0"/></g></g><g><use xlink:href="#baFXtJtA8" opacity="1" fill="#4e53ba" fill-opacity="1"/><g><use xlink:href="#baFXtJtA8" opacity="1" fill-opacity="0" stroke="#000000" stroke-width="1" stroke-opacity="0"/></g></g><g><use xlink:href="#e1e2iB6qby" opacity="1" fill="#b6b6ed" fill-opacity="1"/><g><use xlink:href="#e1e2iB6qby" opacity="1" fill-opacity="0" stroke="#000000" stroke-width="1" stroke-opacity="0"/></g></g><g><use xlink:href="#c47HafMFwK" opacity="1" fill="#676bc4" fill-opacity="1"/><g><use xlink:href="#c47HafMFwK" opacity="1" fill-opacity="0" stroke="#000000" stroke-width="1" stroke-opacity="0"/></g></g><g><use xlink:href="#dN7szOeV0" opacity="1" fill="#32378f" fill-opacity="1"/><g><use xlink:href="#dN7szOeV0" opacity="1" fill-opacity="0" stroke="#000000" stroke-width="1" stroke-opacity="0"/></g></g><g><use xlink:href="#a1h7rNXfeP" opacity="1" fill="#ebdbcd" fill-opacity="1"/><g><use xlink:href="#a1h7rNXfeP" opacity="1" fill-opacity="0" stroke="#000000" stroke-width="1" stroke-opacity="0"/></g></g><g><use xlink:href="#b1fbXstREr" opacity="1" fill="#dec7b2" fill-opacity="1"/><g><use xlink:href="#b1fbXstREr" opacity="1" fill-opacity="0" stroke="#000000" stroke-width="1" stroke-opacity="0"/></g></g><g><use xlink:href="#c5DVbsYm" opacity="1" fill="#8a6645" fill-opacity="1"/><g><use xlink:href="#c5DVbsYm" opacity="1" fill-opacity="0" stroke="#000000" stroke-width="1" stroke-opacity="0"/></g></g><g><use xlink:href="#a11XES0Pe8" opacity="1" fill="#8a6645" fill-opacity="1"/><g><use xlink:href="#a11XES0Pe8" opacity="1" fill-opacity="0" stroke="#000000" stroke-width="1" stroke-opacity="0"/></g></g><g><use xlink:href="#a7Cc1XMy6b" opacity="1" fill="#c49c77" fill-opacity="1"/><g><use xlink:href="#a7Cc1XMy6b" opacity="1" fill-opacity="0" stroke="#000000" stroke-width="1" stroke-opacity="0"/></g></g><g><use xlink:href="#a1U9XppmRt" opacity="1" fill="#ff5856" fill-opacity="1"/><g><use xlink:href="#a1U9XppmRt" opacity="1" fill-opacity="0" stroke="#000000" stroke-width="1" stroke-opacity="0"/></g></g><g><use xlink:href="#bkuH7wTlV" opacity="1" fill="#ff5856" fill-opacity="1"/><g><use xlink:href="#bkuH7wTlV" opacity="1" fill-opacity="0" stroke="#000000" stroke-width="1" stroke-opacity="0"/></g></g><g><use xlink:href="#d1TXHGJS6e" opacity="1" fill="#dcdced" fill-opacity="1"/><g><use xlink:href="#d1TXHGJS6e" opacity="1" fill-opacity="0" stroke="#000000" stroke-width="1" stroke-opacity="0"/></g></g><g><use xlink:href="#b13WA8TMTE" opacity="1" fill="#1d5e8d" fill-opacity="1"/><g><use xlink:href="#b13WA8TMTE" opacity="1" fill-opacity="0" stroke="#000000" stroke-width="1" stroke-opacity="0"/></g></g><g><use xlink:href="#ay0Ghrd6G" opacity="1" fill="#1d5e8d" fill-opacity="1"/><g><use xlink:href="#ay0Ghrd6G" opacity="1" fill-opacity="0" stroke="#000000" stroke-width="1" stroke-opacity="0"/></g></g><g><use xlink:href="#f2kc63FJVp" opacity="1" fill="#2b8bd1" fill-opacity="1"/><g><use xlink:href="#f2kc63FJVp" opacity="1" fill-opacity="0" stroke="#000000" stroke-width="1" stroke-opacity="0"/></g></g><g><use xlink:href="#bl2CMQtT4" opacity="1" fill="#169696" fill-opacity="1"/><g><use xlink:href="#bl2CMQtT4" opacity="1" fill-opacity="0" stroke="#000000" stroke-width="1" stroke-opacity="0"/></g></g><g><use xlink:href="#dja5uJoK2" opacity="1" fill="#8ac9c9" fill-opacity="1"/><g><use xlink:href="#dja5uJoK2" opacity="1" fill-opacity="0" stroke="#000000" stroke-width="1" stroke-opacity="0"/></g></g><g><use xlink:href="#e4u62eJg6B" opacity="1" fill="#ebdbcd" fill-opacity="1"/><g><use xlink:href="#e4u62eJg6B" opacity="1" fill-opacity="0" stroke="#000000" stroke-width="1" stroke-opacity="0"/></g></g><g><use xlink:href="#a72Ush9lno" opacity="1" fill="#ebdbcd" fill-opacity="1"/><g><use xlink:href="#a72Ush9lno" opacity="1" fill-opacity="0" stroke="#000000" stroke-width="1" stroke-opacity="0"/></g></g><g><use xlink:href="#aU8CGwcde" opacity="1" fill="#f8f1eb" fill-opacity="1"/><g><use xlink:href="#aU8CGwcde" opacity="1" fill-opacity="0" stroke="#000000" stroke-width="1" stroke-opacity="0"/></g></g><g><use xlink:href="#a34OvlJDA1" opacity="1" fill="#d3d3f0" fill-opacity="1"/><g><use xlink:href="#a34OvlJDA1" opacity="1" fill-opacity="0" stroke="#000000" stroke-width="1" stroke-opacity="0"/></g></g><g><use xlink:href="#c9wfc1RpfG" opacity="1" fill="#d19673" fill-opacity="1"/><g><use xlink:href="#c9wfc1RpfG" opacity="1" fill-opacity="0" stroke="#000000" stroke-width="1" stroke-opacity="0"/></g></g><g><use xlink:href="#cm5r7plc" opacity="1" fill="#e0a17b" fill-opacity="1"/><g><use xlink:href="#cm5r7plc" opacity="1" fill-opacity="0" stroke="#000000" stroke-width="1" stroke-opacity="0"/></g></g><g><use xlink:href="#gzq9pejoj" opacity="1" fill="#e8aa84" fill-opacity="1"/><g><use xlink:href="#gzq9pejoj" opacity="1" fill-opacity="0" stroke="#000000" stroke-width="1" stroke-opacity="0"/></g></g><g><use xlink:href="#a6HoQaJnRL" opacity="1" fill="#edb593" fill-opacity="1"/><g><use xlink:href="#a6HoQaJnRL" opacity="1" fill-opacity="0" stroke="#000000" stroke-width="1" stroke-opacity="0"/></g></g><g><use xlink:href="#a4ZpDSDG0l" opacity="1" fill="#110580" fill-opacity="1"/><g><use xlink:href="#a4ZpDSDG0l" opacity="1" fill-opacity="0" stroke="#000000" stroke-width="1" stroke-opacity="0"/></g></g><g><use xlink:href="#dp7ZTi5yV" opacity="1" fill="#110580" fill-opacity="1"/><g><use xlink:href="#dp7ZTi5yV" opacity="1" fill-opacity="0" stroke="#000000" stroke-width="1" stroke-opacity="0"/></g></g><g><use xlink:href="#a70KJugdjy" opacity="1" fill="#cddefa" fill-opacity="1"/><g><use xlink:href="#a70KJugdjy" opacity="1" fill-opacity="0" stroke="#000000" stroke-width="1" stroke-opacity="0"/></g></g><g><use xlink:href="#c4oWv1Pa0r" opacity="1" fill="#66a896" fill-opacity="1"/><g><use xlink:href="#c4oWv1Pa0r" opacity="1" fill-opacity="0" stroke="#000000" stroke-width="1" stroke-opacity="0"/></g></g><g><use xlink:href="#aqlCAwV0n" opacity="1" fill="#66a896" fill-opacity="1"/><g><use xlink:href="#aqlCAwV0n" opacity="1" fill-opacity="0" stroke="#000000" stroke-width="1" stroke-opacity="0"/></g></g><g><use xlink:href="#cXxyVmi1r" opacity="1" fill="#66a896" fill-opacity="1"/><g><use xlink:href="#cXxyVmi1r" opacity="1" fill-opacity="0" stroke="#000000" stroke-width="1" stroke-opacity="0"/></g></g><g><use xlink:href="#c32RFwzOj3" opacity="1" fill="#66a896" fill-opacity="1"/><g><use xlink:href="#c32RFwzOj3" opacity="1" fill-opacity="0" stroke="#000000" stroke-width="1" stroke-opacity="0"/></g></g><g><use xlink:href="#b1MJQXfiSV" opacity="1" fill="#66a896" fill-opacity="1"/><g><use xlink:href="#b1MJQXfiSV" opacity="1" fill-opacity="0" stroke="#000000" stroke-width="1" stroke-opacity="0"/></g></g><g><use xlink:href="#bDTeYtpqU" opacity="1" fill="#868ae0" fill-opacity="1"/><g><use xlink:href="#bDTeYtpqU" opacity="1" fill-opacity="0" stroke="#000000" stroke-width="1" stroke-opacity="0"/></g></g><g><use xlink:href="#hfEmhqnPX" opacity="1" fill="#ffffff" fill-opacity="1"/><g><use xlink:href="#hfEmhqnPX" opacity="1" fill-opacity="0" stroke="#000000" stroke-width="1" stroke-opacity="0"/></g></g><g><use xlink:href="#g4H17GD86" opacity="1" fill="#ffffff" fill-opacity="1"/><g><use xlink:href="#g4H17GD86" opacity="1" fill-opacity="0" stroke="#000000" stroke-width="1" stroke-opacity="0"/></g></g><g><use xlink:href="#b5J3RSKXK" opacity="1" fill="#ffffff" fill-opacity="1"/><g><use xlink:href="#b5J3RSKXK" opacity="1" fill-opacity="0" stroke="#000000" stroke-width="1" stroke-opacity="0"/></g></g><g><use xlink:href="#a4DpH0dJ6U" opacity="1" fill="#ffffff" fill-opacity="1"/><g><use xlink:href="#a4DpH0dJ6U" opacity="1" fill-opacity="0" stroke="#000000" stroke-width="1" stroke-opacity="0"/></g></g><g><use xlink:href="#a8DtQl7Eu" opacity="1" fill="#ffffff" fill-opacity="1"/><g><use xlink:href="#a8DtQl7Eu" opacity="1" fill-opacity="0" stroke="#000000" stroke-width="1" stroke-opacity="0"/></g></g><g><use xlink:href="#ahh6YGdjN" opacity="1" fill="#110580" fill-opacity="1"/><g><use xlink:href="#ahh6YGdjN" opacity="1" fill-opacity="0" stroke="#000000" stroke-width="1" stroke-opacity="0"/></g></g><g><use xlink:href="#b4XMOHMYNK" opacity="1" fill="#110580" fill-opacity="1"/><g><use xlink:href="#b4XMOHMYNK" opacity="1" fill-opacity="0" stroke="#000000" stroke-width="1" stroke-opacity="0"/></g></g><g><use xlink:href="#b12rRigrKa" opacity="1" fill="#110580" fill-opacity="1"/><g><use xlink:href="#b12rRigrKa" opacity="1" fill-opacity="0" stroke="#000000" stroke-width="1" stroke-opacity="0"/></g></g></g></g></svg>