<svg width="1002" height="616" viewBox="0 0 1002 616" fill="none" xmlns="http://www.w3.org/2000/svg">
<rect y="-52" width="1092" height="668" rx="45" fill="#FAFAFA"/>
<ellipse cx="710" cy="477.5" rx="485" ry="118.5" fill="#FBE5E3"/>
<path d="M661.139 519.956H618.018C616.583 519.956 615.454 518.803 615.454 517.392V515.369C615.454 513.934 616.607 512.805 618.018 512.805H661.139C662.574 512.805 663.703 513.957 663.703 515.369V517.392C663.68 518.803 662.527 519.956 661.139 519.956Z" fill="#B7B7C4"/>
<path d="M646.203 398.428H632.912V512.781H646.203V398.428Z" fill="#735639"/>
<path d="M651.164 203.878L662.761 202.773L665.114 225.568C665.114 225.568 661.844 226.674 658.456 226.862C654.998 227.05 651.799 226.862 651.799 226.862L651.164 203.878Z" fill="#0C0454"/>
<path d="M607.243 170.073C603.432 177.977 595.01 212.229 595.01 212.229C594.727 212.958 595.01 213.782 595.692 214.252C597.903 215.781 603.102 220.604 613.218 223.827C618.134 225.38 630.179 227.403 635.707 227.003C636.719 226.909 637.448 226.038 637.448 226.038L643.047 147.489C619.334 146.29 609.501 165.439 607.243 170.073Z" fill="#322F51"/>
<path d="M616.489 214.252C612.631 214.252 609.549 208.818 609.549 201.926C609.549 195.033 612.584 189.599 616.489 189.599C620.347 189.599 623.428 195.033 623.428 201.926C623.428 208.889 620.347 214.252 616.489 214.252ZM616.489 191.316C613.642 191.316 611.243 196.186 611.243 201.973C611.243 207.76 613.642 212.629 616.489 212.629C619.335 212.629 621.735 207.76 621.735 201.973C621.735 196.186 619.335 191.316 616.489 191.316Z" fill="white"/>
<path d="M643.214 216.652C662.949 216.652 678.948 201.559 678.948 182.941C678.948 164.323 662.949 149.23 643.214 149.23C623.478 149.23 607.48 164.323 607.48 182.941C607.48 201.559 623.478 216.652 643.214 216.652Z" fill="#FFC5A2"/>
<path d="M658.973 213.171C658.432 199.833 657.726 182.871 657.726 182.354C657.726 182.354 650.175 180.331 645.87 176.284C644.529 174.991 643.564 173.72 642.929 172.473C643.447 174.402 644.317 176.426 646.105 178.496C649.963 182.965 655.844 186.118 655.844 186.118C655.797 186.588 656.315 201.573 655.562 214.536C656.785 214.136 657.867 213.665 658.973 213.171Z" fill="#F2B18A"/>
<path d="M738.771 432.305C719.693 432.305 704.237 432.987 704.143 433.834C704.237 434.657 719.693 435.363 738.771 435.363C757.803 435.363 773.305 434.68 773.399 433.834C773.305 432.963 757.85 432.305 738.771 432.305ZM739.547 434.939C725.244 434.939 713.67 434.422 713.67 433.787C713.67 433.151 725.268 432.634 739.547 432.634C753.827 432.634 765.425 433.151 765.425 433.787C765.472 434.422 753.85 434.939 739.547 434.939Z" fill="#E8D4C1"/>
<path d="M738.771 432.305C719.646 432.305 704.143 432.987 704.143 433.834C704.143 434.68 719.646 435.363 738.771 435.363C757.897 435.363 773.399 434.68 773.399 433.834C773.399 432.987 757.897 432.305 738.771 432.305ZM739.547 434.939C725.244 434.939 713.67 434.422 713.67 433.787C713.67 433.151 725.268 432.634 739.547 432.634C753.827 432.634 765.425 433.151 765.425 433.787C765.472 434.422 753.85 434.939 739.547 434.939Z" fill="#E8D4C1"/>
<path d="M739.55 434.938C753.841 434.938 765.427 434.422 765.427 433.786C765.427 433.149 753.841 432.633 739.55 432.633C725.258 432.633 713.672 433.149 713.672 433.786C713.672 434.422 725.258 434.938 739.55 434.938Z" fill="#BA9C7E"/>
<path d="M758.58 301.953C751.169 319.526 745.9 337.993 742.889 356.86C739.878 375.727 739.078 394.876 740.536 413.931C741.36 424.587 742.936 435.221 745.171 445.665C745.594 447.547 748.488 446.771 748.064 444.889C744.065 426.399 742.371 407.508 742.865 388.618C743.383 369.822 746.135 351.049 751.052 332.888C753.804 322.631 757.309 312.563 761.45 302.777C761.779 302.047 761.12 301.13 760.391 300.942C759.544 300.659 758.862 301.224 758.58 301.953Z" fill="#4C7378"/>
<path d="M759.541 381.491C752.131 397.535 747.732 414.825 746.532 432.445C746.203 437.362 746.109 442.326 746.297 447.242C746.391 449.171 749.379 449.171 749.284 447.242C748.649 430.046 751.166 412.849 756.695 396.57C758.247 391.983 760.059 387.419 762.129 382.996C762.952 381.279 760.365 379.75 759.541 381.491Z" fill="#4C7378"/>
<path d="M721.832 305.906C726.561 322.232 729.925 338.911 732.418 355.708C734.912 372.504 736.512 389.419 737.805 406.286C738.535 415.86 739.193 425.458 739.782 435.08C739.923 437.009 742.91 437.009 742.769 435.08C741.664 418.025 740.511 400.922 738.864 383.914C737.17 366.953 734.959 349.968 731.595 333.242C729.713 323.761 727.455 314.398 724.749 305.106C724.185 303.248 721.338 304.024 721.832 305.906Z" fill="#4C7378"/>
<path d="M704.329 354.932C708.422 359.119 710.939 364.459 713.151 369.776C715.597 375.657 717.738 381.679 719.597 387.796C723.266 399.887 725.901 412.308 727.266 424.847C728.042 431.881 728.465 438.962 728.512 446.09C728.512 448.019 731.5 448.019 731.5 446.09C731.406 433.128 730.065 420.166 727.595 407.462C725.101 394.782 721.384 382.267 716.515 370.27C713.974 364.012 711.222 357.708 706.399 352.838C705.058 351.426 702.941 353.544 704.329 354.932Z" fill="#4C7378"/>
<path d="M724.962 414.331C722.75 411.626 719.998 409.768 717.693 408.85C715.387 407.933 713.552 407.933 713.011 408.521C712.47 409.109 712.588 410.92 713.388 413.108C714.187 415.296 715.505 417.931 717.481 420.377C719.457 422.824 721.809 424.612 723.88 425.811C725.903 427.011 727.644 427.505 728.161 427.199C728.796 426.776 729.173 424.988 728.749 422.565C728.373 420.118 727.173 417.037 724.962 414.331Z" fill="#4C7378"/>
<path d="M734.443 394.053C736.278 385.043 734.585 377.186 732.891 376.857C731.244 376.574 726.821 383.255 725.033 392.124C723.246 400.993 725.081 408.944 726.28 409.227C727.786 409.603 732.608 403.063 734.443 394.053Z" fill="#689399"/>
<path d="M726.348 409.156C728.214 407.256 723.732 399.825 716.335 392.559C708.939 385.294 701.43 380.944 699.563 382.844C697.696 384.744 702.179 392.174 709.576 399.44C716.972 406.706 724.481 411.056 726.348 409.156Z" fill="#4C7378"/>
<path d="M740.042 419.907C740.912 416.19 741.383 412.543 741.571 409.203C741.759 405.886 741.665 402.851 741.336 400.381C740.748 395.323 739.548 392.289 738.725 392.289C737.901 392.289 736.654 395.229 735.266 399.887C734.584 402.193 733.784 404.945 733.055 407.933C732.279 410.967 731.455 414.237 730.656 417.719C729.832 421.177 729.126 424.518 728.538 427.552C727.95 430.587 727.433 433.433 727.009 435.833C726.233 440.608 726.045 443.831 726.586 444.114C727.268 444.443 729.715 442.232 732.467 437.997C733.855 435.88 735.266 433.222 736.607 430.187C737.972 427.105 739.172 423.624 740.042 419.907Z" fill="#57848A"/>
<path d="M759.634 423.671C762.481 418.613 764.598 413.743 765.798 409.979C767.045 406.215 767.351 403.581 766.621 403.087C765.939 402.616 763.587 403.957 760.646 406.662C757.705 409.415 754.153 413.649 751.213 418.848C748.272 424.094 746.531 429.34 745.731 433.292C745.308 435.268 745.143 436.915 745.143 438.115C745.143 438.491 745.002 438.985 745.284 439.597C745.331 439.738 745.425 439.879 745.52 439.973C745.614 440.114 745.849 440.256 745.99 440.303C746.319 440.397 746.531 440.303 746.672 440.209C746.955 440.02 747.143 439.691 747.049 439.479C746.955 439.244 746.813 439.338 746.766 439.338C746.719 439.385 746.672 439.385 746.625 439.432C746.578 439.479 746.672 439.432 746.625 439.432C746.625 439.432 746.578 439.432 746.531 439.385C746.484 439.338 746.437 439.244 746.437 439.244C746.437 439.244 746.437 439.338 746.437 439.432C746.437 439.432 746.437 439.432 746.437 439.479L746.625 439.338C746.625 439.338 746.625 439.338 746.672 439.338C746.766 439.338 746.955 439.291 747.307 439.385H747.402H747.449H747.496C747.543 439.385 747.59 439.385 747.637 439.338C748.601 438.609 749.754 437.456 751.048 435.927C753.659 433.01 756.788 428.681 759.634 423.671Z" fill="#57848A"/>
<path d="M752.014 400.852C751.285 394.453 749.661 388.854 748.062 384.855C746.462 380.903 744.886 378.503 744.015 378.644C743.192 378.785 742.416 381.491 741.992 385.725C741.616 389.96 741.616 395.747 742.369 401.91C742.745 405.039 743.239 407.932 743.851 410.591C744.439 413.249 745.098 415.554 745.545 417.483C746.062 419.412 746.415 420.989 746.744 422.165C747.027 423.318 747.285 424.094 747.615 424.141C747.991 424.235 748.673 423.765 749.403 422.659C750.132 421.553 750.932 419.765 751.473 417.554C752.014 415.296 752.296 412.684 752.39 409.885C752.461 407.156 752.367 404.074 752.014 400.852Z" fill="#4C7378"/>
<path d="M712.237 370.011C708.52 366.435 704.474 363.941 701.251 362.506C698.028 361.071 695.675 360.766 695.134 361.448C694.617 362.083 695.464 364.294 697.299 367.141C699.133 369.987 701.98 373.539 705.532 376.927C709.108 380.338 712.848 382.902 715.836 384.596C718.824 386.29 721.082 387.043 721.529 386.619C722.117 386.102 721.67 383.773 720.141 380.597C718.659 377.492 716.001 373.586 712.237 370.011Z" fill="#689399"/>
<path d="M706.659 345.592C702.237 337.735 695.767 333.171 694.285 334.088C692.85 334.959 693.956 342.698 698.237 350.32C702.519 357.942 708.894 362.694 710.047 362.13C711.458 361.401 711.082 353.449 706.659 345.592Z" fill="#4C7378"/>
<path d="M723.079 360.625C722.302 355.285 720.421 350.65 718.492 347.616C716.562 344.534 714.681 342.981 713.904 343.287C713.128 343.569 712.704 345.898 712.657 349.309C712.61 352.72 712.846 357.167 713.528 361.989C714.21 366.812 715.316 371.14 716.327 374.41C717.386 377.68 718.444 379.844 719.033 379.844C719.809 379.891 721.15 377.868 722.208 374.41C723.267 370.928 723.855 365.965 723.079 360.625Z" fill="#57848A"/>
<path d="M772.34 390.148C776.762 387.113 780.479 383.89 782.996 381.185C785.537 378.527 786.901 376.409 786.454 375.61C786.031 374.88 783.514 374.927 779.868 375.939C776.245 376.95 771.493 378.974 766.858 382.149C762.224 385.325 758.719 389.136 756.46 392.171C754.249 395.253 753.332 397.605 753.708 398.099C754.226 398.687 756.696 398.193 760.107 396.805C763.541 395.488 767.917 393.182 772.34 390.148Z" fill="#689399"/>
<path d="M774.997 366.647C778.078 360.154 779.819 353.873 780.525 349.121C781.207 344.392 780.948 341.311 780.149 341.028C779.349 340.746 777.349 343.098 774.808 346.956C772.268 350.862 769.233 356.296 766.293 362.459C763.352 368.623 761.141 374.457 759.753 378.926C758.365 383.349 757.824 386.384 758.365 386.737C759 387.16 761.588 385.396 764.858 381.914C768.057 378.409 771.915 373.139 774.997 366.647Z" fill="#4C7378"/>
<path d="M766.496 368.089C768.569 356.7 768.126 347.081 765.505 346.604C762.885 346.127 759.08 354.973 757.007 366.361C754.934 377.75 755.377 387.369 757.997 387.846C760.618 388.323 764.423 379.477 766.496 368.089Z" fill="#689399"/>
<path d="M769.47 291.368C772.081 285.792 773.94 280.523 774.998 276.477C776.057 272.43 776.245 269.678 775.516 269.207C774.786 268.784 772.481 270.407 769.635 273.583C766.788 276.759 763.471 281.487 760.766 287.251C758.06 292.991 756.625 298.613 756.037 302.848C755.449 307.082 755.661 309.882 756.273 310.117C757.002 310.399 759.025 308.47 761.519 305.106C763.918 301.719 766.859 296.943 769.47 291.368Z" fill="#689399"/>
<path d="M762.083 291.368C762.459 285.581 762.271 280.288 761.754 276.336C761.236 272.431 760.413 269.843 759.589 269.725C758.766 269.584 757.19 271.795 755.731 275.559C754.249 279.323 752.885 284.663 752.461 290.686C752.038 296.708 752.838 302.236 753.849 306.141C754.861 310.047 756.155 312.446 756.79 312.446C757.566 312.446 758.719 309.999 759.73 306.188C760.742 302.354 761.707 297.179 762.083 291.368Z" fill="#4C7378"/>
<path d="M769.021 319.009C770.809 316.162 772.244 313.269 773.35 310.587C774.408 307.881 775.185 305.341 775.655 303.129C776.573 298.754 776.337 295.86 775.561 295.531C774.785 295.202 772.762 297.225 770.08 300.589C768.786 302.235 767.28 304.259 765.704 306.517C764.152 308.775 762.481 311.198 760.835 313.88C759.188 316.491 757.659 319.079 756.318 321.479C754.977 323.878 753.824 326.066 752.907 328.018C751.072 331.877 750.107 334.605 750.601 335.005C751.142 335.523 753.871 334.464 757.447 331.782C759.235 330.442 761.211 328.701 763.187 326.536C765.257 324.396 767.233 321.855 769.021 319.009Z" fill="#689399"/>
<path d="M747.356 315.292C746.815 312.398 746.251 309.693 745.71 307.246C745.475 306 745.169 304.847 744.933 303.741C744.792 303.2 744.651 302.683 744.557 302.142C744.463 301.624 744.322 301.13 744.228 300.659C743.357 296.896 742.675 294.261 741.734 294.12C740.958 293.978 739.24 296.237 738.111 300.518C737.97 301.036 737.829 301.624 737.688 302.165C737.547 302.753 737.5 303.365 737.406 303.953C737.217 305.247 737.123 306.564 737.076 307.952C737.029 310.752 737.264 313.833 737.805 316.962C739.005 323.22 741.217 328.372 743.051 331.994C744.933 335.617 746.557 337.828 747.145 337.734C747.921 337.593 748.674 334.935 748.791 330.748C749.027 326.654 748.462 321.079 747.356 315.292Z" fill="#4C7378"/>
<path d="M761.214 346.604C764.625 341.923 766.86 337.077 768.012 333.36C769.165 329.643 769.306 327.008 768.53 326.608C767.801 326.185 765.636 327.573 762.837 330.16C760.037 332.725 756.626 336.512 753.356 340.958C750.086 345.404 747.663 349.921 746.134 353.426C744.582 356.932 743.97 359.402 744.441 359.825C745.029 360.343 747.475 359.402 750.651 357.214C753.897 354.932 757.803 351.286 761.214 346.604Z" fill="#57848A"/>
<path d="M723.809 296.895C721.104 291.202 717.599 286.733 714.705 283.792C711.812 280.852 709.506 279.417 708.777 279.84C708.048 280.263 708.306 282.969 709.459 286.874C710.612 290.779 712.588 295.79 715.058 300.989C716.305 303.6 717.552 305.999 718.681 308.211C719.222 309.316 719.834 310.375 720.375 311.34C720.916 312.304 721.433 313.269 721.904 314.092C723.833 317.503 725.268 319.738 725.903 319.667C726.632 319.573 727.597 316.962 727.597 312.68C727.597 311.622 727.55 310.422 727.361 309.222C727.22 307.975 726.985 306.682 726.679 305.317C726.162 302.635 725.15 299.742 723.809 296.895Z" fill="#4C7378"/>
<path d="M723.597 317.809C716.845 309.293 708.706 304.753 707.412 305.906C706.165 307.011 709.482 315.551 716.045 323.832C722.632 332.112 730.537 336.982 731.548 336.253C732.842 335.382 730.348 326.325 723.597 317.809Z" fill="#4C7378"/>
<path d="M727.266 336.888C724.655 334.136 721.785 332.065 719.409 330.724C717.009 329.384 715.127 328.89 714.445 329.384C713.81 329.901 713.81 331.924 714.727 334.583C715.645 337.241 717.48 340.605 720.326 343.545C723.173 346.486 726.49 348.368 729.148 349.38C731.806 350.344 733.829 350.438 734.253 349.968C734.77 349.38 734.3 347.427 733.1 345.004C731.853 342.557 729.924 339.617 727.266 336.888Z" fill="#689399"/>
<path d="M732.512 362.506C729.384 356.813 726.114 351.803 723.502 348.25C720.891 344.698 718.821 342.651 718.115 342.863C717.48 343.098 717.574 345.851 718.633 350.038C719.691 354.226 721.762 359.872 724.985 365.729C728.207 371.563 732.018 376.433 735.147 379.75C738.276 383.067 740.723 384.855 741.169 384.619C741.758 384.29 741.169 381.632 739.64 377.586C738.064 373.539 735.688 368.223 732.512 362.506Z" fill="#689399"/>
<path d="M747.028 370.363C747.075 366.082 746.063 362.271 744.816 359.66C743.569 357.048 742.111 355.566 741.241 355.707C740.417 355.849 739.5 357.637 738.747 360.271C738.018 362.93 737.406 366.388 737.359 370.199C737.312 374.01 737.876 377.515 738.559 380.173C739.241 382.831 740.111 384.69 740.77 384.76C741.546 384.902 743.028 383.514 744.393 380.949C745.804 378.409 747.004 374.645 747.028 370.363Z" fill="#4C7378"/>
<path d="M750.817 385.632C752.793 381.303 753.428 376.951 753.357 373.728C753.216 370.505 752.393 368.482 751.569 368.294C750.746 368.106 749.217 369.635 747.476 372.058C745.735 374.504 743.806 377.798 742.042 381.632C740.301 385.443 739.148 389.137 738.49 392.077C737.808 395.018 737.666 397.182 738.16 397.559C738.749 398.029 740.866 397.323 743.406 395.3C745.9 393.324 748.794 390.007 750.817 385.632Z" fill="#689399"/>
<path d="M738.252 311.011C738.44 304.071 737.617 297.813 736.464 293.344C735.359 288.827 733.971 286.169 733.1 286.216C732.277 286.263 731.218 289.062 730.348 293.532C729.477 298.002 728.748 304.071 728.56 310.775C728.372 317.48 728.889 323.596 729.524 328.113C730.207 332.63 731.077 335.476 731.736 335.57C732.512 335.665 734.041 333.03 735.406 328.631C736.841 324.161 738.064 317.95 738.252 311.011Z" fill="#689399"/>
<path d="M773.375 433.833C773.281 434.657 757.825 435.362 738.747 435.362C719.716 435.362 704.213 434.68 704.119 433.833C704.119 433.927 704.119 434.068 704.119 434.163L709.953 495.915L710.917 506.266C710.964 508.101 723.385 509.583 738.7 509.583C754.062 509.583 766.483 508.101 766.483 506.266L766.671 504.101C766.671 504.054 766.671 504.007 766.671 503.96L767.141 499.185L773.305 434.163C773.375 434.068 773.375 433.927 773.375 433.833Z" fill="#DEC7B2"/>
<path d="M769.071 479.707L769.353 476.955C769.259 477.002 769.165 477.049 769.024 477.049C758.626 480.907 748.275 484.765 737.901 488.647C731.925 490.858 725.95 493.116 720.022 495.304C719.151 495.633 718.775 496.692 719.481 497.374C725.009 502.95 733.266 503.114 740.441 505.043C742.7 505.631 744.958 506.478 746.887 507.702H750.839C746.252 503.232 739.241 502.173 733.007 500.856C729.432 500.08 725.738 499.115 722.798 496.904C733.149 493.046 743.452 489.235 753.78 485.353C758.861 483.542 763.966 481.66 769.071 479.707Z" fill="#EBDBCD"/>
<path d="M742.017 455.124C752.038 452.324 762.107 449.548 772.128 446.796L772.599 441.832C751.215 442.303 729.831 443.267 708.447 444.726C707.341 444.82 706.236 444.867 705.13 444.961L705.365 447.455C723.856 446.161 742.37 445.196 760.86 444.655C764.412 444.561 767.988 444.467 771.517 444.373C762.177 446.937 752.838 449.478 743.522 452.089C731.807 455.359 720.115 458.84 709.082 463.992C708.4 464.322 707.694 464.628 707.012 464.957L707.294 467.615C707.835 467.333 708.447 467.074 708.988 466.792C719.598 461.734 730.819 458.252 742.017 455.124Z" fill="#EBDBCD"/>
<path d="M716.376 476.507C728.138 476.319 739.736 473.849 751.192 471.308C757.497 469.92 763.849 468.462 770.224 467.356L770.459 464.816C754.862 467.568 739.524 472.226 723.739 473.637C718.493 474.108 713.153 474.178 707.93 473.731L708.166 476.272C710.895 476.46 713.6 476.554 716.376 476.507Z" fill="#EBDBCD"/>
<path d="M765.468 433.786C765.468 434.422 753.871 434.939 739.591 434.939C725.312 434.939 713.714 434.422 713.714 433.786H704.234C704.234 433.786 704.234 433.786 704.234 433.833C704.328 434.657 719.783 435.363 738.862 435.363C757.893 435.363 773.396 434.68 773.49 433.833C773.49 433.833 773.49 433.833 773.49 433.786H765.468Z" fill="#E8D4C1"/>
<path d="M599.291 262.949C595.574 276.687 591.927 290.732 585.552 303.505C583.858 306.917 580.777 315.55 575.931 315.221C571.202 314.891 567.203 311.81 565.133 307.716C563.11 303.67 557.37 302.517 553.629 304.682C549.489 307.128 548.571 312.139 550.594 316.185C554.358 323.784 561.722 328.959 569.814 331.076C580.612 333.876 589.175 329.477 595.197 320.49C605.736 304.776 610.606 285.415 615.523 267.372C618.369 256.927 602.137 252.48 599.291 262.949Z" fill="#FFC5A1"/>
<path d="M602.561 450.112C603.667 456.652 605.055 463.121 606.655 469.567C609.548 480.929 628.086 476.107 625.192 464.744C623.545 458.299 622.205 451.829 621.099 445.289C620.276 440.467 613.877 437.738 609.29 438.938C603.808 440.349 601.738 445.242 602.561 450.112Z" fill="#FFC5A1"/>
<path d="M668.171 316.609C668.171 316.609 673.7 330.3 673.7 331.547C673.7 332.794 648.175 336.37 637.731 335.782C629.685 335.311 611.383 332.418 612.441 330.677C613.5 328.936 618.981 315.268 618.981 315.268C618.981 315.268 632.32 318.632 643.071 318.303C653.821 317.974 668.171 316.609 668.171 316.609Z" fill="#E3996D"/>
<path d="M612.393 330.7C612.393 330.7 619.803 333.147 624.061 333.735C642.316 336.346 654.126 334.841 654.126 334.841C654.126 334.841 599.948 364.505 598.161 368.363C596.373 372.221 613.475 385.607 618.486 400.639C622.956 414.025 625.943 447.312 626.531 454.487C626.625 455.357 626.108 456.134 625.332 456.51C623.544 457.334 619.897 458.769 614.44 459.78C606.347 461.262 601.101 462.721 600.96 460.886C600.819 459.051 570.754 403.274 569.649 401.439C568.543 399.604 551.299 372.692 550.57 365.846C548.429 345.215 612.393 330.7 612.393 330.7Z" fill="#65282C"/>
<path d="M631.262 231.544C631.262 231.544 616.63 234.484 610.161 239.918C604.373 244.788 593.787 265.396 591.576 269.818C591.294 270.336 591.435 270.924 591.811 271.347C593.246 272.782 596.728 276.029 599.951 277.699C604.091 279.863 612.372 281.51 612.372 281.51L614.254 268.995C614.254 268.995 609.69 277.276 612.725 286.191C614.513 291.39 615.806 298.33 616.089 301.741C616.23 303.67 615.806 314.609 615.806 314.609C615.806 314.609 626.934 317.503 638.931 318.326C650.882 319.149 671.254 315.291 671.254 315.291C671.254 315.291 670.243 289.908 670.878 285.321C672.125 276.123 669.49 269.418 669.49 269.418L672.995 283.392C672.995 283.392 685.04 284.921 687.345 283.721C689.556 282.569 693.367 279.299 695.014 277.887C695.532 277.464 695.696 276.782 695.555 276.146C694.402 271.465 689.156 252.151 680.476 242.53C676.006 237.613 659.656 232.508 655.822 232.508C651.94 232.438 631.262 231.544 631.262 231.544Z" fill="#40B5CF"/>
<path d="M667.983 150.03C675.648 150.03 681.862 144.185 681.862 136.974C681.862 129.764 675.648 123.918 667.983 123.918C660.317 123.918 654.103 129.764 654.103 136.974C654.103 144.185 660.317 150.03 667.983 150.03Z" fill="#322F51"/>
<path d="M606.608 470.742C606.608 470.742 613.548 472.036 616.63 471.024C621.358 469.472 626.016 465.825 626.016 465.825C626.016 465.825 631.897 472.13 633.52 473.636C635.144 475.141 637.19 476.176 638.813 479.023C640.437 481.869 640.554 489.821 629.568 497.278C625.616 499.983 620.652 517.368 610.89 520.826C604.35 523.132 599.174 523.861 594.752 521.838C590.235 519.768 589.106 514.851 598.163 508.146C607.22 501.442 605.15 493.608 606.114 488.691C607.079 483.751 606.608 470.742 606.608 470.742Z" fill="#6B5756"/>
<path d="M532.859 465.096C531.941 472.365 530.977 479.635 530.059 486.88C529.424 491.75 534.929 495.937 539.681 495.937C545.374 495.937 548.644 491.75 549.302 486.88C550.22 479.611 551.184 472.342 552.102 465.096C552.737 460.227 547.232 456.039 542.48 456.039C536.764 456.039 533.494 460.227 532.859 465.096Z" fill="#FFC5A1"/>
<path d="M575.58 300.471C581.108 301.577 585.319 305.153 589.319 308.987C592.165 311.693 596.117 307.199 593.271 304.423C588.495 299.86 583.249 295.79 576.709 294.496C572.898 293.72 571.722 299.695 575.58 300.471Z" fill="#FFC5A1"/>
<path d="M653.655 212.841L631.26 212.7C631.26 212.7 632.907 234.037 632.907 234.178C632.907 237.942 637.917 240.977 644.128 240.977C650.339 240.977 655.349 237.942 655.349 234.178C655.302 234.084 653.655 212.841 653.655 212.841Z" fill="#FFC5A1"/>
<path d="M643.21 216.605C639.07 216.605 635.071 215.923 631.401 214.724L631.683 219.005C634.224 220.205 638.223 221.075 642.269 221.357C645.821 221.593 650.832 221.734 654.22 220.722L653.843 215.147C650.432 216.111 646.88 216.605 643.21 216.605Z" fill="#F2B18A"/>
<path d="M674.03 331.476C674.03 331.476 683.816 342.227 685.58 349.779C687.321 357.33 688.474 368.763 685.957 375.444C683.416 382.101 675.465 391.77 660.997 392.64C637.096 394.075 587.247 385.371 585.036 385.371C582.824 385.371 583.695 399.957 576.214 420.329C569.509 438.443 557.535 468.555 555.018 474.859C554.736 475.589 554.054 476.059 553.277 476.106C550.666 476.247 544.456 476.388 538.151 475.377C533.728 474.695 530.482 472.836 528.718 471.707C527.894 471.166 527.471 470.178 527.565 469.213C528.341 462.226 531.705 433.174 533.775 421.247C535.987 408.684 537.586 360.318 545.585 350.531C552.572 341.968 555.112 341.051 562.97 338.581C570.05 336.369 645.682 335.687 645.682 335.687L674.03 331.476Z" fill="#65282C"/>
<path d="M528.246 490.386C525.941 494.667 521.4 500.596 517.66 503.066C508.885 508.947 497.711 516.898 496.041 518.568C494.394 520.215 490.607 527.343 496.37 531.178C500.51 533.883 512.461 534.942 527.54 527.508C538.903 521.909 544.549 520.709 548.689 519.133C555.582 516.592 554.029 509.064 552.594 505.395C551.488 502.501 551.159 501.936 550.383 494.456C550.195 492.856 549.559 486.316 549.559 486.316C549.559 486.316 543.725 488.292 537.327 487.516C532.645 486.928 530.01 483.799 530.01 483.799C530.01 483.799 529.093 488.857 528.246 490.386Z" fill="#635453"/>
<path d="M681.982 401.368H597.152C595.717 401.368 594.587 400.216 594.587 398.804V390.382C594.587 388.947 595.74 387.818 597.152 387.818H681.982C683.417 387.818 684.546 388.971 684.546 390.382V398.804C684.546 400.216 683.393 401.368 681.982 401.368Z" fill="#AB8868"/>
<path d="M510.604 268.007L555.936 272.524C556.995 272.618 558.006 273.206 558.735 274.123L607.008 334.041C607.549 334.723 607.102 335.876 606.373 335.781L558.924 330.535C558.053 330.441 557.277 329.994 556.665 329.195L510.133 269.301C509.734 268.807 510.039 267.913 510.604 268.007Z" fill="#D7D7E6"/>
<path d="M676.124 279.934C676.312 280.804 676.501 281.675 676.665 282.545C676.712 282.921 677.089 284.898 676.948 284.098C676.854 283.415 677.136 285.58 677.183 286.074C677.277 286.991 677.324 287.909 677.371 288.826C677.418 290.52 677.371 292.237 677.277 293.978C677.23 294.496 677.183 295.037 677.136 295.531C677.136 295.39 677.324 294.237 677.183 295.248C676.995 296.26 676.806 297.319 676.548 298.33C676.36 299.106 676.077 299.859 675.865 300.589C675.348 302.282 676.007 300.636 675.395 301.835C675.019 302.518 674.666 303.27 674.289 303.905C674.054 304.282 672.501 306.517 673.325 305.458C670.761 308.681 668.808 310.092 664.856 311.904C649.306 319.032 628.816 313.386 612.702 309.551C605.574 307.858 598.446 305.999 591.459 303.811C581.108 300.541 576.709 316.773 586.989 320.043C604.374 325.572 622.676 329.83 640.837 331.5C661.657 333.382 684.758 326.583 692.098 305.011C695.32 295.531 694.591 285.062 692.474 275.441C690.074 264.855 673.842 269.348 676.124 279.934Z" fill="#FFC5A1"/>
<path d="M670.995 274.782C672.524 273.771 689.344 261.773 689.344 261.773L695.319 277.488C695.319 277.488 693.625 280.475 686.897 283.886C680.099 287.297 673.7 286.498 673.7 286.498L670.995 274.782Z" fill="#40B5CF"/>
<path d="M660.688 335.523C661.158 339.757 661.558 344.039 662.029 348.25C662.452 352.061 662.993 355.919 663.135 359.8C663.229 363.023 662.805 366.458 660.429 368.857C658.312 370.974 655.277 371.704 652.384 371.939C648.926 372.221 645.491 371.939 642.033 371.798C637.846 371.61 633.658 371.421 629.471 371.257C621.002 370.88 612.556 370.528 604.135 370.198C600.041 370.01 595.948 369.822 591.855 369.681C588.538 369.539 585.197 369.492 581.88 369.822C575.435 370.457 569.153 372.574 565.06 377.867C560.826 383.348 559.579 390.382 558.167 396.946C556.38 405.273 554.592 413.554 552.78 421.858C550.969 430.163 549.205 438.467 547.393 446.771C545.864 453.711 544.5 460.745 542.712 467.59C542.429 468.649 542.171 469.755 541.841 470.813C541.371 472.366 543.77 473.025 544.241 471.448C545.982 465.52 547.228 459.498 548.522 453.476C550.31 445.148 552.098 436.867 553.909 428.563C555.697 420.188 557.532 411.837 559.344 403.462C560.167 399.604 560.943 395.746 561.884 391.911C562.661 388.594 563.578 385.325 565.201 382.29C566.73 379.396 568.824 376.95 571.694 375.303C574.447 373.656 577.575 372.809 580.751 372.409C587.926 371.445 595.431 372.268 602.629 372.598C611.098 372.974 619.543 373.327 627.965 373.656C632.247 373.844 636.481 374.033 640.739 374.197C644.291 374.339 647.914 374.668 651.443 374.48C654.43 374.338 657.559 373.844 660.17 372.221C662.876 370.622 664.687 367.893 665.322 364.811C666.052 361.353 665.652 357.824 665.275 354.366C664.805 350.132 664.405 345.85 663.934 341.639C663.699 339.569 663.511 337.546 663.299 335.476C662.97 333.947 660.5 333.9 660.688 335.523Z" fill="white"/>
<path d="M404.436 530.707C402.131 529.884 400.931 527.39 401.684 525.108L457.131 343.333C457.908 340.98 460.495 339.71 462.824 340.533L468.611 342.604C470.964 343.427 472.164 346.062 471.27 348.344L410.105 528.096C409.259 530.354 406.718 531.53 404.436 530.707Z" fill="#8A6645"/>
<path d="M691.909 530.707C694.214 529.884 695.414 527.39 694.661 525.108L639.26 343.333C638.484 340.98 635.896 339.71 633.567 340.533L627.78 342.604C625.428 343.427 624.228 346.062 625.122 348.344L686.333 528.049C687.086 530.354 689.603 531.53 691.909 530.707Z" fill="#8A6645"/>
<path d="M701.012 349.59H395.38C392.886 349.59 390.863 347.567 390.863 345.073V335.193C390.863 332.699 392.886 330.676 395.38 330.676H701.012C703.506 330.676 705.529 332.699 705.529 335.193V345.073C705.482 347.567 703.482 349.59 701.012 349.59Z" fill="#C49C77"/>
<path d="M431.749 507.041C403.661 503.536 391.051 521.626 391.004 521.673C391.004 521.626 392.345 522.638 392.345 518.827L391.71 513.134C391.71 513.134 389.311 513.863 388.393 514.239C385.547 515.439 382.959 518.803 382.183 518.756C381.453 518.709 378.772 516.31 374.584 515.18C370.397 514.028 365.48 515.133 365.01 514.804C364.586 514.522 364.727 513.063 364.092 511.181C363.316 508.97 361.293 506.453 361.293 506.453C361.199 506.547 354.894 518.591 353.577 521.038C352.259 523.485 350.001 527.249 349.672 535.341C349.201 546.139 356.47 541.787 356.47 541.787L351.412 537.105H344.143H342.026C339.321 537.105 337.109 539.764 337.109 542.987C337.109 546.209 339.321 548.868 342.026 548.868H344.143H351.412H464.472L464.566 538.752C464.566 538.611 465.225 511.205 431.749 507.041Z" fill="#C48042"/>
<path d="M458.591 553.432H356.47C353.2 553.432 350.589 550.773 350.589 547.551C350.589 544.281 353.247 541.669 356.47 541.669H458.591C461.861 541.669 464.472 544.328 464.472 547.551C464.472 550.75 461.814 553.432 458.591 553.432Z" fill="#C48042"/>
<path d="M441.911 521.603C435.654 520.45 429.043 520.874 423.468 524.167C419.516 526.519 416.34 530.142 414.646 534.424C414.058 535.953 413.635 537.552 413.588 539.152C409.824 538.917 405.777 538.917 402.272 540.399C400.437 541.175 398.861 542.422 398.132 544.351C397.45 546.092 397.45 548.209 398.226 549.95C399.096 551.973 400.931 553.267 403.143 553.267C404.013 553.267 404.013 551.879 403.143 551.879C399.567 551.832 398.32 547.692 399.473 544.845C400.861 541.34 405.495 540.705 408.765 540.517C410.647 540.423 412.482 540.47 414.364 540.611C414.74 540.658 415.046 540.281 415.046 539.928C414.858 536.612 416.528 533.13 418.551 530.448C421.492 526.543 425.867 523.908 430.596 522.897C434.219 522.12 438.006 522.261 441.629 522.944C442.405 523.085 442.782 521.744 441.911 521.603Z" fill="#EEBD3E"/>
<path d="M451.746 551.95C456.333 553.009 461.179 553.197 465.813 554.068C468.519 554.585 474.235 555.856 469.272 558.114C463.014 560.96 454.522 559.031 447.888 559.408C440.572 559.878 432.573 561.76 427.704 567.641C422.74 573.617 424.622 586.532 434.455 585.426C440.336 584.744 442.924 578.769 439.137 574.111C438.948 573.875 438.76 573.64 438.595 573.428C439.184 574.487 439.795 575.499 440.43 576.557C440.007 575.405 439.325 576.887 440.619 576.275C442.148 575.546 443.418 574.581 445.041 574.017C448.452 572.864 452.028 572.535 455.533 572.182C462.802 571.499 472.048 571.594 477.835 566.442C483.575 561.337 484.445 552.186 477.741 547.41C471.295 542.846 458.897 543.364 451.722 545.716C448.899 546.704 448.523 551.174 451.746 551.95Z" fill="#C48042"/>
<path d="M357.813 527.273C358.096 528.919 359.554 530.213 361.13 530.59C362.777 530.966 364.682 530.449 365.812 529.155C366.282 528.614 365.482 527.814 365.035 528.378C364.165 529.39 362.73 529.813 361.46 529.531C360.213 529.249 359.154 528.284 358.919 526.99C358.731 526.261 357.672 526.52 357.813 527.273Z" fill="#EEBD3E"/>
<path d="M373.476 530.99C373.476 532.636 375.029 533.883 376.558 534.165C378.393 534.495 380.181 533.648 381.569 532.519C382.11 532.048 381.333 531.272 380.792 531.742C379.734 532.66 378.346 533.295 376.934 533.13C375.876 532.989 374.582 532.213 374.582 531.013C374.582 530.26 373.476 530.26 373.476 530.99Z" fill="#EEBD3E"/>
<path d="M368.373 538.164C367.314 537.294 366.067 536.776 364.75 536.612C364.515 536.565 364.232 536.753 364.162 536.941C364.021 537.176 364.068 537.412 364.162 537.623C364.209 537.67 364.256 537.765 364.256 537.812C364.209 537.623 364.256 537.859 364.303 537.906C364.35 538 364.35 538.094 364.397 538.235C364.397 538.282 364.444 538.329 364.444 538.423V538.47C364.444 538.564 364.444 538.658 364.491 538.8C364.538 539.317 364.538 539.764 364.585 540.282C364.585 540.329 364.585 540.329 364.585 540.376V540.423V540.47C364.679 540.752 365.056 540.94 365.315 540.893C365.362 540.893 365.362 540.893 365.362 540.893C365.456 540.846 365.597 540.799 365.691 540.705C365.738 540.658 365.785 540.611 365.785 540.611C365.879 540.517 366.02 540.47 366.114 540.423C366.161 540.376 366.256 540.376 366.303 540.329C366.35 540.329 366.35 540.282 366.397 540.282C366.538 540.235 366.679 540.188 366.773 540.141C367.314 539.905 367.926 539.67 368.326 539.27C368.608 538.894 368.655 538.4 368.373 538.164ZM366.397 540.188C366.444 540.188 366.444 540.188 366.397 540.188C366.538 540.141 366.444 540.188 366.397 540.188Z" fill="#EEBD3E"/>
<path d="M558.431 163.58C554.855 152.994 545.61 144.502 534.624 141.044C523.638 137.586 511.17 139.115 501.148 144.666C496.232 147.372 491.762 151.159 489.01 155.935C486.257 160.71 485.387 166.638 487.41 171.79C489.856 178.001 495.973 182.094 502.16 184.988C508.817 188.117 517.921 190.187 526.39 188.069C533.377 192.351 540.364 196.68 547.351 200.937C546.057 196.162 542.199 186.682 542.058 186.634L542.975 186.54C548.033 184.752 552.62 181.624 555.937 177.53C557.537 175.554 558.925 173.249 559.348 170.732C559.748 168.332 559.207 165.886 558.431 163.58Z" fill="#FCFAF8"/>
<path d="M508.724 134.34C505.971 126.106 497.361 121.378 489.034 118.743C470.049 112.791 448.901 113.967 430.692 122.06C422.176 125.824 413.919 131.54 410.179 140.08C406.956 147.537 407.638 156.359 411.379 163.581C415.119 170.803 421.588 176.402 428.952 179.766C426.387 186.353 422.459 194.398 419.942 200.962C425.141 197.88 430.387 194.798 435.586 191.716C438.244 190.164 440.973 188.54 443.96 187.623C448.007 186.376 452.335 186.47 456.57 186.188C468.426 185.506 480.259 181.954 489.951 175.108C499.596 168.215 507.006 157.817 509.171 146.149C509.829 142.244 509.947 138.127 508.724 134.34Z" fill="white"/>
<path d="M493.313 216.558C492.936 213.571 490.772 211.124 488.443 209.242C481.739 203.996 472.682 202.303 464.26 203.643C461.131 204.161 458.002 205.078 455.391 206.866C450.004 210.583 447.675 218.041 449.792 224.204C450.074 225.074 451.133 225.992 451.133 225.992C448.522 230.956 446.993 234.625 444.781 239.73C449.933 235.825 455.532 232.414 461.484 229.568L462.213 229.944C469.247 234.225 478.539 232.155 485.62 227.968C489.713 225.521 493.901 221.428 493.313 216.558Z" fill="white"/>
<path d="M615.901 262.996C615.901 262.996 613.148 270.994 612.49 273.841C611.761 277.158 611.761 281.392 611.761 281.392L609.055 280.804C609.055 280.804 609.737 276.522 611.502 271.982C612.396 269.63 615.901 262.996 615.901 262.996Z" fill="#40B5CF"/>
<path d="M669.465 268.101C669.465 268.101 670.524 275.864 670.712 277.534C671.136 280.993 670.994 286.262 670.994 286.262L673.7 286.45C673.7 286.45 673.112 279.91 671.865 275.605C671.3 273.535 669.465 268.101 669.465 268.101Z" fill="#40B5CF"/>
<path d="M661.373 218.441C657.515 218.441 654.433 213.006 654.433 206.114C654.433 199.221 657.468 193.787 661.373 193.787C665.231 193.787 668.313 199.221 668.313 206.114C668.313 213.077 665.278 218.441 661.373 218.441ZM661.373 195.504C658.527 195.504 656.127 200.374 656.127 206.161C656.127 211.948 658.527 216.817 661.373 216.817C664.22 216.817 666.619 211.948 666.619 206.161C666.619 200.374 664.22 195.504 661.373 195.504Z" fill="white"/>
<path d="M691.439 220.981C694.473 219.546 694.238 218.087 693.509 215.453L678.571 173.39C674.101 158.499 659.586 147.537 642.343 147.537C631.121 147.537 624.676 152.265 624.676 152.265C624.77 152.265 631.945 154.006 637.285 159.017C642.672 164.075 639.449 170.191 645.895 176.26C650.223 180.307 657.751 182.33 657.751 182.33C657.751 182.918 658.951 211.571 659.445 223.71C659.633 227.991 662.056 227.568 670.619 226.368C681.982 224.792 686.428 223.31 691.439 220.981Z" fill="#322F51"/>
<path d="M637.825 172.05C633.402 172.05 629.591 174.543 627.662 178.213C626.063 177.39 624.298 176.966 622.463 176.966C621.875 176.966 621.263 177.013 620.675 177.107C619.24 172.379 614.888 168.921 609.689 168.921C603.338 168.921 598.186 174.073 598.186 180.424C598.186 186.776 603.338 191.928 609.689 191.928C616.041 191.928 621.193 186.776 621.193 180.424C621.193 179.907 621.146 179.366 621.052 178.872C623.075 178.59 625.192 178.919 626.98 179.883C626.557 181.036 626.345 182.283 626.345 183.553C626.345 189.905 631.497 195.057 637.848 195.057C644.2 195.057 649.352 189.905 649.352 183.553C649.352 177.202 644.177 172.05 637.825 172.05ZM609.689 190.117C604.302 190.117 599.997 185.741 599.997 180.424C599.997 175.037 604.373 170.732 609.689 170.732C615.076 170.732 619.382 175.108 619.382 180.424C619.382 185.765 615.029 190.117 609.689 190.117ZM637.825 193.245C632.438 193.245 628.133 188.87 628.133 183.553C628.133 178.166 632.508 173.861 637.825 173.861C643.212 173.861 647.517 178.237 647.517 183.553C647.588 188.87 643.212 193.245 637.825 193.245Z" fill="#E0E0E0"/>
<path d="M581.084 319.785L571.933 318.867C566.193 318.279 561.723 313.998 562.1 309.293L562.241 307.693C562.617 303.059 567.628 299.695 573.368 300.283L582.519 301.2C588.259 301.789 592.729 306.07 592.352 310.775L592.211 312.375C591.858 317.08 586.847 320.397 581.084 319.785Z" fill="#FFC5A1"/>
<path d="M461.438 220.063C462.854 220.063 464.002 218.968 464.002 217.617C464.002 216.266 462.854 215.17 461.438 215.17C460.022 215.17 458.874 216.266 458.874 217.617C458.874 218.968 460.022 220.063 461.438 220.063Z" fill="#D6D7F0"/>
<path d="M470.376 220.064C471.792 220.064 472.94 218.968 472.94 217.617C472.94 216.266 471.792 215.171 470.376 215.171C468.96 215.171 467.812 216.266 467.812 217.617C467.812 218.968 468.96 220.064 470.376 220.064Z" fill="#D6D7F0"/>
<path d="M478.678 220.064C480.095 220.064 481.243 218.968 481.243 217.617C481.243 216.266 480.095 215.171 478.678 215.171C477.262 215.171 476.114 216.266 476.114 217.617C476.114 218.968 477.262 220.064 478.678 220.064Z" fill="#D6D7F0"/>
<path d="M523.023 174.214C522.929 174.755 522.835 175.367 523.023 175.908C523.164 176.378 523.399 176.825 523.752 177.154C524.034 177.437 524.293 177.625 524.669 177.743C524.999 177.931 525.352 178.025 525.775 177.978C526.293 177.978 526.787 177.837 527.21 177.601C527.21 177.601 527.257 177.601 527.257 177.554C527.022 177.648 526.787 177.743 526.575 177.837H526.622C526.34 177.884 526.104 177.931 525.846 177.931C525.846 177.931 525.846 177.931 525.893 177.931C526.175 177.884 526.41 177.837 526.669 177.837C526.904 177.743 527.14 177.648 527.351 177.554C527.539 177.413 527.775 177.225 527.939 177.084C528.081 176.896 528.269 176.66 528.41 176.496C528.504 176.261 528.598 176.025 528.692 175.814C528.739 175.531 528.786 175.296 528.786 175.037C528.739 174.755 528.692 174.52 528.692 174.261C528.598 173.885 528.41 173.532 528.151 173.249C528.01 173.014 527.822 172.826 527.61 172.708C527.422 172.52 527.187 172.379 526.975 172.332C526.74 172.191 526.504 172.144 526.246 172.144C525.963 172.05 525.728 172.05 525.469 172.144C525.187 172.144 524.952 172.191 524.74 172.332C524.505 172.426 524.27 172.52 524.105 172.708C523.87 172.849 523.681 173.038 523.564 173.249C523.281 173.532 523.093 173.837 523.023 174.214Z" fill="#D6D7F0"/>
<path d="M516.298 157.347C517.451 155.559 520.439 154.594 522.509 154.806C523.473 154.9 525.449 155.394 526.014 156.335C526.437 156.97 526.532 156.241 525.826 156.97C525.402 157.394 524.626 157.652 524.132 157.982C520.862 160.146 517.475 166.31 522.391 168.733C524.32 169.697 526.861 168.544 526.814 166.192C526.814 165.133 526.437 164.451 527.002 163.534C527.378 162.946 528.296 162.475 528.837 162.099C530.366 160.993 531.825 159.84 532.154 157.864C532.695 154.312 529.543 151.607 526.508 150.454C523.191 149.207 519.474 149.631 516.581 151.654C515.028 152.759 511.946 156.288 514.793 157.723C515.334 158.029 515.969 157.888 516.298 157.347Z" fill="#D6D7F0"/>
<path d="M494.704 330.7H487.035C481.836 330.7 477.508 326.607 477.249 321.408L476.002 298.824C475.955 298.001 476.637 297.271 477.484 297.271H504.255C505.079 297.271 505.785 298.001 505.737 298.824L504.491 321.408C504.208 326.607 499.88 330.7 494.704 330.7Z" fill="#5685FF"/>
<path d="M505.456 302.353L505.268 305.811C508.444 306.446 510.796 309.269 510.796 312.61C510.796 316.233 507.997 319.197 504.445 319.503L504.257 322.961C509.832 322.725 514.231 318.185 514.231 312.61C514.184 307.434 510.42 303.153 505.456 302.353Z" fill="#5685FF"/>
<path d="M492.846 291.978C492.846 291.978 486.259 285.909 486.495 281.439C486.824 274.641 492.94 272.053 490.588 265.631C489.482 262.596 484.895 252.716 484.895 252.716C484.895 252.716 492.493 260.22 495.152 264.855C497.598 269.042 497.316 275.699 494.634 278.875C488.894 285.815 492.846 291.978 492.846 291.978Z" fill="#DCDCED"/>
<path d="M486.962 141.656H430.786C429.492 141.656 428.433 140.597 428.433 139.303C428.433 138.01 429.492 136.951 430.786 136.951H486.962C488.256 136.951 489.315 138.01 489.315 139.303C489.315 140.597 488.256 141.656 486.962 141.656Z" fill="#D6D7F0"/>
<path d="M468.566 164.286H430.786C429.492 164.286 428.433 163.228 428.433 161.934C428.433 160.64 429.492 159.582 430.786 159.582H468.59C469.884 159.582 470.942 160.64 470.942 161.934C470.919 163.228 469.86 164.286 468.566 164.286Z" fill="#D6D7F0"/>
<path d="M455.463 152.688H430.762C429.468 152.688 428.409 151.63 428.409 150.336C428.409 149.042 429.468 147.983 430.762 147.983H455.463C456.756 147.983 457.815 149.042 457.815 150.336C457.815 151.677 456.756 152.688 455.463 152.688Z" fill="#D6D7F0"/>
<path d="M482.326 152.688H466.824C465.53 152.688 464.471 151.63 464.471 150.336C464.471 149.042 465.53 147.983 466.824 147.983H482.326C483.62 147.983 484.679 149.042 484.679 150.336C484.655 151.677 483.597 152.688 482.326 152.688Z" fill="#D6D7F0"/>
<path d="M957.585 257.984H935.993V333.908H957.585V257.984Z" fill="#676BC4"/>
<path d="M935.994 257.984H903.347V333.908H935.994V257.984Z" fill="#868AE0"/>
<path d="M957.585 257.984L945.884 247.063L935.993 257.984H957.585Z" fill="#4E53BA"/>
<path d="M903.347 257.984H935.994L945.885 247.063H916.139L903.347 257.984Z" fill="#B6B6ED"/>
<path d="M943.555 241H918.448C917.169 241 916.139 242.03 916.139 243.309V247.063H945.874V243.309C945.884 242.03 944.824 241 943.555 241Z" fill="#676BC4"/>
<path d="M957.584 257.984L943.065 250.152L945.884 247.063L957.584 257.984Z" fill="#32378F"/>
<path d="M935.994 276.912H903.347V313.137H935.994V276.912Z" fill="#EBDBCD"/>
<path d="M957.585 276.912H935.993V313.137H957.585V276.912Z" fill="#DEC7B2"/>
<path d="M848.473 410.413C846.351 409.186 845.612 406.492 846.798 404.349L879.039 339.95C880.246 337.755 883.044 336.975 885.217 338.244L890.584 341.333C892.758 342.581 893.475 345.379 892.196 347.532L854.578 408.822C853.309 410.923 850.605 411.619 848.473 410.413Z" fill="#8A6645"/>
<path d="M1008.62 410.413C1010.74 409.186 1011.48 406.492 1010.29 404.349L978.053 339.95C976.847 337.755 974.049 336.975 971.876 338.244L966.509 341.333C964.335 342.581 963.618 345.379 964.897 347.532L1002.54 408.822C1003.79 410.923 1006.52 411.619 1008.62 410.413Z" fill="#8A6645"/>
<path d="M1010.81 349.165H846.31C844.115 349.165 842.347 347.397 842.347 345.202V337.932C842.347 335.738 844.115 333.97 846.31 333.97H1010.82C1013.02 333.97 1014.79 335.738 1014.79 337.932V345.202C1014.78 347.397 1013.01 349.165 1010.81 349.165Z" fill="#C49C77"/>
<path d="M973.831 333.949H965.417C959.686 333.949 954.964 329.476 954.652 323.767L953.311 298.93C953.269 297.994 954.007 297.204 954.923 297.204H984.325C985.261 297.204 985.999 297.984 985.937 298.93L984.595 323.767C984.283 329.476 979.561 333.949 973.831 333.949Z" fill="#FF5856"/>
<path d="M985.646 302.851L985.417 306.658C988.881 307.376 991.481 310.444 991.481 314.105C991.481 318.088 988.413 321.354 984.523 321.687L984.294 325.493C990.378 325.264 995.256 320.262 995.256 314.105C995.266 308.395 991.106 303.694 985.646 302.851Z" fill="#FF5856"/>
<path d="M971.813 291.411C971.813 291.411 964.605 284.744 964.834 279.866C965.188 272.368 971.906 269.528 969.327 262.498C968.1 259.138 963.066 248.332 963.066 248.332C963.066 248.332 971.407 256.569 974.34 261.645C977.003 266.252 976.691 273.553 973.778 277.058C967.476 284.661 971.813 291.411 971.813 291.411Z" fill="#DCDCED"/>
<path d="M839.706 438.557C858.874 438.557 874.413 423.018 874.413 403.85C874.413 384.682 858.874 369.144 839.706 369.144C820.539 369.144 805 384.682 805 403.85C805 423.018 820.539 438.557 839.706 438.557Z" fill="#1D5E8D"/>
<path d="M992.269 438.536H838.447C836.169 438.536 834.286 436.653 834.286 434.376C834.286 432.098 836.169 430.215 838.447 430.215H992.238C994.516 430.215 996.398 432.098 996.398 434.376C996.429 436.653 994.547 438.536 992.269 438.536Z" fill="#1D5E8D"/>
<path d="M838.385 398.733C835.255 400.407 834.36 404.505 835.744 407.615C837.397 411.307 841.828 412.222 845.302 410.589C847.132 409.737 848.661 408.26 849.462 406.388C850.242 404.578 850.356 402.446 849.867 400.543C848.775 396.174 845.26 393.221 840.944 392.357C836.648 391.484 831.542 392.669 828.453 395.956C825.385 399.222 824.74 404.349 825.343 408.624C825.905 412.586 827.673 416.362 830.554 419.118C833.799 422.207 838.271 423.299 842.66 423.08C844.917 422.966 847.153 422.519 849.327 421.895C851.542 421.25 853.716 420.48 855.775 419.43C859.509 417.506 862.514 414.594 864.054 410.631C866.986 403.091 864.594 394.344 859.02 388.79C855.868 385.659 851.947 383.444 847.766 382.03C843.471 380.594 838.812 379.856 834.298 380.106C829.774 380.355 825.572 382.092 822.233 385.212C819.373 387.896 817.293 391.317 815.941 394.989C813.393 402.04 813.216 410.517 816.659 417.277C820.736 425.264 829.098 429.695 837.668 430.974C839.862 431.307 842.057 431.421 844.272 431.421C844.834 431.421 845.343 431.089 845.416 430.485C845.478 429.976 845.062 429.321 844.501 429.321C836.576 429.383 828.193 427.396 822.441 421.624C819.935 419.118 818.073 416.07 817.096 412.628C816.18 409.341 815.972 405.868 816.336 402.467C817.096 395.488 820.34 388.374 826.446 384.567C830.003 382.352 834.121 381.926 838.198 382.217C842.223 382.529 846.206 383.444 849.899 385.077C853.497 386.689 856.794 389.04 859.228 392.149C861.381 394.905 862.691 398.213 863.097 401.687C863.482 405.025 862.962 408.509 861.349 411.484C859.519 414.885 856.295 417.006 852.821 418.442C845.863 421.302 836.399 422.914 830.939 416.424C828.661 413.72 827.475 410.246 827.267 406.71C827.038 402.82 828.047 398.39 831.427 396.06C834.61 393.886 839.165 393.512 842.681 394.989C845.946 396.351 848.318 399.69 848.047 403.33C847.933 404.984 847.246 406.554 845.946 407.625C844.719 408.655 843.086 409.3 841.474 409.216C839.997 409.123 838.635 408.457 837.876 407.178C837.2 406.055 837.023 404.671 837.272 403.392C837.47 402.269 838.125 401.156 839.196 400.574C840.372 400.022 839.571 398.098 838.385 398.733Z" fill="#2B8BD1"/>
<path d="M965.011 398.837H959.509C956.421 398.837 953.779 400.647 952.531 403.247V403.226L949.889 408.416H918.116L915.495 403.226V403.247C914.247 400.647 911.605 398.837 908.516 398.837H903.014C896.68 398.837 891.553 403.965 891.553 410.298V418.754C891.553 425.088 896.68 430.215 903.014 430.215H908.516C911.605 430.215 914.247 428.406 915.495 425.805V425.826L918.137 420.636H949.91L952.552 425.826V425.805C953.8 428.406 956.441 430.215 959.53 430.215H965.032C971.366 430.215 976.493 425.088 976.493 418.754V410.298C976.452 403.965 971.324 398.837 965.011 398.837Z" fill="#169696"/>
<path d="M947.694 417.641H942.192C939.103 417.641 936.461 419.451 935.213 422.051V422.03L932.572 427.22H900.788L898.146 422.03V422.051C896.898 419.451 894.256 417.641 891.167 417.641H885.666C879.332 417.641 874.204 422.769 874.204 429.102V437.558C874.204 443.892 879.332 449.019 885.666 449.019H891.167C894.256 449.019 896.898 447.21 898.146 444.61V444.63L900.788 439.441H932.561L935.203 444.63V444.61C936.451 447.21 939.093 449.019 942.182 449.019H947.684C954.017 449.019 959.145 443.892 959.145 437.558V429.102C959.145 422.758 954.028 417.641 947.694 417.641Z" fill="#8AC9C9"/>
<path d="M926.585 255.321C928.197 254.402 928.784 252.395 927.897 250.838C927.009 249.281 924.983 248.764 923.371 249.682C921.76 250.601 921.172 252.608 922.059 254.165C922.947 255.722 924.973 256.239 926.585 255.321Z" fill="#EBDBCD"/>
<path d="M921.849 254.385L922.993 255.186L927.018 249.861L926.082 249.185L921.849 254.385Z" fill="#EBDBCD"/>
<path d="M925.552 254.605C927.164 253.686 927.752 251.68 926.864 250.123C925.977 248.566 923.951 248.048 922.339 248.967C920.727 249.885 920.14 251.892 921.027 253.449C921.915 255.006 923.94 255.524 925.552 254.605Z" fill="#F8F1EB"/>
<path d="M933.217 333.948H876.108C871.116 333.948 866.332 331.868 862.931 328.218L862.421 327.656H946.155C946.447 327.656 946.582 327.989 946.405 328.218C942.973 331.868 938.209 333.948 933.217 333.948Z" fill="#D3D3F0"/>
<path d="M895.496 327.667H882.09C879.968 327.667 878.2 325.92 878.2 323.777V322.633C878.2 317.173 882.672 312.701 888.132 312.701H889.432C894.893 312.701 899.365 317.173 899.365 322.633V323.788C899.365 325.92 897.618 327.667 895.496 327.667Z" fill="#D19673"/>
<path d="M911.315 327.667H887.769C885.647 327.667 883.879 325.92 883.879 323.777V320.646C883.879 313.013 890.119 306.793 897.732 306.793H901.331C908.965 306.793 915.184 313.033 915.184 320.646V323.777C915.205 325.92 913.458 327.667 911.315 327.667Z" fill="#E0A17B"/>
<path d="M921.757 327.667H898.2C896.079 327.667 894.311 325.92 894.311 323.777V320.397C894.311 312.898 900.447 306.793 907.914 306.793H912.012C919.511 306.793 925.616 312.929 925.616 320.397V323.777C925.657 325.92 923.889 327.667 921.757 327.667Z" fill="#E8AA84"/>
<path d="M924.607 327.667H911.201C909.079 327.667 907.311 325.92 907.311 323.777V322.633C907.311 317.152 911.783 312.68 917.264 312.68H918.512C923.993 312.68 928.465 317.152 928.465 322.633V323.777C928.476 325.92 926.728 327.667 924.607 327.667Z" fill="#EDB593"/>
<path d="M444.594 328.457L435.746 325.967C435.679 325.967 435.608 325.967 435.541 325.967H430.703V323.549H425.727V325.967H420.89C420.823 325.967 420.752 325.967 420.684 325.967L411.976 328.457C411.354 328.596 410.938 329.079 410.938 329.7V330.254C410.938 330.947 411.493 331.569 412.253 331.569H444.459C445.152 331.569 445.774 330.947 445.774 330.254V329.7C445.698 329.15 445.215 328.596 444.594 328.457Z" fill="#110580"/>
<path d="M445.974 247.739C446.596 248.016 446.806 248.776 446.529 249.331L412.941 317.678C412.663 318.3 411.903 318.51 411.349 318.233C410.728 317.956 410.518 317.196 410.795 316.641L444.316 248.294C444.66 247.668 445.353 247.395 445.974 247.739Z" fill="#110580"/>
<path d="M429.942 316.78C412.18 317.956 396.837 304.548 395.666 286.786C394.49 269.096 407.897 253.752 425.659 252.51C443.421 251.334 458.764 264.741 459.936 282.503C461.112 300.261 447.704 315.604 429.942 316.78Z" fill="#CDDEFA"/>
<path d="M434.087 277.04C433.81 276.973 433.466 276.901 433.189 276.973C432.911 277.044 433.121 277.456 432.911 277.456C432.634 277.523 432.29 277.733 431.874 277.523C430.976 276.969 430.077 275.033 429.456 274.138C431.53 273.378 429.456 272.064 428.557 271.72C427.381 271.237 425.517 270.2 424.203 270.267C423.304 270.334 421.507 271.51 420.608 271.858C419.365 272.274 418.19 272.896 417.153 273.584C413.281 276.696 413.902 282.709 418.811 284.434C420.125 284.917 421.851 284.779 422.473 286.37C422.956 287.546 422.128 288.096 421.918 289.066C421.713 289.965 422.334 290.863 422.334 291.69C422.196 293.349 421.436 294.042 420.398 295.075C419.017 296.456 419.433 299.152 419.223 301.016C419.084 301.982 418.74 304.611 419.361 305.371C420.327 306.547 423.094 305.787 424.27 305.232C425.168 304.817 425.374 303.989 426.067 303.506C426.76 303.024 427.449 303.024 428.209 302.264C428.83 301.642 429.59 301.159 430.489 300.949C432.147 300.328 432.286 299.568 432.563 297.976C433.117 294.659 436.985 294.936 439.475 293.483C442.099 292.031 438.782 291.342 437.955 290.028C437.123 288.713 437.333 286.916 437.4 285.396C437.467 283.876 437.883 281.802 437.4 280.353C436.993 279.391 434.919 277.939 434.087 277.04Z" fill="#66A896"/>
<path d="M439.202 303.439C439.341 303.645 439.269 303.855 439.135 304.061L435.818 307.655C434.986 308.554 432.085 311.594 431.602 308.487C431.396 307.311 432.5 306.412 433.193 305.791C434.092 304.96 433.815 304.199 434.575 303.439C435.473 302.541 436.855 303.162 437.892 302.747C438.031 302.679 438.236 302.469 438.375 302.469C438.996 302.406 438.858 302.818 439.202 303.439Z" fill="#66A896"/>
<path d="M459.937 282.499C459.244 271.854 453.303 262.251 444.044 256.859L438.652 259.416C438.169 259.622 437.686 259.694 437.199 259.622L429.943 258.724C428.978 258.585 428.079 258.929 427.319 259.555L424.208 262.251C423.863 262.528 423.725 263.011 423.792 263.427L424.552 268.197C424.619 268.474 424.829 268.612 425.035 268.612C425.102 268.612 425.241 268.545 425.312 268.474L425.518 268.268C426.899 266.887 429.041 266.542 430.838 267.437L436.019 269.994C436.225 270.061 436.435 270.271 436.574 270.41L441.344 275.247C441.482 275.453 441.621 275.663 441.76 275.868L442.452 277.665C442.658 278.287 442.658 279.047 442.314 279.668C442.175 279.874 442.175 280.151 442.175 280.361L442.314 286.236C442.314 286.857 442.797 287.34 443.418 287.411C445.354 287.617 447.357 287.479 449.225 286.929C449.708 286.79 450.057 286.307 449.985 285.753L449.918 285.199C449.851 284.854 450.124 284.577 450.401 284.506C450.54 284.506 450.678 284.506 450.745 284.573L452.471 285.471C453.026 285.749 453.37 286.232 453.508 286.786L454.13 289.204C454.197 289.41 454.197 289.687 454.197 289.897L453.714 294.046C453.714 294.462 453.991 294.739 454.407 294.739C454.474 294.739 454.546 294.739 454.613 294.739L454.751 294.672C455.444 294.394 456.066 293.912 456.41 293.219C456.687 292.664 457.17 292.32 457.724 292.114L458.556 291.909C458.761 291.841 458.971 291.841 459.177 291.841C459.866 288.789 460.143 285.61 459.937 282.499Z" fill="#66A896"/>
<path d="M415.981 262.528C416.12 262.461 416.187 262.39 416.325 262.323L418.261 261.563C419.781 261.008 420.818 259.56 420.957 257.968C421.095 256.31 420.264 254.718 418.883 253.752C411.627 255.827 405.336 260.454 401.121 266.677C401.465 267.714 401.881 268.751 402.296 269.789C402.779 270.343 404.509 270.62 405.752 271.031C406.029 271.099 406.374 270.893 406.445 270.616C406.445 270.549 406.445 270.477 406.445 270.41L406.168 268.197C406.101 267.643 406.512 267.093 407.066 266.954L409.624 266.539C409.968 266.471 410.245 266.333 410.522 266.194L415.981 262.528Z" fill="#66A896"/>
<path d="M404.787 292.589C406.307 292.795 407.689 291.758 407.899 290.238L408.104 288.923C408.172 288.369 408.449 287.819 408.864 287.403C409.969 286.299 409.902 284.569 408.864 283.464C408.797 283.397 408.659 283.326 408.587 283.259L406.513 281.667C406.169 281.39 405.82 281.046 405.614 280.63L403.196 275.793C402.851 275.033 402.091 274.55 401.26 274.411L397.46 273.857C394.558 281.944 395.041 290.859 398.703 298.598L403.401 292.379L404.787 292.589Z" fill="#66A896"/>
<path d="M427.73 323.83C421.789 323.83 415.843 322.448 410.523 319.82C409.624 319.404 409.28 318.3 409.691 317.401C410.103 316.503 411.211 316.158 412.11 316.57C429.595 325.556 451.09 318.644 460.004 301.159C468.919 283.675 462.079 262.18 444.594 253.265C444.249 253.059 443.834 252.921 443.489 252.711C442.524 252.228 441.486 251.812 440.517 251.397C439.618 251.052 439.135 250.015 439.479 249.045C439.824 248.146 440.861 247.664 441.831 248.008C442.935 248.424 444.044 248.906 445.081 249.461C464.501 258.997 472.517 282.495 462.981 301.915C456.343 315.398 442.729 323.897 427.73 323.83Z" fill="#868AE0"/>
<path d="M450.535 300.261C452.953 299.916 455.443 299.778 457.791 299.018C458.966 298.602 458.622 295.7 457.236 296.116C455.023 296.809 452.743 296.948 450.535 297.292C449.153 297.43 449.292 300.399 450.535 300.261Z" fill="white"/>
<path d="M450.672 287.201C454.334 286.647 458.411 285.337 460.557 282.158C461.25 281.121 460.141 278.564 459.104 280.084C457.307 282.708 453.507 283.746 450.605 284.233C449.291 284.434 449.429 287.407 450.672 287.201Z" fill="white"/>
<path d="M405.475 300.261C403.057 299.916 400.567 299.778 398.219 299.018C397.044 298.602 397.388 295.7 398.774 296.116C400.987 296.809 403.267 296.948 405.475 297.292C406.861 297.43 406.79 300.399 405.475 300.261Z" fill="white"/>
<path d="M405.34 287.201C401.746 286.647 397.601 285.337 395.455 282.158C394.763 281.121 395.871 278.564 396.908 280.084C398.634 282.708 402.506 283.746 405.407 284.233C406.789 284.434 406.65 287.407 405.34 287.201Z" fill="white"/>
<path d="M426.555 280.84L406.03 283.674C404.993 283.813 404.233 284.711 404.166 285.749V298.602C404.166 299.501 404.72 300.261 405.548 300.605L421.789 306.756C426.211 308.415 431.048 308.415 435.474 306.756L451.783 300.605C452.615 300.261 453.165 299.501 453.165 298.602V285.749C453.165 284.711 452.333 283.813 451.3 283.674L430.775 280.84C429.322 280.634 427.941 280.634 426.555 280.84Z" fill="white"/>
<path d="M374.377 294.873L374.31 294.941C374.171 295.008 374.033 294.941 373.966 294.873C373.688 294.458 373.55 294.042 373.344 293.559C373.277 293.421 373.344 293.282 373.483 293.282C373.621 293.215 373.76 293.282 373.76 293.421C373.898 293.836 374.104 294.252 374.314 294.663C374.448 294.735 374.448 294.802 374.377 294.873Z" fill="#110580"/>
<path d="M407.688 272.896L407.273 273.173C406.58 273.589 405.891 274.071 405.198 274.554C405.06 274.622 404.921 274.554 404.854 274.487C404.787 274.349 404.787 274.21 404.921 274.143C405.681 273.66 406.374 273.244 406.995 272.761L407.273 272.556C407.34 272.488 407.55 272.488 407.617 272.623C407.688 272.686 407.688 272.824 407.688 272.896ZM402.851 275.864C402.851 275.864 402.784 275.932 402.712 275.932C401.881 276.347 400.987 276.763 400.088 277.107C399.949 277.107 399.811 277.04 399.811 276.902C399.811 276.763 399.811 276.696 399.949 276.624C400.848 276.28 401.675 275.932 402.507 275.52C402.645 275.453 402.784 275.52 402.851 275.659C402.851 275.73 402.851 275.797 402.851 275.864ZM397.459 277.733C397.392 277.8 397.392 277.8 397.321 277.8C396.355 277.939 395.385 278.006 394.419 278.006C394.281 278.006 394.214 277.867 394.214 277.729C394.214 277.59 394.352 277.523 394.491 277.523C395.389 277.59 396.355 277.523 397.254 277.385C397.392 277.385 397.531 277.452 397.531 277.59C397.459 277.594 397.459 277.662 397.459 277.733ZM391.795 277.456C391.728 277.523 391.656 277.594 391.518 277.523C390.552 277.246 389.653 276.902 388.822 276.486C388.683 276.419 388.683 276.28 388.755 276.142C388.822 276.003 388.961 276.003 389.032 276.074C389.863 276.49 390.758 276.834 391.656 277.112C391.795 277.112 391.862 277.25 391.795 277.389C391.795 277.389 391.795 277.389 391.795 277.456ZM390.203 274.416C389.926 274.831 389.582 275.247 389.166 275.659C389.099 275.726 388.961 275.797 388.822 275.659C388.683 275.52 388.683 275.453 388.822 275.314C389.166 274.97 389.515 274.554 389.788 274.139C390.065 273.794 390.271 273.446 390.481 273.101C390.548 272.963 390.686 272.963 390.825 273.034C390.963 273.034 390.963 273.173 390.963 273.311C390.758 273.656 390.481 274.071 390.203 274.416ZM387.025 277.456C386.265 278.01 385.505 278.422 384.535 279.047C384.396 279.115 384.258 279.115 384.19 278.98C384.123 278.846 384.123 278.703 384.258 278.636C384.258 278.636 384.258 278.636 384.325 278.636C385.291 278.082 386.051 277.599 386.743 277.116C386.811 277.049 387.021 277.049 387.088 277.183C387.096 277.25 387.096 277.389 387.025 277.456ZM391.795 270.616C391.728 270.683 391.656 270.683 391.589 270.683C391.451 270.683 391.383 270.544 391.383 270.406C391.451 269.923 391.451 269.44 391.383 268.953C391.316 268.537 391.245 268.121 391.039 267.71C390.972 267.571 391.039 267.433 391.178 267.433C391.316 267.366 391.455 267.433 391.455 267.571C391.661 267.987 391.732 268.47 391.799 268.953C391.866 269.507 391.866 269.99 391.799 270.544C391.795 270.544 391.795 270.616 391.795 270.616ZM386.748 274.76C386.68 274.827 386.542 274.827 386.403 274.76C385.643 274.139 385.022 273.307 384.606 272.48C384.539 272.341 384.606 272.203 384.673 272.136C384.812 272.069 384.95 272.136 385.018 272.203C385.433 273.034 386.055 273.723 386.743 274.344C386.819 274.483 386.886 274.622 386.748 274.76ZM382.12 280.29L382.053 280.357L381.155 280.84C380.6 281.185 380.05 281.462 379.563 281.806C379.425 281.806 379.286 281.739 379.286 281.668C379.286 281.596 379.286 281.529 379.286 281.462C379.769 281.117 380.323 280.84 380.877 280.496L381.776 280.013C381.915 279.946 382.053 280.013 382.12 280.08C382.12 280.152 382.12 280.219 382.12 280.29ZM373.412 290.792C373.344 290.859 373.273 290.931 373.206 290.931C373.067 290.931 373 290.792 373 290.653C373.067 289.688 373.277 288.718 373.621 287.819C373.689 287.681 373.76 287.613 373.899 287.681C374.037 287.748 374.104 287.819 374.104 287.958V288.025C373.76 288.923 373.55 289.822 373.483 290.721C373.479 290.725 373.479 290.792 373.412 290.792ZM377.35 283.469C376.657 284.162 376.036 284.85 375.414 285.61C375.347 285.749 375.209 285.749 375.07 285.678C375.07 285.678 375.003 285.678 375.003 285.61C374.936 285.543 374.936 285.405 375.003 285.266C375.557 284.506 376.246 283.813 377.006 283.125C377.073 283.057 377.212 283.057 377.35 283.125C377.417 283.263 377.417 283.398 377.35 283.469ZM389.649 265.64C389.582 265.707 389.443 265.778 389.305 265.707C388.545 265.224 387.646 265.014 386.815 265.291C386.676 265.358 386.538 265.291 386.471 265.224C386.403 265.157 386.471 264.947 386.538 264.88H386.605C386.743 264.813 386.949 264.813 387.088 264.741C387.919 264.603 388.814 264.808 389.506 265.295C389.721 265.363 389.721 265.501 389.649 265.64ZM384.262 269.784C384.195 269.851 384.123 269.851 384.056 269.851C383.917 269.851 383.85 269.784 383.779 269.646C383.712 268.68 383.985 267.643 384.4 266.744C384.468 266.606 384.606 266.606 384.745 266.677C384.812 266.744 384.883 266.883 384.812 266.954C384.396 267.786 384.19 268.68 384.19 269.578C384.262 269.717 384.262 269.784 384.262 269.784Z" fill="#110580"/>
<path d="M411.35 270.889C411.35 270.956 411.283 270.956 411.211 270.956C410.796 271.023 410.38 271.233 409.968 271.439C409.83 271.506 409.691 271.439 409.624 271.371C409.557 271.233 409.624 271.094 409.691 271.027C410.107 270.821 410.59 270.611 411.006 270.473C411.144 270.473 411.283 270.54 411.283 270.679C411.421 270.754 411.421 270.821 411.35 270.889Z" fill="#110580"/>
</svg>
