<svg width="396" height="656" viewBox="0 0 396 656" fill="none" xmlns="http://www.w3.org/2000/svg">
<path d="M354.778 321.882L337.453 321.803C331.547 321.725 326.744 318.102 326.665 313.771V312.275C326.586 307.944 331.311 304.479 337.138 304.479L354.463 304.558C360.369 304.636 365.172 308.259 365.251 312.59V314.086C365.33 318.417 360.605 321.961 354.778 321.882Z" fill="#FCB58A"/>
<path d="M54.4344 320.859L37.1099 320.78C31.2038 320.701 26.4003 317.079 26.3215 312.748V311.251C26.2428 306.92 30.9675 303.455 36.7948 303.455L54.1193 303.534C60.0254 303.613 64.8291 307.235 64.9079 311.566V313.062C64.9866 317.394 60.2617 320.937 54.4344 320.859Z" fill="#FCB58A"/>
<path d="M148.301 578.048C147.671 586.868 146.963 595.688 146.254 604.508C145.781 610.414 152.711 615.138 158.381 614.823C165.232 614.508 169.012 609.232 169.406 603.248C170.036 594.428 170.744 585.608 171.453 576.788C171.926 570.882 164.996 566.157 159.326 566.472C152.475 566.866 148.853 572.142 148.301 578.048Z" fill="#FCB58A"/>
<path d="M232.876 580.804C234.294 589.545 235.633 598.286 237.05 607.027C237.995 612.855 245.791 615.847 251.225 614.272C257.839 612.303 260.202 606.397 259.257 600.491C257.839 591.75 256.501 583.009 255.083 574.268C254.138 568.441 246.342 565.449 240.909 567.024C234.294 568.992 231.931 574.977 232.876 580.804Z" fill="#FCB58A"/>
<path d="M54.9068 567.653C33.4087 567.653 15.9269 565.685 15.2969 563.244L18.4468 600.727C18.4468 618.524 34.8262 633.014 54.8281 633.014C74.83 633.014 91.2095 618.446 91.2095 600.727L94.3594 563.165C94.0444 565.685 76.4836 567.653 54.9068 567.653Z" fill="#DEC7B2"/>
<path d="M54.9068 567.653C33.0937 567.653 15.3756 565.606 15.2969 563.086V563.007C15.4544 560.487 33.0937 558.44 54.9068 558.44C76.6411 558.44 94.2806 560.487 94.5169 563.007V563.086C94.3594 565.606 76.7199 567.653 54.9068 567.653Z" fill="#E8D4C1"/>
<path d="M54.9067 566.866C36.5585 566.866 21.5966 565.134 21.5178 563.007V562.929C21.6753 560.802 36.5585 559.07 54.9067 559.07C73.2549 559.07 88.1383 560.802 88.2958 562.929V563.007C88.2171 565.134 73.2549 566.866 54.9067 566.866Z" fill="#BA9C7E"/>
<path d="M16.6353 579.229C19.1552 579.308 21.6751 580.253 23.88 582.379C27.8961 586.317 30.4948 592.38 33.7234 596.948C34.9834 594.428 36.0858 591.908 37.0308 589.309C38.212 586.238 42.3858 583.324 45.6144 585.844C49.0793 588.6 51.7566 591.593 53.9615 595.373C55.9302 598.68 57.5053 602.539 60.5765 604.98C63.4901 607.342 66.8763 608.051 68.0575 603.799C69.0812 600.097 68.6874 596.16 69.9473 592.38C70.9711 589.309 72.4673 586.08 75.696 584.742C79.3971 583.167 83.0195 585.136 86.3269 586.789C88.2956 587.813 90.2642 588.837 92.1541 590.018L91.5241 597.893C88.138 595.766 83.9643 593.168 80.4995 592.695C78.2945 592.38 78.4522 593.876 78.2947 595.924C78.2159 597.735 78.2159 599.625 78.0584 601.436C77.8221 605.216 77.2709 608.996 75.0659 612.067C70.2623 618.761 61.3639 618.446 55.0641 614.193C51.678 611.91 49.2366 608.917 47.0317 605.452C46.323 604.35 45.6143 603.169 44.9056 601.988C42.1494 608.287 38.0545 613.957 31.2822 611.516C27.0298 610.02 24.2738 605.374 21.7538 601.988C20.9664 600.964 19.549 598.286 18.0527 596.003L16.6353 579.229Z" fill="#EBDBCD"/>
<path d="M1.12223 439.61C1.98845 436.381 5.68955 435.909 7.97323 437.799C12.2256 441.343 14.4304 446.225 16.7141 451.029C19.1553 456.147 22.1477 460.793 25.6126 465.203C32.6999 474.259 40.5747 482.606 45.7721 493.001C55.8518 513.082 58.293 536.706 51.2844 558.204C51.0482 558.834 52.3868 555.448 50.2607 561.433C48.292 566.787 40.6534 563.953 40.7321 557.653C40.8109 551.511 39.1572 545.762 36.4798 540.328C31.125 529.54 24.3526 519.381 19.0765 508.514C13.7217 497.49 9.07558 486.229 5.2957 474.574C1.67331 463.392 -1.87018 451.422 1.12223 439.61Z" fill="#4C7378"/>
<path d="M50.5756 376.612C53.3317 371.651 61.2066 375.037 59.7104 380.471C55.0643 396.378 58.3717 413.151 61.2853 429.058C64.199 445.28 67.664 461.344 69.6326 477.724C73.1763 506.782 71.995 539.383 53.6468 563.716C51.6781 566.315 47.5046 564.189 49.1583 561.039C50.9695 557.574 46.402 534.973 44.3546 527.729C42.3071 520.248 40.1809 512.766 38.3697 505.285C34.6685 490.56 31.6762 475.598 30.9675 460.399C29.1563 430.869 36.4797 402.362 50.5756 376.612Z" fill="#57848A"/>
<path d="M59.3166 538.044C61.4428 528.201 59.8678 517.649 61.9939 507.884C64.0414 498.198 66.8764 488.433 71.365 479.614C75.6174 471.266 82.1534 465.282 89.8707 460.084C97.1155 455.202 105.62 450.398 108.219 441.421C109.715 436.066 118.771 436.854 118.22 442.76C116.96 454.729 111.92 465.282 106.093 475.676C99.7928 486.701 94.3594 497.253 91.2882 509.617C86.0121 530.8 81.4447 558.283 57.3479 564.819C54.2767 565.527 54.6705 559.228 59.3166 538.044Z" fill="#689399"/>
<path d="M54.1981 323.221C71.7589 332.198 89.6346 337.395 109.558 337.002C128.221 336.608 146.333 331.647 156.885 314.874C163.815 303.77 146.254 293.533 139.324 304.636C132.237 315.976 118.062 316.764 105.935 316.685C90.9732 316.606 77.6649 312.432 64.4353 305.66C52.8594 299.754 42.5435 317.315 54.1981 323.221Z" fill="#FCB58A"/>
<path d="M325.011 305.739C311.781 312.511 298.552 316.606 283.511 316.764C270.754 316.842 259.178 315.425 252.012 303.77C245.161 292.667 227.6 302.904 234.451 314.007C238.94 321.252 245.082 327.631 252.721 331.489C261.304 335.821 270.36 336.844 279.889 337.002C299.812 337.395 317.609 332.198 335.248 323.221C346.903 317.315 336.587 299.754 325.011 305.739Z" fill="#FCB58A"/>
<path d="M386.513 388.345L379.583 426.144L349.187 401.024L386.513 388.345Z" fill="#D4BFA9"/>
<path d="M112.708 115.721C123.968 115.721 133.103 106.586 133.103 95.3252C133.103 84.0643 123.968 74.9297 112.708 74.9297C101.447 74.9297 92.3118 84.0643 92.3118 95.3252C92.3118 106.586 101.447 115.721 112.708 115.721Z" fill="#EBDBCD"/>
<path d="M132.079 136.274C131.922 136.274 131.764 136.195 131.607 135.959C131.528 135.723 131.607 135.487 131.843 135.329L133.969 134.384L133.024 132.258C132.946 132.022 133.024 131.785 133.261 131.628C133.497 131.549 133.733 131.628 133.891 131.864L135.151 134.857L132.079 136.274C132.237 136.274 132.158 136.274 132.079 136.274Z" fill="#110580"/>
<path d="M88.768 155.173C88.6105 155.173 88.4531 155.095 88.2956 154.859C88.2169 154.622 88.2957 154.386 88.5319 154.229L93.9654 151.866C94.2017 151.787 94.438 151.866 94.5954 152.102C94.6742 152.339 94.5954 152.575 94.3592 152.732L88.9257 155.095C88.9257 155.173 88.8468 155.173 88.768 155.173ZM99.6352 150.449C99.4777 150.449 99.3203 150.37 99.1628 150.134C99.0841 149.897 99.1627 149.661 99.3989 149.504L104.833 147.141C105.069 147.062 105.305 147.141 105.463 147.378C105.541 147.614 105.463 147.85 105.226 148.007L99.7927 150.37C99.7139 150.449 99.714 150.449 99.6352 150.449ZM110.424 145.724C110.266 145.724 110.109 145.645 109.951 145.409C109.872 145.173 109.951 144.936 110.188 144.779L115.621 142.416C115.857 142.338 116.094 142.416 116.251 142.653C116.33 142.889 116.251 143.125 116.015 143.283L110.581 145.645C110.581 145.724 110.502 145.724 110.424 145.724ZM121.291 140.92C121.133 140.92 120.976 140.841 120.818 140.605C120.74 140.369 120.818 140.133 121.055 139.975L126.488 137.613C126.724 137.534 126.961 137.613 127.118 137.849C127.197 138.085 127.118 138.322 126.882 138.479L121.448 140.841C121.37 140.92 121.37 140.92 121.291 140.92Z" fill="#110580"/>
<path d="M80.5784 158.796L79.3183 155.803C79.2396 155.567 79.3184 155.331 79.5546 155.173C79.7909 155.095 80.0271 155.173 80.1846 155.41L81.1296 157.536L83.2557 156.591C83.492 156.512 83.7282 156.591 83.8857 156.827C83.9645 157.063 83.8857 157.3 83.6495 157.457L80.5784 158.796Z" fill="#110580"/>
<path d="M77.5072 151.079C77.3497 151.079 77.1922 151 77.0347 150.764L74.8297 145.724C74.7509 145.488 74.8297 145.251 75.066 145.094C75.3022 145.015 75.5385 145.094 75.696 145.33L77.901 150.37C77.9797 150.606 77.9009 150.842 77.6647 151C77.6647 151.079 77.586 151.079 77.5072 151.079ZM73.0973 140.999C72.9398 140.999 72.7822 140.92 72.6247 140.684L70.4199 135.644C70.3412 135.408 70.4198 135.172 70.656 135.014C70.8923 134.935 71.1285 135.014 71.286 135.25L73.491 140.29C73.5698 140.526 73.491 140.763 73.2547 140.92C73.2547 140.999 73.176 140.999 73.0973 140.999ZM68.6873 130.998C68.5298 130.998 68.3725 130.919 68.215 130.683L66.01 125.643C65.9312 125.407 66.01 125.171 66.2463 125.013C66.4825 124.934 66.7188 125.013 66.8763 125.249L69.0811 130.289C69.1598 130.525 69.0812 130.762 68.845 130.919C68.845 130.998 68.7661 130.998 68.6873 130.998Z" fill="#110580"/>
<path d="M64.3564 120.918C64.1989 120.918 64.0416 120.84 63.8841 120.603L62.624 117.611L65.6165 116.351C65.8527 116.272 66.089 116.351 66.2465 116.587C66.3252 116.823 66.2465 117.06 66.0102 117.217L63.8841 118.162L64.829 120.288C64.9077 120.525 64.829 120.761 64.5927 120.918C64.4352 120.918 64.3564 120.918 64.3564 120.918Z" fill="#110580"/>
<path d="M71.1286 114.933C70.9711 114.933 70.8135 114.855 70.656 114.618C70.5772 114.382 70.656 114.146 70.8923 113.989L76.326 111.626C76.5622 111.547 76.7983 111.626 76.9558 111.862C77.0345 112.099 76.956 112.335 76.7197 112.492L71.286 114.855C71.286 114.855 71.2073 114.933 71.1286 114.933ZM81.9958 110.13C81.8383 110.13 81.6807 110.051 81.5232 109.815C81.4445 109.579 81.5232 109.342 81.7595 109.185L87.193 106.823C87.4292 106.744 87.6655 106.822 87.823 107.059C87.9018 107.295 87.823 107.531 87.5867 107.689L82.1532 110.051C82.1532 110.13 81.9958 110.13 81.9958 110.13ZM92.7841 105.405C92.6266 105.405 92.4691 105.326 92.3116 105.09C92.2328 104.854 92.3116 104.618 92.5479 104.46L97.9816 102.098C98.2178 102.019 98.4539 102.098 98.6114 102.334C98.6901 102.57 98.6115 102.806 98.3753 102.964L92.9416 105.326C92.9416 105.405 92.9416 105.405 92.7841 105.405ZM103.651 100.68C103.494 100.68 103.336 100.601 103.179 100.365C103.1 100.129 103.179 99.8927 103.415 99.7352L108.849 97.3728C109.085 97.2941 109.321 97.3727 109.479 97.609C109.557 97.8452 109.479 98.0815 109.242 98.239L103.809 100.601C103.809 100.68 103.73 100.68 103.651 100.68Z" fill="#110580"/>
<path d="M118.141 97.3728C117.983 97.3728 117.826 97.2941 117.669 97.0578L116.723 94.9316L114.597 95.8766C114.361 95.9554 114.125 95.8766 113.967 95.6403C113.889 95.4041 113.967 95.1679 114.204 95.0104L117.196 93.7504L118.456 96.7428C118.535 96.9791 118.456 97.2153 118.22 97.3728C118.299 97.3728 118.22 97.3728 118.141 97.3728Z" fill="#110580"/>
<path d="M131.292 127.612C131.134 127.612 130.977 127.533 130.819 127.297L128.614 122.257C128.536 122.021 128.614 121.785 128.851 121.627C129.087 121.47 129.323 121.627 129.481 121.863L131.685 126.903C131.764 127.14 131.686 127.376 131.449 127.533C131.528 127.533 131.37 127.612 131.292 127.612ZM126.961 117.454C126.803 117.454 126.646 117.375 126.488 117.139L124.283 112.099C124.204 111.862 124.283 111.626 124.519 111.469C124.756 111.39 124.992 111.469 125.15 111.705L127.354 116.745C127.433 116.981 127.354 117.217 127.118 117.375C127.039 117.453 126.961 117.454 126.961 117.454ZM122.551 107.453C122.393 107.453 122.236 107.374 122.078 107.138L119.873 102.098C119.795 101.862 119.873 101.625 120.11 101.468C120.346 101.389 120.582 101.468 120.74 101.704L122.945 106.744C123.023 106.98 122.945 107.216 122.708 107.374C122.63 107.453 122.63 107.453 122.551 107.453Z" fill="#110580"/>
<path d="M358.164 437.563L355.644 436.617C355.407 436.539 355.329 436.303 355.407 436.145C355.486 435.909 355.723 435.83 355.88 435.909L357.691 436.539L358.321 434.728C358.4 434.491 358.636 434.413 358.794 434.491C359.03 434.57 359.109 434.806 359.03 434.964L358.164 437.563Z" fill="#110580"/>
<path d="M351.785 435.2C351.706 435.2 351.706 435.2 351.706 435.2L347.848 433.783C347.611 433.704 347.533 433.468 347.612 433.31C347.69 433.074 347.926 432.995 348.084 433.074L351.943 434.491C352.179 434.57 352.258 434.806 352.179 434.964C352.179 435.121 352.021 435.2 351.785 435.2ZM344.068 432.286C343.989 432.286 343.989 432.286 343.989 432.286L340.131 430.869C339.894 430.79 339.816 430.554 339.894 430.397C339.973 430.16 340.209 430.082 340.367 430.16L344.225 431.578C344.462 431.656 344.54 431.893 344.462 432.05C344.304 432.129 344.225 432.286 344.068 432.286ZM336.193 429.373C336.114 429.373 336.114 429.373 336.114 429.373L332.256 427.955C332.02 427.877 331.941 427.64 332.02 427.483C332.098 427.247 332.334 427.168 332.492 427.247L336.351 428.664C336.587 428.743 336.666 428.979 336.587 429.137C336.587 429.294 336.351 429.373 336.193 429.373ZM328.397 426.459C328.318 426.459 328.318 426.459 328.318 426.459L324.46 425.042C324.223 424.963 324.145 424.727 324.223 424.569C324.302 424.333 324.538 424.254 324.696 424.333L328.554 425.75C328.791 425.829 328.87 426.065 328.791 426.223C328.712 426.302 328.555 426.459 328.397 426.459Z" fill="#110580"/>
<path d="M320.601 423.545C320.522 423.545 320.522 423.545 320.522 423.545L318.002 422.6L318.947 420.08C319.026 419.844 319.262 419.765 319.42 419.844C319.656 419.923 319.735 420.159 319.656 420.317L319.026 422.128L320.837 422.758C321.074 422.837 321.152 423.073 321.074 423.23C320.916 423.467 320.759 423.545 320.601 423.545Z" fill="#110580"/>
<path d="M320.759 416.694C320.68 416.694 320.68 416.694 320.68 416.694C320.443 416.616 320.365 416.379 320.444 416.222L321.861 412.363C321.94 412.127 322.176 412.048 322.333 412.127C322.57 412.206 322.649 412.442 322.57 412.599L321.152 416.458C320.995 416.537 320.837 416.694 320.759 416.694ZM323.594 408.898C323.515 408.898 323.515 408.898 323.515 408.898C323.278 408.82 323.2 408.583 323.278 408.426L324.696 404.567C324.775 404.331 325.011 404.252 325.168 404.331C325.405 404.41 325.483 404.646 325.405 404.803L323.987 408.662C323.909 408.82 323.751 408.898 323.594 408.898ZM326.507 401.102C326.428 401.102 326.428 401.102 326.428 401.102C326.192 401.024 326.113 400.787 326.192 400.63L327.61 396.771C327.688 396.535 327.925 396.456 328.082 396.535C328.318 396.614 328.397 396.85 328.318 397.007L326.901 400.866C326.822 400.945 326.665 401.102 326.507 401.102ZM329.421 393.228C329.342 393.228 329.342 393.228 329.342 393.228C329.106 393.149 329.027 392.913 329.106 392.755L330.523 388.896C330.602 388.66 330.838 388.581 330.996 388.66C331.232 388.739 331.311 388.975 331.232 389.133L329.815 392.991C329.736 393.228 329.578 393.228 329.421 393.228Z" fill="#110580"/>
<path d="M332.334 385.51C332.256 385.51 332.256 385.51 332.256 385.51C332.02 385.432 331.941 385.195 332.02 385.038L332.964 382.518L335.484 383.463C335.721 383.542 335.799 383.778 335.721 383.935C335.642 384.172 335.406 384.25 335.248 384.172L333.437 383.542L332.807 385.353C332.649 385.353 332.492 385.51 332.334 385.51Z" fill="#110580"/>
<path d="M366.511 395.747C366.432 395.747 366.432 395.747 366.432 395.747L362.574 394.33C362.338 394.251 362.259 394.015 362.337 393.858C362.416 393.621 362.652 393.543 362.81 393.621L366.669 395.039C366.905 395.118 366.984 395.354 366.905 395.511C366.826 395.669 366.669 395.747 366.511 395.747ZM358.715 392.834C358.636 392.834 358.636 392.834 358.636 392.834L354.778 391.416C354.541 391.338 354.463 391.101 354.541 390.944C354.62 390.708 354.856 390.629 355.014 390.708L358.872 392.125C359.109 392.204 359.187 392.44 359.109 392.598C359.03 392.755 358.873 392.834 358.715 392.834ZM350.919 389.92C350.84 389.92 350.84 389.92 350.84 389.92L346.982 388.503C346.745 388.424 346.667 388.188 346.745 388.03C346.824 387.794 347.06 387.715 347.218 387.794L351.077 389.211C351.313 389.29 351.392 389.526 351.313 389.684C351.234 389.841 351.077 389.92 350.919 389.92ZM343.123 387.007C343.044 387.007 343.044 387.007 343.044 387.007L339.186 385.589C338.949 385.51 338.871 385.274 338.949 385.117C339.028 384.88 339.264 384.802 339.422 384.88L343.281 386.298C343.517 386.377 343.595 386.613 343.517 386.77C343.438 386.928 343.28 387.007 343.123 387.007Z" fill="#110580"/>
<path d="M371.787 400.157C371.708 400.157 371.708 400.157 371.708 400.157C371.472 400.079 371.393 399.842 371.472 399.685L372.102 397.874L370.291 397.244C370.055 397.165 369.976 396.929 370.055 396.771C370.133 396.535 370.37 396.456 370.527 396.535L373.047 397.48L372.102 400C372.102 400.079 371.945 400.157 371.787 400.157Z" fill="#110580"/>
<path d="M360.133 431.42C360.054 431.42 360.054 431.42 360.054 431.42C359.817 431.341 359.739 431.105 359.818 430.948L361.235 427.089C361.314 426.853 361.55 426.774 361.708 426.853C361.944 426.931 362.023 427.168 361.944 427.325L360.526 431.184C360.448 431.263 360.29 431.42 360.133 431.42ZM363.046 423.545C362.967 423.545 362.968 423.545 362.968 423.545C362.731 423.467 362.653 423.23 362.731 423.073L364.149 419.214C364.228 418.978 364.464 418.899 364.621 418.978C364.857 419.057 364.936 419.293 364.857 419.451L363.44 423.309C363.361 423.467 363.204 423.545 363.046 423.545ZM365.96 415.828C365.881 415.828 365.881 415.828 365.881 415.828C365.645 415.749 365.566 415.513 365.645 415.356L367.062 411.497C367.141 411.261 367.377 411.182 367.535 411.261C367.771 411.339 367.85 411.576 367.771 411.733L366.354 415.592C366.275 415.671 366.117 415.828 365.96 415.828ZM368.874 407.953C368.795 407.953 368.795 407.953 368.795 407.953C368.559 407.875 368.48 407.638 368.559 407.481L369.976 403.622C370.055 403.386 370.291 403.307 370.449 403.386C370.685 403.465 370.763 403.701 370.685 403.858L369.267 407.717C369.189 407.875 369.031 407.953 368.874 407.953Z" fill="#110580"/>
<path d="M252.012 252.269C252.012 252.269 242.168 221.006 238.94 207.777C233.821 187.381 219.962 175.175 200.353 175.175C180.509 175.175 166.492 187.696 160.98 207.934C155.389 228.802 147.986 250.616 147.986 250.616C147.12 253.372 148.459 256.364 151.136 257.467C157.436 259.986 170.666 264.396 200.275 264.081C226.734 263.766 240.357 260.065 247.208 259.278C250.673 258.884 252.878 255.498 252.012 252.269Z" fill="#322F51"/>
<path d="M211.614 242.347H189.014V280.776C189.014 284.005 191.613 286.603 194.841 286.603H205.787C209.016 286.603 211.614 284.005 211.614 280.776V242.347Z" fill="#FCB58A"/>
<path d="M199.96 172.183C207.756 172.183 214.056 165.883 214.056 158.087C214.056 150.291 207.756 143.991 199.96 143.991C192.164 143.991 185.864 150.291 185.864 158.087C185.864 165.883 192.243 172.183 199.96 172.183Z" fill="#110580"/>
<path d="M166.807 246.915C163.106 246.915 163.027 234.551 163.027 233.213C163.027 231.874 163.106 219.51 166.807 219.51C170.508 219.51 170.587 231.795 170.587 233.213C170.508 234.63 170.429 246.915 166.807 246.915ZM166.807 221.637C166.177 222.503 165.075 226.44 165.075 233.213C165.075 239.906 166.098 243.843 166.807 244.788C167.437 243.922 168.539 239.985 168.539 233.213C168.539 226.44 167.437 222.582 166.807 221.637Z" fill="white"/>
<path d="M233.112 246.915C229.411 246.915 229.333 234.551 229.333 233.213C229.333 231.874 229.411 219.51 233.112 219.51C236.814 219.51 236.892 231.795 236.892 233.213C236.892 234.63 236.735 246.915 233.112 246.915ZM233.112 221.637C232.482 222.503 231.38 226.44 231.38 233.213C231.38 239.906 232.404 243.843 233.112 244.788C233.742 243.922 234.845 239.985 234.845 233.213C234.845 226.44 233.821 222.582 233.112 221.637Z" fill="white"/>
<path d="M200.354 250.773C220.985 250.773 237.68 234.079 237.68 213.447C237.68 192.815 220.985 176.12 200.354 176.12C179.722 176.12 163.027 192.815 163.027 213.447C163.027 234.079 179.722 250.773 200.354 250.773Z" fill="#FCB58A"/>
<path d="M162.161 216.124C162.24 216.754 162.24 217.305 162.319 217.935C162.319 218.014 162.319 218.093 162.319 218.172C162.397 218.802 162.476 219.432 162.634 220.14V220.219C162.712 220.849 162.948 221.558 163.027 222.267C165.547 211.951 174.761 204.312 185.864 204.312C187.282 204.312 188.62 204.391 189.88 204.627C190.904 204.863 191.849 204.942 192.951 204.942C199.881 204.942 205.63 199.666 206.417 192.894C206.417 192.894 206.496 192.894 206.496 192.815C206.417 193.524 206.338 194.232 206.338 194.941C206.338 202.895 212.796 209.352 220.749 209.352H220.828C228.624 210.927 234.845 216.676 237.129 224.157C237.601 222.503 237.995 220.77 238.231 219.038C238.231 218.959 238.231 218.959 238.231 218.802C238.31 218.093 238.389 217.384 238.467 216.597C238.467 216.439 238.546 216.203 238.546 216.045C238.625 215.179 238.625 214.392 238.625 213.526C238.625 212.817 238.625 212.108 238.546 211.478C238.546 211.242 238.467 211.084 238.467 210.848C238.389 210.376 238.389 209.824 238.389 209.431C238.389 209.194 238.31 208.958 238.31 208.801C238.231 208.328 238.231 207.856 238.153 207.383C238.074 207.147 238.074 206.911 238.074 206.753C237.995 206.281 237.916 205.808 237.759 205.336C237.68 205.1 237.68 204.942 237.68 204.706C237.601 204.233 237.444 203.761 237.286 203.288C237.208 203.131 237.208 202.973 237.129 202.816C236.971 202.343 236.814 201.792 236.656 201.32C236.578 201.241 236.578 201.005 236.578 200.926C236.42 200.375 236.184 199.824 235.948 199.351C235.869 199.272 235.869 199.193 235.869 199.115C235.633 198.485 235.396 197.855 235.081 197.304C231.774 190.295 226.419 184.389 219.726 180.53C217.599 179.349 215.394 178.247 213.032 177.459C212.953 177.459 212.874 177.38 212.796 177.38C212.166 177.144 211.457 176.908 210.748 176.75C210.67 176.672 210.512 176.672 210.433 176.672C208.937 176.278 207.362 175.963 205.866 175.727C205.63 175.648 205.472 175.648 205.236 175.648C204.606 175.569 204.055 175.569 203.425 175.49C203.189 175.49 202.952 175.412 202.795 175.412C202.007 175.333 201.22 175.333 200.432 175.333C179.328 175.333 162.24 192.421 162.24 213.526C162.24 214.234 162.24 214.943 162.319 215.652C162.161 215.888 162.161 216.045 162.161 216.124Z" fill="#110580"/>
<path d="M236.735 275.5C227.206 269.83 216.339 267.861 211.614 267.153C210.118 273.374 206.968 276.838 199.96 276.838C192.872 276.838 190.431 273.295 189.093 266.916C187.675 266.995 183.265 267.861 182.242 268.097C169.327 270.617 164.129 273.925 157.672 278.728C147.75 286.131 137.985 301.565 135.938 305.109C135.623 305.581 135.623 306.133 135.938 306.526C137.119 308.338 140.348 312.905 144.915 315.897C151.372 320.15 159.011 322.512 159.011 322.512C159.011 322.512 162.082 316.842 163.027 314.716C164.208 311.881 167.437 302.353 167.437 302.353C167.437 302.353 164.523 308.731 164.287 315.346C164.13 321.41 166.177 328.261 166.019 332.198C165.547 341.333 162.87 349.207 161.925 352.83C161.688 353.696 162.24 354.562 163.106 354.72C168.067 355.822 182.793 359.13 197.833 359.13C217.284 359.13 230.671 357.004 235.396 356.295C236.262 356.137 236.814 355.271 236.577 354.405C235.79 351.334 234.451 345.979 233.112 334.088C232.089 324.796 233.191 322.985 233.112 316.449C233.112 311.645 231.144 301.959 231.144 301.959L233.034 320.386C233.034 320.386 239.885 320.701 249.649 316.449C253.036 314.952 257.288 311.094 259.099 309.361C259.572 308.889 259.729 308.101 259.414 307.471C256.894 302.353 246.027 281.091 236.735 275.5Z" fill="#40B5CF"/>
<path d="M200.354 250.773C196.416 250.773 192.636 250.143 189.093 249.041V256.049C192.636 257.152 196.495 257.231 200.511 256.837C205.787 256.364 208.071 255.341 211.614 253.766V249.041C208.071 250.143 204.291 250.773 200.354 250.773Z" fill="#E3996D"/>
<path d="M168.225 355.901C168.225 355.901 186.651 358.972 199.566 358.972C213.189 358.972 230.12 357.004 230.12 357.004C230.12 357.004 231.616 366.69 232.246 368.816C232.876 370.942 221.064 375.116 200.117 374.722C172.634 374.249 166.098 370.312 166.098 369.209C165.941 368.422 168.225 355.901 168.225 355.901Z" fill="#FCB58A"/>
<path d="M238.94 375.273C255.949 409.135 263.981 430.396 268.549 475.834C272.407 514.026 267.525 565.055 266.738 594.191C266.738 595.058 266.501 596.003 266.029 596.711C264.611 598.916 255.792 600.728 253.351 600.964C241.066 601.83 229.569 600.019 228.466 595.688C222.167 570.016 217.205 543.005 213.662 516.231C210.748 494.024 207.362 469.298 205.393 451.028C205.236 449.532 203.031 449.453 202.873 451.028C202.558 454.099 202.165 471.109 201.692 476.149C200.432 490.481 198.07 504.577 195.786 518.751C192.085 541.273 183.423 573.087 176.808 594.507C176.335 595.924 174.839 597.971 173.186 598.208C170.272 598.68 163.185 599.231 159.483 598.995C153.971 598.523 142.474 596.948 141.844 594.191C133.497 559.464 133.26 492.607 145.309 423.073C148.222 406.536 154.837 388.03 160.98 376.927C160.98 376.927 180.667 380.785 198.779 380.785C220.513 380.628 238.94 375.273 238.94 375.273Z" fill="#65282C"/>
<path d="M87.1145 169.584L62.6239 161.71C61.2064 161.237 60.3401 159.662 60.8126 158.166L66.0101 142.18C66.4825 140.763 68.0575 139.896 69.5537 140.369L94.0443 148.244C95.4617 148.716 96.3278 150.291 95.8553 151.787L90.6581 167.773C90.1069 169.269 88.5319 170.135 87.1145 169.584Z" fill="#AAACE3"/>
<path d="M98.454 156.197C97.4303 156.197 96.5641 156.827 96.3279 157.772L95.4616 160.45L94.5955 163.127C94.2805 164.072 94.5954 165.096 95.4616 165.647L102.076 170.608C103.336 171.632 105.226 171.002 105.699 169.427L107.431 164.151L109.164 158.875C109.636 157.3 108.534 155.803 106.88 155.803L98.454 156.197Z" fill="#AAACE3"/>
<path d="M165.941 369.288C165.941 369.288 163.815 369.761 162.476 372.044C161.216 374.249 160.901 376.927 160.901 376.927C160.901 376.927 175.154 381.179 202.165 381.888C228.309 382.518 238.94 375.352 238.94 375.352C238.94 375.352 237.995 372.438 235.79 371.1C233.585 369.84 232.089 368.973 232.089 368.973C232.089 368.973 223.899 376.218 199.015 374.486C174.131 372.517 165.941 369.288 165.941 369.288Z" fill="#FFADB2"/>
<path d="M52.4657 208.801L43.9609 209.431L47.7409 261.089L56.2456 260.459L52.4657 208.801Z" fill="#DADAED"/>
<path d="M47.2681 216.124L44.3545 216.36L44.4333 216.99L47.3469 216.754L47.2681 216.124Z" fill="#989BD7"/>
<path d="M47.7408 221.873L44.8271 222.109L44.9058 222.739L47.8194 222.503L47.7408 221.873Z" fill="#989BD7"/>
<path d="M48.2132 227.7L45.2996 227.936L45.3784 228.566L48.292 228.33L48.2132 227.7Z" fill="#989BD7"/>
<path d="M48.6067 233.448L45.6931 233.685L45.7719 234.315L48.6856 234.079L48.6067 233.448Z" fill="#989BD7"/>
<path d="M49.0005 239.276L46.0869 239.512L46.1657 240.142L49.0794 239.906L49.0005 239.276Z" fill="#989BD7"/>
<path d="M49.3943 245.025L46.4807 245.261L46.5595 245.891L49.4732 245.654L49.3943 245.025Z" fill="#989BD7"/>
<path d="M49.867 250.773L46.9534 251.009L47.032 251.639L49.9458 251.403L49.867 250.773Z" fill="#989BD7"/>
<path d="M43.7245 226.519L38.291 227.464L45.4569 268.255L50.8906 267.31L43.7245 226.519Z" fill="#FFADB2"/>
<path d="M43.7245 226.519L38.291 227.464L39.1571 219.668L40.2597 219.432L43.7245 226.519Z" fill="#EBDBCD"/>
<path d="M39.4723 223.29L40.2598 222.818L40.8898 222.896L41.7559 222.503L40.3384 219.589L39.236 219.825L38.8423 222.896L39.4723 223.29Z" fill="#FF7A82"/>
<path d="M56.3242 259.75C55.3792 259.593 54.7492 258.727 54.9067 257.782L59.1592 230.535C59.2379 230.299 59.2379 230.062 59.3166 229.905L61.7579 223.054C62.0729 222.266 62.9391 221.794 63.7266 221.951L64.1203 222.03C64.9865 222.188 65.5376 222.975 65.5376 223.841L64.9864 231.086C64.9864 231.322 64.9078 231.559 64.9078 231.795L58.4503 258.569C58.1353 259.357 57.2692 259.987 56.3242 259.75Z" fill="#2B31BA"/>
<path d="M88.217 278.413H52.8594V290.226H88.217V278.413Z" fill="#F8D7BC"/>
<path d="M89.7131 277.547V278.413H52.7804V290.226H89.7131V291.092H13.8003V277.469H89.7131V277.547Z" fill="#FF7A82"/>
<path d="M41.7559 311.409H93.9656V292.352H41.7559C39.1572 292.352 37.1099 294.478 37.1099 296.998V306.684C37.1099 309.361 39.1572 311.409 41.7559 311.409Z" fill="#F8ECE2"/>
<path d="M10.887 291.171H96.3281C96.6431 291.171 96.9581 291.486 96.9581 291.801C96.9581 292.116 96.6431 292.431 96.3281 292.431H85.8546H46.6383C41.3622 292.431 37.1099 296.683 37.1099 301.959C37.1099 307.235 41.3622 311.488 46.6383 311.488H95.0681H96.3281C96.6431 311.488 96.9581 311.803 96.9581 312.118C96.9581 312.433 96.6431 312.748 96.3281 312.748H10.8081C5.53204 312.748 1.27979 308.495 1.27979 303.219V300.857C1.35853 295.423 5.61087 291.171 10.887 291.171Z" fill="#2B31BA"/>
<path d="M94.0443 295.423H44.512V296.053H94.0443V295.423Z" fill="#EBD0BE"/>
<path d="M94.0443 303.298H40.8896V303.928H94.0443V303.298Z" fill="#EBD0BE"/>
<path d="M94.0443 307.393H47.4255V308.023H94.0443V307.393Z" fill="#EBD0BE"/>
<path d="M94.0443 299.597H42.4646V300.227H94.0443V299.597Z" fill="#EBD0BE"/>
<path d="M53.4894 277.075H20.9666V270.224H53.4894C54.4343 270.224 55.1429 270.933 55.1429 271.878V275.342C55.1429 276.287 54.4343 277.075 53.4894 277.075Z" fill="#F8E7D8"/>
<path d="M73.7275 269.751H19.6279C19.5491 269.751 19.3916 269.83 19.3916 269.988C19.3916 270.145 19.4704 270.224 19.6279 270.224H51.6781C53.5681 270.224 55.0643 271.799 55.0643 273.61C55.0643 275.5 53.4893 276.996 51.6781 276.996H19.6279C19.5491 276.996 19.3916 277.075 19.3916 277.232C19.3916 277.311 19.4704 277.469 19.6279 277.469H73.7275C75.6174 277.469 77.1136 275.894 77.1136 274.082V273.059C77.1136 271.247 75.6174 269.751 73.7275 269.751Z" fill="#FF5856"/>
<path d="M39.9445 241.166H63.7264C64.3564 241.166 64.8288 241.717 64.75 242.347L61.2852 269.751H42.2283L38.9209 242.347C38.8422 241.717 39.3145 241.166 39.9445 241.166Z" fill="#AAACE3"/>
<path d="M64.1989 221.715L63.8052 221.637C62.939 221.479 62.0729 221.952 61.7579 222.739L59.2378 229.748C59.1591 229.826 59.1592 229.905 59.1592 230.063C59.9467 230.693 60.9703 231.244 62.0728 231.401C63.0965 231.559 64.1202 231.48 64.9864 231.244C64.9864 231.165 65.0653 231.086 65.0653 230.929L65.6164 223.527C65.6952 222.66 65.0652 221.952 64.1989 221.715Z" fill="#D7D7E6"/>
<path d="M64.2779 211.163C64.5141 210.691 65.144 210.691 65.3803 211.163C65.774 211.951 66.2466 212.896 66.6403 213.526C67.2703 214.707 67.6641 217.384 67.2703 218.723C66.8766 220.298 65.7741 221.873 65.4591 222.424C65.3803 222.503 65.3015 222.582 65.144 222.66C64.829 222.739 64.1992 222.897 63.3329 222.739C62.1517 222.424 62.0729 221.715 62.0729 221.715C62.0729 221.715 61.443 219.195 61.5217 217.62C61.6005 216.046 62.4666 214.077 62.8604 213.762C63.0966 213.368 63.8054 212.108 64.2779 211.163Z" fill="#C7645D"/>
<path d="M156.255 608.13C164.051 608.208 169.091 605.767 169.091 605.767C169.091 605.767 172.241 612.461 172.871 616.004C173.501 619.469 175.312 631.36 172.556 633.565C169.642 636.006 170.193 635.376 166.413 636.951C161.137 639.156 158.854 638.133 151.688 641.755C149.01 643.173 137.513 653.882 125.858 654.827C116.015 655.693 113.416 650.968 112.235 648.37C111.054 645.771 113.18 640.731 120.11 635.534C128.536 629.234 136.962 620.257 138.694 617.973C143.891 610.965 146.254 604.507 146.254 604.507C146.254 604.507 148.223 607.972 156.255 608.13Z" fill="#635353"/>
<path d="M249.335 608.917C241.539 608.996 236.892 606.476 236.892 606.476C236.892 606.476 233.427 611.595 232.167 618.131C231.538 621.596 230.278 632.148 233.034 634.432C235.947 636.873 235.396 636.243 239.176 637.818C244.452 640.023 246.736 638.999 253.902 642.621C256.579 644.039 268.076 654.827 279.731 655.693C286.818 656.245 292.173 651.835 293.354 649.236C294.536 646.637 294.614 641.283 285.873 635.455C277.132 629.628 266.816 620.336 265.478 617.816C263.43 613.957 259.335 605.295 259.335 605.295C259.335 605.295 257.367 608.76 249.335 608.917Z" fill="#635353"/>
<path d="M350.132 227.464C344.619 228.96 338.871 225.653 337.375 220.219L334.697 210.454C333.201 204.942 336.508 199.193 341.942 197.697C347.454 196.201 353.203 199.509 354.699 204.942L357.376 214.707C358.951 220.219 355.723 225.968 350.132 227.464Z" fill="#AAACE3"/>
<path d="M351.785 233.527C342.65 236.047 333.28 230.614 330.838 221.558L330.523 220.298C330.208 219.274 330.838 218.172 331.941 217.857C332.964 217.542 334.067 218.171 334.382 219.274L334.697 220.534C336.587 227.464 343.832 231.637 350.762 229.669C357.691 227.779 361.865 220.534 359.896 213.604L359.581 212.344C359.266 211.321 359.896 210.218 360.999 209.903C362.022 209.588 363.125 210.218 363.44 211.32L363.755 212.58C366.275 221.636 360.841 231.007 351.785 233.527Z" fill="#AAACE3"/>
<path d="M363.676 236.126C364.7 235.811 365.015 234.709 364.306 233.921C360.999 230.22 355.801 228.409 350.761 229.826C345.643 231.244 342.099 235.339 341.154 240.3C340.997 241.323 341.863 242.111 342.887 241.875L363.676 236.126Z" fill="#AAACE3"/>
<path d="M299.654 285.658C301.623 281.406 307.135 277.862 311.309 278.177C315.483 278.492 314.144 278.65 315.483 278.492C316.821 278.414 318.869 276.996 321.625 277.862C324.696 278.807 331.311 282.272 331.39 289.911C331.468 296.447 326.744 303.928 318.081 305.66C309.419 307.393 303.592 304.164 300.993 300.463C298.001 296.132 297.764 289.675 299.654 285.658Z" fill="#FF5856"/>
<path d="M313.199 283.532C313.199 283.532 312.569 273.689 316.506 269.515C320.916 264.869 326.744 260.617 326.35 263.373C326.271 264.003 327.216 273.531 324.539 277.075C320.444 282.587 313.199 283.532 313.199 283.532Z" fill="#4C7378"/>
<path d="M312.097 283.138C312.097 283.138 311.309 278.886 310.6 276.524C309.025 271.641 308.08 269.279 308.08 269.279L312.411 268.334C312.411 268.334 313.987 274.083 314.301 276.366C314.853 280.304 314.538 282.902 314.538 282.902C314.538 282.902 313.986 283.769 313.199 283.69C312.254 283.769 312.097 283.138 312.097 283.138Z" fill="#6B4D3A"/>
<path d="M310.364 269.987C311.545 269.751 312.49 269.121 312.333 268.57C312.254 268.019 311.151 267.704 309.97 267.94C308.789 268.176 307.844 268.806 308.002 269.357C308.08 269.909 309.183 270.145 310.364 269.987Z" fill="#8A634B"/>
<path d="M394.073 312.59H293.04C292.173 312.59 291.465 311.881 291.465 311.015V306.999C291.465 306.133 292.173 305.424 293.04 305.424H393.994C394.86 305.424 395.569 306.133 395.569 306.999V311.015C395.648 311.881 394.86 312.59 394.073 312.59Z" fill="#C5C6E3"/>
<path d="M342.729 304.243H320.601V296.447H342.729C343.359 296.447 343.753 296.919 343.753 297.47V303.061C343.911 303.691 343.359 304.243 342.729 304.243Z" fill="#F8D0B3"/>
<path d="M382.576 295.187H338.713H319.42H318.79C318.475 295.187 318.16 295.502 318.16 295.817C318.16 296.132 318.475 296.447 318.79 296.447H320.601H341.548C342.808 296.447 343.674 297.47 343.674 298.573V302.038C343.674 303.298 342.65 304.243 341.548 304.243H336.744H318.869C318.554 304.243 318.239 304.558 318.239 304.873C318.239 305.188 318.554 305.503 318.869 305.503H319.341H338.713H382.418C383.678 305.503 384.544 304.479 384.544 303.377V297.549C384.702 296.132 383.757 295.187 382.576 295.187Z" fill="#FF7A82"/>
<path d="M353.518 294.636H317.845V287.155H353.518C354.541 287.155 355.408 288.021 355.408 289.044V292.746C355.408 293.848 354.62 294.636 353.518 294.636Z" fill="#F8E7D8"/>
<path d="M375.882 286.603H316.349C316.191 286.603 316.034 286.682 316.034 286.918C316.034 287.076 316.112 287.233 316.349 287.233H351.628C353.675 287.233 355.407 288.887 355.407 291.013C355.407 293.06 353.754 294.793 351.628 294.793H316.349C316.191 294.793 316.034 294.872 316.034 295.108C316.034 295.265 316.112 295.423 316.349 295.423H375.882C377.929 295.423 379.662 293.769 379.662 291.643V290.541C379.583 288.257 377.929 286.603 375.882 286.603Z" fill="#4E53BA"/>
<path d="M345.013 292.43H317.845V292.115H345.013C345.092 292.115 345.17 292.194 345.17 292.273C345.17 292.352 345.092 292.43 345.013 292.43Z" fill="#DEBCA7"/>
<path d="M351.234 289.989H317.845V289.674H351.234C351.313 289.674 351.391 289.753 351.391 289.832C351.391 289.911 351.391 289.989 351.234 289.989Z" fill="#DEBCA7"/>
<path d="M302.095 176.514C303.198 174.309 299.497 170.214 293.827 167.301C288.157 164.387 282.566 163.757 281.464 165.962C280.361 168.167 284.062 172.262 289.732 175.175C295.481 178.089 300.993 178.719 302.095 176.514Z" fill="#D4BFA9"/>
<path d="M283.59 162.261C285.716 158.402 287.448 154.465 288.315 150.212C290.126 140.999 287.685 130.289 293.512 123.045C297.764 117.768 305.245 116.193 311.939 117.138C320.129 118.32 327.846 123.044 331.626 130.368C335.327 137.692 334.382 147.456 328.555 153.205C323.594 158.008 316.191 159.583 311.073 164.151C308.159 166.671 306.112 170.057 303.985 173.285L303.277 174.309C287.448 172.577 283.59 162.261 283.59 162.261Z" fill="#EBDBCD"/>
<path d="M311.466 148.007C310.836 145.566 308.71 145.645 306.82 146.511C306.348 145.172 305.639 143.44 304.3 142.889C302.725 142.259 300.993 143.361 299.733 144.306C297.056 146.354 295.008 149.346 293.827 152.496C292.567 155.567 292.016 158.953 290.913 162.103C290.441 163.363 292.488 163.914 292.961 162.654C294.378 158.638 294.929 154.307 297.134 150.606C298.315 148.559 300.127 146.196 302.41 145.251C303.119 144.936 303.67 144.857 304.143 145.566C304.536 146.117 304.773 146.826 305.009 147.377C305.009 147.456 305.088 147.456 305.088 147.535C304.773 147.692 304.615 147.85 304.379 148.007C302.174 149.582 299.339 152.496 299.418 155.41C299.418 156.748 300.284 157.851 301.623 157.93C303.119 158.008 304.615 156.906 305.56 155.803C307.371 153.756 307.923 151.079 307.529 148.48C308.001 148.165 308.474 148.007 308.946 148.007C310.285 147.929 309.655 150.055 309.498 150.764C308.868 153.126 307.45 155.252 306.111 157.3C305.088 158.875 304.222 160.528 303.04 161.867C301.702 163.442 299.969 164.466 298.237 165.568C297.055 166.277 298.158 168.088 299.26 167.379C301.229 166.119 303.277 164.859 304.773 162.969C306.348 161.001 307.687 158.796 309.025 156.67C310.206 154.386 312.254 150.842 311.466 148.007ZM305.166 151.63C304.852 152.732 304.379 153.756 303.592 154.622C303.119 155.095 301.072 156.748 301.229 155.252C301.308 154.307 302.095 153.284 302.647 152.496C303.355 151.472 304.3 150.606 305.324 149.819C305.324 150.37 305.324 151 305.166 151.63Z" fill="#BFA990"/>
<path d="M289.811 175.175C284.614 172.577 281.149 168.876 281.306 166.592L278.708 175.805C277.841 177.617 280.834 180.924 285.401 183.286C289.969 185.649 294.536 186.2 295.402 184.389C295.481 184.31 295.481 184.231 295.481 184.074L301.623 176.987C299.969 178.562 295.008 177.853 289.811 175.175Z" fill="#BFA990"/>
<path d="M232.482 104.381C232.404 104.381 232.404 104.381 232.325 104.303C232.089 104.224 232.01 103.909 232.089 103.673C232.482 102.806 232.955 101.94 233.506 101.153C233.664 100.916 233.979 100.838 234.136 101.074C234.372 101.231 234.451 101.546 234.215 101.704C233.664 102.413 233.191 103.2 232.876 104.066C232.876 104.303 232.719 104.381 232.482 104.381Z" fill="#110580"/>
<path d="M307.45 132.967C307.372 132.967 307.372 132.967 307.293 132.888L306.663 132.652C305.167 132.101 303.592 131.471 301.938 130.841C301.702 130.762 301.623 130.447 301.623 130.211C301.702 129.974 302.017 129.896 302.253 129.896C303.828 130.526 305.403 131.156 306.899 131.707L307.529 131.943C307.765 132.022 307.923 132.337 307.844 132.573C307.844 132.888 307.687 132.967 307.45 132.967ZM296.898 128.557C296.819 128.557 296.741 128.557 296.662 128.478C294.851 127.533 293.197 126.509 291.701 125.486C291.465 125.328 291.386 125.013 291.622 124.856C291.78 124.619 292.095 124.541 292.252 124.777C293.748 125.801 295.323 126.746 297.134 127.691C297.371 127.769 297.449 128.084 297.371 128.321C297.213 128.399 297.056 128.557 296.898 128.557ZM287.606 121.942C287.527 121.942 287.37 121.863 287.291 121.785C285.874 120.367 284.692 118.871 283.59 117.217C283.432 116.981 283.511 116.745 283.747 116.587C283.984 116.43 284.22 116.509 284.377 116.745C285.401 118.32 286.504 119.737 287.921 121.155C288.079 121.312 288.079 121.627 287.921 121.785C287.842 121.863 287.685 121.942 287.606 121.942ZM281.464 112.335C281.306 112.335 281.07 112.256 280.991 112.02C280.361 110.209 279.81 108.319 279.574 106.35C279.495 106.035 279.731 105.878 279.967 105.799C280.282 105.72 280.44 105.956 280.519 106.193C280.834 108.004 281.227 109.894 281.936 111.626C282.015 111.862 281.857 112.099 281.621 112.256C281.542 112.335 281.464 112.335 281.464 112.335ZM284.535 106.271C283.511 106.271 282.409 106.193 281.385 106.035C281.07 105.956 280.912 105.72 280.991 105.484C281.07 105.169 281.306 105.011 281.542 105.09C282.566 105.248 283.59 105.326 284.614 105.326C285.48 105.326 286.346 105.248 287.134 105.169C287.449 105.09 287.606 105.326 287.685 105.563C287.763 105.799 287.527 106.035 287.291 106.114C286.346 106.193 285.401 106.271 284.535 106.271ZM275.873 104.618C275.794 104.618 275.794 104.618 275.715 104.618C274.14 104.066 272.486 103.358 270.36 102.413C270.124 102.334 270.045 102.019 270.124 101.783C270.203 101.546 270.518 101.468 270.754 101.546C272.801 102.491 274.455 103.2 276.03 103.751C276.266 103.83 276.424 104.066 276.345 104.381C276.266 104.46 276.03 104.618 275.873 104.618ZM292.567 104.381C292.41 104.381 292.252 104.303 292.173 104.145C292.095 103.909 292.095 103.673 292.331 103.515C293.197 103.043 293.984 102.491 294.693 101.783C295.323 101.231 295.874 100.602 296.268 99.814C296.347 99.5778 296.741 99.499 296.898 99.6565C297.134 99.7352 297.213 100.129 297.056 100.286C296.583 101.153 295.953 101.861 295.245 102.413C294.457 103.121 293.669 103.751 292.725 104.224C292.725 104.381 292.646 104.381 292.567 104.381ZM279.967 101.074C279.652 100.995 279.495 100.759 279.495 100.602C279.731 98.5541 280.283 96.6641 281.07 94.9316C281.149 94.6954 281.464 94.6167 281.7 94.6954C281.936 94.7742 282.015 95.0891 281.936 95.3254C281.149 96.9003 280.597 98.7115 280.361 100.68C280.361 100.916 280.125 101.074 279.967 101.074ZM265.399 99.9715C265.32 99.9715 265.32 99.9715 265.163 99.8928C264.533 99.5778 263.982 99.3415 263.352 99.0266C262.171 98.4753 260.989 98.0028 259.966 97.6091C259.729 97.5303 259.572 97.2154 259.651 96.9791C259.729 96.7429 260.044 96.5854 260.281 96.6641C261.383 97.1366 262.486 97.5303 263.746 98.0815C264.376 98.3965 265.005 98.6328 265.557 98.9478C265.793 99.0266 265.872 99.3415 265.793 99.5778C265.714 99.814 265.557 99.9715 265.399 99.9715ZM237.995 98.0815C237.837 98.0815 237.68 98.0028 237.601 97.8453C237.444 97.6091 237.523 97.3728 237.759 97.2153C239.334 96.1916 241.224 95.4041 243.114 94.8529C243.429 94.7741 243.586 94.9317 243.665 95.1679C243.744 95.4829 243.586 95.6404 243.35 95.7191C241.539 96.1916 239.806 96.9004 238.231 97.9241C238.231 98.0816 238.152 98.0815 237.995 98.0815ZM254.69 95.9554C254.611 95.9554 254.611 95.9554 254.611 95.9554C252.642 95.4829 250.752 95.3254 249.02 95.2466C248.705 95.2466 248.547 95.0104 248.547 94.7742C248.547 94.4592 248.783 94.3017 249.02 94.3017C250.831 94.3804 252.8 94.6167 254.768 95.0104C255.083 95.0892 255.162 95.3254 255.083 95.5616C255.083 95.7979 254.926 95.9554 254.69 95.9554ZM298.158 95.0892C297.843 95.0892 297.686 94.853 297.686 94.6167C297.607 93.0418 297.056 91.6242 296.111 90.6005C295.874 90.3643 295.638 90.1281 295.481 89.9706C295.244 89.8131 295.245 89.4981 295.402 89.3406C295.56 89.1043 295.875 89.1043 296.032 89.2618C296.347 89.4981 296.583 89.7343 296.82 89.9706C298.001 91.2305 298.631 92.7268 298.709 94.6167C298.709 94.853 298.473 95.0892 298.158 95.0892C298.237 95.0892 298.158 95.0892 298.158 95.0892ZM285.007 91.0731C284.85 91.0731 284.692 90.9943 284.614 90.9155C284.456 90.6793 284.535 90.4431 284.692 90.2856C286.267 89.1044 288.236 88.2382 290.126 87.9232C290.441 87.8444 290.598 88.0807 290.677 88.3169C290.756 88.6319 290.52 88.7893 290.283 88.8681C288.472 89.1043 286.74 89.8918 285.322 90.9942C285.244 91.073 285.165 91.0731 285.007 91.0731Z" fill="#110580"/>
<path d="M315.089 136.668C315.01 136.668 314.853 136.589 314.774 136.589C314.301 136.116 313.514 135.644 312.569 135.172C312.333 135.093 312.254 134.778 312.333 134.542C312.411 134.305 312.727 134.227 312.963 134.305C313.986 134.857 314.774 135.329 315.404 135.88C315.561 136.038 315.64 136.353 315.483 136.51C315.404 136.589 315.246 136.668 315.089 136.668Z" fill="#110580"/>
<path d="M310.994 76.9772C314.065 87.5293 313.829 97.294 313.514 108.082C313.435 111.075 323.2 110.13 323.909 107.531C326.507 97.0577 324.696 85.7969 321.389 75.7959C320.286 72.5673 310.128 74.1422 310.994 76.9772Z" fill="#F3E9E1"/>
<path d="M352.651 97.7667C347.927 106.271 342.02 113.28 335.957 120.761C333.28 124.068 342.65 123.517 344.304 121.942C351.706 115.406 357.534 106.586 361.944 97.7667C363.282 95.2467 354.069 95.2467 352.651 97.7667Z" fill="#F3E9E1"/>
<path d="M350.998 142.023C357.691 142.18 364.306 142.495 370.921 142.889C373.283 143.046 377.063 142.101 377.772 139.424C378.481 136.746 375.331 135.329 373.205 135.171C366.511 134.778 359.975 134.541 353.282 134.305C350.919 134.226 347.218 135.014 346.431 137.77C345.722 140.448 348.793 141.944 350.998 142.023Z" fill="#F3E9E1"/>
<path d="M231.459 301.644C231.459 301.644 232.876 309.834 233.034 313.85C233.113 316.291 233.034 320.15 233.034 320.15C233.034 320.15 234.845 320.15 235.79 320.071C236.735 319.992 237.837 319.756 237.837 319.756C237.837 319.756 236.735 316.055 235.554 312.433C234.451 309.283 231.459 301.644 231.459 301.644Z" fill="#E0E0E0"/>
<path d="M167.673 301.25C167.673 301.25 165.704 306.999 164.759 310.621C164.129 313.377 164.366 315.819 164.208 316.527C163.972 317.709 162.791 320.937 162.24 322.433C162.082 322.906 161.61 323.142 161.137 323.063C160.35 322.906 159.168 322.591 158.302 322.355C156.885 321.882 155.861 321.488 156.097 321.567C156.097 321.567 159.168 317.157 161.452 313.377C163.342 310.07 167.673 301.25 167.673 301.25Z" fill="#E0E0E0"/>
<path d="M232.64 376.691C245.24 401.654 252.957 428.9 257.131 456.462C261.54 485.677 261.934 515.365 260.596 544.817C259.808 561.826 258.391 578.836 256.737 595.845C256.579 597.814 259.572 597.735 259.729 595.845C262.643 565.37 264.927 534.816 264.139 504.183C263.431 475.598 260.044 446.934 252.327 419.451C248.075 404.252 242.405 389.369 235.318 375.194C234.373 373.462 231.774 374.958 232.64 376.691Z" fill="white"/>
<path d="M163.893 377.242C152.869 402.599 146.805 429.688 143.498 457.092C140.033 485.205 139.245 513.79 139.56 542.061C139.797 558.913 140.584 575.607 142.553 592.38C142.789 594.27 145.781 594.349 145.545 592.38C142.159 563.165 142.002 533.713 143.025 504.34C143.97 476.936 146.333 449.532 152.396 422.679C155.782 407.717 160.429 392.834 166.492 378.738C167.28 377.006 164.681 375.509 163.893 377.242Z" fill="white"/>
<path d="M96.3279 311.409H95.0678H90.8944C90.5794 311.881 90.2643 312.275 89.8706 312.59H96.249C96.564 312.59 96.8791 312.275 96.8791 311.96C96.8791 311.724 96.6429 311.409 96.3279 311.409Z" fill="#2B31BA"/>
<path d="M96.3279 292.352C96.6429 292.352 96.958 292.037 96.958 291.722C96.958 291.407 96.6429 291.092 96.3279 291.092H91.9968V292.273L96.3279 292.352Z" fill="#2B31BA"/>
<path d="M88.4533 314.716C85.9334 314.165 83.3347 313.456 80.8148 312.59H26.2427V312.747C26.2427 314.007 26.7152 315.189 27.5027 316.291H85.3034C86.4846 316.291 87.5083 315.74 88.4533 314.716Z" fill="#E3996D"/>
<path d="M301.151 314.637C302.096 315.661 303.198 316.291 304.379 316.291H364.857C365.172 315.582 365.33 314.874 365.251 314.007V312.59H308.553C306.033 313.377 303.592 314.086 301.151 314.637Z" fill="#E3996D"/>
<path d="M199.566 358.972C186.651 358.972 168.225 355.901 168.225 355.901C168.225 355.901 167.909 357.319 167.594 359.287C175.942 361.886 187.203 363.225 199.566 362.752C211.221 362.28 221.773 360.232 229.726 357.319C229.805 357.24 229.884 357.24 230.041 357.161C230.041 357.082 230.041 357.082 230.041 357.082C230.041 357.082 213.111 359.051 199.566 358.972Z" fill="#F0A173"/>
<path d="M193.886 36.3448L177.977 52.3448C175.783 54.5517 171.943 54.5517 169.749 52.3448L151.646 34.1379C149.451 31.931 149.451 28.069 151.646 25.8621L169.749 7.65517C171.943 5.44828 175.783 5.44828 177.977 7.65517L193.886 23.6552C196.08 25.8621 199.92 25.8621 202.114 23.6552L218.023 7.65517C220.217 5.44828 224.057 5.44828 226.251 7.65517L244.354 25.8621C246.549 28.069 246.549 31.931 244.354 34.1379L226.251 52.3448C224.057 54.5517 220.217 54.5517 218.023 52.3448L202.114 36.3448C199.646 34.1379 196.08 34.1379 193.886 36.3448Z" fill="#BD200D"/>
<path d="M171.497 35.0673C169.192 32.7233 169.202 28.9608 171.52 26.6296L193.727 4.29704C196.08 1.93078 199.912 1.93895 202.254 4.31522L223.39 25.7529C225.692 28.0873 225.694 31.8367 223.394 34.1734L201.278 56.652C198.927 59.0416 195.074 59.0412 192.723 56.651L171.497 35.0673Z" fill="#F4442E"/>
</svg>
