<svg width="364" height="559" viewBox="0 0 364 559" fill="none" xmlns="http://www.w3.org/2000/svg">
<path d="M325.883 252.304L309.981 252.232C304.56 252.16 300.151 248.835 300.079 244.859V243.486C300.007 239.511 304.344 236.331 309.692 236.331L325.594 236.403C331.015 236.475 335.424 239.8 335.496 243.775V245.149C335.568 249.124 331.231 252.377 325.883 252.304Z" fill="#FCB58A"/>
<path d="M50.2085 251.365L34.307 251.292C28.886 251.22 24.477 247.895 24.4047 243.92V242.547C24.3324 238.571 28.6691 235.391 34.0177 235.391L49.9192 235.463C55.3402 235.535 59.7494 238.86 59.8217 242.836V244.209C59.894 248.184 55.5571 251.437 50.2085 251.365Z" fill="#FCB58A"/>
<path d="M136.366 487.43C135.788 495.525 135.137 503.62 134.487 511.716C134.053 517.137 140.414 521.473 145.618 521.184C151.906 520.895 155.376 516.052 155.737 510.559C156.315 502.464 156.966 494.369 157.616 486.273C158.05 480.852 151.689 476.515 146.485 476.805C140.197 477.166 136.872 482.009 136.366 487.43Z" fill="#FCB58A"/>
<path d="M213.994 489.959C215.295 497.982 216.524 506.005 217.825 514.029C218.692 519.377 225.848 522.124 230.835 520.678C236.907 518.871 239.075 513.45 238.208 508.029C236.907 500.006 235.678 491.983 234.377 483.96C233.51 478.612 226.354 475.865 221.367 477.31C215.295 479.117 213.127 484.611 213.994 489.959Z" fill="#FCB58A"/>
<path d="M50.6426 477.889C30.9103 477.889 14.8644 476.082 14.2861 473.841L17.1773 508.246C17.1773 524.581 32.2114 537.881 50.5704 537.881C68.9294 537.881 83.9635 524.509 83.9635 508.246L86.8547 473.769C86.5656 476.082 70.4472 477.889 50.6426 477.889Z" fill="#DEC7B2"/>
<path d="M50.6426 477.889C30.6212 477.889 14.3584 476.009 14.2861 473.696V473.624C14.4307 471.311 30.6212 469.432 50.6426 469.432C70.5918 469.432 86.7824 471.311 86.9992 473.624V473.696C86.8547 476.009 70.664 477.889 50.6426 477.889Z" fill="#E8D4C1"/>
<path d="M50.6421 477.166C33.8009 477.166 20.0679 475.576 19.9956 473.624V473.552C20.1402 471.6 33.8009 470.01 50.6421 470.01C67.4832 470.01 81.1441 471.6 81.2887 473.552V473.624C81.2164 475.576 67.4832 477.166 50.6421 477.166Z" fill="#BA9C7E"/>
<path d="M15.5146 488.514C17.8276 488.586 20.1405 489.453 22.1643 491.405C25.8506 495.019 28.2358 500.584 31.1993 504.777C32.3557 502.464 33.3676 500.151 34.235 497.766C35.3192 494.947 39.1501 492.272 42.1136 494.585C45.2938 497.115 47.7512 499.862 49.7751 503.331C51.5821 506.367 53.0278 509.908 55.8467 512.149C58.521 514.318 61.629 514.968 62.7132 511.065C63.6529 507.668 63.2914 504.054 64.4479 500.584C65.3875 497.766 66.7608 494.802 69.7243 493.573C73.1214 492.128 76.4463 493.935 79.482 495.453C81.289 496.392 83.0959 497.332 84.8307 498.416L84.2524 505.644C81.1444 503.692 77.3135 501.307 74.1332 500.874C72.1094 500.585 72.2541 501.958 72.1096 503.837C72.0373 505.499 72.0372 507.234 71.8927 508.897C71.6758 512.366 71.1699 515.835 69.146 518.654C64.737 524.798 56.5695 524.509 50.7871 520.606C47.6791 518.51 45.4383 515.763 43.4144 512.583C42.7639 511.571 42.1134 510.487 41.4629 509.403C38.9331 515.185 35.1746 520.389 28.9585 518.148C25.0554 516.775 22.5258 512.511 20.2128 509.403C19.49 508.463 18.189 506.005 16.8157 503.909L15.5146 488.514Z" fill="#EBDBCD"/>
<path d="M1.27566 360.362C2.07073 357.399 5.46784 356.965 7.56394 358.7C11.467 361.952 13.4908 366.434 15.5869 370.843C17.8275 375.541 20.5742 379.806 23.7545 383.853C30.2596 392.165 37.4877 399.827 42.2581 409.368C51.5099 427.799 53.7506 449.483 47.3177 469.215C47.1008 469.794 48.3296 466.685 46.378 472.179C44.571 477.094 37.5598 474.492 37.6321 468.709C37.7044 463.072 36.1866 457.795 33.7291 452.808C28.8141 442.906 22.598 433.581 17.7553 423.607C12.8402 413.488 8.57575 403.152 5.10633 392.454C1.78147 382.191 -1.47096 371.204 1.27566 360.362Z" fill="#4C7378"/>
<path d="M46.6668 302.539C49.1966 297.985 56.4246 301.093 55.0513 306.08C50.7868 320.681 53.8226 336.076 56.4969 350.677C59.1713 365.566 62.3516 380.311 64.1586 395.346C67.4112 422.017 66.327 451.94 49.4858 474.275C47.6788 476.66 43.8481 474.708 45.3659 471.817C47.0284 468.637 42.8361 447.893 40.9568 441.243C39.0775 434.376 37.1259 427.51 35.4635 420.643C32.0664 407.127 29.3198 393.394 28.6693 379.444C27.0069 352.339 33.7288 326.174 46.6668 302.539Z" fill="#57848A"/>
<path d="M54.6902 450.712C56.6417 441.677 55.1961 431.991 57.1476 423.029C59.0269 414.138 61.6291 405.175 65.749 397.08C69.6521 389.419 75.6513 383.925 82.7347 379.155C89.3844 374.674 97.1906 370.264 99.5759 362.025C100.949 357.11 109.261 357.832 108.755 363.253C107.599 374.24 102.973 383.925 97.6242 393.466C91.8418 403.585 86.8547 413.271 84.0358 424.619C79.193 444.062 75.0007 469.287 52.8832 475.287C50.0643 475.937 50.4257 470.155 54.6902 450.712Z" fill="#689399"/>
<path d="M49.9921 253.533C66.1104 261.773 82.5179 266.543 100.805 266.182C117.935 265.82 134.559 261.267 144.244 245.871C150.605 235.68 134.487 226.284 128.126 236.475C121.621 246.883 108.611 247.606 97.4797 247.534C83.7466 247.461 71.5314 243.631 59.3884 237.415C48.7633 231.994 39.2947 248.112 49.9921 253.533Z" fill="#FCB58A"/>
<path d="M298.561 237.487C286.419 243.703 274.276 247.462 260.47 247.606C248.761 247.678 238.136 246.377 231.558 235.68C225.27 225.489 209.152 234.885 215.44 245.076C219.56 251.726 225.198 257.581 232.209 261.122C240.087 265.098 248.4 266.037 257.145 266.182C275.432 266.543 291.767 261.773 307.958 253.533C318.655 248.112 309.187 231.994 298.561 237.487Z" fill="#FCB58A"/>
<path d="M355.011 313.308L348.651 348.002L320.751 324.945L355.011 313.308Z" fill="#D4BFA9"/>
<path d="M103.696 63.0764C114.032 63.0764 122.416 54.692 122.416 44.356C122.416 34.02 114.032 25.6357 103.696 25.6357C93.3601 25.6357 84.9756 34.02 84.9756 44.356C84.9756 54.692 93.3601 63.0764 103.696 63.0764Z" fill="#EBDBCD"/>
<path d="M121.476 81.9413C121.332 81.9413 121.187 81.8691 121.043 81.6523C120.97 81.4354 121.043 81.2185 121.26 81.074L123.211 80.2067L122.344 78.2551C122.272 78.0382 122.344 77.8214 122.56 77.6769C122.777 77.6046 122.994 77.6768 123.139 77.8937L124.295 80.6403L121.476 81.9413C121.621 81.9413 121.549 81.9413 121.476 81.9413Z" fill="#110580"/>
<path d="M81.7224 99.2885C81.5778 99.2885 81.4334 99.2163 81.2888 98.9994C81.2165 98.7826 81.2889 98.5657 81.5057 98.4212L86.4929 96.2528C86.7097 96.1805 86.9266 96.2528 87.0712 96.4697C87.1435 96.6865 87.0711 96.9033 86.8543 97.0478L81.8671 99.2162C81.8671 99.2885 81.7947 99.2885 81.7224 99.2885ZM91.697 94.9517C91.5524 94.9517 91.408 94.8795 91.2634 94.6627C91.1911 94.4458 91.2633 94.229 91.4801 94.0844L96.4675 91.916C96.6844 91.8437 96.9012 91.916 97.0458 92.1329C97.1181 92.3497 97.0458 92.5665 96.8289 92.7111L91.8415 94.8795C91.7692 94.9517 91.7693 94.9517 91.697 94.9517ZM101.599 90.6149C101.455 90.6149 101.31 90.5427 101.166 90.3259C101.093 90.1091 101.166 89.8922 101.383 89.7476L106.37 87.5792C106.587 87.507 106.803 87.5793 106.948 87.7961C107.02 88.0129 106.948 88.2297 106.731 88.3743L101.744 90.5427C101.744 90.615 101.672 90.6149 101.599 90.6149ZM111.574 86.2059C111.429 86.2059 111.285 86.1336 111.14 85.9168C111.068 85.6999 111.14 85.4831 111.357 85.3386L116.344 83.1702C116.561 83.0979 116.778 83.1701 116.923 83.387C116.995 83.6038 116.923 83.8207 116.706 83.9653L111.718 86.1336C111.646 86.2059 111.646 86.2059 111.574 86.2059Z" fill="#110580"/>
<path d="M74.2051 102.613L73.0486 99.8667C72.9763 99.6498 73.0486 99.4329 73.2655 99.2884C73.4823 99.2161 73.6992 99.2884 73.8437 99.5053L74.711 101.457L76.6626 100.589C76.8794 100.517 77.0963 100.589 77.2408 100.806C77.3131 101.023 77.2408 101.24 77.024 101.385L74.2051 102.613Z" fill="#110580"/>
<path d="M71.3866 95.53C71.2421 95.53 71.0974 95.4577 70.9529 95.2408L68.929 90.6149C68.8567 90.3981 68.929 90.1813 69.1459 90.0368C69.3627 89.9645 69.5796 90.0367 69.7242 90.2535L71.748 94.8794C71.8203 95.0963 71.748 95.3132 71.5311 95.4577C71.5311 95.53 71.4589 95.53 71.3866 95.53ZM67.3389 86.2782C67.1943 86.2782 67.0497 86.206 66.9052 85.9891L64.8815 81.3632C64.8092 81.1464 64.8813 80.9295 65.0982 80.7849C65.315 80.7127 65.5319 80.785 65.6764 81.0018L67.7003 85.6277C67.7726 85.8446 67.7003 86.0613 67.4834 86.2059C67.4834 86.2782 67.4112 86.2782 67.3389 86.2782ZM63.2912 77.0987C63.1466 77.0987 63.0022 77.0264 62.8576 76.8096L60.8337 72.1837C60.7615 71.9668 60.8338 71.75 61.0506 71.6055C61.2675 71.5332 61.4843 71.6054 61.6289 71.8223L63.6526 76.4482C63.7249 76.665 63.6527 76.8819 63.4359 77.0264C63.4359 77.0987 63.3635 77.0987 63.2912 77.0987Z" fill="#110580"/>
<path d="M59.3162 67.8469C59.1716 67.8469 59.0272 67.7747 58.8826 67.5578L57.7261 64.8112L60.4727 63.6547C60.6896 63.5824 60.9064 63.6547 61.051 63.8715C61.1233 64.0884 61.051 64.3052 60.8341 64.4498L58.8826 65.3171L59.7499 67.2687C59.8222 67.4855 59.7499 67.7023 59.5331 67.8469C59.3885 67.8469 59.3162 67.8469 59.3162 67.8469Z" fill="#110580"/>
<path d="M65.5316 62.3536C65.3871 62.3536 65.2425 62.2813 65.0979 62.0644C65.0256 61.8476 65.0979 61.6308 65.3148 61.4863L70.3022 59.3179C70.519 59.2456 70.7357 59.3178 70.8803 59.5347C70.9525 59.7515 70.8804 59.9684 70.6636 60.1129L65.6762 62.2813C65.6762 62.2813 65.6039 62.3536 65.5316 62.3536ZM75.5063 57.9445C75.3617 57.9445 75.2171 57.8722 75.0725 57.6554C75.0002 57.4386 75.0725 57.2218 75.2894 57.0772L80.2766 54.9088C80.4934 54.8366 80.7103 54.9088 80.8549 55.1256C80.9272 55.3425 80.8548 55.5593 80.638 55.7039L75.6508 57.8723C75.6508 57.9446 75.5063 57.9445 75.5063 57.9445ZM85.4085 53.6078C85.264 53.6078 85.1193 53.5355 84.9748 53.3186C84.9025 53.1018 84.9748 52.885 85.1916 52.7405L90.179 50.5721C90.3959 50.4998 90.6126 50.572 90.7571 50.7889C90.8294 51.0057 90.7573 51.2226 90.5404 51.3671L85.553 53.5355C85.553 53.6078 85.5531 53.6078 85.4085 53.6078ZM95.3831 49.271C95.2386 49.271 95.0939 49.1987 94.9494 48.9819C94.8771 48.765 94.9494 48.5482 95.1663 48.4037L100.153 46.2353C100.37 46.163 100.587 46.2352 100.732 46.4521C100.804 46.6689 100.732 46.8858 100.515 47.0303L95.5277 49.1987C95.5277 49.271 95.4554 49.271 95.3831 49.271Z" fill="#110580"/>
<path d="M108.683 46.2354C108.539 46.2354 108.394 46.1631 108.25 45.9462L107.382 43.9946L105.431 44.862C105.214 44.9343 104.997 44.862 104.852 44.6451C104.78 44.4283 104.852 44.2115 105.069 44.067L107.816 42.9104L108.972 45.6571C109.045 45.8739 108.972 46.0908 108.755 46.2354C108.828 46.2354 108.755 46.2354 108.683 46.2354Z" fill="#110580"/>
<path d="M120.753 73.9907C120.609 73.9907 120.464 73.9185 120.32 73.7017L118.296 69.0758C118.224 68.8589 118.296 68.6421 118.513 68.4975C118.73 68.3529 118.946 68.4975 119.091 68.7144L121.115 73.3403C121.187 73.5571 121.115 73.7739 120.898 73.9185C120.97 73.9185 120.826 73.9907 120.753 73.9907ZM116.778 64.6667C116.633 64.6667 116.489 64.5944 116.344 64.3776L114.32 59.7517C114.248 59.5349 114.32 59.318 114.537 59.1734C114.754 59.1011 114.971 59.1735 115.116 59.3903L117.139 64.0162C117.212 64.233 117.139 64.4498 116.923 64.5944C116.85 64.6667 116.778 64.6667 116.778 64.6667ZM112.73 55.4872C112.586 55.4872 112.441 55.4149 112.297 55.198L110.273 50.5722C110.2 50.3554 110.273 50.1385 110.49 49.994C110.706 49.9217 110.923 49.994 111.068 50.2108L113.092 54.8366C113.164 55.0535 113.092 55.2704 112.875 55.4149C112.803 55.4872 112.803 55.4872 112.73 55.4872Z" fill="#110580"/>
<path d="M328.991 358.483L326.678 357.616C326.461 357.543 326.389 357.326 326.461 357.182C326.533 356.965 326.75 356.893 326.895 356.965L328.557 357.543L329.135 355.881C329.208 355.664 329.425 355.592 329.569 355.664C329.786 355.736 329.858 355.953 329.786 356.098L328.991 358.483Z" fill="#110580"/>
<path d="M323.136 356.315C323.064 356.315 323.064 356.315 323.064 356.315L319.522 355.014C319.305 354.941 319.233 354.724 319.305 354.58C319.378 354.363 319.594 354.291 319.739 354.363L323.281 355.664C323.498 355.736 323.57 355.953 323.497 356.098C323.497 356.242 323.353 356.315 323.136 356.315ZM316.053 353.64C315.98 353.64 315.98 353.64 315.98 353.64L312.439 352.339C312.222 352.267 312.15 352.05 312.222 351.906C312.294 351.689 312.511 351.616 312.655 351.689L316.197 352.99C316.414 353.062 316.486 353.279 316.414 353.423C316.27 353.496 316.197 353.64 316.053 353.64ZM308.825 350.966C308.752 350.966 308.752 350.966 308.752 350.966L305.211 349.665C304.994 349.593 304.922 349.376 304.994 349.231C305.066 349.014 305.283 348.942 305.427 349.014L308.969 350.315C309.186 350.388 309.258 350.605 309.186 350.749C309.186 350.894 308.969 350.966 308.825 350.966ZM301.669 348.292C301.597 348.292 301.597 348.292 301.597 348.292L298.055 346.991C297.838 346.918 297.766 346.701 297.838 346.557C297.91 346.34 298.127 346.268 298.272 346.34L301.814 347.641C302.03 347.713 302.103 347.93 302.03 348.075C301.958 348.147 301.814 348.292 301.669 348.292Z" fill="#110580"/>
<path d="M294.514 345.617C294.441 345.617 294.441 345.617 294.441 345.617L292.128 344.75L292.996 342.437C293.068 342.22 293.285 342.148 293.429 342.22C293.646 342.292 293.719 342.509 293.646 342.654L293.068 344.316L294.731 344.894C294.947 344.967 295.02 345.183 294.947 345.328C294.803 345.545 294.658 345.617 294.514 345.617Z" fill="#110580"/>
<path d="M294.658 339.329C294.586 339.329 294.586 339.329 294.586 339.329C294.369 339.257 294.297 339.04 294.369 338.895L295.67 335.353C295.742 335.137 295.959 335.064 296.104 335.137C296.32 335.209 296.393 335.426 296.32 335.57L295.019 339.112C294.875 339.184 294.73 339.329 294.658 339.329ZM297.26 332.173C297.188 332.173 297.188 332.173 297.188 332.173C296.971 332.101 296.899 331.884 296.971 331.739L298.272 328.198C298.344 327.981 298.561 327.909 298.706 327.981C298.923 328.053 298.995 328.27 298.922 328.415L297.622 331.956C297.549 332.101 297.405 332.173 297.26 332.173ZM299.934 325.017C299.862 325.017 299.862 325.017 299.862 325.017C299.645 324.945 299.573 324.728 299.645 324.584L300.946 321.042C301.019 320.825 301.235 320.753 301.38 320.825C301.597 320.897 301.669 321.114 301.597 321.259L300.296 324.801C300.224 324.873 300.079 325.017 299.934 325.017ZM302.609 317.789C302.536 317.789 302.536 317.789 302.536 317.789C302.32 317.717 302.247 317.5 302.32 317.356L303.621 313.814C303.693 313.597 303.91 313.525 304.054 313.597C304.271 313.669 304.343 313.886 304.271 314.031L302.97 317.573C302.898 317.789 302.753 317.789 302.609 317.789Z" fill="#110580"/>
<path d="M305.283 310.706C305.211 310.706 305.211 310.706 305.211 310.706C304.994 310.634 304.922 310.417 304.994 310.273L305.862 307.96L308.175 308.827C308.391 308.899 308.464 309.116 308.391 309.261C308.319 309.477 308.102 309.55 307.958 309.477L306.295 308.899L305.717 310.562C305.573 310.562 305.428 310.706 305.283 310.706Z" fill="#110580"/>
<path d="M336.653 320.102C336.58 320.102 336.58 320.102 336.58 320.102L333.039 318.801C332.822 318.729 332.749 318.512 332.822 318.368C332.894 318.151 333.111 318.079 333.255 318.151L336.797 319.452C337.014 319.524 337.086 319.741 337.014 319.886C336.942 320.03 336.797 320.102 336.653 320.102ZM329.497 317.428C329.425 317.428 329.425 317.428 329.425 317.428L325.883 316.127C325.666 316.055 325.594 315.838 325.666 315.693C325.738 315.477 325.955 315.404 326.1 315.477L329.641 316.778C329.858 316.85 329.93 317.067 329.858 317.211C329.786 317.356 329.641 317.428 329.497 317.428ZM322.341 314.754C322.269 314.754 322.269 314.754 322.269 314.754L318.727 313.453C318.51 313.381 318.438 313.164 318.51 313.019C318.583 312.802 318.8 312.73 318.944 312.802L322.486 314.103C322.703 314.176 322.775 314.392 322.703 314.537C322.63 314.682 322.486 314.754 322.341 314.754ZM315.185 312.079C315.113 312.079 315.113 312.079 315.113 312.079L311.571 310.778C311.355 310.706 311.282 310.489 311.355 310.345C311.427 310.128 311.644 310.056 311.788 310.128L315.33 311.429C315.547 311.501 315.619 311.718 315.547 311.863C315.475 312.007 315.33 312.079 315.185 312.079Z" fill="#110580"/>
<path d="M341.496 324.15C341.423 324.15 341.423 324.15 341.423 324.15C341.206 324.078 341.134 323.861 341.206 323.716L341.785 322.054L340.122 321.476C339.905 321.403 339.833 321.187 339.906 321.042C339.978 320.825 340.195 320.753 340.339 320.825L342.652 321.693L341.785 324.005C341.785 324.078 341.64 324.15 341.496 324.15Z" fill="#110580"/>
<path d="M330.798 352.845C330.726 352.845 330.726 352.845 330.726 352.845C330.509 352.773 330.437 352.556 330.509 352.411L331.81 348.87C331.882 348.653 332.099 348.581 332.244 348.653C332.461 348.725 332.533 348.942 332.461 349.087L331.16 352.628C331.087 352.701 330.943 352.845 330.798 352.845ZM333.472 345.617C333.4 345.617 333.4 345.617 333.4 345.617C333.183 345.545 333.111 345.328 333.183 345.184L334.484 341.642C334.557 341.425 334.773 341.353 334.918 341.425C335.135 341.497 335.207 341.714 335.135 341.859L333.834 345.4C333.762 345.545 333.617 345.617 333.472 345.617ZM336.147 338.534C336.074 338.534 336.075 338.534 336.075 338.534C335.858 338.461 335.785 338.245 335.858 338.1L337.159 334.558C337.231 334.342 337.448 334.269 337.592 334.342C337.809 334.414 337.881 334.631 337.809 334.775L336.508 338.317C336.436 338.389 336.291 338.534 336.147 338.534ZM338.821 331.306C338.749 331.306 338.749 331.306 338.749 331.306C338.532 331.234 338.46 331.017 338.532 330.872L339.833 327.33C339.905 327.114 340.122 327.041 340.267 327.114C340.484 327.186 340.556 327.403 340.483 327.547L339.183 331.089C339.11 331.234 338.966 331.306 338.821 331.306Z" fill="#110580"/>
<path d="M231.558 188.409C231.558 188.409 222.523 159.714 219.559 147.571C214.861 128.851 202.14 117.647 184.142 117.647C165.928 117.647 153.062 129.14 148.003 147.716C142.871 166.87 136.077 186.891 136.077 186.891C135.282 189.421 136.51 192.168 138.968 193.18C144.75 195.492 156.893 199.54 184.07 199.251C208.356 198.962 220.861 195.565 227.149 194.842C230.329 194.481 232.353 191.373 231.558 188.409Z" fill="#322F51"/>
<path d="M194.479 179.302H173.734V214.574C173.734 217.538 176.12 219.923 179.083 219.923H189.13C192.093 219.923 194.479 217.538 194.479 214.574V179.302Z" fill="#FCB58A"/>
<path d="M183.781 114.901C190.937 114.901 196.719 109.119 196.719 101.963C196.719 94.8072 190.937 89.0248 183.781 89.0248C176.626 89.0248 170.843 94.8072 170.843 101.963C170.843 109.119 176.698 114.901 183.781 114.901Z" fill="#110580"/>
<path d="M153.352 183.494C149.955 183.494 149.882 172.146 149.882 170.918C149.882 169.689 149.955 158.341 153.352 158.341C156.749 158.341 156.821 169.617 156.821 170.918C156.749 172.219 156.677 183.494 153.352 183.494ZM153.352 160.293C152.774 161.088 151.762 164.702 151.762 170.918C151.762 177.061 152.701 180.675 153.352 181.543C153.93 180.748 154.942 177.134 154.942 170.918C154.942 164.702 153.93 161.16 153.352 160.293Z" fill="white"/>
<path d="M214.211 183.494C210.814 183.494 210.742 172.146 210.742 170.918C210.742 169.689 210.814 158.341 214.211 158.341C217.608 158.341 217.681 169.617 217.681 170.918C217.681 172.219 217.536 183.494 214.211 183.494ZM214.211 160.293C213.633 161.088 212.621 164.702 212.621 170.918C212.621 177.061 213.561 180.675 214.211 181.543C214.789 180.748 215.801 177.134 215.801 170.918C215.801 164.702 214.862 161.16 214.211 160.293Z" fill="white"/>
<path d="M184.143 187.036C203.08 187.036 218.403 171.713 218.403 152.775C218.403 133.838 203.08 118.515 184.143 118.515C165.206 118.515 149.882 133.838 149.882 152.775C149.882 171.713 165.206 187.036 184.143 187.036Z" fill="#FCB58A"/>
<path d="M149.087 155.233C149.16 155.811 149.16 156.317 149.232 156.895C149.232 156.968 149.232 157.04 149.232 157.112C149.304 157.69 149.376 158.269 149.521 158.919V158.991C149.593 159.57 149.81 160.22 149.882 160.871C152.195 151.402 160.652 144.391 170.843 144.391C172.144 144.391 173.373 144.463 174.53 144.68C175.469 144.897 176.337 144.969 177.349 144.969C183.709 144.969 188.986 140.126 189.708 133.91C189.708 133.91 189.781 133.91 189.781 133.838C189.708 134.489 189.636 135.139 189.636 135.79C189.636 143.09 195.563 149.017 202.863 149.017H202.936C210.091 150.462 215.801 155.739 217.897 162.605C218.331 161.088 218.692 159.497 218.909 157.907C218.909 157.835 218.909 157.835 218.909 157.69C218.982 157.04 219.054 156.389 219.126 155.666C219.126 155.522 219.199 155.305 219.199 155.161C219.271 154.366 219.271 153.643 219.271 152.848C219.271 152.197 219.271 151.547 219.199 150.968C219.199 150.751 219.126 150.607 219.126 150.39C219.054 149.956 219.054 149.45 219.054 149.089C219.054 148.872 218.982 148.655 218.982 148.511C218.909 148.077 218.909 147.644 218.837 147.21C218.765 146.993 218.765 146.776 218.765 146.632C218.693 146.198 218.62 145.764 218.476 145.331C218.403 145.114 218.403 144.969 218.403 144.752C218.331 144.319 218.187 143.885 218.042 143.451C217.97 143.307 217.97 143.162 217.897 143.018C217.753 142.584 217.608 142.078 217.464 141.644C217.391 141.572 217.392 141.355 217.392 141.283C217.247 140.777 217.03 140.271 216.813 139.837C216.741 139.765 216.741 139.693 216.741 139.62C216.524 139.042 216.307 138.464 216.018 137.958C212.982 131.525 208.067 126.104 201.924 122.563C199.972 121.478 197.948 120.466 195.78 119.744C195.708 119.744 195.635 119.671 195.563 119.671C194.985 119.455 194.334 119.238 193.684 119.093C193.612 119.021 193.467 119.021 193.395 119.021C192.021 118.659 190.576 118.37 189.203 118.153C188.986 118.081 188.841 118.081 188.624 118.081C188.046 118.009 187.54 118.009 186.962 117.937C186.745 117.937 186.528 117.864 186.384 117.864C185.661 117.792 184.938 117.792 184.215 117.792C164.844 117.792 149.16 133.477 149.16 152.848C149.16 153.498 149.16 154.149 149.232 154.799C149.087 155.016 149.087 155.161 149.087 155.233Z" fill="#110580"/>
<path d="M217.536 209.732C208.79 204.527 198.815 202.72 194.479 202.07C193.105 207.78 190.214 210.96 183.781 210.96C177.276 210.96 175.036 207.708 173.807 201.853C172.506 201.925 168.458 202.72 167.519 202.937C155.665 205.25 150.894 208.286 144.967 212.695C135.86 219.489 126.897 233.656 125.018 236.909C124.729 237.342 124.729 237.848 125.018 238.21C126.102 239.872 129.066 244.064 133.258 246.811C139.185 250.714 146.196 252.882 146.196 252.882C146.196 252.882 149.015 247.678 149.882 245.727C150.966 243.125 153.93 234.379 153.93 234.379C153.93 234.379 151.256 240.233 151.039 246.305C150.894 251.87 152.773 258.159 152.629 261.773C152.195 270.157 149.738 277.385 148.87 280.71C148.654 281.505 149.159 282.3 149.955 282.445C154.508 283.457 168.024 286.492 181.83 286.492C199.683 286.492 211.97 284.541 216.307 283.89C217.102 283.746 217.608 282.951 217.391 282.156C216.669 279.337 215.44 274.422 214.211 263.508C213.271 254.979 214.283 253.316 214.211 247.317C214.211 242.908 212.404 234.017 212.404 234.017L214.139 250.931C214.139 250.931 220.427 251.22 229.39 247.317C232.498 245.944 236.401 242.402 238.063 240.812C238.497 240.378 238.642 239.655 238.352 239.077C236.04 234.379 226.065 214.863 217.536 209.732Z" fill="#40B5CF"/>
<path d="M184.143 187.036C180.529 187.036 177.06 186.458 173.807 185.446V191.879C177.06 192.891 180.601 192.963 184.288 192.601C189.13 192.168 191.226 191.228 194.479 189.783V185.446C191.226 186.458 187.757 187.036 184.143 187.036Z" fill="#E3996D"/>
<path d="M154.653 283.529C154.653 283.529 171.566 286.348 183.42 286.348C195.924 286.348 211.464 284.541 211.464 284.541C211.464 284.541 212.838 293.431 213.416 295.383C213.994 297.334 203.152 301.165 183.926 300.804C158.7 300.37 152.701 296.756 152.701 295.744C152.556 295.021 154.653 283.529 154.653 283.529Z" fill="#FCB58A"/>
<path d="M219.56 301.31C235.172 332.39 242.545 351.906 246.737 393.611C250.278 428.666 245.797 475.503 245.074 502.247C245.074 503.042 244.858 503.909 244.424 504.56C243.123 506.584 235.027 508.246 232.787 508.463C221.511 509.258 210.958 507.596 209.947 503.62C204.164 480.057 199.611 455.265 196.358 430.69C193.684 410.307 190.576 387.612 188.769 370.843C188.624 369.469 186.6 369.397 186.456 370.843C186.167 373.662 185.805 389.274 185.372 393.9C184.215 407.055 182.047 419.993 179.951 433.003C176.553 453.675 168.603 482.876 162.531 502.536C162.097 503.837 160.724 505.716 159.206 505.933C156.532 506.367 150.027 506.873 146.63 506.656C141.57 506.222 131.017 504.777 130.439 502.247C122.777 470.372 122.561 409.006 133.619 345.184C136.294 330.005 142.365 313.019 148.003 302.828C148.003 302.828 166.073 306.369 182.697 306.369C202.646 306.225 219.56 301.31 219.56 301.31Z" fill="#65282C"/>
<path d="M80.2049 112.516L57.7259 105.288C56.4249 104.854 55.6298 103.408 56.0634 102.035L60.834 87.3623C61.2676 86.0612 62.7132 85.2662 64.0865 85.6999L86.5656 92.9278C87.8666 93.3615 88.6615 94.8071 88.2278 96.1804L83.4575 110.853C82.9515 112.226 81.506 113.022 80.2049 112.516Z" fill="#AAACE3"/>
<path d="M90.6131 100.228C89.6735 100.228 88.8785 100.806 88.6616 101.674L87.8665 104.131L87.0715 106.589C86.7824 107.456 87.0714 108.396 87.8665 108.902L93.9381 113.455C95.0945 114.395 96.8291 113.817 97.2628 112.371L98.8531 107.528L100.443 102.686C100.877 101.24 99.8649 99.8667 98.347 99.8667L90.6131 100.228Z" fill="#AAACE3"/>
<path d="M152.556 295.817C152.556 295.817 150.605 296.25 149.376 298.346C148.22 300.37 147.931 302.828 147.931 302.828C147.931 302.828 161.013 306.731 185.805 307.381C209.802 307.96 219.56 301.382 219.56 301.382C219.56 301.382 218.692 298.708 216.669 297.479C214.645 296.323 213.271 295.527 213.271 295.527C213.271 295.527 205.754 302.177 182.914 300.587C160.074 298.78 152.556 295.817 152.556 295.817Z" fill="#FFADB2"/>
<path d="M48.4019 148.511L40.5957 149.089L44.0652 196.504L51.8714 195.926L48.4019 148.511Z" fill="#DADAED"/>
<path d="M43.6313 155.233L40.957 155.45L41.0294 156.028L43.7037 155.811L43.6313 155.233Z" fill="#989BD7"/>
<path d="M44.0649 160.509L41.3906 160.726L41.4628 161.304L44.1371 161.088L44.0649 160.509Z" fill="#989BD7"/>
<path d="M44.4985 165.858L41.8242 166.075L41.8966 166.653L44.5709 166.436L44.4985 165.858Z" fill="#989BD7"/>
<path d="M44.8603 171.134L42.186 171.351L42.2584 171.929L44.9327 171.713L44.8603 171.134Z" fill="#989BD7"/>
<path d="M45.2212 176.483L42.5469 176.7L42.6192 177.278L45.2935 177.061L45.2212 176.483Z" fill="#989BD7"/>
<path d="M45.5825 181.759L42.9082 181.976L42.9806 182.555L45.6549 182.338L45.5825 181.759Z" fill="#989BD7"/>
<path d="M46.0166 187.036L43.3423 187.253L43.4145 187.831L46.0889 187.614L46.0166 187.036Z" fill="#989BD7"/>
<path d="M40.3788 164.774L35.3916 165.641L41.9689 203.082L46.9563 202.215L40.3788 164.774Z" fill="#FFADB2"/>
<path d="M40.3788 164.774L35.3916 165.641L36.1866 158.485L37.1986 158.269L40.3788 164.774Z" fill="#EBDBCD"/>
<path d="M36.4757 161.81L37.1985 161.377L37.7768 161.449L38.5718 161.087L37.2707 158.413L36.2589 158.63L35.8975 161.449L36.4757 161.81Z" fill="#FF7A82"/>
<path d="M51.9438 195.276C51.0765 195.131 50.4982 194.336 50.6427 193.469L54.5459 168.46C54.6182 168.243 54.6182 168.026 54.6905 167.882L56.9312 161.593C57.2203 160.871 58.0154 160.437 58.7382 160.582L59.0996 160.654C59.8947 160.798 60.4005 161.521 60.4005 162.316L59.8946 168.966C59.8946 169.183 59.8224 169.4 59.8224 169.616L53.8953 194.192C53.6062 194.914 52.8112 195.493 51.9438 195.276Z" fill="#2B31BA"/>
<path d="M81.2166 212.406H48.7632V223.248H81.2166V212.406Z" fill="#F8D7BC"/>
<path d="M82.5902 211.611V212.406H48.691V223.248H82.5902V224.043H12.9126V211.539H82.5902V211.611Z" fill="#FF7A82"/>
<path d="M38.572 242.691H86.4934V225.2H38.572C36.1868 225.2 34.3076 227.151 34.3076 229.464V238.354C34.3076 240.812 36.1868 242.691 38.572 242.691Z" fill="#F8ECE2"/>
<path d="M10.2385 224.115H88.6618C88.9509 224.115 89.2401 224.404 89.2401 224.694C89.2401 224.983 88.9509 225.272 88.6618 225.272H79.0486H43.0533C38.2106 225.272 34.3076 229.175 34.3076 234.018C34.3076 238.86 38.2106 242.763 43.0533 242.763H87.5052H88.6618C88.9509 242.763 89.2401 243.053 89.2401 243.342C89.2401 243.631 88.9509 243.92 88.6618 243.92H10.1661C5.3234 243.92 1.42041 240.017 1.42041 235.174V233.006C1.49269 228.018 5.39575 224.115 10.2385 224.115Z" fill="#2B31BA"/>
<path d="M86.5655 228.018H41.1016V228.597H86.5655V228.018Z" fill="#EBD0BE"/>
<path d="M86.5655 235.246H37.7769V235.825H86.5655V235.246Z" fill="#EBD0BE"/>
<path d="M86.5655 239.005H43.7759V239.583H86.5655V239.005Z" fill="#EBD0BE"/>
<path d="M86.5658 231.849H39.2227V232.427H86.5658V231.849Z" fill="#EBD0BE"/>
<path d="M49.3412 211.177H19.4897V204.889H49.3412C50.2086 204.889 50.859 205.539 50.859 206.407V209.587C50.859 210.454 50.2086 211.177 49.3412 211.177Z" fill="#F8E7D8"/>
<path d="M67.9173 204.455H18.2613C18.189 204.455 18.0444 204.527 18.0444 204.672C18.0444 204.817 18.1167 204.889 18.2613 204.889H47.679C49.4138 204.889 50.7871 206.334 50.7871 207.997C50.7871 209.732 49.3415 211.105 47.679 211.105H18.2613C18.189 211.105 18.0444 211.177 18.0444 211.322C18.0444 211.394 18.1167 211.539 18.2613 211.539H67.9173C69.652 211.539 71.0254 210.093 71.0254 208.431V207.491C71.0254 205.829 69.652 204.455 67.9173 204.455Z" fill="#FF5856"/>
<path d="M36.9093 178.218H58.7379C59.3161 178.218 59.7496 178.724 59.6773 179.302L56.4971 204.455H39.0055L35.9698 179.302C35.8975 178.724 36.3311 178.218 36.9093 178.218Z" fill="#AAACE3"/>
<path d="M59.1712 160.365L58.8098 160.292C58.0148 160.148 57.2198 160.582 56.9307 161.304L54.6176 167.737C54.5453 167.81 54.5454 167.882 54.5454 168.026C55.2682 168.605 56.2078 169.111 57.2197 169.255C58.1594 169.4 59.099 169.327 59.894 169.111C59.894 169.038 59.9664 168.966 59.9664 168.822L60.4723 162.027C60.5446 161.232 59.9663 160.582 59.1712 160.365Z" fill="#D7D7E6"/>
<path d="M59.2436 150.679C59.4604 150.246 60.0386 150.246 60.2554 150.679C60.6168 151.402 61.0505 152.269 61.4119 152.848C61.9902 153.932 62.3516 156.389 61.9902 157.618C61.6288 159.064 60.6169 160.509 60.3277 161.015C60.2555 161.088 60.1831 161.16 60.0385 161.232C59.7494 161.304 59.1713 161.449 58.3762 161.304C57.292 161.015 57.2197 160.365 57.2197 160.365C57.2197 160.365 56.6415 158.052 56.7138 156.606C56.7861 155.161 57.5811 153.354 57.9425 153.064C58.1593 152.703 58.8099 151.547 59.2436 150.679Z" fill="#C7645D"/>
<path d="M143.666 515.04C150.822 515.113 155.448 512.872 155.448 512.872C155.448 512.872 158.339 519.016 158.917 522.268C159.496 525.449 161.158 536.363 158.628 538.387C155.954 540.627 156.46 540.049 152.99 541.495C148.148 543.519 146.052 542.579 139.474 545.904C137.017 547.205 126.464 557.035 115.766 557.902C106.731 558.697 104.346 554.36 103.262 551.975C102.178 549.59 104.129 544.964 110.49 540.194C118.224 534.411 125.958 526.171 127.548 524.075C132.318 517.642 134.487 511.716 134.487 511.716C134.487 511.716 136.294 514.896 143.666 515.04Z" fill="#635353"/>
<path d="M229.101 515.763C221.945 515.835 217.68 513.523 217.68 513.523C217.68 513.523 214.5 518.221 213.344 524.22C212.765 527.4 211.609 537.086 214.139 539.182C216.813 541.422 216.307 540.844 219.776 542.29C224.619 544.314 226.715 543.374 233.293 546.699C235.75 548 246.303 557.902 257 558.697C263.505 559.203 268.421 555.156 269.505 552.77C270.589 550.385 270.661 545.47 262.638 540.121C254.615 534.773 245.147 526.244 243.918 523.931C242.039 520.389 238.28 512.438 238.28 512.438C238.28 512.438 236.473 515.619 229.101 515.763Z" fill="#635353"/>
<path d="M300.102 148.81C295.043 150.184 289.766 147.148 288.393 142.161L285.935 133.198C284.562 128.138 287.598 122.862 292.585 121.489C297.645 120.115 302.921 123.151 304.294 128.138L306.752 137.101C308.197 142.161 305.234 147.437 300.102 148.81Z" fill="#AAACE3"/>
<path d="M301.62 154.376C293.235 156.689 284.634 151.701 282.393 143.389L282.104 142.233C281.815 141.293 282.393 140.281 283.405 139.992C284.345 139.703 285.357 140.281 285.646 141.293L285.935 142.449C287.67 148.81 294.32 152.641 300.68 150.834C307.041 149.099 310.871 142.45 309.065 136.089L308.775 134.932C308.486 133.993 309.065 132.981 310.077 132.692C311.016 132.403 312.028 132.981 312.317 133.993L312.606 135.149C314.919 143.461 309.932 152.063 301.62 154.376Z" fill="#AAACE3"/>
<path d="M312.534 156.761C313.473 156.472 313.763 155.46 313.112 154.737C310.076 151.34 305.306 149.678 300.68 150.979C295.982 152.28 292.729 156.038 291.862 160.592C291.717 161.532 292.512 162.254 293.452 162.037L312.534 156.761Z" fill="#AAACE3"/>
<path d="M275.287 219.056C277.094 215.153 282.154 211.9 285.985 212.189C289.816 212.478 288.587 212.623 289.816 212.478C291.044 212.406 292.924 211.105 295.454 211.9C298.272 212.767 304.344 215.948 304.416 222.959C304.488 228.958 300.152 235.825 292.201 237.415C284.25 239.005 278.901 236.041 276.516 232.644C273.77 228.669 273.553 222.742 275.287 219.056Z" fill="#FF5856"/>
<path d="M287.72 217.104C287.72 217.104 287.141 208.069 290.755 204.238C294.803 199.974 300.152 196.071 299.79 198.601C299.718 199.179 300.585 207.925 298.128 211.177C294.369 216.237 287.72 217.104 287.72 217.104Z" fill="#4C7378"/>
<path d="M286.707 216.743C286.707 216.743 285.985 212.84 285.334 210.671C283.888 206.19 283.021 204.022 283.021 204.022L286.996 203.154C286.996 203.154 288.442 208.431 288.731 210.527C289.237 214.141 288.948 216.526 288.948 216.526C288.948 216.526 288.442 217.321 287.719 217.249C286.852 217.321 286.707 216.743 286.707 216.743Z" fill="#6B4D3A"/>
<path d="M285.117 204.672C286.201 204.455 287.069 203.877 286.924 203.371C286.852 202.865 285.84 202.576 284.756 202.793C283.672 203.01 282.804 203.588 282.949 204.094C283.021 204.6 284.033 204.817 285.117 204.672Z" fill="#8A634B"/>
<path d="M361.951 243.775H269.216C268.421 243.775 267.771 243.125 267.771 242.33V238.643C267.771 237.848 268.421 237.198 269.216 237.198H361.878C362.674 237.198 363.324 237.848 363.324 238.643V242.33C363.396 243.125 362.674 243.775 361.951 243.775Z" fill="#C5C6E3"/>
<path d="M314.824 236.114H294.514V228.958H314.824C315.402 228.958 315.764 229.392 315.764 229.898V235.029C315.908 235.608 315.402 236.114 314.824 236.114Z" fill="#F8D0B3"/>
<path d="M351.398 227.802H311.138H293.429H292.851C292.562 227.802 292.273 228.091 292.273 228.38C292.273 228.669 292.562 228.958 292.851 228.958H294.514H313.74C314.896 228.958 315.692 229.898 315.692 230.91V234.09C315.692 235.246 314.752 236.114 313.74 236.114H309.331H292.924C292.634 236.114 292.345 236.403 292.345 236.692C292.345 236.981 292.634 237.27 292.924 237.27H293.357H311.138H351.253C352.41 237.27 353.205 236.331 353.205 235.319V229.97C353.349 228.669 352.482 227.802 351.398 227.802Z" fill="#FF7A82"/>
<path d="M324.727 227.296H291.984V220.429H324.727C325.666 220.429 326.461 221.224 326.461 222.164V225.561C326.461 226.573 325.738 227.296 324.727 227.296Z" fill="#F8E7D8"/>
<path d="M345.254 219.923H290.61C290.466 219.923 290.321 219.995 290.321 220.212C290.321 220.357 290.393 220.501 290.61 220.501H322.992C324.871 220.501 326.461 222.019 326.461 223.971C326.461 225.85 324.943 227.44 322.992 227.44H290.61C290.466 227.44 290.321 227.512 290.321 227.729C290.321 227.874 290.393 228.018 290.61 228.018H345.254C347.133 228.018 348.723 226.5 348.723 224.549V223.537C348.651 221.441 347.133 219.923 345.254 219.923Z" fill="#4E53BA"/>
<path d="M316.92 225.272H291.984V224.982H316.92C316.993 224.982 317.065 225.055 317.065 225.127C317.065 225.199 316.993 225.272 316.92 225.272Z" fill="#DEBCA7"/>
<path d="M322.63 223.031H291.984V222.742H322.63C322.703 222.742 322.775 222.814 322.775 222.886C322.775 222.959 322.775 223.031 322.63 223.031Z" fill="#DEBCA7"/>
<path d="M253.187 94.0938C254.199 92.07 250.802 88.3114 245.598 85.637C240.394 82.9627 235.262 82.3845 234.25 84.4083C233.238 86.4321 236.635 90.1906 241.839 92.865C247.116 95.5393 252.175 96.1176 253.187 94.0938Z" fill="#D4BFA9"/>
<path d="M236.202 81.0112C238.153 77.4695 239.743 73.8556 240.538 69.9525C242.201 61.4958 239.96 51.6658 245.309 45.0161C249.212 40.1733 256.079 38.7277 262.222 39.5951C269.739 40.6793 276.823 45.016 280.292 51.738C283.689 58.46 282.822 67.4227 277.473 72.6991C272.92 77.1081 266.125 78.5537 261.427 82.7459C258.753 85.0589 256.874 88.1669 254.922 91.1303L254.272 92.07C239.743 90.4799 236.202 81.0112 236.202 81.0112Z" fill="#EBDBCD"/>
<path d="M261.788 67.9288C261.21 65.6881 259.259 65.7604 257.524 66.5554C257.09 65.3267 256.44 63.7366 255.211 63.2306C253.765 62.6524 252.175 63.6643 251.019 64.5317C248.561 66.4109 246.682 69.1576 245.598 72.0488C244.441 74.8677 243.935 77.9756 242.923 80.8668C242.49 82.0233 244.369 82.5292 244.803 81.3727C246.104 77.6865 246.61 73.7112 248.633 70.314C249.718 68.4348 251.38 66.2663 253.476 65.399C254.127 65.1099 254.633 65.0376 255.066 65.6881C255.428 66.1941 255.645 66.8446 255.861 67.3506C255.861 67.4229 255.934 67.4228 255.934 67.4951C255.645 67.6397 255.5 67.7842 255.283 67.9288C253.259 69.3744 250.657 72.0487 250.729 74.7231C250.729 75.9518 251.525 76.9637 252.753 77.036C254.127 77.1083 255.5 76.0964 256.367 75.0845C258.03 73.2052 258.536 70.7477 258.174 68.3624C258.608 68.0733 259.042 67.9288 259.475 67.9288C260.704 67.8565 260.126 69.808 259.981 70.4586C259.403 72.6269 258.102 74.5785 256.873 76.4578C255.934 77.9034 255.139 79.4212 254.054 80.6499C252.826 82.0955 251.235 83.0352 249.645 84.0471C248.561 84.6977 249.573 86.36 250.585 85.7095C252.392 84.553 254.271 83.3966 255.644 81.6619C257.09 79.8549 258.319 77.8311 259.548 75.8795C260.632 73.7834 262.511 70.5308 261.788 67.9288ZM256.006 71.2536C255.717 72.2655 255.283 73.2052 254.56 74.0003C254.127 74.4339 252.247 75.9518 252.392 74.5785C252.464 73.7112 253.187 72.7716 253.693 72.0488C254.343 71.1091 255.211 70.314 256.15 69.5912C256.15 70.0972 256.15 70.6754 256.006 71.2536Z" fill="#BFA990"/>
<path d="M241.912 92.8651C237.141 90.4799 233.961 87.0827 234.106 84.9866L231.72 93.4434C230.925 95.1058 233.672 98.1415 237.864 100.31C242.056 102.478 246.249 102.984 247.044 101.322C247.116 101.25 247.116 101.177 247.116 101.033L252.754 94.5276C251.236 95.9731 246.682 95.3226 241.912 92.8651Z" fill="#BFA990"/>
<path d="M213.633 52.6682C213.56 52.6682 213.56 52.6682 213.488 52.5959C213.271 52.5236 213.199 52.2345 213.271 52.0177C213.633 51.2226 214.066 50.4275 214.572 49.7047C214.717 49.4879 215.006 49.4156 215.151 49.6325C215.367 49.777 215.44 50.0662 215.223 50.2107C214.717 50.8612 214.283 51.584 213.994 52.3791C213.994 52.5959 213.849 52.6682 213.633 52.6682Z" fill="#110580"/>
<path d="M258.102 54.1234C258.03 54.1234 258.029 54.1234 257.957 54.0512L257.379 53.8343C256.006 53.3283 254.56 52.7501 253.042 52.1719C252.825 52.0996 252.753 51.8105 252.753 51.5936C252.825 51.3768 253.114 51.3045 253.331 51.3045C254.777 51.8827 256.222 52.461 257.596 52.967L258.174 53.1838C258.391 53.256 258.535 53.5452 258.463 53.762C258.463 54.0511 258.319 54.1234 258.102 54.1234ZM248.416 50.0758C248.344 50.0758 248.272 50.0758 248.199 50.0035C246.537 49.1362 245.019 48.1965 243.646 47.2569C243.429 47.1123 243.357 46.8232 243.574 46.6786C243.718 46.4618 244.007 46.3895 244.152 46.6063C245.525 47.546 246.971 48.4134 248.633 49.2807C248.85 49.353 248.922 49.6421 248.85 49.8589C248.705 49.9312 248.561 50.0758 248.416 50.0758ZM239.887 44.0043C239.815 44.0043 239.67 43.932 239.598 43.8598C238.297 42.5587 237.213 41.1854 236.201 39.6675C236.057 39.4507 236.129 39.2338 236.346 39.0892C236.562 38.9447 236.779 39.017 236.924 39.2339C237.864 40.6794 238.875 41.9805 240.176 43.2815C240.321 43.4261 240.321 43.7152 240.176 43.8598C240.104 43.932 239.96 44.0043 239.887 44.0043ZM234.25 35.1862C234.105 35.1862 233.888 35.1139 233.816 34.8971C233.238 33.2347 232.732 31.4999 232.515 29.6929C232.442 29.4038 232.659 29.2593 232.876 29.187C233.165 29.1147 233.31 29.3315 233.382 29.5484C233.671 31.2108 234.033 32.9455 234.683 34.5357C234.755 34.7525 234.611 34.9693 234.394 35.1139C234.322 35.1861 234.25 35.1862 234.25 35.1862ZM237.068 29.6206C236.129 29.6206 235.117 29.5484 234.177 29.4039C233.888 29.3316 233.744 29.1147 233.816 28.8978C233.888 28.6087 234.105 28.4642 234.322 28.5364C235.261 28.681 236.201 28.7533 237.141 28.7533C237.936 28.7533 238.731 28.681 239.454 28.6087C239.743 28.5364 239.887 28.7533 239.96 28.9701C240.032 29.1869 239.815 29.4038 239.598 29.4761C238.731 29.5484 237.863 29.6206 237.068 29.6206ZM229.118 28.1028C229.045 28.1028 229.045 28.1028 228.973 28.1028C227.528 27.5968 226.01 26.9463 224.058 26.0789C223.841 26.0066 223.769 25.7176 223.841 25.5007C223.913 25.2839 224.203 25.2116 224.419 25.2839C226.299 26.1512 227.817 26.8018 229.262 27.3077C229.479 27.38 229.624 27.5968 229.551 27.8859C229.479 27.9582 229.262 28.1028 229.118 28.1028ZM244.441 27.8859C244.296 27.8859 244.152 27.8137 244.079 27.6691C244.007 27.4523 244.007 27.2354 244.224 27.0909C245.019 26.6572 245.742 26.1513 246.392 25.5007C246.971 24.9948 247.477 24.4165 247.838 23.6938C247.91 23.4769 248.272 23.4046 248.416 23.5491C248.633 23.6214 248.705 23.9829 248.561 24.1274C248.127 24.9225 247.549 25.573 246.898 26.0789C246.176 26.7294 245.453 27.3077 244.585 27.7414C244.585 27.8859 244.513 27.8859 244.441 27.8859ZM232.876 24.8502C232.587 24.7779 232.443 24.5611 232.443 24.4165C232.659 22.5373 233.165 20.8025 233.888 19.2124C233.96 18.9955 234.249 18.9233 234.466 18.9956C234.683 19.0679 234.755 19.3569 234.683 19.5738C233.96 21.0194 233.454 22.6818 233.238 24.4888C233.238 24.7056 233.021 24.8502 232.876 24.8502ZM219.504 23.8383C219.432 23.8383 219.432 23.8383 219.288 23.766C218.709 23.4769 218.204 23.2601 217.625 22.971C216.541 22.465 215.457 22.0313 214.517 21.6699C214.3 21.5976 214.156 21.3085 214.228 21.0917C214.3 20.8749 214.589 20.7303 214.806 20.8026C215.818 21.2362 216.83 21.5976 217.987 22.1035C218.565 22.3927 219.143 22.6096 219.649 22.8987C219.866 22.971 219.938 23.26 219.866 23.4769C219.794 23.6937 219.649 23.8383 219.504 23.8383ZM194.351 22.1035C194.207 22.1035 194.062 22.0313 193.99 21.8868C193.845 21.6699 193.918 21.4531 194.134 21.3085C195.58 20.3689 197.315 19.6461 199.049 19.1401C199.338 19.0678 199.483 19.2124 199.555 19.4292C199.628 19.7184 199.483 19.8629 199.266 19.9352C197.604 20.3688 196.014 21.0194 194.568 21.959C194.568 22.1036 194.496 22.1035 194.351 22.1035ZM209.675 20.152C209.602 20.152 209.602 20.152 209.602 20.152C207.795 19.7184 206.06 19.5738 204.47 19.5015C204.181 19.5015 204.037 19.2847 204.037 19.0678C204.037 18.7787 204.253 18.6342 204.47 18.6342C206.133 18.7065 207.94 18.9233 209.747 19.2847C210.036 19.357 210.108 19.5738 210.036 19.7906C210.036 20.0075 209.891 20.152 209.675 20.152ZM249.573 19.357C249.284 19.357 249.139 19.1402 249.139 18.9233C249.067 17.4777 248.561 16.1766 247.693 15.237C247.477 15.0202 247.26 14.8034 247.115 14.6588C246.898 14.5143 246.898 14.2251 247.043 14.0805C247.188 13.8637 247.477 13.8637 247.621 14.0083C247.91 14.2251 248.127 14.442 248.344 14.6588C249.428 15.8153 250.006 17.1886 250.079 18.9233C250.079 19.1402 249.862 19.357 249.573 19.357C249.645 19.357 249.573 19.357 249.573 19.357ZM237.502 15.6707C237.358 15.6707 237.213 15.5984 237.141 15.5261C236.996 15.3093 237.068 15.0925 237.213 14.9479C238.659 13.8638 240.466 13.0687 242.2 12.7796C242.489 12.7073 242.634 12.9241 242.706 13.141C242.779 13.4301 242.562 13.5746 242.345 13.6469C240.682 13.8637 239.092 14.5865 237.791 15.5984C237.719 15.6707 237.647 15.6707 237.502 15.6707Z" fill="#110580"/>
<path d="M289.454 82.3027C289.382 82.3027 289.237 82.2304 289.165 82.2304C288.731 81.7968 288.009 81.3631 287.141 80.9295C286.925 80.8572 286.852 80.568 286.925 80.3512C286.997 80.1343 287.286 80.062 287.503 80.1343C288.442 80.6403 289.165 81.0739 289.743 81.5799C289.888 81.7245 289.96 82.0136 289.816 82.1582C289.743 82.2304 289.599 82.3027 289.454 82.3027Z" fill="#110580"/>
<path d="M261.355 2.73262C264.174 12.4181 263.957 21.3807 263.668 31.283C263.595 34.0297 272.558 33.1623 273.208 30.777C275.594 21.1638 273.931 10.8279 270.896 1.64843C269.884 -1.31503 260.56 0.130556 261.355 2.73262Z" fill="#F3E9E1"/>
<path d="M299.591 21.8143C295.254 29.6205 289.833 36.0533 284.267 42.9199C281.81 45.9556 290.411 45.4497 291.929 44.0041C298.723 38.0049 304.072 29.9096 308.12 21.8143C309.348 19.5014 300.892 19.5014 299.591 21.8143Z" fill="#F3E9E1"/>
<path d="M298.073 62.4352C304.216 62.5798 310.288 62.8689 316.359 63.2303C318.528 63.3749 321.997 62.5075 322.648 60.05C323.298 57.5925 320.407 56.2915 318.456 56.147C312.312 55.7856 306.313 55.5686 300.169 55.3518C298 55.2795 294.603 56.0023 293.88 58.5321C293.23 60.9896 296.049 62.363 298.073 62.4352Z" fill="#F3E9E1"/>
<path d="M212.693 233.728C212.693 233.728 213.994 241.245 214.139 244.932C214.211 247.172 214.139 250.714 214.139 250.714C214.139 250.714 215.801 250.714 216.669 250.642C217.536 250.57 218.548 250.353 218.548 250.353C218.548 250.353 217.536 246.956 216.452 243.631C215.44 240.74 212.693 233.728 212.693 233.728Z" fill="#E0E0E0"/>
<path d="M154.147 233.367C154.147 233.367 152.34 238.643 151.473 241.968C150.894 244.498 151.111 246.739 150.967 247.389C150.75 248.473 149.666 251.437 149.16 252.81C149.015 253.244 148.582 253.461 148.148 253.388C147.425 253.244 146.341 252.955 145.546 252.738C144.245 252.304 143.305 251.943 143.522 252.015C143.522 252.015 146.341 247.967 148.437 244.498C150.172 241.462 154.147 233.367 154.147 233.367Z" fill="#E0E0E0"/>
<path d="M213.777 302.611C225.342 325.524 232.425 350.532 236.256 375.83C240.304 402.646 240.665 429.895 239.436 456.928C238.713 472.54 237.412 488.153 235.894 503.765C235.75 505.572 238.497 505.5 238.641 503.765C241.315 475.793 243.412 447.748 242.689 419.632C242.038 393.394 238.93 367.084 231.847 341.859C227.944 327.909 222.74 314.248 216.234 301.238C215.367 299.647 212.982 301.021 213.777 302.611Z" fill="white"/>
<path d="M150.677 303.117C140.558 326.391 134.993 351.255 131.957 376.408C128.777 402.212 128.054 428.45 128.343 454.398C128.56 469.866 129.283 485.189 131.09 500.584C131.306 502.319 134.053 502.391 133.836 500.584C130.728 473.769 130.584 446.736 131.523 419.776C132.391 394.623 134.559 369.469 140.125 344.822C143.233 331.089 147.497 317.428 153.063 304.49C153.785 302.9 151.4 301.527 150.677 303.117Z" fill="white"/>
<path d="M88.6613 242.691H87.5047H83.674C83.3849 243.125 83.0958 243.486 82.7344 243.775H88.5889C88.878 243.775 89.1672 243.486 89.1672 243.197C89.1672 242.98 88.9504 242.691 88.6613 242.691Z" fill="#2B31BA"/>
<path d="M88.6619 225.199C88.951 225.199 89.2402 224.91 89.2402 224.621C89.2402 224.332 88.951 224.043 88.6619 224.043H84.6865V225.127L88.6619 225.199Z" fill="#2B31BA"/>
<path d="M81.4338 245.727C79.1209 245.221 76.7357 244.57 74.4228 243.775H24.333V243.92C24.333 245.076 24.7668 246.16 25.4896 247.172H78.5427C79.6269 247.172 80.5665 246.666 81.4338 245.727Z" fill="#E3996D"/>
<path d="M276.661 245.654C277.528 246.594 278.54 247.172 279.624 247.172H335.135C335.424 246.522 335.568 245.871 335.496 245.076V243.775H283.455C281.142 244.498 278.901 245.148 276.661 245.654Z" fill="#E3996D"/>
<path d="M183.42 286.348C171.566 286.348 154.653 283.529 154.653 283.529C154.653 283.529 154.364 284.83 154.075 286.637C161.736 289.022 172.072 290.251 183.42 289.817C194.118 289.384 203.803 287.504 211.103 284.83C211.175 284.758 211.248 284.758 211.392 284.685C211.392 284.613 211.392 284.613 211.392 284.613C211.392 284.613 195.852 286.42 183.42 286.348Z" fill="#F0A173"/>
</svg>