<svg width="48" height="48" viewBox="0 0 48 48" fill="none" xmlns="http://www.w3.org/2000/svg">
<path d="M6.99555 38.5416L0.655445 44.4406C0.238344 44.8279 0 45.3766 0 45.9451C0 47.0781 0.921926 48 2.05489 48C2.62343 48 3.17212 47.7608 3.55943 47.3446L9.45843 41.0044C8.51002 40.3217 7.6783 39.49 6.99555 38.5416Z" fill="#F4442E"/>
<path d="M28.1389 47.1722C28.1389 47.6282 28.5097 47.9998 28.9665 47.9998H35.5872C36.044 47.9998 36.4147 47.6282 36.4147 47.1722V39.724H28.1389V47.1722Z" fill="#F4442E"/>
<path d="M18.402 9.57249C20.5645 11.5181 23.0911 12.9482 25.8031 13.8403C24.1785 12.1951 23.1722 9.93745 23.1722 7.44809C23.1722 4.95872 24.1785 2.70108 25.8039 1.05585C23.0919 1.94715 20.5653 3.37721 18.4028 5.32369L16.8933 6.68258C16.6757 6.87706 16.5515 7.15595 16.5515 7.44809C16.5515 7.74022 16.6757 8.01912 16.8925 8.21443L18.402 9.57249Z" fill="#F4442E"/>
<path d="M15.7235 26.483C12.5299 26.483 9.93042 29.0816 9.93042 32.2761C9.93042 35.4706 12.5299 38.0692 15.7235 38.0692C18.9171 38.0692 21.5166 35.4706 21.5166 32.2761C21.5166 29.0816 18.9171 26.483 15.7235 26.483ZM15.7235 36.414C13.4418 36.414 11.5856 34.5577 11.5856 32.2761H13.2407C13.2407 33.6449 14.3547 34.7588 15.7235 34.7588V36.414Z" fill="#F4442E"/>
<path d="M15.7245 23.1725C10.7052 23.1725 6.62109 27.2567 6.62109 32.2759C6.62109 37.2952 10.7052 41.3793 15.7245 41.3793C20.7438 41.3793 24.8279 37.2952 24.8279 32.2759C24.8279 27.2567 20.7438 23.1725 15.7245 23.1725ZM15.7245 39.7242C11.6172 39.7242 8.27626 36.3824 8.27626 32.2759C8.27626 28.1695 11.6172 24.8277 15.7245 24.8277C19.8318 24.8277 23.1727 28.1695 23.1727 32.2759C23.1727 36.3824 19.8318 39.7242 15.7245 39.7242Z" fill="#F4442E"/>
<path d="M32.2754 14.8965C36.3827 14.8965 39.7236 11.5547 39.7236 7.44824C39.7236 3.34177 36.3827 0 32.2754 0C28.1681 0 24.8271 3.34177 24.8271 7.44824C24.8271 11.5547 28.1681 14.8965 32.2754 14.8965ZM33.103 8.27582H31.4478C30.079 8.27582 28.9651 7.16189 28.9651 5.79307V3.31033H31.4478V1.65516H33.103V3.31033C34.4718 3.31033 35.5857 4.42425 35.5857 5.79307H33.9305C33.9305 5.33707 33.5598 4.96549 33.103 4.96549H30.6202V5.79307C30.6202 6.24907 30.991 6.62065 31.4478 6.62065H33.103C34.4718 6.62065 35.5857 7.73458 35.5857 9.1034V11.5861H33.103V13.2413H31.4478V11.5861C30.079 11.5861 28.9651 10.4722 28.9651 9.1034H30.6202C30.6202 9.5594 30.991 9.93098 31.4478 9.93098H33.9305V9.1034C33.9305 8.6474 33.5598 8.27582 33.103 8.27582Z" fill="#F4442E"/>
<path d="M19.9882 22.4035C23.8034 24.0587 26.4814 27.8589 26.4814 32.2757C26.4814 33.1389 26.368 33.9739 26.1752 34.7792L27.8204 38.0688H36.7285L45.8319 19.862H18.717L19.9882 22.4035ZM38.0676 23.1723H39.7227V24.8275H38.0676V23.1723ZM34.7572 23.1723H36.4124V24.8275H34.7572V23.1723ZM31.4469 23.1723H33.1021V24.8275H31.4469V23.1723ZM28.1366 23.1723H29.7917V24.8275H28.1366V23.1723ZM24.8262 23.1723H26.4814V24.8275H24.8262V23.1723Z" fill="#F4442E"/>
<path d="M47.172 14.8968H40.7169C38.0604 15.9784 35.2002 16.552 32.2756 16.552C29.3509 16.552 26.4916 15.9784 23.8342 14.8968H17.3791C16.9223 14.8968 16.5515 15.2684 16.5515 15.7244V17.3795C16.5515 17.8355 16.9223 18.2071 17.3791 18.2071H47.172C47.6289 18.2071 47.9996 17.8355 47.9996 17.3795V15.7244C47.9996 15.2684 47.6289 14.8968 47.172 14.8968Z" fill="#F4442E"/>
<path d="M38.7466 13.8412C41.4586 12.9499 43.9852 11.5198 46.1476 9.57332L47.6572 8.21443C47.8748 8.01995 47.9989 7.74105 47.9989 7.44892C47.9989 7.15678 47.8748 6.87788 47.658 6.68258L46.1485 5.32369C43.986 3.37804 41.4594 1.94798 38.7474 1.05585C40.372 2.70191 41.3783 4.95955 41.3783 7.44892C41.3783 9.93828 40.372 12.1959 38.7466 13.8412Z" fill="#F4442E"/>
</svg>
