<svg width="57" height="60" viewBox="0 0 57 60" fill="none" xmlns="http://www.w3.org/2000/svg">
<path d="M14.827 43.8622C10.436 45.0587 7.8728 49.5927 9.07036 53.9378C10.2679 58.283 14.785 60.9068 19.176 59.7103C23.567 58.5139 26.1302 53.9798 24.9327 49.6347C24.4284 47.7875 23.3359 46.2761 21.9073 45.2056L30.1011 29.1476C31.1936 29.4414 32.3701 29.4624 33.5256 29.1266C34.5551 28.8537 35.4795 28.3289 36.2149 27.6572L45.144 34.0175C44.7448 35.025 44.6818 36.1795 44.9759 37.292C45.7533 40.1258 48.6947 41.8051 51.531 41.0284C54.3673 40.2518 56.048 37.313 55.2707 34.4793C54.4933 31.6455 51.552 29.9662 48.7157 30.7429C47.9803 30.9528 47.287 31.3096 46.7407 31.7924L37.8326 25.4112C38.4209 24.0888 38.568 22.5564 38.1478 21.0451C38.0217 20.5833 37.8326 20.1425 37.6225 19.7227L45.4592 13.2155C47.182 14.6009 49.493 15.1676 51.7831 14.5589C55.5438 13.5303 57.7919 9.62602 56.7414 5.86865C55.7329 2.11128 51.8251 -0.134748 48.0434 0.893807C44.2616 1.92236 42.0346 5.82667 43.0851 9.58404C43.2321 10.1298 43.4422 10.6336 43.6943 11.0954L35.8577 17.6446C34.261 16.4271 32.139 15.9023 30.059 16.4691C28.8405 16.8049 27.79 17.4556 26.9916 18.3163L17.8734 12.8376C18.6508 10.9904 18.8189 8.91233 18.2516 6.83423C16.907 1.90137 11.7806 -1.01637 6.82232 0.327052C1.86403 1.67047 -1.0143 6.81324 0.330322 11.7461C1.67494 16.679 6.80131 19.5967 11.7596 18.2533C13.6925 17.7285 15.2892 16.637 16.4658 15.1886L25.605 20.6672C25.1848 21.8847 25.1218 23.2281 25.4789 24.5296C25.8571 25.894 26.6555 27.0695 27.6639 27.8881L19.4702 43.9462C17.9785 43.5053 16.3817 43.4424 14.827 43.8622ZM48.7577 3.58064C51.0687 2.95092 53.4428 4.29433 54.0941 6.62432C54.7454 8.95432 53.3798 11.3053 51.0477 11.956C48.7367 12.5857 46.3626 11.2423 45.7113 8.91233C45.06 6.58234 46.4466 4.21037 48.7577 3.58064ZM18.4407 57.0655C15.5203 57.8631 12.5159 56.1419 11.7386 53.2451C10.9402 50.3274 12.663 47.3257 15.5624 46.549C18.4617 45.7724 21.4871 47.4726 22.2644 50.3694C23.0628 53.2661 21.361 56.2678 18.4407 57.0655ZM52.6235 35.2349C53.0016 36.5993 52.1823 38.0267 50.8166 38.4046C49.451 38.7824 48.0223 37.9637 47.6442 36.5993C47.266 35.2349 48.0854 33.8076 49.451 33.4297C50.8166 33.0519 52.2453 33.8705 52.6235 35.2349ZM30.7734 19.1349C32.8113 18.5891 34.9123 19.7856 35.4585 21.8008C36.0048 23.8159 34.8072 25.936 32.7903 26.4817C30.7524 27.0275 28.6514 25.831 28.1051 23.8159C27.5589 21.8008 28.7564 19.7017 30.7734 19.1349ZM2.97754 11.0324C2.0111 7.54792 4.07005 3.93749 7.55766 2.9929C11.0453 2.04831 14.6379 4.10542 15.6044 7.56891C16.5708 11.0324 14.4909 14.6429 11.0243 15.6084C7.53665 16.553 3.92298 14.4959 2.97754 11.0324Z" fill="#F4442E"/>
</svg>
