<svg width="64" height="61" viewBox="0 0 64 61" fill="none" xmlns="http://www.w3.org/2000/svg">
<path d="M60.3 15.8999H39V8.7999C39 7.1999 37.7 5.8999 36.1 5.8999H2.9C1.3 5.8999 0 7.0999 0 8.6999V34.1999C0 35.7999 1.3 37.0999 2.9 37.0999H17.1L7.6 46.5999C7.2 46.9999 7.2 47.5999 7.6 47.9999C8 48.3999 8.6 48.3999 9 47.9999L18.5 38.4999V44.9999C18.5 45.5999 18.9 45.9999 19.5 45.9999C20.1 45.9999 20.5 45.5999 20.5 44.9999V38.4999L30 47.9999C30.4 48.3999 31 48.3999 31.4 47.9999C31.8 47.5999 31.8 46.9999 31.4 46.5999L21.9 37.0999H36.1C37.7 37.0999 39 35.7999 39 34.1999V23.2999H41.3V56.5999C41.3 58.6999 42.8 60.3999 44.8 60.4999C44.9 60.4999 44.9 60.4999 45 60.4999C47 60.4999 48.7 58.7999 48.7 56.7999V43.4999C48.7 42.8999 49.2 42.2999 49.9 42.2999C50.6 42.2999 51.1 42.7999 51.1 43.4999V56.5999C51.1 58.6999 52.6 60.3999 54.6 60.4999C54.7 60.4999 54.7 60.4999 54.8 60.4999C56.8 60.4999 58.5 58.7999 58.5 56.7999V39.1999C59 39.4999 59.6 39.5999 60.2 39.5999C62.3 39.5999 63.9 37.8999 63.9 35.8999V19.5999C64 17.4999 62.3 15.8999 60.3 15.8999ZM37 34.1999C37 34.6999 36.6 35.0999 36.1 35.0999H2.9C2.4 35.0999 2 34.6999 2 34.1999V8.6999C2 8.1999 2.4 7.7999 2.9 7.7999H36.2C36.7 7.7999 37.1 8.1999 37.1 8.6999V15.7999H32.5C30.5 15.7999 28.8 17.4999 28.8 19.4999C28.8 21.5999 30.5 23.1999 32.5 23.1999H37V34.1999ZM62 35.8999C62 36.7999 61.2 37.5999 60.3 37.5999C59.4 37.5999 58.6 36.7999 58.6 35.8999V21.7999C58.6 21.1999 58.2 20.7999 57.6 20.7999C57 20.7999 56.6 21.1999 56.6 21.7999V35.8999V56.6999C56.6 57.5999 55.8 58.3999 54.9 58.3999H54.8C53.9 58.3999 53.2 57.4999 53.2 56.4999V43.4999C53.2 41.7999 51.8 40.2999 50 40.2999C48.3 40.2999 46.8 41.6999 46.8 43.4999V56.6999C46.8 57.5999 46 58.3999 45.1 58.3999H45C44.1 58.3999 43.4 57.4999 43.4 56.4999V22.2999C43.4 21.6999 43 21.2999 42.4 21.2999H32.6C31.7 21.2999 30.9 20.4999 30.9 19.5999C30.9 18.6999 31.7 17.8999 32.6 17.8999H60.4C61.4 17.8999 62.1 18.6999 62.1 19.5999V35.8999H62Z" fill="#F4442E"/>
<path d="M49.9 13.8C53.7 13.8 56.8 10.7 56.8 6.9C56.8 3.1 53.7 0 49.9 0C46.1 0 43 3.1 43 6.9C43 10.7 46.1 13.8 49.9 13.8ZM49.9 2C52.6 2 54.8 4.2 54.8 6.9C54.8 9.6 52.6 11.8 49.9 11.8C47.2 11.8 45 9.6 45 6.9C45 4.2 47.2 2 49.9 2Z" fill="#F4442E"/>
<path d="M50.8999 22.1001H48.8999V24.0001H50.8999V22.1001Z" fill="#F4442E"/>
<path d="M50.8999 27.7H48.8999V29.6H50.8999V27.7Z" fill="#F4442E"/>
<path d="M50.8999 33.3999H48.8999V35.2999H50.8999V33.3999Z" fill="#F4442E"/>
<path d="M23.3001 10.6001C21.1001 10.6001 19.3001 12.4001 19.3001 14.6001C19.3001 15.6001 19.7001 16.5001 20.3001 17.2001L15.1001 24.7001C14.7001 24.5001 14.2001 24.4001 13.7001 24.4001C13.5001 24.4001 13.3001 24.4001 13.0001 24.5001L11.1001 20.1001C12.0001 19.4001 12.6001 18.3001 12.6001 17.0001C12.6001 14.8001 10.8001 13.0001 8.6001 13.0001C6.4001 13.0001 4.6001 14.8001 4.6001 17.0001C4.6001 19.2001 6.4001 21.0001 8.6001 21.0001C8.8001 21.0001 9.0001 21.0001 9.3001 20.9001L11.2001 25.3001C10.3001 26.0001 9.7001 27.1001 9.7001 28.4001C9.7001 30.6001 11.5001 32.4001 13.7001 32.4001C15.9001 32.4001 17.7001 30.6001 17.7001 28.4001C17.7001 27.4001 17.3001 26.5001 16.7001 25.8001L21.9001 18.3001C22.3001 18.5001 22.8001 18.6001 23.3001 18.6001C25.5001 18.6001 27.3001 16.8001 27.3001 14.6001C27.3001 12.4001 25.5001 10.6001 23.3001 10.6001ZM6.6001 17.0001C6.6001 15.9001 7.5001 15.0001 8.6001 15.0001C9.7001 15.0001 10.6001 15.9001 10.6001 17.0001C10.6001 18.1001 9.7001 19.0001 8.6001 19.0001C7.5001 19.0001 6.6001 18.1001 6.6001 17.0001ZM13.7001 30.4001C12.6001 30.4001 11.7001 29.5001 11.7001 28.4001C11.7001 27.3001 12.6001 26.4001 13.7001 26.4001C14.8001 26.4001 15.7001 27.3001 15.7001 28.4001C15.7001 29.5001 14.8001 30.4001 13.7001 30.4001ZM23.3001 16.6001C22.2001 16.6001 21.3001 15.7001 21.3001 14.6001C21.3001 13.5001 22.2001 12.6001 23.3001 12.6001C24.4001 12.6001 25.3001 13.5001 25.3001 14.6001C25.3001 15.7001 24.4001 16.6001 23.3001 16.6001Z" fill="#F4442E"/>
</svg>
