<svg width="57" height="57" viewBox="0 0 57 57" fill="none" xmlns="http://www.w3.org/2000/svg">
<path d="M53.2 0H30.4C28.31 0 26.6 1.71 26.6 3.8V19C26.6 21.09 28.31 22.8 30.4 22.8H37.3667V26.6H22.8V8.86667C22.8 8.17 22.23 7.6 21.5333 7.6H15.2C14.5033 7.6 13.9333 8.17 13.9333 8.86667V11.4H8.86667C8.17 11.4 7.6 11.97 7.6 12.6667V26.6H5.06667H1.26667C0.57 26.6 0 27.17 0 27.8667C0 28.5633 0.57 29.1333 1.26667 29.1333H3.8V34.2V43.0667V51.9333V55.7333C3.8 56.43 4.37 57 5.06667 57C5.76333 57 6.33333 56.43 6.33333 55.7333V53.2H24.0667V55.7333C24.0667 56.43 24.6367 57 25.3333 57C26.03 57 26.6 56.43 26.6 55.7333V51.9333V43.0667V35.4667H50.6667V55.7333C50.6667 56.43 51.2367 57 51.9333 57C52.63 57 53.2 56.43 53.2 55.7333V34.2V29.1333H55.7333C56.43 29.1333 57 28.5633 57 27.8667C57 27.17 56.43 26.6 55.7333 26.6H51.9333H46.2333V22.8H53.2C55.29 22.8 57 21.09 57 19V3.8C57 1.71 55.29 0 53.2 0ZM30.4 2.53333H53.2C53.8967 2.53333 54.4667 3.10333 54.4667 3.8V13.9333H29.1333V3.8C29.1333 3.10333 29.7033 2.53333 30.4 2.53333ZM16.4667 10.1333H20.2667V26.6H16.4667V12.6667V10.1333ZM10.1333 13.9333H13.9333V26.6H10.1333V13.9333ZM6.33333 44.3333H13.9333V46.8667C13.9333 47.5633 14.5033 48.1333 15.2 48.1333C15.8967 48.1333 16.4667 47.5633 16.4667 46.8667V44.3333H24.0667V50.6667H6.33333V44.3333ZM24.0667 41.8H6.33333V35.4667H13.9333V38C13.9333 38.6967 14.5033 39.2667 15.2 39.2667C15.8967 39.2667 16.4667 38.6967 16.4667 38V35.4667H24.0667V41.8ZM50.6667 32.9333H25.3333H6.33333V29.1333H8.86667H15.2H21.5333H38.6333H44.9667H50.6667V32.9333ZM43.7 26.6H39.9V22.8H43.7V26.6ZM53.2 20.2667H44.9667H38.6333H30.4C29.7033 20.2667 29.1333 19.6967 29.1333 19V16.4667H54.4667V19C54.4667 19.6967 53.8967 20.2667 53.2 20.2667Z" fill="#F4442E"/>
</svg>