<svg width="93" height="58" viewBox="0 0 93 58" fill="none" xmlns="http://www.w3.org/2000/svg">
<path d="M29 58C12.9837 58 0 45.0163 0 29C0 12.9837 12.9837 0 29 0C45.0163 0 58 12.9837 58 29C58 45.0163 45.0163 58 29 58ZM29 55.6954C43.7434 55.6954 55.6954 43.7434 55.6954 29C55.6954 14.2566 43.7434 2.30464 29 2.30464C14.2566 2.30464 2.30464 14.2566 2.30464 29C2.30464 43.7434 14.2566 55.6954 29 55.6954ZM63.9536 58C47.9374 58 34.9536 45.0163 34.9536 29C34.9536 12.9837 47.9374 0 63.9536 0C79.9699 0 92.9536 12.9837 92.9536 29C92.9536 45.0163 79.9699 58 63.9536 58ZM63.9536 55.6954C78.6971 55.6954 90.649 43.7434 90.649 29C90.649 14.2566 78.6971 2.30464 63.9536 2.30464C49.2102 2.30464 37.2583 14.2566 37.2583 29C37.2583 43.7434 49.2102 55.6954 63.9536 55.6954ZM47.2005 6.4013C53.9803 11.8731 58 20.0978 58 28.98C58 37.8621 53.9803 46.0869 47.2005 51.5586L46.4768 52.1427L45.7531 51.5586C38.9733 46.0869 34.9536 37.8621 34.9536 28.98C34.9536 20.0978 38.9733 11.8731 45.7531 6.4013L46.4768 5.81722L47.2005 6.4013ZM52.3627 23.4305L44.9398 31.7374L40.2395 26.1834L38.7947 27.3542L44.901 34.5695L53.7748 24.6387L52.3627 23.4305Z" fill="#F4442E"/>
<circle cx="47.2432" cy="29.1932" r="9.21854" fill="#F4442E"/>
<path d="M51.8554 25.3491L44.1973 33.0312L40.7163 29.5394" stroke="white" stroke-width="2" stroke-linecap="round" stroke-linejoin="round"/>
</svg>