<svg width="25" height="26" viewBox="0 0 25 26" fill="none" xmlns="http://www.w3.org/2000/svg">
<path d="M21.8108 0.5H3.11583C1.39745 0.5 0 1.89745 0 3.61583V22.3108C0 24.0292 1.39745 25.4267 3.11583 25.4267H21.8108C23.5292 25.4267 24.9267 24.0292 24.9267 22.3108V3.61583C24.9267 1.89745 23.5292 0.5 21.8108 0.5Z" fill="#303030"/>
<path d="M21.0318 12.9634H17.137V9.84758C17.137 8.98761 17.8349 9.06862 18.6949 9.06862H20.2528V5.17383H17.137C14.5555 5.17383 12.4632 7.26611 12.4632 9.84758V12.9634H9.34741V16.8582H12.4632V25.4267H17.137V16.8582H19.4739L21.0318 12.9634Z" fill="#F6F9FC"/>
</svg>