<svg width="83" height="83" viewBox="0 0 83 83" fill="none" xmlns="http://www.w3.org/2000/svg">
<circle cx="41.5" cy="41.5" r="40.5" stroke="#F4442E" stroke-width="2"/>
<path d="M68.7253 42.5635L62.1913 26.1631C62.1067 25.9505 61.9429 25.779 61.7344 25.6848C61.5259 25.5905 61.2889 25.581 61.0735 25.658L53.9513 28.2063C53.8394 28.2464 53.7367 28.3087 53.6494 28.3895C53.5621 28.4703 53.492 28.5678 53.4434 28.6764C53.3947 28.7849 53.3685 28.9021 53.3663 29.021C53.364 29.1399 53.3858 29.258 53.4304 29.3683L53.8984 30.5285L50.9404 31.4998C49.8402 31.0742 45.9666 29.574 44.8752 29.0822C43.1313 28.2973 41.5402 28.9224 39.6921 30.1047C38.3897 29.1069 37.1695 29.0999 35.5192 30.035C34.3713 30.6822 32.5824 31.7621 31.755 32.2636L30.359 31.4769L31.0001 30.14C31.0999 29.9321 31.1144 29.6934 31.0405 29.4749C30.9665 29.2564 30.8101 29.0756 30.6045 28.971L24.202 25.7039C24.0985 25.6511 23.9856 25.6192 23.8697 25.6101C23.7539 25.601 23.6374 25.6148 23.5269 25.6508C23.4164 25.6868 23.3141 25.7443 23.2258 25.8199C23.1376 25.8956 23.0651 25.9879 23.0127 26.0916L15.1065 41.7071C15.0008 41.9151 14.9818 42.1566 15.0536 42.3786C15.1254 42.6006 15.2822 42.7852 15.4897 42.892L22.2197 46.3551C22.345 46.4189 22.4836 46.4522 22.6241 46.4522C22.7198 46.4521 22.8149 46.4369 22.9058 46.4071C23.0176 46.3692 23.1207 46.3094 23.2091 46.2312C23.2975 46.1529 23.3694 46.0579 23.4206 45.9515L23.9336 44.8814L24.7459 45.4376C24.5882 45.7526 24.4499 46.077 24.3318 46.4089C24.3036 46.4971 24.2893 46.5892 24.2894 46.6818C24.2894 48.9051 26.5772 50.1342 27.5415 50.5536C27.6988 51.0455 27.9608 51.4974 28.3094 51.8785C28.658 52.2595 29.0849 52.5606 29.5608 52.7611C29.7615 52.8202 29.9697 52.85 30.1789 52.8494C30.5011 52.8456 30.8193 52.7787 31.1158 52.6525C31.42 53.3146 31.9211 53.8668 32.5506 54.2339C33.1138 54.5343 33.7632 54.6318 34.3898 54.5102C34.7765 55.2134 35.3707 55.7802 36.0913 56.1332C36.3565 56.2429 36.6405 56.2999 36.9275 56.3009C37.2257 56.3005 37.5208 56.2404 37.7955 56.1243C38.552 55.7902 39.2029 55.256 39.678 54.5791C40.1195 54.9279 40.7941 55.4621 41.5437 56.059C42.1195 56.4947 42.8254 56.7233 43.5472 56.708C44.1513 56.707 44.7471 56.5671 45.2884 56.2992C45.6884 56.108 46.0442 55.8356 46.3331 55.4994C46.6219 55.1631 46.8375 54.7703 46.9661 54.346C47.2799 54.3423 47.5922 54.3023 47.8968 54.2268C48.4546 54.0906 48.9768 53.8365 49.4282 53.4816C49.8796 53.1268 50.2498 52.6793 50.5139 52.1695C50.6826 52.1949 50.8528 52.2081 51.0234 52.2092C51.8633 52.2043 52.682 51.9451 53.3717 51.4658C54.0614 50.9865 54.5898 50.3095 54.8873 49.5241C54.9262 49.5241 54.9632 49.5311 55.0012 49.5311C55.918 49.5582 56.8097 49.2287 57.4886 48.6119C57.9437 48.1943 58.2539 47.6425 58.3742 47.0367C58.4946 46.4308 58.4188 45.8024 58.1579 45.2425L59.5777 44.6138L60.096 45.8994C60.1826 46.1141 60.35 46.2863 60.5622 46.3787C60.7744 46.4712 61.0144 46.4767 61.2306 46.3939L68.2212 43.7185C68.3299 43.6766 68.4293 43.6136 68.5136 43.5331C68.5979 43.4526 68.6655 43.3563 68.7123 43.2496C68.7592 43.1428 68.7845 43.0279 68.7867 42.9114C68.789 42.7949 68.7681 42.679 68.7253 42.5706V42.5635ZM22.2206 44.3692L17.0782 41.7203L24.1879 27.6809L29.0355 30.1533L22.2206 44.3692ZM26.0625 46.8169C26.3273 46.1589 26.6677 45.5339 27.077 44.9546C27.242 44.8256 27.4415 44.7483 27.6504 44.7326C27.8592 44.7169 28.0681 44.7634 28.2505 44.8664C28.3227 44.8879 28.3895 44.9247 28.4465 44.9741C28.5034 45.0236 28.5491 45.0846 28.5805 45.1532C28.6119 45.2217 28.6283 45.2962 28.6287 45.3716C28.629 45.447 28.6133 45.5216 28.5825 45.5904C28.247 46.6738 27.9052 47.8455 27.6748 48.6508C26.9967 48.272 26.1481 47.6433 26.0625 46.8169ZM30.0677 51.0657C29.7312 50.966 29.4019 50.4371 29.2085 49.9753C29.8651 48.8649 30.5829 47.7919 31.3586 46.7612C31.5351 46.5269 31.79 46.3638 32.0768 46.3019C32.3636 46.24 32.6631 46.2833 32.9206 46.4239C33.2738 46.6685 33.076 47.155 32.849 47.5215C32.842 47.5321 32.8429 47.5444 32.8367 47.555C32.8234 47.5806 32.8031 47.6027 32.7916 47.6283C32.6362 47.9815 31.6226 49.6106 30.9065 50.7302C30.6796 50.9156 30.3326 51.1452 30.0677 51.0657ZM34.2441 52.7355C34.1061 52.7848 33.9595 52.8053 33.8132 52.7958C33.667 52.7862 33.5242 52.7467 33.3938 52.6798C32.9762 52.3866 32.6717 51.959 32.5312 51.4684C33.0512 50.6507 34.1726 48.8707 34.4022 48.3541C34.5032 48.2401 34.6404 48.1643 34.7907 48.1396C34.961 48.1108 35.1353 48.118 35.3026 48.1607C35.4699 48.2035 35.6264 48.2808 35.762 48.3877C35.9402 48.5049 36.0733 48.6792 36.1394 48.882C36.2055 49.0848 36.2007 49.304 36.1258 49.5038L34.2441 52.7355ZM37.1147 54.4908C36.6538 54.6842 36.1584 54.0114 35.8785 53.5425L37.6648 51.1019C37.8527 51.0966 38.0398 51.1292 38.2149 51.1978C38.39 51.2663 38.5494 51.3695 38.6838 51.5011C38.7707 51.6696 38.8233 51.8537 38.8384 52.0427C38.8536 52.2318 38.831 52.4219 38.7721 52.6021C38.4735 53.4158 37.8827 54.0891 37.1147 54.4908ZM56.2383 47.3625C55.9798 47.553 55.6811 47.6816 55.3652 47.7385C55.0493 47.7955 54.7245 47.7792 54.4158 47.691C54.4096 47.691 54.4052 47.6857 54.399 47.6848H54.3902C54.3061 47.6597 54.2257 47.6238 54.1509 47.578C53.6308 47.231 50.9086 44.6129 49.3148 43.0439C49.1458 42.8909 48.9241 42.8091 48.6962 42.8158C48.4683 42.8225 48.2518 42.9171 48.0921 43.0798C47.9324 43.2425 47.8418 43.4607 47.8393 43.6887C47.8368 43.9167 47.9225 44.1368 48.0787 44.303C48.785 44.9997 52.3611 48.5051 53.1734 49.0473C53.0383 49.3391 52.8462 49.6009 52.6085 49.8175C52.3707 50.034 52.0921 50.2008 51.7889 50.3081C51.535 50.4197 51.258 50.4683 50.9813 50.4499C50.7046 50.4315 50.4364 50.3465 50.1996 50.2022C49.057 49.1859 45.956 46.0866 45.9251 46.0522C45.7585 45.8913 45.5355 45.8023 45.304 45.8044C45.0725 45.8064 44.851 45.8992 44.6873 46.0629C44.5236 46.2267 44.4307 46.4481 44.4287 46.6796C44.4267 46.9111 44.5157 47.1342 44.6765 47.3007C44.8019 47.4252 47.6663 50.2887 48.9148 51.4172C48.7608 51.6874 48.5537 51.9235 48.3058 52.1114C48.058 52.2993 47.7747 52.435 47.4729 52.5103C47.262 52.5815 47.0385 52.6076 46.8169 52.5869C46.5953 52.5662 46.3805 52.4992 46.1864 52.3902L43.0474 49.2574L41.7989 50.5059L44.9353 53.6423C45.0357 53.738 45.1454 53.8235 45.2628 53.8975C45.1966 54.078 45.0951 54.2436 44.9643 54.3846C44.8335 54.5255 44.6759 54.6391 44.5008 54.7186C44.2149 54.8733 43.8937 54.9512 43.5687 54.9445C43.2437 54.9378 42.9259 54.8469 42.6466 54.6807C41.7177 53.9381 40.9027 53.2961 40.5009 52.9809C40.6213 52.5573 40.6489 52.1127 40.5817 51.6775C40.5145 51.2423 40.3541 50.8267 40.1115 50.4591C39.8495 50.1304 39.52 49.8617 39.1453 49.6711C38.7706 49.4806 38.3594 49.3726 37.9394 49.3545C37.9802 48.8831 37.8932 48.4095 37.6875 47.9834C37.4817 47.5573 37.1649 47.1946 36.7703 46.9334C36.2095 46.5313 35.5296 46.3297 34.8402 46.3612C34.7286 45.7971 34.4014 45.2988 33.928 44.9723C33.3865 44.6315 32.7499 44.4734 32.1118 44.521C31.4738 44.5687 30.8678 44.8197 30.3829 45.2372C30.3589 44.8178 30.22 44.4131 29.9815 44.0674C29.7429 43.7216 29.4138 43.4482 29.0302 43.277C28.4786 42.9826 27.843 42.8852 27.2286 43.0009C26.6142 43.1167 26.0576 43.4387 25.651 43.9136L24.7053 43.2664L29.5944 33.068L31.3383 34.0507C31.475 34.1278 31.6297 34.167 31.7866 34.1644C31.9435 34.1617 32.0969 34.1173 32.231 34.0357C32.2583 34.019 34.9152 32.3996 36.388 31.5634C37.1262 31.1466 37.5942 31.008 38.0657 31.174C36.7641 32.1614 35.8886 33.6086 35.6181 35.2198C35.2424 36.2618 35.2951 37.4103 35.7646 38.4135C36.0111 38.7626 36.3278 39.0563 36.6944 39.2759C37.061 39.4954 37.4694 39.636 37.8935 39.6886C38.2427 39.7624 38.6039 39.7586 38.9515 39.6774C39.299 39.5962 39.6245 39.4397 39.9049 39.2188C40.7037 38.6335 41.2601 37.7755 41.4687 36.8074L42.3976 36.1999C45.0706 37.6902 47.8564 38.9685 50.7294 40.0232C51.5505 40.8117 55.2829 44.4028 56.1968 45.4279L56.2029 45.4341C56.3466 45.5493 56.4631 45.6947 56.5442 45.86C56.6254 46.0253 56.6692 46.2064 56.6726 46.3905C56.676 46.5746 56.6388 46.7572 56.5638 46.9253C56.4887 47.0934 56.3776 47.243 56.2383 47.3634V47.3625ZM57.0789 43.7882C55.5646 42.2112 51.9576 38.7553 51.7889 38.5928C51.6801 38.4895 51.5471 38.4152 51.4022 38.3765C48.7948 37.693 42.8417 34.4375 42.7817 34.4031C42.6414 34.3261 42.4828 34.2888 42.3229 34.295C42.163 34.3013 42.0079 34.3508 41.874 34.4384L40.1742 35.55C40.0625 35.6233 39.9688 35.721 39.9003 35.8357C39.8318 35.9504 39.7902 36.0792 39.7787 36.2123C39.7443 36.5219 39.647 36.8211 39.4927 37.0917C39.3384 37.3623 39.1305 37.5985 38.8815 37.7857C38.7972 37.8596 38.6976 37.9137 38.5897 37.9442C38.4819 37.9748 38.3687 37.981 38.2582 37.9623C37.7434 37.8334 37.4202 37.7389 37.2807 37.5058C37.1721 37.3292 37.0344 36.8445 37.3328 35.6516C37.9156 33.3214 38.6899 32.8261 40.2325 31.8495L40.6122 31.6067C42.5336 30.3705 43.3644 30.3343 44.1512 30.6892C45.465 31.2808 50.3903 33.1757 50.5969 33.2569C50.7867 33.3291 50.9955 33.3341 51.1885 33.2711L54.558 32.1665L58.9137 42.9724L57.0789 43.7882ZM61.4055 44.4337L55.4091 29.559L60.8633 27.6076L66.751 42.3861L61.4055 44.4337Z" fill="#F4442E"/>
</svg>