<svg width="25" height="25" viewBox="0 0 25 25" fill="none" xmlns="http://www.w3.org/2000/svg">
<path d="M2.45601 1.78218C0.566197 3.74514 0.952978 5.83035 0.952978 12.1651C0.952978 17.4258 0.0351244 22.6994 4.83882 23.9409C6.33885 24.3267 19.6297 24.3267 21.1277 23.9389C23.1277 23.4229 24.755 21.8006 24.9775 18.9719C25.0085 18.5771 25.0085 5.76021 24.9765 5.3574C24.74 2.34431 22.8853 0.607809 20.4413 0.256099C19.8812 0.174935 19.769 0.150886 16.8952 0.145876C6.70158 0.150886 4.46707 -0.30303 2.45601 1.78218Z" fill="#303030"/>
<path d="M12.9757 3.29177C9.33736 3.29177 5.88239 2.96812 4.56272 6.35496C4.01762 7.75378 4.09678 9.57045 4.09678 12.1717C4.09678 14.4543 4.02364 16.5996 4.56272 17.9874C5.87938 21.3763 9.36241 21.0516 12.9737 21.0516C16.4577 21.0516 20.05 21.4144 21.3857 17.9874C21.9318 16.5746 21.8516 14.785 21.8516 12.1717C21.8516 8.7027 22.043 6.46318 20.3606 4.78178C18.6572 3.07834 16.3535 3.29177 12.9717 3.29177H12.9757ZM12.1801 4.892C19.7694 4.87998 20.7354 4.03628 20.2023 15.7569C20.0129 19.9023 16.8565 19.4474 12.9767 19.4474C5.90243 19.4474 5.69902 19.245 5.69902 12.1677C5.69902 5.00824 6.26015 4.89601 12.1801 4.89V4.892ZM17.7153 6.36598C17.1271 6.36598 16.6501 6.84294 16.6501 7.43113C16.6501 8.01932 17.1271 8.49628 17.7153 8.49628C18.3035 8.49628 18.7804 8.01932 18.7804 7.43113C18.7804 6.84294 18.3035 6.36598 17.7153 6.36598ZM12.9757 7.61149C10.4576 7.61149 8.4165 9.65362 8.4165 12.1717C8.4165 14.6898 10.4576 16.7309 12.9757 16.7309C15.4938 16.7309 17.5339 14.6898 17.5339 12.1717C17.5339 9.65362 15.4938 7.61149 12.9757 7.61149ZM12.9757 9.21173C16.8886 9.21173 16.8936 15.1317 12.9757 15.1317C9.06381 15.1317 9.0578 9.21173 12.9757 9.21173Z" fill="#F6F9FC"/>
</svg>