<svg width="57" height="80" viewBox="0 0 57 80" fill="none" xmlns="http://www.w3.org/2000/svg">
<path d="M55.575 0H1.425C1.04707 0 0.684612 0.150134 0.417373 0.417373C0.150134 0.684612 0 1.04707 0 1.425V66.975C0 67.0056 0.015533 67.0312 0.0173855 67.0614C0.0352787 67.4026 0.174918 67.7262 0.41097 67.9734L0.419378 67.9839L11.8157 79.3802C12.0839 79.6473 12.4465 79.7981 12.825 79.8H55.575C55.9529 79.8 56.3154 79.6499 56.5826 79.3826C56.8499 79.1154 57 78.7529 57 78.375V1.425C57 1.04707 56.8499 0.684612 56.5826 0.417373C56.3154 0.150134 55.9529 0 55.575 0ZM11.4 74.9349L4.86509 68.4H11.4V74.9349ZM54.15 76.95H14.25V66.975C14.25 66.5971 14.0999 66.2346 13.8326 65.9674C13.5654 65.7001 13.2029 65.55 12.825 65.55H2.85V2.85H54.15V76.95ZM8.55 41.325C8.55 41.0432 8.63357 40.7677 8.79015 40.5333C8.94674 40.299 9.16929 40.1163 9.42968 40.0085C9.69006 39.9006 9.97658 39.8724 10.253 39.9274C10.5294 39.9824 10.7833 40.1181 10.9826 40.3174C11.1819 40.5167 11.3176 40.7706 11.3726 41.047C11.4276 41.3234 11.3994 41.6099 11.2915 41.8703C11.1837 42.1307 11.001 42.3533 10.7667 42.5098C10.5323 42.6664 10.2568 42.75 9.975 42.75C9.59707 42.75 9.23461 42.5999 8.96737 42.3326C8.70013 42.0654 8.55 41.7029 8.55 41.325ZM14.25 41.325C14.25 40.9471 14.4001 40.5846 14.6674 40.3174C14.9346 40.0501 15.2971 39.9 15.675 39.9H47.025C47.4029 39.9 47.7654 40.0501 48.0326 40.3174C48.2999 40.5846 48.45 40.9471 48.45 41.325C48.45 41.7029 48.2999 42.0654 48.0326 42.3326C47.7654 42.5999 47.4029 42.75 47.025 42.75H15.675C15.2971 42.75 14.9346 42.5999 14.6674 42.3326C14.4001 42.0654 14.25 41.7029 14.25 41.325ZM8.55 49.875C8.55 49.5932 8.63357 49.3177 8.79015 49.0833C8.94674 48.849 9.16929 48.6663 9.42968 48.5585C9.69006 48.4506 9.97658 48.4224 10.253 48.4774C10.5294 48.5324 10.7833 48.6681 10.9826 48.8674C11.1819 49.0667 11.3176 49.3206 11.3726 49.597C11.4276 49.8734 11.3994 50.1599 11.2915 50.4203C11.1837 50.6807 11.001 50.9033 10.7667 51.0598C10.5323 51.2164 10.2568 51.3 9.975 51.3C9.59707 51.3 9.23461 51.1499 8.96737 50.8826C8.70013 50.6154 8.55 50.2529 8.55 49.875ZM14.25 49.875C14.25 49.4971 14.4001 49.1346 14.6674 48.8674C14.9346 48.6001 15.2971 48.45 15.675 48.45H47.025C47.4029 48.45 47.7654 48.6001 48.0326 48.8674C48.2999 49.1346 48.45 49.4971 48.45 49.875C48.45 50.2529 48.2999 50.6154 48.0326 50.8826C47.7654 51.1499 47.4029 51.3 47.025 51.3H15.675C15.2971 51.3 14.9346 51.1499 14.6674 50.8826C14.4001 50.6154 14.25 50.2529 14.25 49.875ZM8.55 58.425C8.55 58.1432 8.63357 57.8677 8.79015 57.6333C8.94674 57.399 9.16929 57.2163 9.42968 57.1085C9.69006 57.0006 9.97658 56.9724 10.253 57.0274C10.5294 57.0824 10.7833 57.2181 10.9826 57.4174C11.1819 57.6167 11.3176 57.8706 11.3726 58.147C11.4276 58.4234 11.3994 58.7099 11.2915 58.9703C11.1837 59.2307 11.001 59.4533 10.7667 59.6098C10.5323 59.7664 10.2568 59.85 9.975 59.85C9.59707 59.85 9.23461 59.6999 8.96737 59.4326C8.70013 59.1654 8.55 58.8029 8.55 58.425ZM14.25 58.425C14.25 58.0471 14.4001 57.6846 14.6674 57.4174C14.9346 57.1501 15.2971 57 15.675 57H47.025C47.4029 57 47.7654 57.1501 48.0326 57.4174C48.2999 57.6846 48.45 58.0471 48.45 58.425C48.45 58.8029 48.2999 59.1654 48.0326 59.4326C47.7654 59.6999 47.4029 59.85 47.025 59.85H15.675C15.2971 59.85 14.9346 59.6999 14.6674 59.4326C14.4001 59.1654 14.25 58.8029 14.25 58.425ZM15.675 24.5385V32.775C15.675 33.1529 15.8251 33.5154 16.0924 33.7826C16.3596 34.0499 16.7221 34.2 17.1 34.2H39.9C40.2779 34.2 40.6404 34.0499 40.9076 33.7826C41.1749 33.5154 41.325 33.1529 41.325 32.775V24.5385C41.7717 24.1411 42.1296 23.654 42.3751 23.1088C42.6207 22.5637 42.7484 21.9729 42.75 21.375V15.675C42.75 15.2971 42.5999 14.9346 42.3326 14.6674C42.0654 14.4001 41.7029 14.25 41.325 14.25H34.2V9.975C34.2 9.59707 34.0499 9.23461 33.7826 8.96737C33.5154 8.70013 33.1529 8.55 32.775 8.55H24.225C23.8471 8.55 23.4846 8.70013 23.2174 8.96737C22.9501 9.23461 22.8 9.59707 22.8 9.975V14.25H15.675C15.2971 14.25 14.9346 14.4001 14.6674 14.6674C14.4001 14.9346 14.25 15.2971 14.25 15.675V21.375C14.2516 21.9729 14.3793 22.5637 14.6249 23.1088C14.8704 23.654 15.2283 24.1411 15.675 24.5385ZM38.475 31.35H18.525V25.65H24.225V27.075C24.225 27.4529 24.3751 27.8154 24.6424 28.0826C24.9096 28.3499 25.2721 28.5 25.65 28.5H31.35C31.7279 28.5 32.0904 28.3499 32.3576 28.0826C32.6249 27.8154 32.775 27.4529 32.775 27.075V25.65H38.475V31.35ZM29.925 25.65H27.075V22.8H29.925V25.65ZM25.65 11.4H31.35V14.25H25.65V11.4ZM17.1 17.1H39.9V21.375C39.8998 21.7529 39.7496 22.1152 39.4824 22.3824C39.2152 22.6496 38.8529 22.7998 38.475 22.8H32.775V21.375C32.775 20.9971 32.6249 20.6346 32.3576 20.3674C32.0904 20.1001 31.7279 19.95 31.35 19.95H25.65C25.2721 19.95 24.9096 20.1001 24.6424 20.3674C24.3751 20.6346 24.225 20.9971 24.225 21.375V22.8H18.525C18.1471 22.7998 17.7848 22.6496 17.5176 22.3824C17.2504 22.1152 17.1002 21.7529 17.1 21.375V17.1Z" fill="#F4442E"/>
</svg>