<svg width="41" height="21" viewBox="0 0 41 21" fill="none" xmlns="http://www.w3.org/2000/svg">
<path d="M18.5133 13.4761L11.8023 20.2258C10.8766 21.1568 9.25667 21.1568 8.331 20.2258L0.69425 12.5451C-0.231417 11.6141 -0.231417 9.98492 0.69425 9.05393L8.331 1.37329C9.25667 0.442302 10.8766 0.442302 11.8023 1.37329L18.5133 8.12295C19.439 9.05393 21.0589 9.05393 21.9846 8.12295L28.6957 1.37329C29.6213 0.442302 31.2413 0.442302 32.1669 1.37329L39.8037 9.05393C40.7294 9.98492 40.7294 11.6141 39.8037 12.5451L32.1669 20.2258C31.2413 21.1568 29.6213 21.1568 28.6957 20.2258L21.9846 13.4761C20.9432 12.5451 19.439 12.5451 18.5133 13.4761Z" fill="#BD200D"/>
<rect x="9.44971" y="10.5" width="14.8492" height="14.8492" rx="3" transform="rotate(-45 9.44971 10.5)" fill="#F4442E"/>
</svg>
