<svg width="41" height="21" viewBox="0 0 41 21" fill="none" xmlns="http://www.w3.org/2000/svg">
<path d="M18.5133 13.4764L11.8023 20.226C10.8766 21.157 9.25667 21.157 8.331 20.226L0.69425 12.5454C-0.231417 11.6144 -0.231417 9.98516 0.69425 9.05418L8.331 1.37353C9.25667 0.442546 10.8766 0.442546 11.8023 1.37353L18.5133 8.12319C19.439 9.05418 21.0589 9.05418 21.9846 8.12319L28.6957 1.37353C29.6213 0.442546 31.2413 0.442546 32.1669 1.37353L39.8037 9.05418C40.7294 9.98516 40.7294 11.6144 39.8037 12.5454L32.1669 20.226C31.2413 21.157 29.6213 21.157 28.6957 20.226L21.9846 13.4764C20.9432 12.5454 19.439 12.5454 18.5133 13.4764Z" fill="#BD200D"/>
<rect x="9.44971" y="10.5" width="14.8492" height="14.8492" rx="3" transform="rotate(-45 9.44971 10.5)" fill="#F4442E"/>
</svg>