<svg width="101" height="40" viewBox="0 0 101 40" fill="none" xmlns="http://www.w3.org/2000/svg">
<g clip-path="url(#clip0)">
<path d="M26.4743 37.5128C30.517 37.5128 33.7943 34.2175 33.7943 30.1525C33.7943 26.0874 30.517 22.792 26.4743 22.792C22.4316 22.792 19.1543 26.0874 19.1543 30.1525C19.1543 34.2175 22.4316 37.5128 26.4743 37.5128Z" fill="#231F20"/>
<path d="M21.6279 38.1727V35.1778C21.6279 32.792 23.5463 30.8123 25.9695 30.8123H27.8374C30.2101 30.8123 32.1789 32.7412 32.1789 35.1778V38.4265" fill="#EE452E"/>
<path d="M26.878 30.8121C28.3278 30.8121 29.5031 29.6303 29.5031 28.1725C29.5031 26.7146 28.3278 25.5328 26.878 25.5328C25.4282 25.5328 24.2529 26.7146 24.2529 28.1725C24.2529 29.6303 25.4282 30.8121 26.878 30.8121Z" fill="#EE452E"/>
<path d="M3.3022 12.1828C3.45366 12.2843 3.60511 12.4365 3.80704 12.6396C4.00897 12.8426 4.26138 12.995 4.5138 13.198C4.91767 13.4517 5.32153 13.6549 5.67491 13.8071C6.07877 13.9594 6.48264 14.0102 6.8865 14.0102C7.29037 14.0102 7.59326 13.9594 7.89617 13.8578C8.14858 13.7563 8.401 13.6549 8.55244 13.5025C8.70389 13.3503 8.80486 13.198 8.90582 12.995C8.95631 12.7919 9.0068 12.5889 9.0068 12.3857C9.0068 12.132 8.90583 11.9289 8.75438 11.7259C8.55244 11.5229 8.35051 11.3706 8.09809 11.2183C7.84568 11.066 7.54279 10.9645 7.29037 10.8122C6.98746 10.7107 6.73506 10.6091 6.53312 10.5584C5.57394 10.2538 4.76622 9.89848 4.05945 9.49239C3.35269 9.13706 2.79737 8.68022 2.29255 8.22335C1.83819 7.7665 1.48481 7.25889 1.2324 6.70051C0.979985 6.14214 0.879019 5.53299 0.879019 4.82234C0.879019 4.11168 1.03047 3.45178 1.33336 2.84265C1.63626 2.23351 2.04013 1.72589 2.59544 1.3198C3.15075 0.913709 3.80704 0.558382 4.56429 0.355337C5.32153 0.101529 6.17974 0 7.13892 0C7.84568 0 8.50196 0.101523 9.15824 0.253807C9.81452 0.406091 10.4708 0.659898 11.0766 1.01523C11.329 1.16751 11.5814 1.3198 11.8338 1.52284C12.0862 1.67513 12.2882 1.87817 12.4396 2.03046C12.6416 2.18274 12.7425 2.33502 12.8435 2.48731C12.9445 2.63959 12.995 2.74113 12.995 2.84265C12.995 2.94417 12.9445 3.04569 12.894 3.14721C12.8435 3.24874 12.7425 3.35025 12.6416 3.45177L10.8747 5.38072C10.7232 5.53299 10.6222 5.58376 10.4708 5.58376C10.3698 5.58376 10.2689 5.53299 10.1679 5.48223C10.0669 5.43146 9.96597 5.32994 9.865 5.22842L9.76403 5.12691C9.61259 4.97462 9.41065 4.87309 9.25921 4.7208C9.05727 4.56853 8.85534 4.46701 8.6534 4.31472C8.45148 4.2132 8.19906 4.11168 7.94664 4.01016C7.69423 3.95939 7.44181 3.90863 7.18941 3.90863C6.93699 3.90863 6.68457 3.90862 6.48264 3.95939C6.2807 4.01014 6.07877 4.06092 5.87685 4.16244C5.72539 4.26396 5.57394 4.36549 5.47298 4.51776C5.37201 4.67005 5.32153 4.8731 5.32153 5.07614C5.32153 5.27919 5.37201 5.48224 5.47298 5.63453C5.57394 5.7868 5.72539 5.93909 5.97781 6.09138C6.17974 6.24365 6.48264 6.34517 6.78554 6.49746C7.08844 6.64974 7.4923 6.75127 7.89617 6.90356C8.70389 7.15736 9.46114 7.46193 10.1679 7.76649C10.8747 8.07106 11.4805 8.42639 11.9853 8.83249C12.4901 9.23857 12.894 9.74619 13.1464 10.3046C13.4492 10.8629 13.5502 11.5736 13.5502 12.3857C13.5502 13.2487 13.3989 14.0102 13.0455 14.7208C12.6921 15.4315 12.2377 16.0406 11.5814 16.4975C10.9756 17.005 10.2689 17.3604 9.41065 17.665C8.60293 17.9188 7.69423 18.071 6.73505 18.071C5.82636 18.071 4.96814 17.9188 4.10993 17.5635C3.25172 17.2589 2.44399 16.802 1.68675 16.2437C1.38385 16.0406 1.13143 15.7868 0.879019 15.5837C0.677087 15.3807 0.475155 15.1777 0.374188 15.0762L0.323705 15.0254C0.323705 15.0254 0.323705 15.0254 0.323705 14.9746C0.323705 14.9746 0.323705 14.9746 0.323705 14.9238C0.121773 14.7208 0.0712891 14.5685 0.0712891 14.4671C0.0712891 14.3147 0.172255 14.1624 0.323705 14.0102L2.34303 12.0812C2.49448 11.9796 2.64593 11.9289 2.7469 11.9289C2.79737 11.9289 2.89834 11.9289 2.94882 11.9796C3.10028 11.9796 3.20124 12.0812 3.3022 12.1828Z" fill="#EE452E"/>
<path d="M16.4277 0.863083C16.4277 0.710799 16.4782 0.60927 16.5791 0.507748C16.6801 0.406224 16.7811 0.355469 16.983 0.355469H20.4158C20.5168 0.355469 20.6683 0.406224 20.7692 0.507748C20.9207 0.60927 20.9712 0.710799 20.9712 0.863083V7.259C21.8293 6.14226 22.6371 5.07627 23.4954 4.01029C24.3031 2.9443 25.1613 1.87831 25.969 0.761555C26.07 0.60927 26.1709 0.507744 26.3224 0.456982C26.4738 0.35546 26.5748 0.355469 26.7263 0.355469H31.1687C31.3707 0.355469 31.4716 0.406224 31.4716 0.507748C31.4716 0.60927 31.4211 0.660035 31.3202 0.812319L25.767 8.12196L31.8755 17.3097C31.9765 17.4621 32.027 17.5636 32.027 17.6143C32.027 17.7159 31.926 17.7666 31.7746 17.7666H27.3825C27.231 17.7666 27.1302 17.7159 26.9787 17.6651C26.8272 17.5636 26.7263 17.4621 26.6758 17.3605C26.2719 16.8022 25.868 16.2438 25.5651 15.7362C25.2623 15.2285 24.9089 14.721 24.5555 14.2133C24.2526 13.7057 23.8992 13.1981 23.5964 12.6397C23.2934 12.1321 22.8895 11.5737 22.5361 10.9646L21.0722 12.6905V17.259C21.0722 17.6143 20.8702 17.7666 20.5168 17.7666H16.9325C16.5791 17.7666 16.4277 17.6143 16.4277 17.259V0.863083Z" fill="#EE452E"/>
<path d="M34.3496 0.863083C34.3496 0.710799 34.4001 0.60927 34.5011 0.507748C34.602 0.406224 34.703 0.355469 34.905 0.355469H38.3378C38.4388 0.355469 38.5902 0.406224 38.6912 0.507748C38.8427 0.60927 38.8931 0.710799 38.8931 0.863083V17.259C38.8931 17.6143 38.6912 17.7666 38.3378 17.7666H34.905C34.5516 17.7666 34.4001 17.6143 34.4001 17.259V0.863083H34.3496Z" fill="#EE452E"/>
<path d="M42.2248 0.863083C42.2248 0.710799 42.2753 0.60927 42.3763 0.507748C42.4772 0.406224 42.5782 0.355469 42.7801 0.355469H46.2635C46.4149 0.355469 46.5159 0.406224 46.6169 0.507748C46.7178 0.60927 46.7683 0.710799 46.7683 0.863083V13.6549H53.1796C53.3311 13.6549 53.432 13.7057 53.533 13.8072C53.634 13.9088 53.6845 14.0103 53.6845 14.2133V17.3097C53.6845 17.4621 53.634 17.5636 53.533 17.6651C53.432 17.7666 53.3311 17.8174 53.1291 17.8174H42.6792C42.3258 17.8174 42.1743 17.6651 42.1743 17.3097V0.863083H42.2248Z" fill="#EE452E"/>
<path d="M56.0064 0.863083C56.0064 0.710799 56.0569 0.60927 56.1579 0.507748C56.2589 0.406224 56.3598 0.355469 56.5618 0.355469H60.0451C60.1966 0.355469 60.2975 0.406224 60.3985 0.507748C60.4995 0.60927 60.55 0.710799 60.55 0.863083V13.6549H66.9614C67.1128 13.6549 67.2138 13.7057 67.3148 13.8072C67.4156 13.9088 67.4661 14.0103 67.4661 14.2133V17.3097C67.4661 17.4621 67.4156 17.5636 67.3148 17.6651C67.2138 17.7666 67.1128 17.8174 66.9109 17.8174H56.4608C56.1074 17.8174 55.9561 17.6651 55.9561 17.3097V0.863083H56.0064Z" fill="#EE452E"/>
<path d="M70.1924 0.913833C70.1924 0.761548 70.2429 0.60927 70.3439 0.507748C70.4449 0.406224 70.5458 0.355469 70.7478 0.355469H82.3588C82.5103 0.355469 82.6617 0.406224 82.7627 0.507748C82.8637 0.60927 82.9142 0.761548 82.9142 0.913833V3.80724C82.9142 3.95952 82.8637 4.06104 82.7627 4.21333C82.6617 4.31485 82.5103 4.41638 82.3588 4.41638H74.7863V7.30977H80.5414C80.6929 7.30977 80.7939 7.36054 80.8948 7.4113C80.9958 7.46207 81.0463 7.61435 81.0463 7.76662V10.3047C81.0463 10.4062 80.9958 10.5077 80.8948 10.6093C80.7939 10.7108 80.6929 10.7616 80.5414 10.7616H74.6855V13.7565H82.5609C82.9142 13.7565 83.0656 13.9596 83.0656 14.3149V17.259C83.0656 17.3605 83.0151 17.4113 82.9646 17.4621C82.9142 17.6651 82.7627 17.7666 82.5104 17.7666H70.6973C70.5458 17.7666 70.3944 17.7159 70.3439 17.6651C70.2429 17.5636 70.1924 17.4621 70.1924 17.259V0.913833Z" fill="#EE452E"/>
<path d="M100.987 9.08643C100.987 9.89861 100.886 10.7108 100.684 11.4722C100.482 12.2337 100.179 12.8936 99.7754 13.5535C99.3715 14.2133 98.9171 14.7717 98.3618 15.3301C97.8065 15.8377 97.2007 16.2945 96.5444 16.6499C95.8882 17.0052 95.1814 17.3097 94.4242 17.5129C93.6669 17.7159 92.8591 17.8174 92.0514 17.8174H86.2964C86.1449 17.8174 86.0439 17.7666 85.943 17.7159C85.842 17.6651 85.7915 17.5129 85.7915 17.3097V0.913833C85.7915 0.761548 85.842 0.60927 85.943 0.507748C86.0439 0.406224 86.1449 0.355469 86.3468 0.355469H92.1019C92.9096 0.355469 93.7174 0.45698 94.4747 0.660026C95.2319 0.863071 95.9387 1.16765 96.5949 1.52298C97.2512 1.87831 97.857 2.33516 98.4123 2.89354C98.9676 3.40115 99.422 4.01029 99.8259 4.67019C100.23 5.3301 100.533 6.04074 100.735 6.7514C100.886 7.51281 100.987 8.27424 100.987 9.08643ZM90.2845 4.56866V13.6042H91.2437C91.4456 13.6042 91.5971 13.6042 91.7485 13.6042C91.9 13.6042 92.1019 13.5535 92.2534 13.5535C92.8591 13.5027 93.364 13.3503 93.8688 13.1474C94.3736 12.8936 94.828 12.5889 95.1814 12.1829C95.5348 11.7768 95.8377 11.3199 96.0901 10.8123C96.2921 10.3047 96.3929 9.69557 96.3929 9.08643C96.3929 8.42653 96.2919 7.81739 96.0396 7.25901C95.7872 6.70063 95.4843 6.24378 95.0299 5.8377C94.626 5.4316 94.1213 5.12704 93.5659 4.87323C93.0106 4.67019 92.4047 4.51789 91.7485 4.51789H90.2845V4.56866Z" fill="#EE452E"/>
<path d="M0.97998 39.6954V20.609H8.04761C9.30969 20.609 10.5718 21.1673 11.4805 22.0811C12.3892 22.944 12.9445 24.2131 12.9445 25.5328C12.9445 26.2943 12.7426 27.0557 12.4396 27.6648C12.9445 27.9694 13.4493 28.3247 13.8027 28.7308C15.0142 29.9491 15.721 31.5227 15.721 33.2487C15.721 34.9745 15.0647 36.5988 13.8027 37.8172C13.1968 38.4263 12.5406 38.8831 11.7329 39.1877C10.9756 39.543 10.1174 39.6954 9.30969 39.6954H0.97998ZM7.99713 26.8526C8.75438 26.8526 9.30969 26.2435 9.30969 25.5328C9.30969 24.8222 8.70389 24.2131 7.99713 24.1623H4.5138V26.8526H7.99713ZM9.2592 36.1927C10.8242 36.142 12.1367 34.8222 12.1367 33.2487C12.1367 31.675 10.8747 30.3552 9.30969 30.3552H4.5138V36.1927H9.2592Z" fill="#231F20"/>
<path d="M16.8823 30.0508C16.8823 24.5177 21.3249 20.0508 26.8275 20.0508C32.3302 20.0508 36.7727 24.5177 36.7727 30.0508C36.7727 35.5331 32.3302 40 26.8275 40C21.3249 40 16.8823 35.5331 16.8823 30.0508ZM20.4666 30.0508C20.4666 33.6041 23.3442 36.4467 26.8275 36.4467C30.3108 36.4467 33.1883 33.5533 33.1883 30.0508C33.1883 26.4975 30.3108 23.6041 26.8275 23.6041C23.2937 23.6041 20.4666 26.4467 20.4666 30.0508Z" fill="#231F20"/>
<path d="M42.5278 39.6954V24.1623H37.8833V20.609H50.7565V24.1623H46.1121V39.6954H42.5278Z" fill="#231F20"/>
<path d="M57.8744 39.6446C55.9056 39.2385 53.9872 38.274 52.3213 36.8019L51.8164 36.345L54.1387 33.6548L54.6435 34.1115C55.8551 35.1775 57.2181 35.8882 58.5812 36.1927H58.6316C59.0355 36.2943 59.4394 36.345 59.8433 36.345C60.4996 36.345 61.1053 36.1927 61.6102 35.9897C62.2665 35.7359 62.9732 35.1267 62.9732 34.0101C62.9732 33.4009 62.6703 32.9441 62.0646 32.5888C61.3073 32.1319 60.2977 31.8781 59.5909 31.7765C59.2879 31.7258 56.5619 31.1674 55.2998 30.4568C54.4921 29.9491 53.8358 29.2892 53.3814 28.5278C52.9271 27.7664 52.7252 26.9034 52.7252 25.9389C52.7252 24.9237 53.028 23.9085 53.6338 22.9441C54.2397 22.1826 54.9968 21.5228 55.9561 21.0659C56.9152 20.609 57.9754 20.3552 59.1365 20.3552C59.5909 20.3552 60.0452 20.406 60.5501 20.4567C62.317 20.7613 64.0334 21.5734 65.5479 22.8933L66.0526 23.2994L63.781 26.0405L63.2761 25.6344C61.5597 24.2131 60.0452 23.9085 59.086 23.9085C58.4803 23.9085 57.9249 24.0607 57.4201 24.2638C56.6629 24.6192 56.2085 25.2791 56.2085 25.8882C56.2085 26.4974 56.4104 26.8527 56.9152 27.208C57.4201 27.5634 58.1774 27.8171 59.4394 28.0709C59.5909 28.1217 59.7928 28.1725 60.0452 28.2233C61.1558 28.4262 62.6703 28.7816 63.68 29.3907C64.5886 29.8983 65.2954 30.5582 65.7498 31.3197C66.2042 32.0811 66.4565 32.9948 66.4565 33.9593C66.4565 35.1775 66.1537 36.2435 65.4974 37.1573C64.942 37.9187 64.1344 38.6294 63.0237 39.1369C62.115 39.6446 61.0548 39.8476 59.7423 39.8476C59.187 39.8983 58.5308 39.7968 57.8744 39.6446Z" fill="#231F20"/>
</g>
<defs>
<clipPath id="clip0">
<rect width="101" height="40" fill="white"/>
</clipPath>
</defs>
</svg>