<svg width="37" height="58" viewBox="0 0 37 58" fill="none" xmlns="http://www.w3.org/2000/svg">
<path d="M31.4897 57.9079C34.108 57.9079 36.2388 55.7776 36.2388 53.1593V53.148V46.8782V11.0296V4.75986C36.2388 2.13535 34.108 0 31.4897 0H4.74799C2.1297 0 0 2.13535 0 4.75986V11.0296V46.8782V53.148V53.1593C0 55.7776 2.1297 57.9079 4.74799 57.9079H31.4897ZM33.9225 45.7201H2.31631V12.1878H33.9225V45.7201ZM4.74799 55.5916C3.40661 55.5916 2.31631 54.4956 2.31631 53.148V48.0364H33.9225V53.148C33.9225 54.4956 32.8311 55.5916 31.4897 55.5916H4.74799ZM2.31631 4.75986C2.31631 3.41227 3.40661 2.31631 4.74799 2.31631H31.4897C32.831 2.31631 33.9225 3.41227 33.9225 4.75986V9.87147H2.31631V4.75986Z" fill="#F4442E"/>
<path d="M23.2762 4.93555H12.9614C12.3212 4.93555 11.8032 5.45411 11.8032 6.0937C11.8032 6.7333 12.3212 7.25186 12.9614 7.25186H23.2762C23.9164 7.25186 24.4344 6.7333 24.4344 6.0937C24.4344 5.45411 23.9164 4.93555 23.2762 4.93555Z" fill="#F4442E"/>
<path d="M18.9671 48.4411C17.6178 48.1159 16.2267 48.6011 15.3886 49.666C14.7247 50.5086 14.4906 51.6006 14.7462 52.6604C15.0436 53.8971 16.0344 54.889 17.2717 55.1865C17.5511 55.2538 17.8372 55.2883 18.1188 55.2883C19.1899 55.2883 20.1852 54.8048 20.8491 53.9627C21.513 53.1195 21.7471 52.0276 21.4915 50.9655C21.1941 49.7299 20.2022 48.7386 18.9671 48.4411ZM19.0293 52.5292C18.7466 52.8883 18.2862 53.0494 17.8146 52.9346C17.4267 52.8413 17.0919 52.5065 16.998 52.118C16.877 51.617 17.0783 51.2641 17.2084 51.0984C17.4301 50.8174 17.7614 50.6556 18.12 50.6556C18.2195 50.6556 18.3213 50.6681 18.4242 50.693C18.811 50.7863 19.1469 51.1222 19.2397 51.5084C19.3607 52.0106 19.1605 52.3635 19.0293 52.5292Z" fill="#F4442E"/>
<path d="M26.2926 30.3793C25.8402 30.8318 25.8402 31.5647 26.2926 32.0171C26.5188 32.2433 26.8151 32.3564 27.1114 32.3564C27.4078 32.3564 27.7041 32.2433 27.9303 32.0171C32.382 27.5654 32.382 20.3218 27.9292 15.8696C27.4767 15.4172 26.7439 15.4172 26.2915 15.8696C25.8391 16.322 25.839 17.0549 26.2915 17.5073C29.8406 21.0564 29.8406 26.8308 26.2926 30.3793Z" fill="#F4442E"/>
<path d="M8.30863 32.0159C8.53483 32.2421 8.83116 32.3552 9.12748 32.3552C9.42381 32.3552 9.72014 32.2421 9.94634 32.0159C10.3987 31.5635 10.3987 30.8306 9.94634 30.3782C6.39834 26.8297 6.39834 21.0558 9.94634 17.5073C10.3987 17.0549 10.3987 16.322 9.94634 15.8696C9.49393 15.4172 8.76103 15.4172 8.30863 15.8696C6.15518 18.023 4.96875 20.8901 4.96875 23.9427C4.96875 26.9953 6.15518 29.8625 8.30863 32.0159Z" fill="#F4442E"/>
<path d="M22.6767 29.5604C22.9029 29.7866 23.1992 29.8997 23.4956 29.8997C23.7919 29.8997 24.0882 29.7866 24.3144 29.5604C27.4123 26.4631 27.4123 21.4239 24.3144 18.3266C23.862 17.8742 23.1291 17.8742 22.6767 18.3266C22.2243 18.779 22.2243 19.5119 22.6767 19.9643C24.8709 22.1585 24.8709 25.7285 22.6767 27.9227C22.2243 28.3751 22.2243 29.108 22.6767 29.5604Z" fill="#F4442E"/>
<path d="M11.9231 29.5598C12.1493 29.786 12.4456 29.8991 12.742 29.8991C13.0383 29.8991 13.3346 29.786 13.5608 29.5598C14.0132 29.1073 14.0132 28.3744 13.5608 27.922C11.3667 25.7285 11.3667 22.1584 13.5608 19.9648C14.0132 19.5124 14.0132 18.7795 13.5608 18.3271C13.1084 17.8747 12.3755 17.8747 11.9231 18.3271C8.82641 21.4238 8.82641 26.463 11.9231 29.5598Z" fill="#F4442E"/>
<path d="M16.9594 27.6708V41.2224C16.9594 41.862 17.4773 42.3806 18.1175 42.3806C18.7577 42.3806 19.2757 41.862 19.2757 41.2224V27.6715C20.8714 27.1743 22.041 25.7009 22.041 23.9434C22.041 21.7803 20.2811 20.021 18.1186 20.021C15.9561 20.021 14.1963 21.7803 14.1963 23.9434C14.1963 25.7001 15.3648 27.1728 16.9594 27.6708ZM18.1186 22.3373C19.0042 22.3373 19.7247 23.0578 19.7247 23.9434C19.7247 24.8289 19.0042 25.5494 18.1186 25.5494C17.233 25.5494 16.5126 24.8289 16.5126 23.9434C16.5126 23.0578 17.233 22.3373 18.1186 22.3373Z" fill="#F4442E"/>
</svg>
