<svg width="40" height="68" viewBox="0 0 40 68" fill="none" xmlns="http://www.w3.org/2000/svg">
<path d="M2 10.6479H7.00558H10.2355H38.4562" stroke="#F4442E" stroke-width="2.5" stroke-miterlimit="10" stroke-linecap="round"/>
<path d="M38.4562 54.9519H2" stroke="#F4442E" stroke-width="2.5" stroke-miterlimit="10" stroke-linecap="round"/>
<path d="M2 14.1467V63.2496C2 64.7499 3.21688 65.9667 4.71717 65.9667H35.739C37.2401 65.9667 38.4562 64.7499 38.4562 63.2496V4.037C38.4562 2.5367 37.2401 1.31982 35.739 1.31982H4.71717C3.21688 1.31982 2 2.5367 2 4.037V14.1467Z" stroke="#F4442E" stroke-width="2.5" stroke-miterlimit="10" stroke-linecap="round"/>
<path d="M26.4142 5.63428H25.5776" stroke="#F4442E" stroke-width="2.5" stroke-miterlimit="10" stroke-linecap="round"/>
<path d="M22.3478 5.63428H17.2163" stroke="#F4442E" stroke-width="2.5" stroke-miterlimit="10" stroke-linecap="round"/>
<path d="M19.9479 62.762C21.247 62.762 22.3001 61.7089 22.3001 60.4098C22.3001 59.1107 21.247 58.0576 19.9479 58.0576C18.6488 58.0576 17.5957 59.1107 17.5957 60.4098C17.5957 61.7089 18.6488 62.762 19.9479 62.762Z" stroke="#F4442E" stroke-width="2.5" stroke-miterlimit="10" stroke-linecap="round"/>
<path d="M17.8379 25.864L11.8779 31.6843L17.8379 36.6616" stroke="#F4442E" stroke-width="2.5" stroke-miterlimit="10" stroke-linecap="round" stroke-linejoin="round"/>
<path d="M22.4043 25.864L28.3635 31.6843L22.4043 36.6616" stroke="#F4442E" stroke-width="2.5" stroke-miterlimit="10" stroke-linecap="round" stroke-linejoin="round"/>
</svg>
