<svg width="121" height="75" viewBox="0 0 121 75" fill="none" xmlns="http://www.w3.org/2000/svg">
<path d="M59.8437 74.0934C59.4335 74.0934 59.0506 73.984 58.695 73.7925L55.0574 71.6318C54.5103 71.331 54.7838 71.2215 54.9479 71.1668C55.6864 70.9207 55.8232 70.866 56.589 70.4284C56.6711 70.3737 56.7805 70.401 56.8625 70.4557L59.6523 72.1241C59.7617 72.1788 59.8984 72.1788 59.9805 72.1241L70.8935 65.8061C71.0029 65.7514 71.0576 65.642 71.0576 65.5052V52.8965C71.0576 52.7597 71.0029 52.6503 70.8935 52.5956L59.9805 46.305C59.8711 46.2503 59.7343 46.2503 59.6523 46.305L48.7393 52.5956C48.6299 52.6503 48.5752 52.7871 48.5752 52.8965V65.5052C48.5752 65.6146 48.6299 65.7514 48.7393 65.8061L51.7206 67.5292C53.3343 68.3497 54.3462 67.3924 54.3462 66.4352V53.9905C54.3462 53.8264 54.483 53.6623 54.6744 53.6623H56.0693C56.2334 53.6623 56.3975 53.7991 56.3975 53.9905V66.4352C56.3975 68.5959 55.2215 69.854 53.1701 69.854C52.5411 69.854 52.0488 69.854 50.6539 69.1702L47.782 67.5292C47.0709 67.1189 46.6333 66.3531 46.6333 65.5326V52.9239C46.6333 52.1033 47.0709 51.3375 47.782 50.9272L58.695 44.6092C59.3788 44.2263 60.3087 44.2263 60.9925 44.6092L71.9055 50.9272C72.6166 51.3375 73.0542 52.1033 73.0542 52.9239V65.5326C73.0542 66.3531 72.6166 67.1189 71.9055 67.5292L60.9925 73.8472C60.6369 74.0113 60.2267 74.0934 59.8437 74.0934ZM63.2079 65.4232C58.4215 65.4232 57.4369 63.2351 57.4369 61.3753C57.4369 61.2111 57.5736 61.047 57.7651 61.047H59.1873C59.3514 61.047 59.4882 61.1565 59.4882 61.3206C59.707 62.7701 60.3361 63.4813 63.2352 63.4813C65.5327 63.4813 66.5173 62.9616 66.5173 61.7308C66.5173 61.0197 66.2438 60.5 62.6609 60.1445C59.6796 59.8436 57.8198 59.1872 57.8198 56.8077C57.8198 54.5923 59.6796 53.2794 62.7976 53.2794C66.2985 53.2794 68.0216 54.4829 68.2404 57.1085C68.2404 57.1906 68.2131 57.2726 68.1584 57.3547C68.1037 57.4094 68.0216 57.4641 67.9396 57.4641H66.5173C66.3806 57.4641 66.2438 57.3547 66.2165 57.2179C65.8883 55.7136 65.0404 55.2213 62.7976 55.2213C60.2814 55.2213 59.9805 56.0965 59.9805 56.753C59.9805 57.5461 60.3361 57.7923 63.7276 58.2299C67.0917 58.6675 68.6781 59.2966 68.6781 61.6488C68.6507 64.0556 66.6814 65.4232 63.2079 65.4232Z" fill="#539E43"/>
<path d="M25.9833 24.7799C25.9833 24.2876 25.7098 23.8226 25.2722 23.5765L13.6754 16.9029C13.484 16.7935 13.2651 16.7388 13.0463 16.7114H12.9369C12.7181 16.7114 12.4993 16.7935 12.3079 16.9029L0.711121 23.5765C0.273508 23.8226 0 24.2876 0 24.7799L0.0273508 42.722C0.0273508 42.9682 0.164105 43.2144 0.382911 43.3238C0.601718 43.4605 0.875226 43.4605 1.06668 43.3238L7.95909 39.3852C8.3967 39.1391 8.67021 38.6741 8.67021 38.1818V29.7851C8.67021 29.2928 8.94372 28.8278 9.38133 28.5817L12.3079 26.8859C12.5267 26.7492 12.7728 26.6945 13.019 26.6945C13.2651 26.6945 13.5113 26.7492 13.7028 26.8859L16.6293 28.5817C17.0669 28.8278 17.3404 29.2928 17.3404 29.7851V38.1818C17.3404 38.6741 17.6139 39.1391 18.0515 39.3852L24.9439 43.3238C25.1627 43.4605 25.4363 43.4605 25.6551 43.3238C25.8739 43.2144 26.0106 42.9682 26.0106 42.722L25.9833 24.7799Z" fill="#333333"/>
<path d="M81.724 0.0820524C81.5052 -0.0273508 81.2317 -0.0273508 81.0402 0.0820524C80.8214 0.218807 80.6847 0.437613 80.6847 0.68377V18.4618C80.6847 18.6259 80.6026 18.79 80.4385 18.8994C80.2744 18.9815 80.1103 18.9815 79.9462 18.8994L77.047 17.231C76.6094 16.9849 76.0897 16.9849 75.6521 17.231L64.0554 23.932C63.6177 24.1781 63.3442 24.6431 63.3442 25.1354V38.5099C63.3442 39.0023 63.6177 39.4672 64.0554 39.7134L75.6521 46.4143C76.0897 46.6605 76.6094 46.6605 77.047 46.4143L88.6437 39.7134C89.0814 39.4672 89.3549 39.0023 89.3549 38.5099V5.1693C89.3549 4.64964 89.0814 4.18467 88.6437 3.93852L81.724 0.0820524ZM80.6573 34.1065C80.6573 34.2432 80.6026 34.3526 80.4932 34.4073L76.5273 36.7048C76.4179 36.7595 76.2812 36.7595 76.1718 36.7048L72.2059 34.4073C72.0965 34.3526 72.0418 34.2159 72.0418 34.1065V29.5115C72.0418 29.3748 72.0965 29.2654 72.2059 29.2107L76.1718 26.9132C76.2812 26.8585 76.4179 26.8585 76.5273 26.9132L80.4932 29.2107C80.6026 29.2654 80.6573 29.4021 80.6573 29.5115V34.1065Z" fill="#333333"/>
<path d="M120.316 29.4022C120.754 29.156 121 28.691 121 28.1987V24.944C121 24.4517 120.726 23.9867 120.316 23.7405L108.801 17.0669C108.364 16.8208 107.844 16.8208 107.406 17.0669L95.8098 23.7679C95.3721 24.014 95.0986 24.479 95.0986 24.9713V38.3459C95.0986 38.8382 95.3721 39.3032 95.8098 39.5493L107.324 46.1135C107.762 46.3597 108.282 46.3597 108.692 46.1135L115.666 42.2297C115.885 42.1203 116.022 41.8741 116.022 41.628C116.022 41.3818 115.885 41.1357 115.666 41.0263L104.015 34.3253C103.796 34.1885 103.659 33.9697 103.659 33.7236V29.5389C103.659 29.2928 103.796 29.0466 104.015 28.9372L107.653 26.8585C107.871 26.7218 108.145 26.7218 108.364 26.8585L112.001 28.9372C112.22 29.0739 112.357 29.2928 112.357 29.5389V32.821C112.357 33.0672 112.494 33.3133 112.713 33.4227C112.931 33.5595 113.205 33.5595 113.424 33.4227L120.316 29.4022Z" fill="#333333"/>
<path d="M107.926 28.773C108.008 28.7183 108.118 28.7183 108.2 28.773L110.415 30.0584C110.497 30.1132 110.552 30.1952 110.552 30.3046V32.8756C110.552 32.985 110.497 33.067 110.415 33.1217L108.2 34.4072C108.118 34.4619 108.008 34.4619 107.926 34.4072L105.711 33.1217C105.629 33.067 105.574 32.985 105.574 32.8756V30.3046C105.574 30.1952 105.629 30.1132 105.711 30.0584L107.926 28.773Z" fill="#539E43"/>
<mask id="mask0" mask-type="alpha" maskUnits="userSpaceOnUse" x="31" y="16" width="27" height="31">
<path d="M45.3751 17.1216C44.9375 16.8755 44.4178 16.8755 43.9802 17.1216L32.4655 23.7679C32.0279 24.014 31.7817 24.479 31.7817 24.9713V38.2912C31.7817 38.7835 32.0552 39.2484 32.4655 39.4946L43.9802 46.1408C44.4178 46.387 44.9375 46.387 45.3751 46.1408L56.8898 39.4946C57.3274 39.2484 57.5736 38.7835 57.5736 38.2912V24.9713C57.5736 24.479 57.3 24.014 56.8898 23.7679L45.3751 17.1216Z" fill="white"/>
</mask>
<g mask="url(#mask0)">
<path d="M45.3751 17.1216C44.9375 16.8755 44.4178 16.8755 43.9802 17.1216L32.4655 23.7679C32.0279 24.014 31.7817 24.479 31.7817 24.9713V38.2912C31.7817 38.7835 32.0552 39.2484 32.4655 39.4946L43.9802 46.1408C44.4178 46.387 44.9375 46.387 45.3751 46.1408L56.8898 39.4946C57.3274 39.2484 57.5736 38.7835 57.5736 38.2912V24.9713C57.5736 24.479 57.3 24.014 56.8898 23.7679L45.3751 17.1216Z" fill="url(#paint0_linear)"/>
<path d="M56.9171 23.7679L45.3477 17.1216C45.2383 17.0669 45.1015 17.0122 44.9921 16.9849L32.0278 39.1937C32.1372 39.3305 32.274 39.4399 32.4107 39.5219L43.9801 46.1682C44.3083 46.3596 44.6913 46.4143 45.0468 46.3049L57.2179 24.0414C57.1359 23.932 57.0265 23.8499 56.9171 23.7679Z" fill="url(#paint1_linear)"/>
<path fill-rule="evenodd" clip-rule="evenodd" d="M56.9443 39.4948C57.2725 39.3034 57.5187 38.9752 57.6281 38.6196L44.9373 16.9577C44.6091 16.903 44.2535 16.9304 43.9527 17.1219L32.4653 23.7408L44.8553 46.3325C45.0194 46.3052 45.2108 46.2505 45.3749 46.1684L56.9443 39.4948Z" fill="url(#paint2_linear)"/>
<path fill-rule="evenodd" clip-rule="evenodd" d="M56.9445 39.4946L45.4025 46.1409C45.2384 46.2229 45.0743 46.2776 44.8828 46.305L45.1016 46.7152L57.9018 39.3032V39.1391L57.5736 38.592C57.5189 38.975 57.2727 39.3032 56.9445 39.4946Z" fill="url(#paint3_linear)"/>
<path fill-rule="evenodd" clip-rule="evenodd" d="M56.9445 39.4946L45.4025 46.1409C45.2384 46.2229 45.0743 46.2776 44.8828 46.305L45.1016 46.7152L57.9018 39.3032V39.1391L57.5736 38.592C57.5189 38.975 57.2727 39.3032 56.9445 39.4946Z" fill="url(#paint4_linear)"/>
</g>
<defs>
<linearGradient id="paint0_linear" x1="49.3688" y1="22.0761" x2="36.7471" y2="41.9077" gradientUnits="userSpaceOnUse">
<stop stop-color="#41873F"/>
<stop offset="0.3288" stop-color="#418B3D"/>
<stop offset="0.6352" stop-color="#419637"/>
<stop offset="0.9319" stop-color="#3FA92D"/>
<stop offset="1" stop-color="#3FAE2A"/>
</linearGradient>
<linearGradient id="paint1_linear" x1="42.9292" y1="33.1911" x2="74.5382" y2="16.0181" gradientUnits="userSpaceOnUse">
<stop offset="0.1376" stop-color="#41873F"/>
<stop offset="0.4032" stop-color="#54A044"/>
<stop offset="0.7136" stop-color="#66B848"/>
<stop offset="0.9081" stop-color="#6CC04A"/>
</linearGradient>
<linearGradient id="paint2_linear" x1="31.361" y1="31.6319" x2="58.0053" y2="31.6319" gradientUnits="userSpaceOnUse">
<stop offset="0.0919165" stop-color="#6CC04A"/>
<stop offset="0.2864" stop-color="#66B848"/>
<stop offset="0.5968" stop-color="#54A044"/>
<stop offset="0.8624" stop-color="#41873F"/>
</linearGradient>
<linearGradient id="paint3_linear" x1="31.3612" y1="42.676" x2="58.0055" y2="42.676" gradientUnits="userSpaceOnUse">
<stop offset="0.0919165" stop-color="#6CC04A"/>
<stop offset="0.2864" stop-color="#66B848"/>
<stop offset="0.5968" stop-color="#54A044"/>
<stop offset="0.8624" stop-color="#41873F"/>
</linearGradient>
<linearGradient id="paint4_linear" x1="61.8873" y1="21.4465" x2="55.1373" y2="56.8166" gradientUnits="userSpaceOnUse">
<stop stop-color="#41873F"/>
<stop offset="0.3288" stop-color="#418B3D"/>
<stop offset="0.6352" stop-color="#419637"/>
<stop offset="0.9319" stop-color="#3FA92D"/>
<stop offset="1" stop-color="#3FAE2A"/>
</linearGradient>
</defs>
</svg>
