<svg width="67" height="73" viewBox="0 0 67 73" fill="none" xmlns="http://www.w3.org/2000/svg">
<path d="M15.9705 18.2437H41.0669C42.3217 18.2437 43.3484 17.217 43.3484 15.9622V7.40662C43.3484 6.1518 42.3217 5.12512 41.0669 5.12512H34.6787C34.0513 1.70288 30.8002 -0.521574 27.3779 0.105837C24.8112 0.562136 22.8149 2.55844 22.3586 5.12512H15.9705C14.7156 5.12512 13.689 6.1518 13.689 7.40662V15.9622C13.689 17.217 14.7156 18.2437 15.9705 18.2437ZM15.9705 7.40662H23.3853C24.0127 7.40662 24.5261 6.89328 24.5261 6.26587C24.5261 4.04141 26.2942 2.27326 28.5187 2.27326C30.7431 2.27326 32.5113 4.04141 32.5113 6.26587C32.5113 6.89328 33.0246 7.40662 33.652 7.40662H41.0669V15.9622H15.9705V7.40662Z" fill="#F4442E"/>
<path d="M28.5187 6.83618C29.1487 6.83618 29.6594 6.32545 29.6594 5.69543C29.6594 5.06542 29.1487 4.55469 28.5187 4.55469C27.8887 4.55469 27.3779 5.06542 27.3779 5.69543C27.3779 6.32545 27.8887 6.83618 28.5187 6.83618Z" fill="#F4442E"/>
<path d="M21.103 23.9474C21.103 24.5748 21.6164 25.0881 22.2438 25.0881H43.918C44.5454 25.0881 45.0587 24.5748 45.0587 23.9474C45.0587 23.32 44.5454 22.8066 43.918 22.8066H22.2438C21.6164 22.8066 21.103 23.32 21.103 23.9474Z" fill="#F4442E"/>
<path d="M13.5173 27.0286C13.9166 27.4279 14.544 27.4849 15.0003 27.1997L18.3655 24.9183C18.8788 24.576 19.0499 23.8345 18.6507 23.3212C18.3085 22.8079 17.567 22.6368 17.0536 23.036L14.6581 24.6331L14.4299 24.6901L13.9736 24.1768C13.5173 23.7205 12.8329 23.7205 12.3766 24.1197C11.9203 24.576 11.9203 25.2605 12.3195 25.7168L13.5173 27.0286Z" fill="#F4442E"/>
<path d="M43.918 28.5112H22.2438C21.6164 28.5112 21.103 29.0246 21.103 29.652C21.103 30.2794 21.6164 30.7927 22.2438 30.7927H43.918C44.5454 30.7927 45.0587 30.2794 45.0587 29.652C45.0587 29.0246 44.5454 28.5112 43.918 28.5112Z" fill="#F4442E"/>
<path d="M13.5173 32.7318C13.9166 33.131 14.544 33.1881 15.0003 32.9029L18.3655 30.6214C18.8788 30.2792 19.0499 29.5377 18.6507 29.0243C18.3085 28.511 17.567 28.3399 17.0536 28.7391L14.6581 30.3362L14.4299 30.3932L13.9736 29.8799C13.5173 29.4236 12.8329 29.4236 12.3766 29.8229C11.9203 30.2792 11.9203 30.9636 12.3195 31.4199L13.5173 32.7318Z" fill="#F4442E"/>
<path d="M45.0587 35.3551C45.0587 34.7277 44.5454 34.2144 43.918 34.2144H22.2438C21.6164 34.2144 21.103 34.7277 21.103 35.3551C21.103 35.9825 21.6164 36.4958 22.2438 36.4958H43.918C44.5454 36.4958 45.0587 35.9825 45.0587 35.3551Z" fill="#F4442E"/>
<path d="M13.5173 38.4349C13.9166 38.8341 14.544 38.8912 15.0003 38.606L18.3655 36.3245C18.8788 35.9823 19.0499 35.2408 18.6507 34.7275C18.3085 34.2141 17.567 34.043 17.0536 34.4423L14.6581 36.0393L14.4299 36.0964L13.9736 35.583C13.5173 35.1267 12.8329 35.1267 12.3766 35.526C11.9203 35.9823 11.9203 36.6667 12.3195 37.123L13.5173 38.4349Z" fill="#F4442E"/>
<path d="M13.5173 44.1395C13.9166 44.5387 14.544 44.5958 15.0003 44.3106L18.3655 42.0291C18.8788 41.6869 19.0499 40.9454 18.6507 40.4321C18.3085 39.9187 17.567 39.7476 17.0536 40.1469L14.6581 41.7439L14.4299 41.8009L13.9736 41.2876C13.5173 40.8313 12.8329 40.8313 12.3766 41.2306C11.9203 41.6869 11.9203 42.3713 12.3195 42.8276L13.5173 44.1395Z" fill="#F4442E"/>
<path d="M13.5173 49.8426C13.9166 50.2419 14.544 50.2989 15.0003 50.0137L18.3655 47.7322C18.8788 47.39 19.0499 46.6485 18.6507 46.1352C18.3085 45.6218 17.567 45.4507 17.0536 45.85L14.6581 47.447L14.4299 47.5041L13.9736 46.9907C13.5173 46.5344 12.8329 46.5344 12.3766 46.9337C11.9203 47.39 11.9203 48.0744 12.3195 48.5307L13.5173 49.8426Z" fill="#F4442E"/>
<path d="M13.5173 55.5472C13.9166 55.9465 14.544 56.0035 15.0003 55.7183L18.3655 53.4368C18.8788 53.0946 19.0499 52.3531 18.6507 51.8398C18.3085 51.3264 17.567 51.1553 17.0536 51.5546L14.6581 53.1516L14.4299 53.2087L13.9736 52.6953C13.5173 52.239 12.8329 52.239 12.3766 52.6383C11.9203 53.0946 11.9203 53.779 12.3195 54.2353L13.5173 55.5472Z" fill="#F4442E"/>
<path d="M13.5173 61.2503C13.9166 61.6496 14.544 61.7066 15.0003 61.4214L18.3655 59.1399C18.8788 58.7977 19.0499 58.0562 18.6507 57.5429C18.3085 57.0296 17.567 56.8584 17.0536 57.2577L14.6581 58.8547L14.4299 58.9118L13.9736 58.3985C13.5173 57.9422 12.8329 57.9422 12.3766 58.3414C11.9203 58.7977 11.9203 59.4822 12.3195 59.9385L13.5173 61.2503Z" fill="#F4442E"/>
<path d="M54.7554 11.3988V36.5523C55.4969 36.6093 56.2954 36.7234 57.0369 36.8945V11.3988C57.0369 9.51657 55.4969 7.97656 53.6146 7.97656H45.6294V10.2581H53.6146C54.242 10.2581 54.7554 10.7714 54.7554 11.3988Z" fill="#F4442E"/>
<path d="M54.7558 69.5769C54.7558 70.2043 54.2425 70.7176 53.6151 70.7176H3.42224C2.79483 70.7176 2.28149 70.2043 2.28149 69.5769V11.3988C2.28149 10.7714 2.79483 10.2581 3.42224 10.2581H11.4075V7.97656H3.42224C1.54001 7.97656 0 9.51657 0 11.3988V69.5769C0 71.4591 1.54001 72.9991 3.42224 72.9991H53.6151C55.4973 72.9991 57.0373 71.4591 57.0373 69.5769V65.7554C56.2959 65.9265 55.4973 66.0406 54.7558 66.0976V69.5769Z" fill="#F4442E"/>
<path d="M44.1461 39.9189C44.0891 39.9189 44.032 39.9189 43.918 39.9189H22.2438C21.6164 39.9189 21.103 40.4323 21.103 41.0597C21.103 41.6871 21.6164 42.2004 22.2438 42.2004H41.9217C42.6061 41.3449 43.2906 40.6034 44.1461 39.9189Z" fill="#F4442E"/>
<path d="M21.103 46.7628C21.103 47.3902 21.6164 47.9036 22.2438 47.9036H39.1839C39.355 47.105 39.6402 46.3636 39.9254 45.6221H22.2438C21.6164 45.6221 21.103 46.1354 21.103 46.7628Z" fill="#F4442E"/>
<path d="M22.2438 53.6067H38.9557C38.8416 52.8652 38.7846 52.0667 38.7846 51.3252H22.2438C21.6164 51.3252 21.103 51.8385 21.103 52.4659C21.103 53.0934 21.6164 53.6067 22.2438 53.6067Z" fill="#F4442E"/>
<path d="M22.2438 57.0298C21.6164 57.0298 21.103 57.5431 21.103 58.1705C21.103 58.7979 21.6164 59.3113 22.2438 59.3113H41.1231C40.6668 58.5698 40.2676 57.8283 39.9254 57.0298H22.2438Z" fill="#F4442E"/>
<path d="M50.1924 15.9633V36.896C50.9339 36.7248 51.7324 36.6108 52.4739 36.5537V15.9633C52.4739 14.081 50.9339 12.541 49.0516 12.541H45.6294V14.8225H49.0516C49.679 14.8225 50.1924 15.3358 50.1924 15.9633Z" fill="#F4442E"/>
<path d="M7.98474 14.8225H11.407V12.541H7.98474C6.10251 12.541 4.5625 14.081 4.5625 15.9633V65.0154C4.5625 66.8976 6.10251 68.4376 7.98474 68.4376H49.0516C50.5346 68.4376 51.8465 67.468 52.3028 66.0991C51.5042 66.042 50.7057 65.8709 49.9642 65.6998C49.7361 65.985 49.3939 66.1561 49.0516 66.1561H7.98474C7.35733 66.1561 6.84399 65.6428 6.84399 65.0154V15.9633C6.84399 15.3358 7.35733 14.8225 7.98474 14.8225Z" fill="#F4442E"/>
<path d="M53.6151 38.7783C46.6566 38.7783 41.0669 44.368 41.0669 51.3265C41.0669 58.2851 46.6566 63.8748 53.6151 63.8748C60.5737 63.8748 66.1633 58.2851 66.1633 51.3265C66.1633 44.425 60.5166 38.7783 53.6151 38.7783ZM53.6151 61.5933C47.9684 61.5933 43.3484 56.9732 43.3484 51.3265C43.3484 45.6798 47.9684 41.0598 53.6151 41.0598C59.2618 41.0598 63.8818 45.6798 63.8818 51.3265C63.8818 56.9732 59.2618 61.5933 53.6151 61.5933Z" fill="#F4442E"/>
<path d="M56.9233 48.1317L51.904 52.0103L50.4781 50.2992C50.0788 49.8429 49.3373 49.7288 48.881 50.128C48.4247 50.5273 48.3107 51.2688 48.7099 51.7251L50.8203 54.2347C51.2196 54.691 51.904 54.8051 52.4173 54.4058L58.2922 49.8429C58.8055 49.4436 58.8626 48.7591 58.5203 48.2458C58.1211 47.8466 57.3796 47.7325 56.9233 48.1317Z" fill="#F4442E"/>
</svg>