<svg width="65" height="65" viewBox="0 0 65 65" fill="none" xmlns="http://www.w3.org/2000/svg">
<path d="M61.0729 33.0417H58.6354C58.0937 31.5521 56.7396 30.4688 55.1146 30.4688H49.1562C47.5312 30.4688 46.1771 31.5521 45.6354 33.0417H43.1979C41.0312 33.0417 39.2708 34.8021 39.2708 36.9687V40.8958C38.7292 40.8958 38.1875 40.7604 37.6458 40.7604H16.3854C7.3125 40.8958 0 48.2083 0 57.2812V63.6458C0 64.4583 0.541667 65 1.35417 65C17.4687 65 35.6146 65 61.0729 65C63.2396 65 65 63.2396 65 61.0729V36.9687C65 34.8021 63.2396 33.0417 61.0729 33.0417ZM2.70833 62.2917V57.2812C2.70833 49.6979 8.80208 43.6042 16.3854 43.6042H37.9167C38.4583 43.6042 39 43.6042 39.5417 43.7396V61.2083C39.5417 61.6146 39.6771 62.0208 39.6771 62.4271H2.70833V62.2917ZM48.3438 34.125C48.3438 33.5833 48.75 33.1771 49.2917 33.1771H55.25C55.7917 33.1771 56.1979 33.5833 56.1979 34.125V34.3958C56.1979 34.9375 55.7917 35.3438 55.25 35.3438H49.2917C48.75 35.3438 48.3438 34.9375 48.3438 34.3958V34.125ZM62.2917 61.0729C62.2917 61.75 61.75 62.2917 61.0729 62.2917H44.2812H44.1458H43.3333C42.7917 62.1562 42.25 61.75 42.25 61.0729V36.9687C42.25 36.2917 42.7917 35.75 43.4687 35.75H45.9062C46.4479 37.1042 47.8021 38.1875 49.2917 38.1875H55.25C56.875 38.1875 58.0937 37.2396 58.6354 35.75H61.0729C61.75 35.75 62.2917 36.2917 62.2917 36.9687V61.0729Z" fill="#F4442E"/>
<path d="M58.3647 56.4688H46.1772C45.3647 56.4688 44.823 57.0104 44.823 57.8229C44.823 58.6354 45.3647 59.1771 46.1772 59.1771H58.3647C59.1772 59.1771 59.7188 58.6354 59.7188 57.8229C59.7188 57.0104 59.0417 56.4688 58.3647 56.4688Z" fill="#F4442E"/>
<path d="M58.3647 51.729H46.1772C45.3647 51.729 44.823 52.2707 44.823 53.0832C44.823 53.8957 45.3647 54.4373 46.1772 54.4373H58.3647C59.1772 54.4373 59.7188 53.8957 59.7188 53.0832C59.7188 52.2707 59.0417 51.729 58.3647 51.729Z" fill="#F4442E"/>
<path d="M50.9167 48.3439C51.1875 48.6147 51.4583 48.7502 51.8646 48.7502C52.2708 48.7502 52.5417 48.6147 52.8125 48.3439L57.1458 44.0106C57.6875 43.4689 57.6875 42.6564 57.1458 42.1147C56.6042 41.5731 55.7917 41.5731 55.25 42.1147L51.8646 45.5002L50.6458 44.2814C50.1042 43.7397 49.2917 43.7397 48.75 44.2814C48.2083 44.8231 48.2083 45.6356 48.75 46.1772L50.9167 48.3439Z" fill="#F4442E"/>
<path d="M43.1978 20.1771C43.1978 19.3646 42.6561 18.8229 41.8436 18.8229H41.3019C41.3019 18.5521 41.3019 18.1458 41.3019 17.875C41.3019 11.9167 37.6457 6.63542 32.0936 4.46875L32.229 3.25C32.229 2.30208 31.9582 1.48958 31.4165 0.8125C30.7394 0.270833 30.0623 0 29.3853 0H24.5103C23.8332 0 23.1561 0.270833 22.6144 0.8125C21.9373 1.48958 21.6665 2.30208 21.6665 3.25L21.8019 4.46875C16.2498 6.63542 12.5936 11.9167 12.5936 17.875C12.5936 18.1458 12.5936 18.5521 12.5936 18.8229H12.0519C11.2394 18.8229 10.6978 19.3646 10.6978 20.1771C10.6978 20.9896 11.2394 21.5312 12.0519 21.5312H13.9478C13.9478 21.6667 13.9478 21.8021 13.9478 22.0729C13.9478 29.3854 19.9061 38.4583 26.9478 38.4583C33.9894 38.4583 39.9478 29.5208 39.9478 22.0729C39.9478 21.9375 39.9478 21.8021 39.9478 21.5312H41.8436C42.5207 21.5312 43.1978 20.8542 43.1978 20.1771ZM24.5103 2.70833H29.3853C29.3853 2.70833 29.5207 2.84375 29.5207 3.11458L28.979 12.7292H25.1873L24.3748 3.11458C24.3748 2.84375 24.5103 2.70833 24.5103 2.70833ZM26.9478 35.6146C21.5311 35.6146 16.6561 28.0312 16.6561 21.9375C16.6561 21.8021 16.6561 21.6667 16.6561 21.3958H37.2394C37.2394 21.5312 37.2394 21.8021 37.2394 21.9375C37.2394 28.0312 32.3644 35.6146 26.9478 35.6146ZM38.5936 18.8229H15.3019C15.3019 18.5521 15.3019 18.1458 15.3019 17.875C15.3019 13.2708 18.0103 9.34375 22.0728 7.44792L22.479 13C22.6144 14.3542 23.6978 15.5729 25.1873 15.5729H29.1144C30.4686 15.5729 31.6873 14.4896 31.8228 13L32.229 7.44792C36.2915 9.34375 38.9998 13.4062 38.9998 17.875C38.5936 18.1458 38.5936 18.4167 38.5936 18.8229Z" fill="#F4442E"/>
</svg>
