<svg width="60" height="60" viewBox="0 0 60 60" fill="none" xmlns="http://www.w3.org/2000/svg">
<mask id="path-1-outside-1" maskUnits="userSpaceOnUse" x="0" y="0" width="60" height="60" fill="black">
<rect fill="white" width="60" height="60"/>
<path d="M59.0425 25.2662C59.0425 21.0037 55.7776 17.4668 51.5151 17.104C50.3362 11.1184 44.0784 7.30931 38.0928 9.12314C31.7444 -5.02472 10.4319 0.688838 11.2481 15.6529C5.53457 14.8367 1 19.2806 1 24.45C1 29.438 4.99042 33.4285 9.97845 33.4285H13.1527L9.79707 38.3258C9.70638 38.5072 9.61569 38.6886 9.61569 38.7793V46.2159C8.34601 46.5787 7.43909 47.7577 7.43909 49.1181C7.43909 50.8412 8.79947 52.2016 10.5226 52.2016C12.2457 52.2016 13.6061 50.8412 13.6061 49.1181C13.6061 47.7577 12.6992 46.5787 11.4295 46.2159V39.0513L15.3292 33.4285H23.2194V39.8675L19.3197 41.3186C18.9569 41.4093 18.7755 41.7721 18.7755 42.1348V52.2016C17.4152 52.7457 16.4175 53.834 16.4175 55.2851C16.4175 57.0082 17.7779 58.3686 19.5011 58.3686C21.2242 58.3686 22.5846 57.0082 22.5846 55.2851C22.5846 53.9247 21.6777 52.7457 20.408 52.383V42.8604L24.3077 41.4093C24.6705 41.3186 24.8519 40.9558 24.8519 40.5931V33.5191H32.2886V43.1324L28.5702 45.6718C28.2981 45.8532 28.2074 46.1253 28.2074 46.3973V53.4713C26.9378 53.834 26.0308 55.013 26.0308 56.3734C26.0308 58.0965 27.3912 59.4569 29.1144 59.4569C30.8375 59.4569 32.1979 58.0965 32.1979 56.3734C32.1979 55.013 31.2909 53.834 30.0213 53.4713V46.8508L33.8303 44.2207C34.1024 44.0394 34.1931 43.7673 34.1931 43.4952V33.4285H38.0021V40.5024C38.0021 40.8652 38.1835 41.2279 38.5463 41.3186L42.446 42.7697V52.2016C41.1763 52.5644 40.2694 53.7433 40.2694 55.1037C40.2694 56.8269 41.6298 58.1872 43.3529 58.1872C45.076 58.1872 46.4364 56.8269 46.4364 55.1037C46.4364 53.7433 45.5295 52.5644 44.2598 52.2016V42.2255C44.2598 41.8628 44.0784 41.5 43.7157 41.4093L39.8159 39.9582V33.5191H44.8947L48.7944 39.142V46.3066C47.5247 46.6694 46.6178 47.8484 46.6178 49.2088C46.6178 50.9319 47.9782 52.2923 49.7013 52.2923C51.4244 52.2923 52.7848 50.9319 52.7848 49.2088C52.7848 47.8484 51.8779 46.6694 50.6082 46.3066V38.8699C50.6082 38.6886 50.5175 38.5072 50.4268 38.4165L47.0713 33.5191H51.0617C55.3242 33.4285 59.0425 29.8008 59.0425 25.2662ZM11.883 49.2088C11.883 49.9343 11.2481 50.5691 10.5226 50.5691C9.79707 50.5691 9.16223 49.9343 9.16223 49.2088C9.16223 48.4832 9.79707 47.8484 10.5226 47.8484C11.2481 47.8484 11.883 48.4832 11.883 49.2088ZM20.8614 55.2851C20.8614 56.0106 20.2266 56.6455 19.5011 56.6455C18.7755 56.6455 18.1407 56.0106 18.1407 55.2851C18.1407 54.5596 18.7755 53.9247 19.5011 53.9247C20.2266 53.9247 20.8614 54.5596 20.8614 55.2851ZM30.384 56.3734C30.384 57.0989 29.7492 57.7338 29.0237 57.7338C28.2981 57.7338 27.6633 57.0989 27.6633 56.3734C27.6633 55.6479 28.2981 55.013 29.0237 55.013C29.7492 55.013 30.384 55.6479 30.384 56.3734ZM44.5319 55.2851C44.5319 56.0106 43.8971 56.6455 43.1715 56.6455C42.446 56.6455 41.8112 56.0106 41.8112 55.2851C41.8112 54.5596 42.446 53.9247 43.1715 53.9247C43.9877 53.9247 44.5319 54.5596 44.5319 55.2851ZM50.7896 49.2088C50.7896 49.9343 50.1548 50.5691 49.4292 50.5691C48.7037 50.5691 48.1596 49.9343 48.1596 49.2088C48.1596 48.4832 48.7944 47.8484 49.5199 47.8484C50.2455 47.8484 50.7896 48.4832 50.7896 49.2088ZM37.8207 26.1731V31.7053H24.9425V26.1731C24.9425 25.7197 24.5798 25.2662 24.0356 25.2662C23.5822 25.2662 23.1287 25.629 23.1287 26.1731V31.7053H10.2505C7.62048 31.7053 5.17181 30.4356 3.81143 28.259C0.455851 22.8176 5.2625 15.7436 11.9737 17.5574C12.2457 17.6481 12.5178 17.5574 12.7899 17.3761C12.9713 17.1947 13.1527 16.9226 13.062 16.5598C11.2481 2.41198 31.4723 -3.02951 36.7324 10.4835C36.8231 10.6649 37.0045 10.8463 37.1859 10.937C37.3673 11.0277 37.6393 11.0277 37.8207 10.937C43.2622 8.76038 49.0665 12.2973 49.792 17.9202C49.8827 18.3737 50.2455 18.6457 50.6989 18.6457C54.508 18.6457 57.5915 22.0013 57.138 25.8104C56.7752 29.0753 53.7824 31.5239 50.5175 31.5239H39.5439V25.9918C39.5439 25.5383 39.1811 25.0848 38.637 25.0848C38.2742 25.3569 37.8207 25.7197 37.8207 26.1731Z"/>
</mask>
<path d="M59.0425 25.2662C59.0425 21.0037 55.7776 17.4668 51.5151 17.104C50.3362 11.1184 44.0784 7.30931 38.0928 9.12314C31.7444 -5.02472 10.4319 0.688838 11.2481 15.6529C5.53457 14.8367 1 19.2806 1 24.45C1 29.438 4.99042 33.4285 9.97845 33.4285H13.1527L9.79707 38.3258C9.70638 38.5072 9.61569 38.6886 9.61569 38.7793V46.2159C8.34601 46.5787 7.43909 47.7577 7.43909 49.1181C7.43909 50.8412 8.79947 52.2016 10.5226 52.2016C12.2457 52.2016 13.6061 50.8412 13.6061 49.1181C13.6061 47.7577 12.6992 46.5787 11.4295 46.2159V39.0513L15.3292 33.4285H23.2194V39.8675L19.3197 41.3186C18.9569 41.4093 18.7755 41.7721 18.7755 42.1348V52.2016C17.4152 52.7457 16.4175 53.834 16.4175 55.2851C16.4175 57.0082 17.7779 58.3686 19.5011 58.3686C21.2242 58.3686 22.5846 57.0082 22.5846 55.2851C22.5846 53.9247 21.6777 52.7457 20.408 52.383V42.8604L24.3077 41.4093C24.6705 41.3186 24.8519 40.9558 24.8519 40.5931V33.5191H32.2886V43.1324L28.5702 45.6718C28.2981 45.8532 28.2074 46.1253 28.2074 46.3973V53.4713C26.9378 53.834 26.0308 55.013 26.0308 56.3734C26.0308 58.0965 27.3912 59.4569 29.1144 59.4569C30.8375 59.4569 32.1979 58.0965 32.1979 56.3734C32.1979 55.013 31.2909 53.834 30.0213 53.4713V46.8508L33.8303 44.2207C34.1024 44.0394 34.1931 43.7673 34.1931 43.4952V33.4285H38.0021V40.5024C38.0021 40.8652 38.1835 41.2279 38.5463 41.3186L42.446 42.7697V52.2016C41.1763 52.5644 40.2694 53.7433 40.2694 55.1037C40.2694 56.8269 41.6298 58.1872 43.3529 58.1872C45.076 58.1872 46.4364 56.8269 46.4364 55.1037C46.4364 53.7433 45.5295 52.5644 44.2598 52.2016V42.2255C44.2598 41.8628 44.0784 41.5 43.7157 41.4093L39.8159 39.9582V33.5191H44.8947L48.7944 39.142V46.3066C47.5247 46.6694 46.6178 47.8484 46.6178 49.2088C46.6178 50.9319 47.9782 52.2923 49.7013 52.2923C51.4244 52.2923 52.7848 50.9319 52.7848 49.2088C52.7848 47.8484 51.8779 46.6694 50.6082 46.3066V38.8699C50.6082 38.6886 50.5175 38.5072 50.4268 38.4165L47.0713 33.5191H51.0617C55.3242 33.4285 59.0425 29.8008 59.0425 25.2662ZM11.883 49.2088C11.883 49.9343 11.2481 50.5691 10.5226 50.5691C9.79707 50.5691 9.16223 49.9343 9.16223 49.2088C9.16223 48.4832 9.79707 47.8484 10.5226 47.8484C11.2481 47.8484 11.883 48.4832 11.883 49.2088ZM20.8614 55.2851C20.8614 56.0106 20.2266 56.6455 19.5011 56.6455C18.7755 56.6455 18.1407 56.0106 18.1407 55.2851C18.1407 54.5596 18.7755 53.9247 19.5011 53.9247C20.2266 53.9247 20.8614 54.5596 20.8614 55.2851ZM30.384 56.3734C30.384 57.0989 29.7492 57.7338 29.0237 57.7338C28.2981 57.7338 27.6633 57.0989 27.6633 56.3734C27.6633 55.6479 28.2981 55.013 29.0237 55.013C29.7492 55.013 30.384 55.6479 30.384 56.3734ZM44.5319 55.2851C44.5319 56.0106 43.8971 56.6455 43.1715 56.6455C42.446 56.6455 41.8112 56.0106 41.8112 55.2851C41.8112 54.5596 42.446 53.9247 43.1715 53.9247C43.9877 53.9247 44.5319 54.5596 44.5319 55.2851ZM50.7896 49.2088C50.7896 49.9343 50.1548 50.5691 49.4292 50.5691C48.7037 50.5691 48.1596 49.9343 48.1596 49.2088C48.1596 48.4832 48.7944 47.8484 49.5199 47.8484C50.2455 47.8484 50.7896 48.4832 50.7896 49.2088ZM37.8207 26.1731V31.7053H24.9425V26.1731C24.9425 25.7197 24.5798 25.2662 24.0356 25.2662C23.5822 25.2662 23.1287 25.629 23.1287 26.1731V31.7053H10.2505C7.62048 31.7053 5.17181 30.4356 3.81143 28.259C0.455851 22.8176 5.2625 15.7436 11.9737 17.5574C12.2457 17.6481 12.5178 17.5574 12.7899 17.3761C12.9713 17.1947 13.1527 16.9226 13.062 16.5598C11.2481 2.41198 31.4723 -3.02951 36.7324 10.4835C36.8231 10.6649 37.0045 10.8463 37.1859 10.937C37.3673 11.0277 37.6393 11.0277 37.8207 10.937C43.2622 8.76038 49.0665 12.2973 49.792 17.9202C49.8827 18.3737 50.2455 18.6457 50.6989 18.6457C54.508 18.6457 57.5915 22.0013 57.138 25.8104C56.7752 29.0753 53.7824 31.5239 50.5175 31.5239H39.5439V25.9918C39.5439 25.5383 39.1811 25.0848 38.637 25.0848C38.2742 25.3569 37.8207 25.7197 37.8207 26.1731Z" fill="#F4442E"/>
<path d="M59.0425 25.2662C59.0425 21.0037 55.7776 17.4668 51.5151 17.104C50.3362 11.1184 44.0784 7.30931 38.0928 9.12314C31.7444 -5.02472 10.4319 0.688838 11.2481 15.6529C5.53457 14.8367 1 19.2806 1 24.45C1 29.438 4.99042 33.4285 9.97845 33.4285H13.1527L9.79707 38.3258C9.70638 38.5072 9.61569 38.6886 9.61569 38.7793V46.2159C8.34601 46.5787 7.43909 47.7577 7.43909 49.1181C7.43909 50.8412 8.79947 52.2016 10.5226 52.2016C12.2457 52.2016 13.6061 50.8412 13.6061 49.1181C13.6061 47.7577 12.6992 46.5787 11.4295 46.2159V39.0513L15.3292 33.4285H23.2194V39.8675L19.3197 41.3186C18.9569 41.4093 18.7755 41.7721 18.7755 42.1348V52.2016C17.4152 52.7457 16.4175 53.834 16.4175 55.2851C16.4175 57.0082 17.7779 58.3686 19.5011 58.3686C21.2242 58.3686 22.5846 57.0082 22.5846 55.2851C22.5846 53.9247 21.6777 52.7457 20.408 52.383V42.8604L24.3077 41.4093C24.6705 41.3186 24.8519 40.9558 24.8519 40.5931V33.5191H32.2886V43.1324L28.5702 45.6718C28.2981 45.8532 28.2074 46.1253 28.2074 46.3973V53.4713C26.9378 53.834 26.0308 55.013 26.0308 56.3734C26.0308 58.0965 27.3912 59.4569 29.1144 59.4569C30.8375 59.4569 32.1979 58.0965 32.1979 56.3734C32.1979 55.013 31.2909 53.834 30.0213 53.4713V46.8508L33.8303 44.2207C34.1024 44.0394 34.1931 43.7673 34.1931 43.4952V33.4285H38.0021V40.5024C38.0021 40.8652 38.1835 41.2279 38.5463 41.3186L42.446 42.7697V52.2016C41.1763 52.5644 40.2694 53.7433 40.2694 55.1037C40.2694 56.8269 41.6298 58.1872 43.3529 58.1872C45.076 58.1872 46.4364 56.8269 46.4364 55.1037C46.4364 53.7433 45.5295 52.5644 44.2598 52.2016V42.2255C44.2598 41.8628 44.0784 41.5 43.7157 41.4093L39.8159 39.9582V33.5191H44.8947L48.7944 39.142V46.3066C47.5247 46.6694 46.6178 47.8484 46.6178 49.2088C46.6178 50.9319 47.9782 52.2923 49.7013 52.2923C51.4244 52.2923 52.7848 50.9319 52.7848 49.2088C52.7848 47.8484 51.8779 46.6694 50.6082 46.3066V38.8699C50.6082 38.6886 50.5175 38.5072 50.4268 38.4165L47.0713 33.5191H51.0617C55.3242 33.4285 59.0425 29.8008 59.0425 25.2662ZM11.883 49.2088C11.883 49.9343 11.2481 50.5691 10.5226 50.5691C9.79707 50.5691 9.16223 49.9343 9.16223 49.2088C9.16223 48.4832 9.79707 47.8484 10.5226 47.8484C11.2481 47.8484 11.883 48.4832 11.883 49.2088ZM20.8614 55.2851C20.8614 56.0106 20.2266 56.6455 19.5011 56.6455C18.7755 56.6455 18.1407 56.0106 18.1407 55.2851C18.1407 54.5596 18.7755 53.9247 19.5011 53.9247C20.2266 53.9247 20.8614 54.5596 20.8614 55.2851ZM30.384 56.3734C30.384 57.0989 29.7492 57.7338 29.0237 57.7338C28.2981 57.7338 27.6633 57.0989 27.6633 56.3734C27.6633 55.6479 28.2981 55.013 29.0237 55.013C29.7492 55.013 30.384 55.6479 30.384 56.3734ZM44.5319 55.2851C44.5319 56.0106 43.8971 56.6455 43.1715 56.6455C42.446 56.6455 41.8112 56.0106 41.8112 55.2851C41.8112 54.5596 42.446 53.9247 43.1715 53.9247C43.9877 53.9247 44.5319 54.5596 44.5319 55.2851ZM50.7896 49.2088C50.7896 49.9343 50.1548 50.5691 49.4292 50.5691C48.7037 50.5691 48.1596 49.9343 48.1596 49.2088C48.1596 48.4832 48.7944 47.8484 49.5199 47.8484C50.2455 47.8484 50.7896 48.4832 50.7896 49.2088ZM37.8207 26.1731V31.7053H24.9425V26.1731C24.9425 25.7197 24.5798 25.2662 24.0356 25.2662C23.5822 25.2662 23.1287 25.629 23.1287 26.1731V31.7053H10.2505C7.62048 31.7053 5.17181 30.4356 3.81143 28.259C0.455851 22.8176 5.2625 15.7436 11.9737 17.5574C12.2457 17.6481 12.5178 17.5574 12.7899 17.3761C12.9713 17.1947 13.1527 16.9226 13.062 16.5598C11.2481 2.41198 31.4723 -3.02951 36.7324 10.4835C36.8231 10.6649 37.0045 10.8463 37.1859 10.937C37.3673 11.0277 37.6393 11.0277 37.8207 10.937C43.2622 8.76038 49.0665 12.2973 49.792 17.9202C49.8827 18.3737 50.2455 18.6457 50.6989 18.6457C54.508 18.6457 57.5915 22.0013 57.138 25.8104C56.7752 29.0753 53.7824 31.5239 50.5175 31.5239H39.5439V25.9918C39.5439 25.5383 39.1811 25.0848 38.637 25.0848C38.2742 25.3569 37.8207 25.7197 37.8207 26.1731Z" stroke="#F4442E" mask="url(#path-1-outside-1)"/>
</svg>