<svg width="84" height="74" viewBox="0 0 84 74" fill="none" xmlns="http://www.w3.org/2000/svg">
<path d="M69.0652 23.9847C68.1711 23.681 67.2694 23.3997 66.361 23.141C66.5117 22.5349 66.651 21.9261 66.7789 21.3149C68.8258 11.4766 67.4874 3.55081 62.9171 0.941773C58.5352 -1.56052 51.3686 1.04852 44.1305 7.2851C43.4173 7.90104 42.7199 8.53473 42.039 9.18556C41.5831 8.7528 41.119 8.32844 40.6472 7.9127C33.0616 1.24361 25.4581 -1.56641 20.8926 1.05036C16.5148 3.55964 15.2181 11.0109 17.0609 20.3347C17.2442 21.258 17.4513 22.1766 17.6817 23.0895C16.6059 23.3921 15.5668 23.7145 14.5727 24.0576C5.67965 27.1275 0 31.9392 0 36.9297C0 42.0845 6.09676 47.2547 15.3601 50.3894C16.1112 50.6424 16.8686 50.8768 17.6315 51.0924C17.3837 52.076 17.1637 53.0662 16.9717 54.0618C15.2148 63.2237 16.5869 70.4983 20.9532 72.9921C25.4629 75.5669 33.0318 72.9203 40.4022 66.5413C40.9847 66.037 41.5695 65.5021 42.155 64.9415C42.8925 65.6461 43.6497 66.3301 44.4257 66.9929C51.5649 73.0756 58.6155 75.5319 62.9781 73.0315C67.4837 70.4489 68.9477 62.634 67.0465 53.1258C66.9016 52.3995 66.7324 51.6578 66.5428 50.9025C67.0744 50.7472 67.596 50.5867 68.1049 50.4196C77.7348 47.2606 84 42.1533 84 36.9297C84 31.9211 78.1374 27.077 69.0652 23.9847Z" fill="#53C1DE"/>
<path d="M66.7886 46.7278C66.3329 46.8784 65.865 47.0238 65.3884 47.1648C64.3331 43.8319 62.9089 40.2876 61.1667 36.6262C62.8296 33.0514 64.1985 29.5527 65.2242 26.2411C66.0768 26.4878 66.9048 26.7473 67.7025 27.0216C75.4174 29.6713 80.1231 33.5896 80.1231 36.6085C80.1231 39.8244 75.0407 43.9994 66.7889 46.7278H66.7886ZM63.3646 53.4979C64.1988 57.7031 64.318 61.5051 63.7653 64.4772C63.2687 67.1479 62.2703 68.9283 61.0357 69.6414C58.4084 71.159 52.7895 69.1864 46.7305 63.9835C46.0357 63.3871 45.3358 62.7502 44.634 62.0765C46.9832 59.5126 49.3309 56.532 51.6221 53.2222C55.6526 52.8654 59.4603 52.2819 62.9134 51.4856C63.0831 52.1704 63.2344 52.8415 63.3646 53.4979ZM28.7378 69.3793C26.1709 70.2839 24.1265 70.3096 22.8909 69.5987C20.261 68.0856 19.1681 62.2429 20.6591 54.4066C20.8364 53.4805 21.0394 52.5595 21.2678 51.6446C24.6826 52.3982 28.4626 52.9405 32.5027 53.2675C34.809 56.5062 37.2246 59.4831 39.659 62.0901C39.1416 62.5895 38.612 63.0761 38.0706 63.5495C34.8359 66.3711 31.5946 68.3724 28.7382 69.3793H28.7378ZM16.7123 46.7079C12.6471 45.3214 9.28995 43.5197 6.98875 41.5537C4.92111 39.7865 3.87695 38.0322 3.87695 36.6085C3.87695 33.5797 8.40298 29.7158 15.9515 27.0897C16.899 26.7616 17.8558 26.4611 18.8209 26.1889C19.8643 29.5748 21.2328 33.1151 22.8843 36.6951C21.2114 40.3284 19.8234 43.925 18.7704 47.3507C18.0792 47.1533 17.3929 46.939 16.7123 46.7079ZM20.7436 19.3278C19.1766 11.3376 20.217 5.31043 22.8356 3.79803C25.6249 2.18695 31.792 4.48428 38.2924 10.2434C38.7078 10.6116 39.1251 10.997 39.5431 11.3958C37.1213 13.9909 34.7278 16.9454 32.4414 20.1654C28.5205 20.528 24.7671 21.1104 21.3165 21.8906C21.104 21.0411 20.9129 20.1865 20.7436 19.3274V19.3278ZM56.7049 28.1883C55.8899 26.7836 55.0447 25.3965 54.1698 24.0281C56.83 24.3631 59.3784 24.8086 61.7714 25.3539C61.0531 27.6516 60.1576 30.0542 59.1031 32.5172C58.3327 31.0584 57.5331 29.6152 56.7049 28.1883ZM42.0399 13.9353C43.6825 15.711 45.3277 17.6939 46.9459 19.8451C43.6633 19.6903 40.3752 19.6895 37.0925 19.8429C38.7122 17.7116 40.3714 15.7316 42.0399 13.9353ZM27.2808 28.2126C26.4629 29.6282 25.6783 31.0625 24.9275 32.5146C23.8904 30.0601 23.0031 27.6468 22.2784 25.3163C24.6571 24.7851 27.1937 24.351 29.8366 24.0215C28.9519 25.3984 28.0997 26.7958 27.2808 28.2126ZM29.9126 49.4493C27.1823 49.1452 24.6073 48.7332 22.2294 48.2167C22.9654 45.845 23.8723 43.3798 24.9316 40.8726C25.6855 42.3257 26.4736 43.761 27.2952 45.1771C28.1335 46.6217 29.0062 48.0462 29.9126 49.4493ZM42.1384 59.5328C40.4504 57.7152 38.7668 55.7051 37.1224 53.5429C38.7185 53.6054 40.346 53.6371 42 53.6371C43.6995 53.6371 45.3793 53.5992 47.0326 53.5256C45.4092 55.7272 43.7699 57.7403 42.1384 59.5328ZM59.1371 40.7448C60.2513 43.2793 61.1907 45.7312 61.9367 48.0628C59.5193 48.6132 56.9097 49.0564 54.1598 49.3856C55.041 47.9916 55.8943 46.5803 56.7193 45.1525C57.5579 43.7013 58.364 42.2318 59.1371 40.7448ZM53.6341 43.3772C52.3712 45.5663 51.0373 47.7138 49.6345 49.8163C47.161 49.9927 44.6049 50.0836 42 50.0836C39.4059 50.0836 36.8822 50.003 34.4519 49.8458C33.0127 47.7481 31.6536 45.5969 30.3774 43.3967C29.1073 41.2082 27.9208 38.9723 26.8207 36.694C27.918 34.4149 29.1009 32.1779 30.3667 29.9875V29.9883C31.6322 27.7975 32.9806 25.6555 34.4091 23.5668C36.8885 23.3798 39.4306 23.2818 42.0004 23.2818C44.5816 23.2818 47.1271 23.3805 49.6058 23.569C51.0197 25.6545 52.3595 27.789 53.6226 29.9688C54.8928 32.1542 56.0915 34.3803 57.2166 36.6435C56.1031 38.9298 54.9082 41.1758 53.6344 43.3772H53.6341ZM60.9811 3.69236C63.7727 5.29902 64.8585 11.7776 63.1045 20.2736C62.9895 20.8271 62.8646 21.3784 62.7296 21.9274C59.271 21.1311 55.515 20.5383 51.5826 20.1702C49.2918 16.9152 46.9183 13.9556 44.5355 11.3939C45.1599 10.7933 45.7991 10.2082 46.4526 9.63927C52.6076 4.29431 58.36 2.18401 60.9811 3.69236Z" fill="white"/>
<path d="M41.9999 29.5999C46.2825 29.5999 49.7538 32.913 49.7538 36.9997C49.7538 41.0867 46.2825 44.3999 41.9999 44.3999C37.7178 44.3999 34.2461 41.0867 34.2461 36.9997C34.2461 32.913 37.7178 29.5999 41.9999 29.5999Z" fill="#53C1DE"/>
</svg>
