<svg width="48" height="48" viewBox="0 0 48 48" fill="none" xmlns="http://www.w3.org/2000/svg">
<path d="M24.0001 27.0003C27.3138 27.0003 30.0001 24.314 30.0001 21.0002C30.0001 17.6865 27.3138 15.0002 24.0001 15.0002C20.6863 15.0002 18 17.6865 18 21.0002C18 24.314 20.6863 27.0003 24.0001 27.0003Z" fill="#F4442E"/>
<path d="M24.0001 30.0003C21.6153 30.0073 19.3302 30.9578 17.6438 32.6441C15.9575 34.3305 15.007 36.6156 15 39.0004V48.0005H33.0002V39.0004C32.9932 36.6156 32.0427 34.3305 30.3564 32.6441C28.67 30.9578 26.3849 30.0073 24.0001 30.0003Z" fill="#F4442E"/>
<path d="M39.0006 24.0003C42.3143 24.0003 45.0006 21.3139 45.0006 18.0002C45.0006 14.6864 42.3143 12.0001 39.0006 12.0001C35.6868 12.0001 33.0005 14.6864 33.0005 18.0002C33.0005 21.3139 35.6868 24.0003 39.0006 24.0003Z" fill="#F4442E"/>
<path d="M39 27.0003C37.6911 26.9989 36.3977 27.2847 35.2112 27.8377C34.0248 28.3906 32.9741 29.1971 32.1333 30.2003C33.3547 31.3174 34.3294 32.677 34.9953 34.1924C35.6611 35.7077 36.0033 37.3453 36 39.0004V45.0005H48.0001V36.0004C47.9966 33.6145 47.0473 31.3274 45.3602 29.6403C43.6731 27.9532 41.3859 27.0038 39 27.0003Z" fill="#F4442E"/>
<path d="M9.00006 24.0003C12.3138 24.0003 15.0001 21.3139 15.0001 18.0002C15.0001 14.6864 12.3138 12.0001 9.00006 12.0001C5.68632 12.0001 3 14.6864 3 18.0002C3 21.3139 5.68632 24.0003 9.00006 24.0003Z" fill="#F4442E"/>
<path d="M9.0001 27.0003C6.61421 27.0038 4.32704 27.9532 2.63996 29.6403C0.952881 31.3274 0.00352682 33.6145 0 36.0004L0 45.0005H12.0001V39.0004C11.9968 37.3453 12.339 35.7077 13.0049 34.1924C13.6707 32.677 14.6455 31.3174 15.8668 30.2003C15.026 29.1971 13.9754 28.3906 12.7889 27.8377C11.6024 27.2847 10.3091 26.9989 9.0001 27.0003Z" fill="#F4442E"/>
<path d="M19.8802 12.6801L24.0002 10.5201L28.1203 12.6801L27.3336 8.09342L30.667 4.84005L26.0669 4.17338L24.0002 0L21.9335 4.17338L17.3335 4.84005L20.6669 8.09342L19.8802 12.6801Z" fill="#F4442E"/>
</svg>
