<svg width="48" height="57" viewBox="0 0 48 57" fill="none" xmlns="http://www.w3.org/2000/svg">
<path d="M23.866 12.7708C28.123 12.7708 31.9777 14.4971 34.766 17.2854C37.5542 20.0691 39.276 23.9238 39.276 28.1808C39.276 31.3125 38.345 34.2227 36.7408 36.6585C36.7182 36.6947 36.6956 36.7308 36.6685 36.7624C36.1081 37.5939 35.4709 38.3712 34.766 39.0762C31.9777 41.8644 28.123 43.5907 23.866 43.5907C19.6091 43.5907 15.7588 41.8644 12.9706 39.0762C12.2656 38.3757 11.633 37.603 11.0726 36.776C11.041 36.7353 11.0093 36.6901 10.9867 36.645V36.6404C9.38699 34.2137 8.45606 31.3034 8.45606 28.1808C8.45606 23.9238 10.1823 20.0691 12.9706 17.2854C15.7588 14.4971 19.6091 12.7708 23.866 12.7708ZM2.78014 6.10523C12.0216 7.15365 19.3153 5.51776 23.866 0C28.4167 5.51776 35.7104 7.15365 44.9519 6.10523C52.101 26.0297 45.6026 49.3299 23.866 56.3615C2.13392 49.3299 -4.36899 26.0297 2.78014 6.10523ZM4.72333 9.07425C1.65038 19.1291 2.02546 30.5668 7.30371 39.8038C11.0545 46.3699 16.8027 50.9387 23.866 53.4287C30.9338 50.9387 36.6775 46.3699 40.4328 39.8038C45.7111 30.5668 46.0816 19.1291 43.0087 9.07425C36.1217 9.54875 29.09 8.55456 23.866 3.98128C18.642 8.55456 11.6104 9.54875 4.72333 9.07425ZM34.7795 36.5726C33.817 36.1795 32.6284 35.8541 31.2998 35.6101C31.1733 35.8767 31.0377 36.1388 30.9022 36.4009C29.8131 38.4255 28.2902 40.2557 26.3334 41.7289C29.1443 41.2182 31.6614 39.8535 33.6 37.9148C34.0248 37.4945 34.418 37.0471 34.7795 36.5726ZM29.6007 35.3435C28.0552 35.1446 26.3831 35.0271 24.6885 35V40.8883C26.7672 39.492 28.3579 37.6708 29.4561 35.6236C29.5058 35.5333 29.5555 35.4384 29.6007 35.3435ZM23.0435 35C21.3534 35.0317 19.6814 35.1446 18.1359 35.348C18.1811 35.4429 18.2308 35.5333 18.2805 35.6236C19.3786 37.6708 20.9693 39.492 23.0435 40.8883V35ZM16.4367 35.6146C15.1126 35.8632 13.9241 36.184 12.957 36.5772C13.3186 37.0471 13.7117 37.4945 14.132 37.9148C16.0707 39.8535 18.5878 41.2182 21.4031 41.7289C19.4464 40.2557 17.9235 38.4255 16.8344 36.4009C16.6943 36.1433 16.5632 35.8812 16.4367 35.6146ZM12.0171 35.1943C13.0655 34.7334 14.3579 34.3628 15.804 34.0736C15.2211 32.4422 14.8867 30.7295 14.8053 29.0078H10.1236C10.2592 31.2582 10.9325 33.3641 12.0171 35.1943ZM17.4444 33.7934C19.2069 33.5358 21.1184 33.3912 23.0435 33.3596V29.0078H16.4457C16.5316 30.6391 16.866 32.257 17.4444 33.7934ZM24.6885 33.3596C26.6181 33.3867 28.5297 33.5313 30.2921 33.7889C30.8705 32.2524 31.2004 30.6346 31.2908 29.0078H24.6885V33.3596ZM31.9325 34.0691C33.3786 34.3583 34.6711 34.7334 35.715 35.1943C36.804 33.3641 37.4774 31.2582 37.6084 29.0078H32.9267C32.8454 30.7295 32.5155 32.4377 31.9325 34.0691ZM35.3986 20.6611C34.3999 21.122 33.1572 21.5016 31.7653 21.7908C32.4567 23.5713 32.8454 25.4603 32.9312 27.3628H37.6084C37.4638 24.8999 36.673 22.6088 35.3986 20.6611ZM30.1159 22.0846C28.4122 22.3422 26.5594 22.4868 24.6885 22.5229V27.3628H31.2908C31.2049 25.5552 30.8118 23.7657 30.1159 22.0846ZM23.0435 22.5184C21.1772 22.4868 19.3244 22.3376 17.6162 22.0801C16.9202 23.7611 16.5271 25.5552 16.4412 27.3628H23.0435V22.5184ZM15.9712 21.7863C14.5839 21.4971 13.3412 21.1175 12.3334 20.6566C11.0636 22.6088 10.2682 24.8999 10.1236 27.3628H14.8008C14.8867 25.4603 15.2753 23.5713 15.9712 21.7863ZM13.3366 19.3099C14.263 19.6985 15.3928 20.0149 16.6581 20.2589C16.7259 20.1278 16.7937 19.9968 16.866 19.8657C17.9461 17.8728 19.4509 16.0833 21.376 14.6372C18.5742 15.1524 16.0661 16.5126 14.132 18.4467C13.8563 18.7224 13.5897 19.0116 13.3366 19.3099ZM18.3618 20.5345C19.8395 20.7334 21.4348 20.8464 23.0435 20.878V15.4687C21.019 16.8154 19.4599 18.5642 18.3618 20.5345ZM24.6885 20.878C26.3018 20.8509 27.897 20.7379 29.3747 20.5391C28.2766 18.5688 26.7175 16.8154 24.6885 15.4687V20.878ZM31.0784 20.2634C32.3483 20.0194 33.478 19.703 34.3999 19.3144C34.1468 19.0161 33.8802 18.7224 33.6 18.4467C31.6704 16.5126 29.1623 15.1524 26.356 14.6372C28.2811 16.0833 29.786 17.8728 30.8705 19.8657C30.9428 19.9968 31.0106 20.1324 31.0784 20.2634Z" fill="#F4442E"/>
</svg>