<svg width="74" height="80" viewBox="0 0 74 80" fill="none" xmlns="http://www.w3.org/2000/svg">
<path fill-rule="evenodd" clip-rule="evenodd" d="M48.3315 10.0845C47.9859 10.1207 47.668 10.2904 47.4456 10.5573L39.6692 19.8693L28.5657 14.7901C28.3028 14.6746 28.0095 14.6471 27.7297 14.7116C27.4498 14.7762 27.1983 14.9291 27.0125 15.1481C26.8266 15.3671 26.7165 15.6404 26.6984 15.927C26.6803 16.2136 26.7552 16.4985 26.912 16.7391L33.2315 26.2873L24.0574 33.9259C23.8401 34.1104 23.6876 34.3596 23.6223 34.6371C23.5571 34.9146 23.5824 35.2059 23.6947 35.468C23.807 35.73 24.0003 35.9489 24.2463 36.093C24.4923 36.2371 24.7779 36.2988 25.0614 36.2687L37.6414 34.6937L43.9413 45.6988C44.0899 45.9493 44.3164 46.1444 44.5863 46.254C44.8562 46.3637 45.1545 46.3819 45.4357 46.306C45.7169 46.2301 45.9656 46.0643 46.1437 45.8338C46.3218 45.6033 46.4195 45.3207 46.4219 45.0294V32.7644L58.7263 31.2288C59.0131 31.1883 59.279 31.0557 59.4837 30.8507C59.6884 30.6457 59.8207 30.3794 59.8608 30.0925C59.9008 29.8056 59.8463 29.5136 59.7056 29.2604C59.5648 29.0072 59.3455 28.8066 59.0807 28.6891L48.2331 24.0233L49.7884 11.5811C49.8139 11.3819 49.7941 11.1796 49.7305 10.9892C49.6669 10.7988 49.5611 10.6252 49.4211 10.4814C49.281 10.3375 49.1103 10.2273 48.9216 10.1587C48.733 10.09 48.5313 10.0647 48.3315 10.0849L48.3315 10.0845ZM46.5597 15.7741L45.4572 24.6924C45.4205 24.9815 45.4796 25.2748 45.6253 25.5272C45.7711 25.7797 45.9956 25.9774 46.2644 26.0901L53.5289 29.2007L44.9257 30.2638C44.6051 30.3055 44.3105 30.4623 44.0969 30.7049C43.8832 30.9476 43.765 31.2595 43.7641 31.5828V40.0089L39.5314 32.6066C39.4008 32.3739 39.2035 32.1857 38.9648 32.0664C38.7261 31.9471 38.4572 31.902 38.1927 31.9372L29.2548 33.0594L35.8499 27.5667C36.0996 27.3565 36.2635 27.0621 36.3106 26.7392C36.3578 26.4163 36.2849 26.0873 36.1059 25.8145L31.696 19.1406L39.492 22.704C39.7573 22.8251 40.0549 22.856 40.3393 22.7919C40.6238 22.7279 40.8794 22.5725 41.067 22.3493L46.5597 15.7738L46.5597 15.7741Z" fill="#F4442E"/>
<path fill-rule="evenodd" clip-rule="evenodd" d="M37.8508 32.6529C37.635 32.6858 37.4306 32.7713 37.2556 32.9017C37.0805 33.0321 36.9401 33.2034 36.8468 33.4007L14.1673 78.051C14.0871 78.2074 14.0386 78.3781 14.0244 78.5533C14.0102 78.7285 14.0307 78.9047 14.0846 79.0719C14.1385 79.2392 14.2249 79.3942 14.3387 79.5281C14.4525 79.662 14.5916 79.7722 14.7481 79.8523C14.9045 79.9325 15.0751 79.9812 15.2503 79.9954C15.4255 80.0096 15.6017 79.989 15.769 79.9351C15.9363 79.8811 16.0913 79.7948 16.2252 79.681C16.3591 79.5672 16.4693 79.428 16.5494 79.2716L39.2092 34.6016C39.325 34.3847 39.3785 34.1404 39.3639 33.895C39.3494 33.6496 39.2673 33.4128 39.1268 33.2112C38.9862 33.0095 38.7927 32.8508 38.5675 32.7522C38.3424 32.6537 38.0943 32.6191 37.8508 32.6526L37.8508 32.6529Z" fill="#F4442E"/>
<path fill-rule="evenodd" clip-rule="evenodd" d="M11.3059 0.00753662C11.0643 0.0318833 10.834 0.121808 10.6397 0.267468C10.4454 0.413127 10.2946 0.609 10.2035 0.834086L7.03384 8.76798L0.753662 11.8982C0.527833 12.0073 0.33733 12.178 0.204022 12.3904C0.0707127 12.6028 0 12.8484 0 13.0991C0 13.3499 0.0707127 13.5958 0.204022 13.8082C0.33733 14.0206 0.527833 14.191 0.753662 14.3L7.03384 17.4303L10.2035 25.3642C10.3018 25.613 10.4726 25.8265 10.6938 25.9769C10.915 26.1274 11.1763 26.2077 11.4437 26.2077C11.7112 26.2077 11.9725 26.1274 12.1937 25.9769C12.4149 25.8265 12.5857 25.613 12.684 25.3642L15.8537 17.4303L22.1338 14.3C22.3597 14.191 22.5502 14.0206 22.6835 13.8082C22.8168 13.5958 22.8875 13.3499 22.8875 13.0991C22.8875 12.8484 22.8168 12.6028 22.6835 12.3904C22.5502 12.178 22.3597 12.0073 22.1338 11.8982L15.8537 8.76798L12.684 0.834086C12.5754 0.565224 12.3821 0.339098 12.1335 0.18995C11.8848 0.0408019 11.5943 -0.0232469 11.3059 0.00753662ZM11.4437 4.90962L13.57 10.2251C13.6909 10.5339 13.9225 10.7866 14.2196 10.9339L18.5508 13.0994L14.2196 15.265C13.9225 15.4122 13.6909 15.665 13.57 15.9738L11.4437 21.2893L9.31754 15.9738C9.20144 15.6684 8.97726 15.4161 8.68756 15.265L4.3564 13.0994L8.68756 10.9339C8.97726 10.7828 9.20144 10.5305 9.31754 10.2251L11.4437 4.90962Z" fill="#F4442E"/>
<path fill-rule="evenodd" clip-rule="evenodd" d="M56.9236 55.4604C56.6646 55.4541 56.4094 55.5233 56.1891 55.6597C55.9688 55.7961 55.7931 55.9938 55.6833 56.2285L53.0846 61.7802L47.9463 63.9852C47.7094 64.0894 47.508 64.2603 47.3666 64.477C47.2252 64.6938 47.1499 64.947 47.1499 65.2058C47.1499 65.4646 47.2252 65.7178 47.3666 65.9345C47.508 66.1512 47.7094 66.3221 47.9463 66.4264L53.0846 68.6313L55.6833 74.1831C55.7924 74.4089 55.9629 74.5995 56.1753 74.7328C56.3877 74.8661 56.6334 74.9367 56.8842 74.9367C57.135 74.9367 57.3807 74.8661 57.5931 74.7328C57.8055 74.5995 57.9761 74.4089 58.0851 74.1831L60.6838 68.6313L65.8221 66.4264C66.059 66.3221 66.2604 66.1512 66.4018 65.9345C66.5432 65.7178 66.6185 65.4646 66.6185 65.2058C66.6185 64.947 66.5432 64.6938 66.4018 64.477C66.2604 64.2603 66.059 64.0894 65.8221 63.9852L60.6838 61.7799L58.0851 56.2281C57.9811 56.0055 57.8175 55.8158 57.6126 55.6803C57.4076 55.5448 57.1692 55.4686 56.9236 55.46V55.4604ZM56.8842 59.949L58.4788 63.3746C58.6212 63.6683 58.8664 63.8998 59.1679 64.0248L61.9241 65.2061L59.1679 66.3873C58.8664 66.5124 58.6212 66.7435 58.4788 67.0373L56.8842 70.4628L55.2895 67.0373C55.1471 66.7435 54.902 66.5124 54.6005 66.3873L51.8443 65.2061L54.6005 64.0248C54.902 63.8998 55.1471 63.6683 55.2895 63.3746L56.8842 59.949Z" fill="#F4442E"/>
<path d="M6.39808 30.2607C3.81942 30.2607 1.69286 32.3681 1.69287 34.9463C1.69286 37.5246 3.81942 39.6515 6.39808 39.6515C8.97674 39.6515 11.0836 37.5246 11.0836 34.9463C11.0836 32.3681 8.97674 30.2607 6.39808 30.2607ZM6.39808 32.9185C7.5368 32.9185 8.42586 33.8106 8.42585 34.9463C8.42586 36.0819 7.5368 36.974 6.39808 36.974C5.25937 36.974 4.37031 36.0821 4.37031 34.9463C4.37031 33.8108 5.25937 32.9185 6.39808 32.9185Z" fill="#F4442E"/>
<path d="M68.6494 42.0151C66.0707 42.0151 63.9639 44.1421 63.9639 46.7203C63.9639 49.2987 66.0707 51.4059 68.6494 51.4059C71.228 51.4059 73.3546 49.2987 73.3546 46.7203C73.3546 44.1421 71.228 42.0151 68.6494 42.0151ZM68.6494 44.6926C69.7881 44.6926 70.6969 45.5847 70.6968 46.7203C70.6969 47.8559 69.7881 48.7481 68.6494 48.7481C67.5107 48.7481 66.6216 47.8561 66.6216 46.7203C66.6216 45.5849 67.5107 44.6926 68.6494 44.6926Z" fill="#F4442E"/>
<path d="M39.2166 67.231C37.1027 67.231 35.358 68.9757 35.3579 71.0896C35.358 73.2037 37.1027 74.9482 39.2166 74.9483C41.3305 74.9482 43.0555 73.2037 43.0556 71.0896C43.0555 68.9757 41.3305 67.231 39.2166 67.231ZM39.2166 69.9084C39.8906 69.9084 40.3978 70.4185 40.3978 71.0896C40.3978 71.7609 39.8906 72.2708 39.2166 72.2708C38.5426 72.2708 38.0157 71.7608 38.0157 71.0896C38.0157 70.4183 38.5426 69.9084 39.2166 69.9084Z" fill="#F4442E"/>
<path d="M34.1575 3.34521C32.0435 3.34521 30.2988 5.08985 30.2988 7.20388C30.2989 9.31792 32.0436 11.0625 34.1575 11.0625C36.2714 11.0625 38.0161 9.31792 38.0162 7.20388C38.0162 5.08985 36.2715 3.34521 34.1575 3.34521ZM34.1575 6.02266C34.8315 6.02266 35.3584 6.53267 35.3584 7.20388C35.3584 7.8752 34.8315 8.38511 34.1575 8.38511C33.4835 8.38511 32.9763 7.8751 32.9763 7.20388C32.9763 6.53257 33.4835 6.02266 34.1575 6.02266Z" fill="#F4442E"/>
<path d="M69.4983 17.6396C67.3844 17.6396 65.6397 19.3844 65.6396 21.4983C65.6397 23.6122 67.3844 25.357 69.4983 25.357C71.6122 25.357 73.3569 23.6122 73.357 21.4983C73.3569 19.3844 71.6122 17.6396 69.4983 17.6396ZM69.4983 20.3171C70.1723 20.3171 70.6992 20.8271 70.6992 21.4983C70.6992 22.1696 70.1723 22.6795 69.4983 22.6795C68.8243 22.6795 68.3171 22.1695 68.3171 21.4983C68.3171 20.827 68.8243 20.3171 69.4983 20.3171Z" fill="#F4442E"/>
</svg>