<svg width="76" height="76" viewBox="0 0 76 76" fill="none" xmlns="http://www.w3.org/2000/svg">
<path d="M47.8065 0H1.22581C0.549161 0 0 0.549161 0 1.22581V74.7742C0 75.4508 0.549161 76 1.22581 76H47.8065C48.4831 76 49.0323 75.4508 49.0323 74.7742V1.22581C49.0323 0.549161 48.4831 0 47.8065 0ZM46.5806 73.5484H2.45161V2.45161H46.5806V73.5484Z" fill="#F4442E"/>
<path d="M8.58079 22.0643H13.484C14.1607 22.0643 14.7098 21.5152 14.7098 20.8385V15.9353C14.7098 15.2586 14.1607 14.7095 13.484 14.7095H8.58079C7.90414 14.7095 7.35498 15.2586 7.35498 15.9353V20.8385C7.35498 21.5152 7.90414 22.0643 8.58079 22.0643ZM9.80659 17.1611H12.2582V19.6127H9.80659V17.1611Z" fill="#F4442E"/>
<path d="M8.58079 31.871H13.484C14.1607 31.871 14.7098 31.3218 14.7098 30.6451V25.7419C14.7098 25.0653 14.1607 24.5161 13.484 24.5161H8.58079C7.90414 24.5161 7.35498 25.0653 7.35498 25.7419V30.6451C7.35498 31.3218 7.90414 31.871 8.58079 31.871ZM9.80659 26.9677H12.2582V29.4193H9.80659V26.9677Z" fill="#F4442E"/>
<path d="M8.58079 41.6776H13.484C14.1607 41.6776 14.7098 41.1284 14.7098 40.4518V35.5486C14.7098 34.8719 14.1607 34.3228 13.484 34.3228H8.58079C7.90414 34.3228 7.35498 34.8719 7.35498 35.5486V40.4518C7.35498 41.1284 7.90414 41.6776 8.58079 41.6776ZM9.80659 36.7744H12.2582V39.226H9.80659V36.7744Z" fill="#F4442E"/>
<path d="M8.58079 51.4837H13.484C14.1607 51.4837 14.7098 50.9346 14.7098 50.2579V45.3547C14.7098 44.6781 14.1607 44.1289 13.484 44.1289H8.58079C7.90414 44.1289 7.35498 44.6781 7.35498 45.3547V50.2579C7.35498 50.9346 7.90414 51.4837 8.58079 51.4837ZM9.80659 46.5805H12.2582V49.0321H9.80659V46.5805Z" fill="#F4442E"/>
<path d="M8.58079 61.2904H13.484C14.1607 61.2904 14.7098 60.7412 14.7098 60.0646V55.1614C14.7098 54.4847 14.1607 53.9355 13.484 53.9355H8.58079C7.90414 53.9355 7.35498 54.4847 7.35498 55.1614V60.0646C7.35498 60.7412 7.90414 61.2904 8.58079 61.2904ZM9.80659 56.3872H12.2582V58.8388H9.80659V56.3872Z" fill="#F4442E"/>
<path d="M36.7744 4.90332H12.2583V7.35493H36.7744V4.90332Z" fill="#F4442E"/>
<path d="M30.645 9.80664H17.1611V12.2583H30.645V9.80664Z" fill="#F4442E"/>
<path d="M41.6773 17.1611H19.6128V19.6127H41.6773V17.1611Z" fill="#F4442E"/>
<path d="M41.6773 26.9678H19.6128V29.4194H41.6773V26.9678Z" fill="#F4442E"/>
<path d="M41.6773 36.7744H19.6128V39.226H41.6773V36.7744Z" fill="#F4442E"/>
<path d="M41.6773 46.5806H19.6128V49.0322H41.6773V46.5806Z" fill="#F4442E"/>
<path d="M41.6773 56.3872H19.6128V58.8388H41.6773V56.3872Z" fill="#F4442E"/>
<path d="M60.0131 8.22898C59.8574 7.71046 59.3794 7.35498 58.8388 7.35498C58.2982 7.35498 57.8201 7.71046 57.6644 8.22898L53.987 20.487C53.9527 20.601 53.9355 20.7199 53.9355 20.8389V74.7743C53.9355 75.451 54.4847 76.0001 55.1614 76.0001H62.5162C63.1928 76.0001 63.742 75.451 63.742 74.7743V20.8389C63.742 20.7199 63.7248 20.601 63.6905 20.487L60.0131 8.22898ZM58.8388 12.8466L60.8687 19.613H56.8088L58.8388 12.8466ZM61.2904 22.0647V66.1937H56.3872V22.0647H61.2904ZM56.3872 73.5485V68.6453H61.2904V73.5485H56.3872Z" fill="#F4442E"/>
<path d="M74.774 51.484V12.2582C74.774 12.1025 74.7446 11.948 74.687 11.8022L72.2354 5.67313C72.0478 5.20855 71.5979 4.90332 71.0966 4.90332C70.5952 4.90332 70.1454 5.20855 69.9578 5.67313L67.5062 11.8022C67.4486 11.948 67.4192 12.1025 67.4192 12.2582V51.484C66.7425 51.484 66.1934 52.0331 66.1934 52.7098V67.4194C66.1934 68.0961 66.7425 68.6453 67.4192 68.6453V74.7743C67.4192 75.4509 67.9683 76.0001 68.645 76.0001H73.5482C74.2248 76.0001 74.774 75.4509 74.774 74.7743V68.6453C75.4507 68.6453 75.9998 68.0961 75.9998 67.4194V52.7098C75.9998 52.0331 75.4507 51.484 74.774 51.484ZM71.0966 9.429L72.228 12.2582H69.9652L71.0966 9.429ZM69.8708 14.7098H72.3224V51.484H69.8708V14.7098ZM73.5482 66.1936H68.645V53.9356H73.5482V66.1936ZM72.3224 73.5485H69.8708V68.6453H72.3224V73.5485Z" fill="#F4442E"/>
</svg>