<svg width="49" height="49" viewBox="0 0 49 49" fill="none" xmlns="http://www.w3.org/2000/svg">
<path d="M6.00081 48.014H0V32.5831H6.00081V48.014ZM47.4184 33.6543L30.0391 48.014H7.71557V38.5841H8.37865L8.21274 38.6591L8.92105 40.2207L12.7 38.507L18.1839 36.0107L20.9178 36.0122L30.859 36.0107C31.3137 36.0107 31.7499 36.1913 32.0715 36.5129C32.3931 36.8345 32.5737 37.2707 32.5737 37.7254C32.5737 38.1802 32.3931 38.6164 32.0715 38.938C31.7499 39.2595 31.3137 39.4402 30.859 39.4402L23.7377 39.4413C23.5363 39.4413 23.3414 39.5122 23.187 39.6415L21.6525 40.9275L22.7539 42.2419L24.0495 41.156H30.3473C30.3549 41.156 30.3625 41.1552 30.3703 41.155H30.8593C31.5853 41.154 32.2924 40.9229 32.879 40.495C33.4655 40.0671 33.9014 39.4643 34.1241 38.7733L45.4032 31.1236C45.4107 31.1186 45.418 31.1129 45.4254 31.1081C45.7045 30.903 46.0417 30.792 46.3881 30.7913C46.6011 30.7916 46.8119 30.8342 47.0083 30.9166C47.2047 30.999 47.3829 31.1195 47.5323 31.2713C47.6916 31.4299 47.8159 31.6201 47.8971 31.8297C47.9784 32.0392 48.0148 32.2635 48.0041 32.488C47.9933 32.7125 47.9357 32.9323 47.8348 33.1331C47.7339 33.334 47.5921 33.5115 47.4184 33.6542V33.6543Z" fill="#F4442E"/>
<path d="M24.0062 16.2913C22.3042 16.2913 20.663 16.9242 19.4016 18.0669C18.1402 19.2095 17.3487 20.7803 17.1809 22.474C17.0131 24.1677 17.481 25.8633 18.4936 27.2313C19.5062 28.5992 20.9913 29.5419 22.6602 29.8759L21.6849 28.9007L22.8975 27.6881L25.1257 29.9162C26.823 29.6336 28.3522 28.7234 29.4098 27.3661C30.4674 26.0088 30.9762 24.3035 30.8353 22.5886C30.6944 20.8737 29.914 19.2744 28.649 18.1079C27.3841 16.9414 25.7269 16.293 24.0062 16.2913ZM29.1505 24.0077H25.4897C25.3583 24.2354 25.1763 24.4299 24.9577 24.576C24.7391 24.7222 24.4898 24.8161 24.2292 24.8504C23.9685 24.8848 23.7034 24.8587 23.4544 24.7742C23.2054 24.6897 22.9792 24.5491 22.7933 24.3632C22.6074 24.1772 22.4668 23.951 22.3823 23.7021C22.2978 23.4531 22.2717 23.188 22.3061 22.9273C22.3404 22.6667 22.4343 22.4174 22.5804 22.1988C22.7266 21.9802 22.921 21.7982 23.1488 21.6668V19.7208H24.8636V21.6668C25.1233 21.8174 25.3391 22.0332 25.4897 22.2929H29.1505V24.0077Z" fill="#F4442E"/>
<path d="M34.2959 8.57473C32.8775 8.57605 31.4943 9.01626 30.3361 9.83496C29.1779 10.6537 28.3014 11.8107 27.8269 13.1474L26.2101 12.5759C26.6003 11.4757 27.2109 10.4666 28.0045 9.61046C28.7981 8.75431 29.7581 8.06907 30.8256 7.59668C30.8522 7.352 30.8658 7.10609 30.8664 6.85997C30.8664 5.67477 30.5594 4.50978 29.9752 3.47855C29.391 2.44733 28.5496 1.58505 27.533 0.975784C26.5164 0.366514 25.3593 0.0310364 24.1744 0.00205198C22.9896 -0.0269324 21.8174 0.251566 20.7723 0.810399C19.7271 1.36923 18.8445 2.18933 18.2106 3.19076C17.5767 4.19219 17.2131 5.34078 17.1552 6.52456C17.0973 7.70834 17.3471 8.88694 17.8802 9.94545C18.4134 11.004 19.2117 11.9063 20.1973 12.5644L19.2435 13.9898C17.4522 12.7868 16.1772 10.9558 15.67 8.85853C14.7266 8.57836 13.7339 8.50451 12.7594 8.64198C11.7848 8.77945 10.8513 9.12503 10.0222 9.65525C9.19303 10.1855 8.48771 10.8879 7.9541 11.7149C7.42049 12.5418 7.07109 13.4739 6.92963 14.4479C6.78816 15.4218 6.85795 16.4148 7.13425 17.3594C7.41055 18.304 7.88689 19.1781 8.53092 19.9223C9.17495 20.6664 9.97158 21.2633 10.8667 21.6724C11.7619 22.0814 12.7346 22.293 13.7187 22.2928H15.4764C15.6887 20.1778 16.6791 18.217 18.2554 16.791C19.8318 15.365 21.8816 14.5753 24.0073 14.5753C26.133 14.5753 28.1828 15.365 29.7592 16.791C31.3355 18.217 32.3259 20.1778 32.5382 22.2928H34.2959C36.115 22.2928 37.8596 21.5702 39.146 20.2839C40.4323 18.9975 41.1549 17.2529 41.1549 15.4338C41.1549 13.6146 40.4323 11.87 39.146 10.5837C37.8596 9.29738 36.115 8.57473 34.2959 8.57473Z" fill="#F4442E"/>
</svg>
