<svg width="120" height="57" viewBox="0 0 120 57" fill="none" xmlns="http://www.w3.org/2000/svg">
<path d="M28.5 2H7.3C5.89435 2 4.54628 2.55839 3.55233 3.55233C2.55839 4.54628 2 5.89435 2 7.3V49.7C2 51.1056 2.55839 52.4537 3.55233 53.4477C4.54628 54.4416 5.89435 55 7.3 55H39.1C40.5056 55 41.8537 54.4416 42.8477 53.4477C43.8416 52.4537 44.4 51.1056 44.4 49.7V17.9L28.5 2Z" stroke="#F4442E" stroke-width="2.5" stroke-linecap="round" stroke-linejoin="round"/>
<path d="M28.5 2V17.9H44.4" stroke="#F4442E" stroke-width="2.5" stroke-linecap="round" stroke-linejoin="round"/>
<path d="M33.8001 31.1499H12.6001" stroke="#F4442E" stroke-width="2.5" stroke-linecap="round" stroke-linejoin="round"/>
<path d="M33.8001 41.75H12.6001" stroke="#F4442E" stroke-width="2.5" stroke-linecap="round" stroke-linejoin="round"/>
<path d="M17.9001 20.5498H15.2501H12.6001" stroke="#F4442E" stroke-width="2.5" stroke-linecap="round" stroke-linejoin="round"/>
<path d="M102.5 2H81.3C79.8944 2 78.5463 2.55839 77.5523 3.55233C76.5584 4.54628 76 5.89435 76 7.3V49.7C76 51.1056 76.5584 52.4537 77.5523 53.4477C78.5463 54.4416 79.8944 55 81.3 55H113.1C114.506 55 115.854 54.4416 116.848 53.4477C117.842 52.4537 118.4 51.1056 118.4 49.7V17.9L102.5 2Z" stroke="#F4442E" stroke-width="2.5" stroke-linecap="round" stroke-linejoin="round"/>
<path d="M102.5 2V17.9H118.4" stroke="#F4442E" stroke-width="2.5" stroke-linecap="round" stroke-linejoin="round"/>
<path d="M107.8 31.1499H86.6001" stroke="#F4442E" stroke-width="2.5" stroke-linecap="round" stroke-linejoin="round"/>
<path d="M107.8 41.75H86.6001" stroke="#F4442E" stroke-width="2.5" stroke-linecap="round" stroke-linejoin="round"/>
<path d="M91.9001 20.5498H89.2501H86.6001" stroke="#F4442E" stroke-width="2.5" stroke-linecap="round" stroke-linejoin="round"/>
<path d="M52 22L68 22" stroke="#F4442E" stroke-width="2.5" stroke-linecap="round" stroke-linejoin="round"/>
<path d="M63 17L68 22L63 27" stroke="#F4442E" stroke-width="2.5" stroke-linecap="round" stroke-linejoin="round"/>
<path d="M68 39L52 39" stroke="#F4442E" stroke-width="2.5" stroke-linecap="round" stroke-linejoin="round"/>
<path d="M57 44L52 39L57 34" stroke="#F4442E" stroke-width="2.5" stroke-linecap="round" stroke-linejoin="round"/>
</svg>