<svg width="32" height="26" viewBox="0 0 32 26" fill="none" xmlns="http://www.w3.org/2000/svg">
<path d="M31.584 3.51638C30.4178 4.02793 29.1752 4.367 27.8796 4.53164C29.2124 3.73589 30.2296 2.48544 30.7079 0.97823C29.4653 1.71909 28.0933 2.2424 26.6311 2.53444C25.4513 1.2781 23.7696 0.5 21.9351 0.5C18.3758 0.5 15.5103 3.38898 15.5103 6.93063C15.5103 7.44022 15.5535 7.93021 15.6593 8.39668C10.3145 8.136 5.5851 5.57434 2.408 1.67206C1.85334 2.6344 1.52798 3.73589 1.52798 4.92167C1.52798 7.14818 2.67456 9.12186 4.38364 10.2645C3.35075 10.2449 2.33745 9.94505 1.47898 9.4727C1.47898 9.4923 1.47898 9.51777 1.47898 9.54325C1.47898 12.6674 3.70746 15.2624 6.62976 15.8602C6.10645 16.0033 5.5361 16.0719 4.94419 16.0719C4.5326 16.0719 4.11709 16.0484 3.72706 15.9621C4.56004 18.5081 6.92375 20.3799 9.73433 20.4406C7.54702 22.1517 4.76976 23.1826 1.76318 23.1826C1.23595 23.1826 0.730279 23.1591 0.224609 23.0944C3.07243 24.9309 6.44748 25.9795 10.0871 25.9795C21.9174 25.9795 28.3853 16.1797 28.3853 7.68521C28.3853 7.40102 28.3755 7.12662 28.3618 6.85419C29.6377 5.94869 30.7098 4.81779 31.584 3.51638Z" fill="#303030"/>
</svg>