<svg width="143" height="37" viewBox="0 0 143 37" fill="none" xmlns="http://www.w3.org/2000/svg">
<rect width="143" height="36.7953" rx="5" fill="#25D366"/>
<path d="M29.6131 18.1395C29.6131 23.5387 25.2021 27.9157 19.7597 27.9157C18.0326 27.9157 16.4102 27.4739 14.9979 26.7004L9.54297 28.4327L11.3211 23.186C10.4245 21.7134 9.90815 19.9844 9.90815 18.1388C9.90881 12.7395 14.3185 8.36255 19.761 8.36255C25.2028 8.36386 29.6131 12.7402 29.6131 18.1395ZM19.759 9.92146C15.1916 9.92146 11.4762 13.6087 11.4762 18.1414C11.4762 19.9399 12.0626 21.6048 13.0541 22.9595L12.0201 26.0112L15.202 25.0001C16.511 25.8588 18.0771 26.3588 19.759 26.3588C24.3265 26.3588 28.0431 22.6722 28.0431 18.1395C28.0444 13.6087 24.3271 9.92146 19.759 9.92146ZM24.7355 20.3914C24.674 20.2926 24.513 20.2324 24.2721 20.112C24.032 19.9916 22.8428 19.4124 22.6223 19.3338C22.3997 19.2533 22.2387 19.2128 22.0777 19.4529C21.9187 19.6931 21.4554 20.2324 21.3133 20.3934C21.1726 20.5537 21.0319 20.574 20.7904 20.4556C20.5489 20.3338 19.7701 20.0825 18.8474 19.2664C18.1294 18.6303 17.6445 17.8469 17.5044 17.6067C17.3624 17.3672 17.49 17.2376 17.6098 17.1185C17.7178 17.0105 17.8513 16.8384 17.9724 16.6977C18.0934 16.5583 18.1333 16.4595 18.2138 16.2991C18.293 16.1388 18.2531 15.9994 18.1936 15.8783C18.1333 15.7579 17.651 14.5799 17.4488 14.1002C17.2479 13.6211 17.047 13.7003 16.9056 13.7003C16.7649 13.7003 16.6039 13.6807 16.4429 13.6807C16.2819 13.6807 16.0201 13.7389 15.7996 13.9791C15.579 14.2193 14.9547 14.7985 14.9547 15.9778C14.9547 17.1584 15.8192 18.2965 15.9403 18.4562C16.062 18.6152 17.6117 21.1146 20.0666 22.074C22.5228 23.0328 22.5228 22.7128 22.9652 22.6722C23.4089 22.6316 24.3945 22.093 24.5948 21.5341C24.7964 20.9726 24.7964 20.4916 24.7355 20.3914Z" fill="white"/>
<path d="M46.457 23.1033C46.9217 23.1033 47.4147 23.0523 47.936 22.9503C48.4687 22.8483 48.9447 22.7123 49.364 22.5423V24.3613C48.7407 24.6107 48.1797 24.7807 47.681 24.8713C47.1937 24.9733 46.6837 25.0243 46.151 25.0243C44.4623 25.0243 43.2837 24.605 42.615 23.7663C41.9463 22.9163 41.612 21.4997 41.612 19.5163C41.612 17.6237 42.0087 16.241 42.802 15.3683C43.5953 14.4843 44.8703 14.0423 46.627 14.0423C47.1483 14.0423 47.613 14.0537 48.021 14.0763C48.429 14.099 48.7973 14.1387 49.126 14.1953V15.9803C48.6953 15.9463 48.276 15.9237 47.868 15.9123C47.4713 15.8897 47.0577 15.8783 46.627 15.8783C45.4823 15.8783 44.706 16.1447 44.298 16.6773C43.9013 17.21 43.703 18.1563 43.703 19.5163C43.703 20.8763 43.8843 21.817 44.247 22.3383C44.621 22.8483 45.3577 23.1033 46.457 23.1033ZM52.6228 24.8713H50.6508V13.5663H52.6228V17.1023C53.0988 16.8417 53.5748 16.6433 54.0508 16.5073C54.5268 16.3713 54.9858 16.3033 55.4278 16.3033C56.3685 16.3033 57.0712 16.5357 57.5358 17.0003C58.0118 17.4537 58.2498 18.1393 58.2498 19.0573V24.8713H56.2778V19.3123C56.2778 18.8817 56.1588 18.57 55.9208 18.3773C55.6942 18.1733 55.3258 18.0713 54.8158 18.0713C54.4645 18.0713 54.0962 18.111 53.7108 18.1903C53.3255 18.2697 52.9628 18.3773 52.6228 18.5133V24.8713ZM62.0193 25.0243C61.158 25.0243 60.5233 24.8147 60.1153 24.3953C59.7186 23.9647 59.5203 23.296 59.5203 22.3893C59.5203 21.46 59.7583 20.8027 60.2343 20.4173C60.7216 20.032 61.5546 19.8393 62.7333 19.8393C63.062 19.8393 63.3963 19.8563 63.7363 19.8903C64.0763 19.9243 64.371 19.9697 64.6203 20.0263V19.3123C64.6203 18.8703 64.4843 18.5473 64.2123 18.3433C63.9403 18.1393 63.5096 18.0373 62.9203 18.0373C62.3876 18.0373 61.9116 18.0543 61.4923 18.0883C61.0843 18.1223 60.6933 18.179 60.3193 18.2583V16.6093C60.75 16.5073 61.2146 16.4337 61.7133 16.3883C62.2233 16.3317 62.824 16.3033 63.5153 16.3033C64.5466 16.3033 65.3173 16.5413 65.8273 17.0173C66.3373 17.482 66.5923 18.1847 66.5923 19.1253V24.8713H64.7733L64.6883 24.1233H64.6543C64.2916 24.3953 63.8723 24.6163 63.3963 24.7863C62.9316 24.945 62.4726 25.0243 62.0193 25.0243ZM62.9713 21.2503C62.3593 21.2503 61.94 21.324 61.7133 21.4713C61.4866 21.6073 61.3733 21.8737 61.3733 22.2703C61.3733 22.6557 61.464 22.9333 61.6453 23.1033C61.838 23.262 62.161 23.3413 62.6143 23.3413C62.943 23.3413 63.2886 23.296 63.6513 23.2053C64.0253 23.1033 64.3483 22.9787 64.6203 22.8313V21.3863C64.3483 21.341 64.0763 21.307 63.8043 21.2843C63.5436 21.2617 63.266 21.2503 62.9713 21.2503ZM73.5679 23.0353V24.7183C73.3752 24.7977 73.1032 24.8657 72.7519 24.9223C72.4119 24.9903 72.1002 25.0243 71.8169 25.0243C70.7402 25.0243 69.9695 24.792 69.5049 24.3273C69.0402 23.8513 68.8079 23.0637 68.8079 21.9643V18.1223H67.6859V16.4733H68.8589L69.1309 14.4673H70.7799V16.4733H73.4659V18.1223H70.7799V21.8963C70.7799 22.395 70.8875 22.735 71.1029 22.9163C71.3182 23.0977 71.7035 23.1883 72.2589 23.1883C72.4515 23.1883 72.6782 23.177 72.9389 23.1543C73.1995 23.1203 73.4092 23.0807 73.5679 23.0353ZM86.3249 16.4733H88.4839L86.1889 24.8713H83.8769L82.3809 19.1933L81.0379 24.8713H78.7599L76.4649 16.4733H78.6239L79.9329 23.0523L81.4969 16.4733H83.3839L85.0159 23.0523L86.3249 16.4733ZM91.6045 15.2833H89.5135V13.5663H91.6045V15.2833ZM91.5535 24.8713H89.5815V16.4733H91.5535V24.8713ZM98.6528 23.0353V24.7183C98.4602 24.7977 98.1882 24.8657 97.8368 24.9223C97.4968 24.9903 97.1852 25.0243 96.9018 25.0243C95.8252 25.0243 95.0545 24.792 94.5898 24.3273C94.1252 23.8513 93.8928 23.0637 93.8928 21.9643V18.1223H92.7708V16.4733H93.9438L94.2158 14.4673H95.8648V16.4733H98.5508V18.1223H95.8648V21.8963C95.8648 22.395 95.9725 22.735 96.1878 22.9163C96.4032 23.0977 96.7885 23.1883 97.3438 23.1883C97.5365 23.1883 97.7632 23.177 98.0238 23.1543C98.2845 23.1203 98.4942 23.0807 98.6528 23.0353ZM101.763 24.8713H99.7914V13.5663H101.763V17.1023C102.239 16.8417 102.715 16.6433 103.191 16.5073C103.667 16.3713 104.126 16.3033 104.568 16.3033C105.509 16.3033 106.212 16.5357 106.676 17.0003C107.152 17.4537 107.39 18.1393 107.39 19.0573V24.8713H105.418V19.3123C105.418 18.8817 105.299 18.57 105.061 18.3773C104.835 18.1733 104.466 18.0713 103.956 18.0713C103.605 18.0713 103.237 18.111 102.851 18.1903C102.466 18.2697 102.103 18.3773 101.763 18.5133V24.8713ZM114.665 25.0243C113.724 25.0243 113.021 24.792 112.557 24.3273C112.092 23.8513 111.86 23.143 111.86 22.2023V16.4733H113.832V21.9473C113.832 22.378 113.945 22.6897 114.172 22.8823C114.398 23.075 114.767 23.1713 115.277 23.1713C115.594 23.1713 115.917 23.1373 116.246 23.0693C116.574 23.0013 116.88 22.9107 117.164 22.7973V16.4733H119.136V24.8713H117.317L117.249 24.2933H117.198C116.733 24.5313 116.285 24.7127 115.855 24.8373C115.435 24.962 115.039 25.0243 114.665 25.0243ZM124.153 18.0033C123.553 18.0033 123.139 18.0657 122.912 18.1903C122.697 18.3037 122.589 18.5587 122.589 18.9553C122.589 19.148 122.635 19.2953 122.725 19.3973C122.816 19.488 122.969 19.5503 123.184 19.5843L125.275 19.8903C125.944 19.981 126.409 20.1907 126.669 20.5193C126.941 20.848 127.077 21.3693 127.077 22.0833C127.077 23.1147 126.839 23.8627 126.363 24.3273C125.887 24.792 125.077 25.0243 123.932 25.0243C123.275 25.0243 122.674 24.996 122.13 24.9393C121.586 24.8827 121.127 24.7977 120.753 24.6843V22.9333C121.105 23.024 121.535 23.1033 122.045 23.1713C122.555 23.228 123.071 23.2563 123.592 23.2563C124.182 23.2563 124.578 23.1827 124.782 23.0353C124.998 22.888 125.105 22.6103 125.105 22.2023C125.105 21.9983 125.054 21.8453 124.952 21.7433C124.85 21.63 124.68 21.5563 124.442 21.5223L122.317 21.2163C121.739 21.137 121.314 20.9217 121.042 20.5703C120.77 20.2077 120.634 19.6863 120.634 19.0063C120.634 18.0883 120.912 17.4083 121.467 16.9663C122.034 16.5243 122.89 16.3033 124.034 16.3033C124.499 16.3033 124.924 16.3147 125.309 16.3373C125.695 16.36 126.091 16.4053 126.499 16.4733V18.1563C126.205 18.111 125.848 18.077 125.428 18.0543C125.02 18.0203 124.595 18.0033 124.153 18.0033Z" fill="#F9F9F9"/>
</svg>
