<svg width="70" height="59" viewBox="0 0 70 59" fill="none" xmlns="http://www.w3.org/2000/svg">
<path d="M68.9946 11.1404V1.55945C68.9946 1.48598 68.9802 1.41322 68.9522 1.34533C68.9242 1.27744 68.8832 1.21575 68.8314 1.1638C68.7796 1.11184 68.7182 1.07063 68.6505 1.04253C68.5829 1.01442 68.5104 0.99997 68.4372 1H1.55737C1.48416 0.99997 1.41166 1.01442 1.34401 1.04253C1.27637 1.07063 1.21491 1.11184 1.16314 1.1638C1.11138 1.21575 1.07033 1.27744 1.04233 1.34533C1.01434 1.41322 0.999955 1.48598 1 1.55945V11.1601L1.00068 11.1637L1 11.1675V57.4408C0.99997 57.5142 1.01437 57.587 1.04237 57.6549C1.07037 57.7227 1.11143 57.7844 1.16319 57.8363C1.21496 57.8883 1.27641 57.9294 1.34405 57.9575C1.41169 57.9856 1.48418 58 1.55737 58H68.4426C68.5158 58 68.5883 57.9856 68.6559 57.9575C68.7236 57.9294 68.785 57.8882 68.8368 57.8363C68.8885 57.7844 68.9296 57.7227 68.9576 57.6548C68.9856 57.587 69 57.5142 69 57.4408V11.1675C69 11.1579 68.995 11.15 68.9946 11.1404ZM2.11475 2.11889H67.8798V10.6004H2.11475V2.11889ZM67.8853 56.8813H2.11475V11.7271H67.8853V56.8813ZM7.3189 4.55059C6.96234 4.55059 6.61378 4.65669 6.31731 4.85549C6.02084 5.05428 5.78977 5.33684 5.65333 5.66742C5.51688 5.998 5.48118 6.36176 5.55076 6.7127C5.62033 7.06364 5.79204 7.386 6.04417 7.639C6.29631 7.89201 6.61755 8.0643 6.96726 8.1341C7.31698 8.20389 7.67946 8.16805 8.00888 8.0311C8.33829 7.89415 8.61984 7.66225 8.81792 7.36473C9.016 7.06721 9.12172 6.71742 9.12169 6.3596C9.12109 5.87999 8.93096 5.42019 8.593 5.08106C8.25504 4.74193 7.79684 4.55116 7.3189 4.55059ZM7.3189 7.05007C7.18281 7.05009 7.04977 7.00961 6.93661 6.93376C6.82345 6.8579 6.73524 6.75007 6.68315 6.62391C6.63105 6.49775 6.61741 6.35891 6.64395 6.22497C6.67048 6.09102 6.736 5.96798 6.83222 5.87141C6.92844 5.77484 7.05104 5.70906 7.18451 5.68241C7.31799 5.65576 7.45633 5.66943 7.58206 5.72168C7.7078 5.77394 7.81526 5.86244 7.89087 5.97599C7.96648 6.08954 8.00683 6.22304 8.00683 6.3596C8.00653 6.54261 7.93396 6.71804 7.80502 6.84746C7.67607 6.97688 7.50127 7.04974 7.3189 7.05007ZM24.1993 28.6141C24.6482 32.4964 25.8712 36.2483 27.7956 39.6461C28.3281 40.5983 28.917 41.5177 29.5592 42.3991C31.0147 44.4273 32.7243 46.2591 34.6457 47.8495C34.7454 47.9321 34.8707 47.9773 35.0001 47.9773C35.1294 47.9773 35.2547 47.9321 35.3544 47.8495C37.2749 46.2601 38.9837 44.4294 40.4389 42.4026C41.0815 41.5204 41.6708 40.6003 42.2036 39.6473C44.1276 36.2515 45.3509 32.5019 45.8007 28.6218C45.8839 27.9718 45.9405 27.3107 45.9732 26.6041L46.1811 22.5138C46.1854 22.4289 46.1704 22.3442 46.1371 22.266C46.1039 22.1879 46.0534 22.1183 45.9895 22.0626C45.9253 22.0075 45.8497 21.9676 45.7681 21.9456C45.6866 21.9237 45.6011 21.9204 45.5181 21.9359L44.4824 22.138C43.6183 22.3123 42.7389 22.3991 41.8576 22.397C39.5541 22.3949 37.2882 21.811 35.2687 20.6991C35.1864 20.654 35.0941 20.6304 35.0003 20.6304C34.9066 20.6304 34.8143 20.654 34.732 20.6991C32.7125 21.811 30.4467 22.3949 28.1433 22.397C27.2602 22.399 26.379 22.3119 25.5132 22.137L24.4828 21.9359C24.3998 21.9204 24.3143 21.9237 24.2328 21.9456C24.1512 21.9675 24.0756 22.0075 24.0114 22.0626C23.9475 22.1183 23.897 22.1879 23.8638 22.266C23.8306 22.3442 23.8155 22.4289 23.8198 22.5138L24.0277 26.6008C24.0598 27.3107 24.1165 27.9718 24.1993 28.6141ZM25.2949 23.2346C26.2325 23.4232 27.1866 23.5172 28.1429 23.5152C30.5307 23.5127 32.8828 22.9328 35 21.8246C37.1172 22.9329 39.4693 23.5129 41.8572 23.5154C42.8116 23.5175 43.7638 23.4239 44.6996 23.236L45.0311 23.1704L44.8592 26.5482C44.828 27.2287 44.7742 27.8591 44.6937 28.4852C44.2616 32.2202 43.0844 35.8296 41.2324 39.0983C40.7207 40.0135 40.1547 40.8971 39.5374 41.7442C38.2281 43.5691 36.7046 45.2292 35 46.6888C33.2942 45.2285 31.7701 43.5673 30.4604 41.7409C29.8437 40.8945 29.278 40.0116 28.7667 39.0971C26.9142 35.8264 25.7372 32.2147 25.3058 28.4776C25.2259 27.8591 25.172 27.2287 25.1409 26.5449L24.9689 23.1704L25.2949 23.2346ZM18.4987 4.55059C18.1421 4.55056 17.7935 4.65665 17.497 4.85543C17.2006 5.05421 16.9695 5.33676 16.833 5.66734C16.6965 5.99792 16.6608 6.36168 16.7304 6.71263C16.8 7.06358 16.9717 7.38594 17.2238 7.63896C17.4759 7.89198 17.7972 8.06429 18.1469 8.13409C18.4966 8.20389 18.8591 8.16805 19.1885 8.03111C19.5179 7.89417 19.7995 7.66227 19.9976 7.36474C20.1957 7.06721 20.3014 6.71742 20.3013 6.3596C20.3007 5.88001 20.1106 5.42023 19.7727 5.0811C19.4348 4.74197 18.9766 4.55119 18.4987 4.55059ZM18.4987 7.05007C18.3626 7.05007 18.2296 7.00957 18.1164 6.9337C18.0033 6.85783 17.9151 6.75 17.863 6.62383C17.8109 6.49766 17.7973 6.35884 17.8238 6.2249C17.8504 6.09096 17.9159 5.96793 18.0121 5.87137C18.1084 5.77481 18.231 5.70905 18.3644 5.6824C18.4979 5.65576 18.6362 5.66944 18.762 5.72169C18.8877 5.77395 18.9952 5.86245 19.0708 5.976C19.1464 6.08955 19.1867 6.22304 19.1867 6.3596C19.1864 6.54264 19.1139 6.71811 18.9849 6.84753C18.8559 6.97696 18.6811 7.0498 18.4987 7.05007ZM12.9085 4.55059C12.5519 4.55059 12.2034 4.65669 11.9069 4.85549C11.6104 5.05428 11.3794 5.33684 11.2429 5.66742C11.1065 5.998 11.0708 6.36176 11.1404 6.7127C11.2099 7.06364 11.3816 7.386 11.6338 7.639C11.8859 7.89201 12.2071 8.0643 12.5569 8.1341C12.9066 8.20389 13.2691 8.16805 13.5985 8.0311C13.9279 7.89415 14.2094 7.66225 14.4075 7.36473C14.6056 7.06721 14.7113 6.71742 14.7113 6.3596C14.7107 5.88006 14.5206 5.42034 14.1828 5.08122C13.8449 4.7421 13.3868 4.55128 12.909 4.55059H12.9085ZM12.9085 7.05007C12.7724 7.05007 12.6394 7.00957 12.5262 6.9337C12.4131 6.85783 12.3249 6.75 12.2728 6.62383C12.2208 6.49766 12.2071 6.35884 12.2337 6.2249C12.2602 6.09096 12.3258 5.96793 12.422 5.87137C12.5182 5.77481 12.6408 5.70905 12.7743 5.6824C12.9077 5.65576 13.0461 5.66944 13.1718 5.72169C13.2975 5.77395 13.405 5.86245 13.4806 5.976C13.5562 6.08955 13.5965 6.22304 13.5965 6.3596C13.5962 6.54255 13.5237 6.71793 13.3949 6.84734C13.266 6.97675 13.0913 7.04965 12.909 7.05007H12.9085ZM29.649 32.0938C29.6008 32.0385 29.5639 31.9743 29.5405 31.9047C29.5171 31.8352 29.5075 31.7617 29.5124 31.6884C29.5173 31.6151 29.5365 31.5436 29.5689 31.4778C29.6014 31.412 29.6464 31.3532 29.7015 31.3049C29.7566 31.2565 29.8206 31.2195 29.8899 31.196C29.9592 31.1725 30.0324 31.1629 30.1054 31.1678C30.1784 31.1727 30.2498 31.192 30.3153 31.2246C30.3809 31.2571 30.4395 31.3023 30.4876 31.3576L33.0186 34.2568L39.5706 28.6679C39.6832 28.5719 39.8292 28.5247 39.9765 28.5367C40.1238 28.5487 40.2603 28.6189 40.356 28.7319C40.4517 28.8449 40.4988 28.9914 40.4868 29.1392C40.4749 29.287 40.4049 29.424 40.2923 29.52L33.3223 35.4662C33.2108 35.5615 33.0665 35.6088 32.9204 35.598C32.7744 35.5872 32.6386 35.519 32.5423 35.4084L29.649 32.0938Z" fill="#F4442E" stroke="#F4442E" stroke-width="1.2"/>
</svg>
